<?xml version="1.0" encoding="utf-8"?>
<!-- Generator: Adobe Illustrator 19.2.0, SVG Export Plug-In . SVG Version: 6.00 Build 0)  -->
<svg version="1.1" id="Main_Layer" xmlns="http://www.w3.org/2000/svg" xmlns:xlink="http://www.w3.org/1999/xlink" x="0px" y="0px"
	 viewBox="0 0 392.8 326" style="enable-background:new 0 0 392.8 326;" xml:space="preserve">
<style type="text/css">
	.st0{fill:#E6DBB6;}
	.st1{fill:#3D3A39;}
	.st2{font-family:'HiraKakuPro-W3-83pv-RKSJ-H';}
	.st3{font-size:11px;}
	.st4{letter-spacing:-5;}
	.st5{letter-spacing:2;}
	.st6{letter-spacing:7;}
	.st7{font-family:'HiraKakuPro-W6-83pv-RKSJ-H';}
</style>
<g id="Sample_PopUp">
	<g>
		<g>
			<path class="st0" d="M376.5,309H17.9c-2.8,0-5-2.2-5-5V35.8c0-2.8,2.2-5,5-5h358.5c2.8,0,5,2.2,5,5V304
				C381.5,306.7,379.2,309,376.5,309z"/>
			<g>
				<text transform="matrix(1 0 0 1 89.3453 52.0607)"><tspan x="0" y="0" class="st1 st2 st3">HTML、CSS、Flash、Dreamweaver</tspan><tspan x="191.5" y="0" class="st1 st2 st3 st4">、</tspan><tspan x="0" y="19.2" class="st1 st2 st3">Fireworks、Illustrator、Photosho</tspan><tspan x="178.3" y="19.2" class="st1 st2 st3 st5">p</tspan><tspan x="188.1" y="19.2" class="st1 st2 st3">等を活用</tspan><tspan x="0" y="38.5" class="st1 st2 st3">したホームページ制作に関わる一切の業務</tspan></text>
			</g>
			<g>
				<text transform="matrix(1 0 0 1 83.8453 112.8824)"><tspan x="0" y="0" class="st1 st2 st3">【年齢】不問（実力重視</tspan><tspan x="121" y="0" class="st1 st2 st3 st4">）</tspan><tspan x="0" y="19.2" class="st1 st2 st3">【学歴】高卒以上</tspan><tspan x="0" y="38.5" class="st1 st2 st3">【実務経験】ウェブ制作経験</tspan><tspan x="143" y="38.5" class="st1 st2 st3 st5">が2</tspan><tspan x="166.7" y="38.5" class="st1 st2 st3">年以上ある方</tspan><tspan x="5.5" y="57.8" class="st1 st2 st3">※アルバイトの場合はホームページ作成の経験のある方</tspan><tspan x="5.5" y="77" class="st1 st2 st3">HTML、CSS</tspan><!--tspan x="64.9" y="77" class="st1 st2 st3 st5"></tspan--><tspan x="75" y="77" class="st1 st2 st3">の知識</tspan><tspan x="5.5" y="96.2" class="st1 st2 st3">Flash、Dreamweaver、Fireworks、</tspan><!--tspan x="183" y="96.2" class="st1 st2 st3 st4"></tspan--><tspan x="5.5" y="115.5" class="st1 st2 st3">Illustrator、Photoshop</tspan><!--tspan x="120" y="115.5" class="st1 st2 st3 st5"></tspan--><tspan x="129.9" y="115.5" class="st1 st2 st3">必須</tspan><tspan x="5.5" y="134.8" class="st1 st2 st3">※ActionScript、PHP、JavaScript、MySQL</tspan><tspan x="5.5" y="154" class="st1 st2 st3">扱える方歓迎致します</tspan><tspan x="115.5" y="154" class="st1 st2 st3 st4">。</tspan></text>
			</g>
			<g>
				<text transform="matrix(1 0 0 1 88.6754 290.3522)"><tspan x="0" y="0" class="st1 st2 st3">応相談</tspan><tspan x="33" y="0" class="st1 st2 st3 st6"> </tspan><tspan x="44" y="0" class="st1 st2 st3">※能力・年齢に応じて決定致します</tspan><tspan x="220" y="0" class="st1 st2 st3 st4">。</tspan></text>
			</g>
			<g>
				<text transform="matrix(1 0 0 1 25.6637 52.0602)" class="st1 st7 st3">仕事内容</text>
			</g>
			<g>
				<text transform="matrix(1 0 0 1 25.6637 112.882)" class="st1 st7 st3">応募資格</text>
			</g>
			<g>
				<text transform="matrix(1 0 0 1 25.6627 290.3522)" class="st1 st7 st3">給与</text>
			</g>
		</g>
	</g>
</g>
</svg>
