<?xml version="1.0" encoding="utf-8"?>
<!-- Generator: Adobe Illustrator 19.2.0, SVG Export Plug-In . SVG Version: 6.00 Build 0)  -->
<svg version="1.1" id="Main_Layer" xmlns="http://www.w3.org/2000/svg" xmlns:xlink="http://www.w3.org/1999/xlink" x="0px" y="0px"
	 viewBox="0 0 446 328.1" style="enable-background:new 0 0 446 328.1;" xml:space="preserve">
<style type="text/css">
	.st0{fill:#FFFFFF;}
	.st1{font-family:'HiraKakuPro-W3-83pv-RKSJ-H';}
	.st2{font-size:11px;}
	.st3{letter-spacing:-5;}
	.st4{letter-spacing:2;}
	.st5{letter-spacing:7;}
	.st6{font-family:'HiraKakuPro-W6-83pv-RKSJ-H';}
</style>
<g>
	<g>
		<g>
			<text transform="matrix(1 0 0 1 164.5088 15.7656)"><tspan x="0" y="0" class="st0 st1 st2">HTML、CSS、Flash、Dreamweaver</tspan><tspan x="191.5" y="0" class="st0 st1 st2 st3">、</tspan><tspan x="0" y="19.2" class="st0 st1 st2">Fireworks、Illustrator、Photosho</tspan><tspan x="178.3" y="19.2" class="st0 st1 st2 st4">p</tspan><tspan x="188.1" y="19.2" class="st0 st1 st2">等を活用</tspan><tspan x="0" y="38.5" class="st0 st1 st2">したホームページ制作に関わる一切の業務</tspan></text>
		</g>
		<g>
			<text transform="matrix(1 0 0 1 164.5088 103.2714)"><tspan x="0" y="0" class="st0 st1 st2">年齢】不問（実力重視</tspan><tspan x="110" y="0" class="st0 st1 st2 st3">）</tspan><tspan x="-5.5" y="19.2" class="st0 st1 st2">【学歴】高卒以上</tspan><tspan x="-5.5" y="38.5" class="st0 st1 st2">【実務経験】ウェブ制作経験</tspan><tspan x="137.5" y="38.5" class="st0 st1 st2 st4">が2</tspan><tspan x="161.2" y="38.5" class="st0 st1 st2">年以上ある方</tspan><tspan x="0" y="57.8" class="st0 st1 st2">※アルバイトの場合はホームページ作成の経験のある方</tspan><tspan x="0" y="77" class="st0 st1 st2">HTML、CS</tspan><tspan x="59.4" y="77" class="st0 st1 st2 st4">S</tspan><tspan x="69.5" y="77" class="st0 st1 st2">の知識</tspan><tspan x="0" y="96.2" class="st0 st1 st2">Flash、Dreamweaver、Fireworks</tspan><tspan x="177.5" y="96.2" class="st0 st1 st2 st3">、</tspan><tspan x="0" y="115.5" class="st0 st1 st2">Illustrator、Photosho</tspan><tspan x="114.5" y="115.5" class="st0 st1 st2 st4">p</tspan><tspan x="124.4" y="115.5" class="st0 st1 st2">必須</tspan><tspan x="0" y="134.8" class="st0 st1 st2">※ActionScript、PHP、JavaScript、MySQL</tspan><tspan x="0" y="154" class="st0 st1 st2">扱える方歓迎致します</tspan><tspan x="110" y="154" class="st0 st1 st2 st3">。</tspan></text>
		</g>
		<g>
			<text transform="matrix(1 0 0 1 163.8389 315.6513)"><tspan x="0" y="0" class="st0 st1 st2">応相談</tspan><tspan x="33" y="0" class="st0 st1 st2 st5"> </tspan><tspan x="44" y="0" class="st0 st1 st2">※能力・年齢に応じて決定致します</tspan><tspan x="220" y="0" class="st0 st1 st2 st3">。</tspan></text>
		</g>
		<g>
			<text transform="matrix(1 0 0 1 9.8418 15.7651)" class="st0 st6 st2">仕事内容</text>
		</g>
		<g>
			<text transform="matrix(1 0 0 1 9.8418 103.271)" class="st0 st6 st2">応募資格</text>
		</g>
		<g>
			<text transform="matrix(1 0 0 1 9.8408 315.6513)" class="st0 st6 st2">給与</text>
		</g>
	</g>
</g>
</svg>
