<?xml version="1.0" encoding="utf-8"?>
<!-- Generator: Adobe Illustrator 19.2.0, SVG Export Plug-In . SVG Version: 6.00 Build 0)  -->
<svg version="1.1" id="Main_Layer" xmlns="http://www.w3.org/2000/svg" xmlns:xlink="http://www.w3.org/1999/xlink" x="0px" y="0px"
	 viewBox="0 0 446 328.1" style="enable-background:new 0 0 446 328.1;" xml:space="preserve">
<style type="text/css">
	.st0{opacity:0.9;fill:#FFFFFF;stroke:#010B1D;stroke-width:2;stroke-miterlimit:10;}
	.st1{fill:#0D294F;}
	.st2{font-family:'NewRodinPro-L-83pv-RKSJ-H';}
	.st3{font-size:11px;}
	.st4{letter-spacing:-5;}
	.st5{letter-spacing:2;}
	.st6{letter-spacing:7;}
</style>
<g>
	<path class="st0" d="M446,318.1c0,5.5-4.5,10-10,10H10c-5.5,0-10-4.5-10-10V10C0,4.5,4.5,0,10,0h426c5.5,0,10,4.5,10,10V318.1z"/>
	<g>
		<g>
			<text transform="matrix(1 0 0 1 164.5088 15.7656)"><tspan x="0" y="0" class="st1 st2 st3">HTML、CSS、Flash、Dreamweaver、</tspan><tspan x="0" y="19.2" class="st1 st2 st3">Fireworks、Illustrator、Photoshop 等を活用</tspan><tspan x="0" y="38.5" class="st1 st2 st3">したホームページ制作に関わる一切の業務</tspan></text>
		</g>
		<g>
			<text transform="matrix(1 0 0 1 164.5088 103.2714)"><tspan x="0" y="0" class="st1 st2 st3">年齢】不問（実力重視</tspan><tspan x="110" y="0" class="st1 st2 st3 st4">）</tspan><tspan x="-5.5" y="19.2" class="st1 st2 st3">【学歴】高卒以上</tspan><tspan x="-5.5" y="38.5" class="st1 st2 st3">【実務経験】ウェブ制作経験</tspan><tspan x="137.5" y="38.5" class="st1 st2 st3 st5">が2</tspan><tspan x="162.9" y="38.5" class="st1 st2 st3">年以上ある方</tspan><tspan x="0" y="57.8" class="st1 st2 st3">※アルバイトの場合はホームページ作成の経験のある方</tspan><tspan x="0" y="77" class="st1 st2 st3">HTML、CS</tspan><tspan x="65.5" y="77" class="st1 st2 st3 st5">S</tspan><tspan x="76.8" y="77" class="st1 st2 st3">の知識</tspan><tspan x="0" y="96.2" class="st1 st2 st3">Flash、Dreamweaver、Fireworks、</tspan><tspan x="0" y="115.5" class="st1 st2 st3">Illustrator、Photoshop 必須</tspan><tspan x="0" y="134.8" class="st1 st2 st3">※ActionScript、PHP、JavaScript、MySQL</tspan><tspan x="0" y="154" class="st1 st2 st3">扱える方歓迎致します</tspan><tspan x="110" y="154" class="st1 st2 st3 st4">。</tspan></text>
		</g>
		<g>
			<text transform="matrix(1 0 0 1 163.8389 315.6513)"><tspan x="0" y="0" class="st1 st2 st3">応相談</tspan><tspan x="33" y="0" class="st1 st2 st3 st6"> </tspan><tspan x="44" y="0" class="st1 st2 st3">※能力・年齢に応じて決定致します</tspan><tspan x="220" y="0" class="st1 st2 st3 st4">。</tspan></text>
		</g>
		<g>
			<text transform="matrix(1 0 0 1 9.8418 15.7651)" class="st1 st2 st3">仕事内容</text>
		</g>
		<g>
			<text transform="matrix(1 0 0 1 9.8418 103.271)" class="st1 st2 st3">応募資格</text>
		</g>
		<g>
			<text transform="matrix(1 0 0 1 9.8408 315.6513)" class="st1 st2 st3">給与</text>
		</g>
	</g>
</g>
</svg>
