<?xml version="1.0" encoding="utf-8"?>
<!-- Generator: Adobe Illustrator 19.2.0, SVG Export Plug-In . SVG Version: 6.00 Build 0)  -->
<svg version="1.1" id="Main_Layer" xmlns="http://www.w3.org/2000/svg" xmlns:xlink="http://www.w3.org/1999/xlink" x="0px" y="0px"
	 viewBox="0 0 6738.7 688.3" style="enable-background:new 0 0 6738.7 688.3;" xml:space="preserve">
<style type="text/css">
	.st0{fill:#205EA3;}
	.st1{display:none;fill:#0D294F;}
	.st2{fill:#FFFFFF;}
	.st3{fill:#B3EDFF;}
	.st4{fill:#64C8FF;}
	.st5{fill:#97D4EF;}
	.st6{opacity:0.2;fill:#010B1D;}
	.st7{fill:#4A6070;}
</style>
<g id="Night_Sky">
	<rect x="0" y="0.7" class="st0" width="3340.9" height="688"/>
	<rect x="0" y="0.7" class="st1" width="3227.9" height="87.3"/>
	<rect x="0" y="95.5" class="st1" width="3227.9" height="28.4"/>
	<rect x="0" y="130.7" class="st1" width="3227.9" height="11.1"/>
	<rect x="0" y="472.8" class="st1" width="3227.9" height="215.9"/>
	<rect x="0" y="443.6" class="st1" width="3227.9" height="18.3"/>
	<rect x="0" y="425.9" class="st1" width="3227.9" height="10.2"/>
</g>
<g id="Sky_BG">
	<rect id="White_BG" x="3222.2" y="0.3" class="st2" width="3516.5" height="617.6"/>
	<g id="Sky_BG_1_">
		<rect x="3222" class="st3" width="3516.7" height="215.9"/>
		<rect x="3222" y="226.8" class="st3" width="3516.7" height="18.3"/>
		<rect x="3222" y="252.9" class="st3" width="3516.7" height="9.7"/>
		<rect x="3222" y="472.3" class="st3" width="3516.7" height="215.9"/>
		<rect x="3222" y="443.1" class="st3" width="3516.7" height="18.3"/>
		<rect x="3222" y="425.7" class="st3" width="3516.7" height="9.7"/>
		<g>
			<rect x="3222" class="st4" width="3516.7" height="87.6"/>
			<rect x="3222" y="95.1" class="st4" width="3516.7" height="28.4"/>
			<rect x="3222" y="130.3" class="st4" width="3516.7" height="11.1"/>
		</g>
	</g>
	<g>
		<g>
			<path id="Sky_BLDG_BG" class="st5" d="M5453.8,630V280.5h-226.7v26.7h-61.9v-46.1c0-2.3-2.6-4-5.4-3.4l-60.4,15.1V330h-35.9v50
				h-14.2v-74.5h-29.1v-38h-46.4v56.1h-92.7v-35.1l-77.8-16.3v56.6h-41.9v-66.1l-44.9,16.3v108h-43.8v45.8h-35.9V286.1h-110.7v-18.6
				h-48.8v14.6h-18.2v-18l-75.6-8.2v-22.7l-158.9-16.3v470.9h1229.2V630z"/>
			<path id="Sky_BLDG_BG_1_" class="st5" d="M3000.9,629.4V279.9h226.7v26.7h61.9v-46.1c0-2.3,2.7-4,5.4-3.4l60.4,15.1v57.2h35.9v50
				h14.2v-74.5h29.1v-38h46.4V323h92.7V288l77.8-16.3v56.6h41.9v-66.1l44.9,16.3v108h43.8v45.8h35.9V285.5h110.7v-18.6h48.8V388
				h18.2V263.5l75.6-8.2v-22.7l158.9-16.3v470.9H3000.9V629.4z"/>
		</g>
		<g>
			<path id="Sky_BLDG_BG_3_" class="st5" d="M6738.7,630.6V281.9h-300.9v26.6h-61.9v-46c0-2.3-2.7-3.9-5.4-3.4l-60.4,15.1v57.1
				h-35.9v49.8H6260v-74.3h-29.1V269h-46.4v56h-92.7v-35l-77.8-16.3v56.5H5972v-65.9l-44.9,16.3v107.8h-43.8V434h-35.9V287.5h-110.7
				V269h-48.8v14.6h-18.2v-18l-75.6-8.1v-22.7l-158.9-16.3v469.8h1303.4V630.6z"/>
			<path id="Sky_BLDG_BG_2_" class="st5" d="M4213.8,630.5V280.9h226.7v26.7h61.9v-46.1c0-2.3,2.7-4,5.4-3.4l60.4,15.1v57.2h35.9v50
				h14.2v-74.5h29.1v-38h46.4V324h92.7V289l77.8-16.3v56.6h41.9v-66.1l44.9,16.3v108h43.8v45.8h35.9V286.5h110.7v-18.6h48.8V389
				h18.2V264.5l75.6-8.2v-22.7l158.9-16.3v470.9H4213.8V630.5z"/>
		</g>
	</g>
</g>
<g id="clouds3">
	<path class="st2" d="M4153.3,77.7h-8.8c0.1-0.6,0.2-1.1,0.2-1.7c0-1.4-0.4-2.8-1-4c1.8-2.4,2.8-5.3,2.8-8.4
		c0-7.8-6.3-14.2-14.2-14.2c-2.4,0-4.6,0.6-6.6,1.6c-1.1-8.8-8.6-15.7-17.7-15.7c-9.4,0-17.1,7.3-17.8,16.5c-0.3,0-0.5,0-0.8,0
		c-6,0-10.8,4.9-10.8,10.8c0,1.7,0.4,3.3,1.1,4.8c-4.6,0.1-8.4,3.8-8.4,8.5c0,4.7,3.8,8.5,8.5,8.5h49.3h6.9h17.1
		c1.9,0,3.4-1.5,3.4-3.4S4155.2,77.7,4153.3,77.7z M4118.8,67.4L4118.8,67.4C4118.8,67.4,4118.8,67.4,4118.8,67.4
		C4118.8,67.4,4118.8,67.4,4118.8,67.4z"/>
	<path class="st2" d="M4786.7,55.5h-8.8c0.1-0.6,0.2-1.1,0.2-1.7c0-1.4-0.4-2.8-1-4c1.8-2.4,2.8-5.3,2.8-8.4
		c0-7.8-6.3-14.2-14.2-14.2c-2.4,0-4.6,0.6-6.6,1.6c-1.1-8.8-8.6-15.7-17.7-15.7c-9.4,0-17.1,7.3-17.8,16.5c-0.3,0-0.5,0-0.8,0
		c-6,0-10.8,4.9-10.8,10.8c0,1.7,0.4,3.3,1.1,4.8c-4.6,0.1-8.4,3.8-8.4,8.5c0,4.7,3.8,8.5,8.5,8.5h49.3h6.9h17.1
		c1.9,0,3.4-1.5,3.4-3.4S4788.5,55.5,4786.7,55.5z M4752.1,45.3L4752.1,45.3C4752.1,45.3,4752.1,45.3,4752.1,45.3
		C4752.1,45.3,4752.1,45.3,4752.1,45.3z"/>
	<path class="st2" d="M5389.7,121.3h-8.8c0.1-0.6,0.2-1.1,0.2-1.7c0-1.4-0.4-2.8-1-4c1.8-2.4,2.8-5.3,2.8-8.4
		c0-7.8-6.3-14.2-14.2-14.2c-2.4,0-4.6,0.6-6.6,1.6c-1.1-8.8-8.6-15.7-17.7-15.7c-9.4,0-17.1,7.3-17.8,16.5c-0.3,0-0.5,0-0.8,0
		c-6,0-10.8,4.9-10.8,10.8c0,1.7,0.4,3.3,1.1,4.8c-4.6,0.1-8.4,3.8-8.4,8.5c0,4.7,3.8,8.5,8.5,8.5h49.3h6.9h17.1
		c1.9,0,3.4-1.5,3.4-3.4C5393,122.8,5391.5,121.3,5389.7,121.3z M5355.1,111L5355.1,111C5355.1,111,5355.1,111,5355.1,111
		C5355.1,111,5355.1,111,5355.1,111z"/>
	<path class="st2" d="M5911.8,74.2h-8.8c0.1-0.6,0.2-1.1,0.2-1.7c0-1.4-0.4-2.8-1-4c1.8-2.4,2.8-5.3,2.8-8.4
		c0-7.8-6.3-14.2-14.2-14.2c-2.4,0-4.6,0.6-6.6,1.6c-1.1-8.8-8.6-15.7-17.7-15.7c-9.4,0-17.1,7.3-17.8,16.5c-0.3,0-0.5,0-0.8,0
		c-6,0-10.8,4.9-10.8,10.8c0,1.7,0.4,3.3,1.1,4.8c-4.6,0.1-8.4,3.8-8.4,8.5c0,4.7,3.8,8.5,8.5,8.5h49.3h6.9h17.1
		c1.9,0,3.4-1.5,3.4-3.4C5915.2,75.7,5913.7,74.2,5911.8,74.2z M5877.3,63.9L5877.3,63.9C5877.3,63.9,5877.3,63.9,5877.3,63.9
		C5877.3,63.9,5877.3,63.9,5877.3,63.9z"/>
	<path class="st2" d="M6331.1,176.9h-8.8c0.1-0.6,0.2-1.1,0.2-1.7c0-1.4-0.4-2.8-1-4c1.8-2.4,2.8-5.3,2.8-8.4
		c0-7.8-6.3-14.2-14.2-14.2c-2.4,0-4.6,0.6-6.6,1.6c-1.1-8.8-8.6-15.7-17.7-15.7c-9.4,0-17.1,7.3-17.8,16.5c-0.3,0-0.5,0-0.8,0
		c-6,0-10.8,4.9-10.8,10.8c0,1.7,0.4,3.3,1.1,4.8c-4.6,0.1-8.4,3.8-8.4,8.5c0,4.7,3.8,8.5,8.5,8.5h49.3h6.9h17.1
		c1.9,0,3.4-1.5,3.4-3.4S6333,176.9,6331.1,176.9z M6296.6,166.6L6296.6,166.6C6296.6,166.6,6296.6,166.6,6296.6,166.6
		C6296.6,166.6,6296.6,166.6,6296.6,166.6z"/>
	<path class="st2" d="M6691.1,56h-8.8c0.1-0.6,0.2-1.1,0.2-1.7c0-1.4-0.4-2.8-1-4c1.8-2.4,2.8-5.3,2.8-8.4c0-7.8-6.3-14.2-14.2-14.2
		c-2.4,0-4.6,0.6-6.6,1.6c-1.1-8.8-8.6-15.7-17.7-15.7c-9.4,0-17.1,7.3-17.8,16.5c-0.3,0-0.5,0-0.8,0c-6,0-10.8,4.9-10.8,10.8
		c0,1.7,0.4,3.3,1.1,4.8c-4.6,0.1-8.4,3.8-8.4,8.5c0,4.7,3.8,8.5,8.5,8.5h49.3h6.9h17.1c1.9,0,3.4-1.5,3.4-3.4S6693,56,6691.1,56z
		 M6656.6,45.8L6656.6,45.8C6656.6,45.8,6656.6,45.7,6656.6,45.8C6656.6,45.7,6656.6,45.8,6656.6,45.8z"/>
	<path class="st2" d="M6403.7,66h-4.2c0.1-0.3,0.1-0.5,0.1-0.8c0-0.7-0.2-1.3-0.5-1.9c0.8-1.1,1.3-2.5,1.3-4c0-3.7-3-6.8-6.8-6.8
		c-1.1,0-2.2,0.3-3.2,0.8c-0.5-4.2-4.1-7.5-8.4-7.5c-4.5,0-8.2,3.5-8.5,7.9c-0.1,0-0.2,0-0.4,0c-2.9,0-5.2,2.3-5.2,5.2
		c0,0.8,0.2,1.6,0.5,2.3c-2.2,0-4,1.8-4,4.1c0,2.2,1.8,4.1,4.1,4.1h23.6h3.3h8.2c0.9,0,1.6-0.7,1.6-1.6
		C6405.3,66.7,6404.6,66,6403.7,66z M6387.2,61.1L6387.2,61.1C6387.2,61.1,6387.2,61.1,6387.2,61.1
		C6387.2,61.1,6387.2,61.1,6387.2,61.1z"/>
	<path class="st2" d="M6003.7,177.2h-4.2c0.1-0.3,0.1-0.5,0.1-0.8c0-0.7-0.2-1.3-0.5-1.9c0.8-1.1,1.3-2.5,1.3-4c0-3.7-3-6.8-6.8-6.8
		c-1.1,0-2.2,0.3-3.2,0.8c-0.5-4.2-4.1-7.5-8.4-7.5c-4.5,0-8.2,3.5-8.5,7.9c-0.1,0-0.2,0-0.4,0c-2.9,0-5.2,2.3-5.2,5.2
		c0,0.8,0.2,1.6,0.5,2.3c-2.2,0-4,1.8-4,4.1c0,2.2,1.8,4.1,4.1,4.1h23.6h3.3h8.2c0.9,0,1.6-0.7,1.6-1.6S6004.6,177.2,6003.7,177.2z
		 M5987.2,172.3L5987.2,172.3C5987.2,172.3,5987.2,172.3,5987.2,172.3C5987.2,172.3,5987.2,172.3,5987.2,172.3z"/>
	<path class="st2" d="M5649,58.4h-4.2c0.1-0.3,0.1-0.5,0.1-0.8c0-0.7-0.2-1.3-0.5-1.9c0.8-1.1,1.3-2.5,1.3-4c0-3.7-3-6.8-6.8-6.8
		c-1.1,0-2.2,0.3-3.2,0.8c-0.5-4.2-4.1-7.5-8.4-7.5c-4.5,0-8.2,3.5-8.5,7.9c-0.1,0-0.2,0-0.4,0c-2.9,0-5.2,2.3-5.2,5.2
		c0,0.8,0.2,1.6,0.5,2.3c-2.2,0-4,1.8-4,4.1c0,2.2,1.8,4.1,4.1,4.1h23.6h3.3h8.2c0.9,0,1.6-0.7,1.6-1.6S5649.9,58.4,5649,58.4z
		 M5632.5,53.5L5632.5,53.5L5632.5,53.5L5632.5,53.5z"/>
	<path class="st2" d="M5452.4,192.1h-4.2c0.1-0.3,0.1-0.5,0.1-0.8c0-0.7-0.2-1.3-0.5-1.9c0.8-1.1,1.3-2.5,1.3-4c0-3.7-3-6.8-6.8-6.8
		c-1.1,0-2.2,0.3-3.2,0.8c-0.5-4.2-4.1-7.5-8.4-7.5c-4.5,0-8.2,3.5-8.5,7.9c-0.1,0-0.2,0-0.4,0c-2.9,0-5.2,2.3-5.2,5.2
		c0,0.8,0.2,1.6,0.5,2.3c-2.2,0-4,1.8-4,4.1c0,2.2,1.8,4.1,4.1,4.1h23.6h3.3h8.2c0.9,0,1.6-0.7,1.6-1.6
		C5454,192.8,5453.3,192.1,5452.4,192.1z M5435.9,187.2L5435.9,187.2C5435.9,187.2,5435.9,187.2,5435.9,187.2
		C5435.9,187.2,5435.9,187.2,5435.9,187.2z"/>
	<path class="st2" d="M5079.7,154.8h-4.2c0.1-0.3,0.1-0.5,0.1-0.8c0-0.7-0.2-1.3-0.5-1.9c0.8-1.1,1.3-2.5,1.3-4c0-3.7-3-6.8-6.8-6.8
		c-1.1,0-2.2,0.3-3.2,0.8c-0.5-4.2-4.1-7.5-8.4-7.5c-4.5,0-8.2,3.5-8.5,7.9c-0.1,0-0.2,0-0.4,0c-2.9,0-5.2,2.3-5.2,5.2
		c0,0.8,0.2,1.6,0.5,2.3c-2.2,0-4,1.8-4,4.1c0,2.2,1.8,4.1,4.1,4.1h23.6h3.3h8.2c0.9,0,1.6-0.7,1.6-1.6S5080.6,154.8,5079.7,154.8z
		 M5063.2,149.9L5063.2,149.9C5063.2,149.9,5063.2,149.9,5063.2,149.9C5063.2,149.9,5063.2,149.9,5063.2,149.9z"/>
	<path class="st2" d="M4853.7,28.6h-4.2c0.1-0.3,0.1-0.5,0.1-0.8c0-0.7-0.2-1.3-0.5-1.9c0.8-1.1,1.3-2.5,1.3-4c0-3.7-3-6.8-6.8-6.8
		c-1.1,0-2.2,0.3-3.2,0.8c-0.5-4.2-4.1-7.5-8.4-7.5c-4.5,0-8.2,3.5-8.5,7.9c-0.1,0-0.2,0-0.4,0c-2.9,0-5.2,2.3-5.2,5.2
		c0,0.8,0.2,1.6,0.5,2.3c-2.2,0-4,1.8-4,4.1c0,2.2,1.8,4.1,4.1,4.1h23.6h3.3h8.2c0.9,0,1.6-0.7,1.6-1.6S4854.6,28.6,4853.7,28.6z
		 M4837.2,23.7L4837.2,23.7C4837.2,23.7,4837.2,23.7,4837.2,23.7C4837.2,23.7,4837.2,23.7,4837.2,23.7z"/>
	<path class="st2" d="M4705.8,167.3h-4.2c0.1-0.3,0.1-0.5,0.1-0.8c0-0.7-0.2-1.3-0.5-1.9c0.8-1.1,1.3-2.5,1.3-4c0-3.7-3-6.8-6.8-6.8
		c-1.1,0-2.2,0.3-3.2,0.8c-0.5-4.2-4.1-7.5-8.4-7.5c-4.5,0-8.2,3.5-8.5,7.9c-0.1,0-0.2,0-0.4,0c-2.9,0-5.2,2.3-5.2,5.2
		c0,0.8,0.2,1.6,0.5,2.3c-2.2,0-4,1.8-4,4.1c0,2.2,1.8,4.1,4.1,4.1h23.6h3.3h8.2c0.9,0,1.6-0.7,1.6-1.6S4706.6,167.3,4705.8,167.3z
		 M4689.3,162.4L4689.3,162.4C4689.3,162.4,4689.3,162.4,4689.3,162.4C4689.3,162.4,4689.3,162.4,4689.3,162.4z"/>
	<path class="st2" d="M4395.8,184.6h-4.2c0.1-0.3,0.1-0.5,0.1-0.8c0-0.7-0.2-1.3-0.5-1.9c0.8-1.1,1.3-2.5,1.3-4c0-3.7-3-6.8-6.8-6.8
		c-1.1,0-2.2,0.3-3.2,0.8c-0.5-4.2-4.1-7.5-8.4-7.5c-4.5,0-8.2,3.5-8.5,7.9c-0.1,0-0.2,0-0.4,0c-2.9,0-5.2,2.3-5.2,5.2
		c0,0.8,0.2,1.6,0.5,2.3c-2.2,0-4,1.8-4,4.1c0,2.2,1.8,4.1,4.1,4.1h23.6h3.3h8.2c0.9,0,1.6-0.7,1.6-1.6S4396.6,184.6,4395.8,184.6z
		 M4379.3,179.7L4379.3,179.7C4379.3,179.7,4379.3,179.7,4379.3,179.7C4379.3,179.7,4379.3,179.7,4379.3,179.7z"/>
	<path class="st2" d="M4005.8,46.7h-4.2c0.1-0.3,0.1-0.5,0.1-0.8c0-0.7-0.2-1.3-0.5-1.9c0.8-1.1,1.3-2.5,1.3-4c0-3.7-3-6.8-6.8-6.8
		c-1.1,0-2.2,0.3-3.2,0.8c-0.5-4.2-4.1-7.5-8.4-7.5c-4.5,0-8.2,3.5-8.5,7.9c-0.1,0-0.2,0-0.4,0c-2.9,0-5.2,2.3-5.2,5.2
		c0,0.8,0.2,1.6,0.5,2.3c-2.2,0-4,1.8-4,4.1c0,2.2,1.8,4.1,4.1,4.1h23.6h3.3h8.2c0.9,0,1.6-0.7,1.6-1.6
		C4007.4,47.4,4006.6,46.7,4005.8,46.7z M3989.3,41.8L3989.3,41.8L3989.3,41.8L3989.3,41.8z"/>
	<path class="st2" d="M3789.8,201.4h-4.2c0.1-0.3,0.1-0.5,0.1-0.8c0-0.7-0.2-1.3-0.5-1.9c0.8-1.1,1.3-2.5,1.3-4c0-3.7-3-6.8-6.8-6.8
		c-1.1,0-2.2,0.3-3.2,0.8c-0.5-4.2-4.1-7.5-8.4-7.5c-4.5,0-8.2,3.5-8.5,7.9c-0.1,0-0.2,0-0.4,0c-2.9,0-5.2,2.3-5.2,5.2
		c0,0.8,0.2,1.6,0.5,2.3c-2.2,0-4,1.8-4,4.1c0,2.2,1.8,4.1,4.1,4.1h23.6h3.3h8.2c0.9,0,1.6-0.7,1.6-1.6S3790.6,201.4,3789.8,201.4z
		 M3773.3,196.5L3773.3,196.5C3773.3,196.5,3773.3,196.5,3773.3,196.5C3773.3,196.5,3773.3,196.5,3773.3,196.5z"/>
	<path class="st2" d="M3507.8,99.7h-4.2c0.1-0.3,0.1-0.5,0.1-0.8c0-0.7-0.2-1.3-0.5-1.9c0.8-1.1,1.3-2.5,1.3-4c0-3.7-3-6.8-6.8-6.8
		c-1.1,0-2.2,0.3-3.2,0.8c-0.5-4.2-4.1-7.5-8.4-7.5c-4.5,0-8.2,3.5-8.5,7.9c-0.1,0-0.2,0-0.4,0c-2.9,0-5.2,2.3-5.2,5.2
		c0,0.8,0.2,1.6,0.5,2.3c-2.2,0-4,1.8-4,4.1c0,2.2,1.8,4.1,4.1,4.1h23.6h3.3h8.2c0.9,0,1.6-0.7,1.6-1.6
		C3509.4,100.4,3508.6,99.7,3507.8,99.7z M3491.3,94.8L3491.3,94.8C3491.3,94.8,3491.3,94.8,3491.3,94.8
		C3491.3,94.8,3491.3,94.8,3491.3,94.8z"/>
	<path class="st2" d="M4361.2,134.2h-5.5c0.1-0.4,0.1-0.7,0.1-1.1c0-0.9-0.2-1.7-0.6-2.5c1.1-1.5,1.8-3.3,1.8-5.3
		c0-4.9-4-8.9-8.9-8.9c-1.5,0-2.9,0.4-4.1,1c-0.7-5.5-5.4-9.8-11.1-9.8c-5.9,0-10.7,4.6-11.1,10.4c-0.2,0-0.3,0-0.5,0
		c-3.7,0-6.8,3-6.8,6.8c0,1.1,0.3,2.1,0.7,3c-2.9,0-5.2,2.4-5.2,5.3c0,2.9,2.4,5.3,5.3,5.3h30.9h4.3h10.7c1.2,0,2.1-0.9,2.1-2.1
		C4363.4,135.2,4362.4,134.2,4361.2,134.2z M4339.6,127.8L4339.6,127.8C4339.6,127.8,4339.6,127.8,4339.6,127.8
		C4339.6,127.8,4339.6,127.8,4339.6,127.8z"/>
	<path class="st2" d="M3539.3,48.5h-8c0.1-0.5,0.2-1,0.2-1.6c0-1.3-0.3-2.5-0.9-3.6c1.6-2.1,2.6-4.8,2.6-7.7
		c0-7.1-5.8-12.9-12.9-12.9c-2.2,0-4.2,0.5-6,1.5c-1-8-7.8-14.2-16.1-14.2c-8.5,0-15.5,6.6-16.1,15c-0.2,0-0.5,0-0.7,0
		c-5.4,0-9.8,4.4-9.8,9.8c0,1.6,0.4,3,1,4.3c-4.2,0.1-7.6,3.5-7.6,7.7c0,4.3,3.5,7.7,7.7,7.7h44.8h6.3h15.5c1.7,0,3.1-1.4,3.1-3.1
		C3542.4,49.8,3541,48.5,3539.3,48.5z M3508,39.2L3508,39.2C3508,39.2,3508,39.2,3508,39.2C3508,39.2,3508,39.2,3508,39.2z"/>
	<path class="st2" d="M3884,154.4h-5.2c0.1-0.3,0.1-0.7,0.1-1c0-0.9-0.2-1.7-0.6-2.4c1-1.4,1.7-3.1,1.7-5c0-4.6-3.8-8.4-8.4-8.4
		c-1.4,0-2.7,0.4-3.9,1c-0.6-5.2-5.1-9.3-10.5-9.3c-5.6,0-10.1,4.3-10.5,9.8c-0.2,0-0.3,0-0.5,0c-3.6,0-6.4,2.9-6.4,6.4
		c0,1,0.2,2,0.7,2.8c-2.7,0-5,2.3-5,5c0,2.8,2.3,5,5,5h29.3h4.1h10.2c1.1,0,2-0.9,2-2C3886,155.3,3885.1,154.4,3884,154.4z
		 M3863.5,148.4L3863.5,148.4C3863.5,148.4,3863.5,148.4,3863.5,148.4C3863.5,148.4,3863.5,148.4,3863.5,148.4z"/>
</g>
<g id="Night_BLDG_BG_3">
	<path class="st6" d="M0,607.7V178h107.7v32.8h11v-56.7c0-2.8,2.4-4.9,4.9-4.1l65,18.6v70.3h14.7v11.2h13.1v-41.4h36.1V162h52.1v69
		h85.6v-93.3h71.8v59.6h11v-41.1h41.4v52.5h68.1v166.7h33.1V255l74.6-30v-63h72.7v58.5h16.8v-42.8h60.6v-28h35.9v529H0V607.7z"/>
	<path class="st6" d="M876.4,615.7V206H768.7v32.8h-11v-56.7c0-2.8-2.4-4.9-4.9-4.1l-65,18.6v70.3h-14.7v11.2h-13.1v-41.4h-36.1V190
		h-52.1v69h-85.6v-93.3h-71.8v59.6h-11v-41.1h-41.4v52.5h-68.1v166.7h-33.1V283L186,253v-63h-72.7v58.5H96.5v-42.8H35.9v-28H0v509
		h876.4V615.7z"/>
</g>
<g id="_x33_">
	<rect id="Sky_Floor_8_" x="3786" y="617" class="st7" width="2952.7" height="71.4"/>
	<rect id="Sky_Floor_3_" x="3786" y="634.4" class="st4" width="2952.7" height="54"/>
	<rect id="Sky_Floor_1_" x="3785" y="634.4" class="st7" width="2953.7" height="0.2"/>
</g>
</svg>
