<?xml version="1.0" encoding="utf-8"?>
<!-- Generator: Adobe Illustrator 19.2.0, SVG Export Plug-In . SVG Version: 6.00 Build 0)  -->
<svg version="1.1" id="Main_Layer" xmlns="http://www.w3.org/2000/svg" xmlns:xlink="http://www.w3.org/1999/xlink" x="0px" y="0px"
	 viewBox="0 0 6738.7 688.3" style="enable-background:new 0 0 6738.7 688.3;" xml:space="preserve">
<style type="text/css">
	.st0{fill:#205EA3;}
	.st1{display:none;fill:#0D294F;}
	.st2{fill:#FFFFFF;}
	.st3{fill:#B3EDFF;}
	.st4{fill:#64C8FF;}
	.st5{fill:#97D4EF;}
	.st6{opacity:0.2;fill:#010B1D;}
	.st7{fill:#4A6070;}
	.st8{fill:none;stroke:#FFFFFF;stroke-width:0.25;stroke-miterlimit:10;}
</style>
<g id="Night_Sky">
	<rect x="0" y="0.7" class="st0" width="3340.9" height="688"/>
	<rect x="0" y="0.7" class="st1" width="3227.9" height="87.3"/>
	<rect x="0" y="95.5" class="st1" width="3227.9" height="28.4"/>
	<rect x="0" y="130.7" class="st1" width="3227.9" height="11.1"/>
	<rect x="0" y="472.8" class="st1" width="3227.9" height="215.9"/>
	<rect x="0" y="443.6" class="st1" width="3227.9" height="18.3"/>
	<rect x="0" y="425.9" class="st1" width="3227.9" height="10.2"/>
</g>
<g id="Sky_BG">
	<rect id="White_BG" x="3222.2" y="0.3" class="st2" width="3516.5" height="617.6"/>
	<g id="Sky_BG_1_">
		<rect x="3222" class="st3" width="3516.7" height="215.9"/>
		<rect x="3222" y="226.8" class="st3" width="3516.7" height="18.3"/>
		<rect x="3222" y="252.9" class="st3" width="3516.7" height="9.7"/>
		<rect x="3222" y="472.3" class="st3" width="3516.7" height="215.9"/>
		<rect x="3222" y="443.1" class="st3" width="3516.7" height="18.3"/>
		<rect x="3222" y="425.7" class="st3" width="3516.7" height="9.7"/>
		<g>
			<rect x="3222" class="st4" width="3516.7" height="87.6"/>
			<rect x="3222" y="95.1" class="st4" width="3516.7" height="28.4"/>
			<rect x="3222" y="130.3" class="st4" width="3516.7" height="11.1"/>
		</g>
	</g>
	<g>
		<g>
			<path id="Sky_BLDG_BG" class="st5" d="M5453.8,630V280.5h-226.7v26.7h-61.9v-46.1c0-2.3-2.6-4-5.4-3.4l-60.4,15.1V330h-35.9v50
				h-14.2v-74.5h-29.1v-38h-46.4v56.1h-92.7v-35.1l-77.8-16.3v56.6h-41.9v-66.1l-44.9,16.3v108h-43.8v45.8h-35.9V286.1h-110.7v-18.6
				h-48.8v14.6h-18.2v-18l-75.6-8.2v-22.7l-158.9-16.3v470.9h1229.2V630z"/>
			<path id="Sky_BLDG_BG_1_" class="st5" d="M3222,629.4V279.9h5.6v26.7h61.9v-46.1c0-2.3,2.7-4,5.4-3.4l60.4,15.1v57.2h35.9v50
				h14.2v-74.5h29.1v-38h46.4V323h92.7V288l77.8-16.3v56.6h41.9v-66.1l44.9,16.3v108h43.8v45.8h35.9V285.5h110.7v-18.6h48.8V388
				h18.2V263.5l75.6-8.2v-22.7l158.9-16.3v470.9H3222V629.4z"/>
		</g>
		<g>
			<path id="Sky_BLDG_BG_3_" class="st5" d="M6738.7,630.6V281.9h-300.9v26.6h-61.9v-46c0-2.3-2.7-3.9-5.4-3.4l-60.4,15.1v57.1
				h-35.9v49.8H6260v-74.3h-29.1V269h-46.4v56h-92.7v-35l-77.8-16.3v56.5H5972v-65.9l-44.9,16.3v107.8h-43.8V434h-35.9V287.5h-110.7
				V269h-48.8v14.6h-18.2v-18l-75.6-8.1v-22.7l-158.9-16.3v469.8h1303.4V630.6z"/>
			<path id="Sky_BLDG_BG_2_" class="st5" d="M4213.8,630.5V280.9h226.7v26.7h61.9v-46.1c0-2.3,2.7-4,5.4-3.4l60.4,15.1v57.2h35.9v50
				h14.2v-74.5h29.1v-38h46.4V324h92.7V289l77.8-16.3v56.6h41.9v-66.1l44.9,16.3v108h43.8v45.8h35.9V286.5h110.7v-18.6h48.8V389
				h18.2V264.5l75.6-8.2v-22.7l158.9-16.3v470.9H4213.8V630.5z"/>
		</g>
	</g>
</g>
<g id="clouds3">
	<path class="st2" d="M4153.3,77.7h-8.8c0.1-0.6,0.2-1.1,0.2-1.7c0-1.4-0.4-2.8-1-4c1.8-2.4,2.8-5.3,2.8-8.4
		c0-7.8-6.3-14.2-14.2-14.2c-2.4,0-4.6,0.6-6.6,1.6c-1.1-8.8-8.6-15.7-17.7-15.7c-9.4,0-17.1,7.3-17.8,16.5c-0.3,0-0.5,0-0.8,0
		c-6,0-10.8,4.9-10.8,10.8c0,1.7,0.4,3.3,1.1,4.8c-4.6,0.1-8.4,3.8-8.4,8.5c0,4.7,3.8,8.5,8.5,8.5h49.3h6.9h17.1
		c1.9,0,3.4-1.5,3.4-3.4S4155.2,77.7,4153.3,77.7z M4118.8,67.4L4118.8,67.4C4118.8,67.4,4118.8,67.4,4118.8,67.4
		C4118.8,67.4,4118.8,67.4,4118.8,67.4z"/>
	<path class="st2" d="M4786.7,55.5h-8.8c0.1-0.6,0.2-1.1,0.2-1.7c0-1.4-0.4-2.8-1-4c1.8-2.4,2.8-5.3,2.8-8.4
		c0-7.8-6.3-14.2-14.2-14.2c-2.4,0-4.6,0.6-6.6,1.6c-1.1-8.8-8.6-15.7-17.7-15.7c-9.4,0-17.1,7.3-17.8,16.5c-0.3,0-0.5,0-0.8,0
		c-6,0-10.8,4.9-10.8,10.8c0,1.7,0.4,3.3,1.1,4.8c-4.6,0.1-8.4,3.8-8.4,8.5c0,4.7,3.8,8.5,8.5,8.5h49.3h6.9h17.1
		c1.9,0,3.4-1.5,3.4-3.4S4788.5,55.5,4786.7,55.5z M4752.1,45.3L4752.1,45.3C4752.1,45.3,4752.1,45.3,4752.1,45.3
		C4752.1,45.3,4752.1,45.3,4752.1,45.3z"/>
	<path class="st2" d="M5389.7,121.3h-8.8c0.1-0.6,0.2-1.1,0.2-1.7c0-1.4-0.4-2.8-1-4c1.8-2.4,2.8-5.3,2.8-8.4
		c0-7.8-6.3-14.2-14.2-14.2c-2.4,0-4.6,0.6-6.6,1.6c-1.1-8.8-8.6-15.7-17.7-15.7c-9.4,0-17.1,7.3-17.8,16.5c-0.3,0-0.5,0-0.8,0
		c-6,0-10.8,4.9-10.8,10.8c0,1.7,0.4,3.3,1.1,4.8c-4.6,0.1-8.4,3.8-8.4,8.5c0,4.7,3.8,8.5,8.5,8.5h49.3h6.9h17.1
		c1.9,0,3.4-1.5,3.4-3.4C5393,122.8,5391.5,121.3,5389.7,121.3z M5355.1,111L5355.1,111C5355.1,111,5355.1,111,5355.1,111
		C5355.1,111,5355.1,111,5355.1,111z"/>
	<path class="st2" d="M5911.8,74.2h-8.8c0.1-0.6,0.2-1.1,0.2-1.7c0-1.4-0.4-2.8-1-4c1.8-2.4,2.8-5.3,2.8-8.4
		c0-7.8-6.3-14.2-14.2-14.2c-2.4,0-4.6,0.6-6.6,1.6c-1.1-8.8-8.6-15.7-17.7-15.7c-9.4,0-17.1,7.3-17.8,16.5c-0.3,0-0.5,0-0.8,0
		c-6,0-10.8,4.9-10.8,10.8c0,1.7,0.4,3.3,1.1,4.8c-4.6,0.1-8.4,3.8-8.4,8.5c0,4.7,3.8,8.5,8.5,8.5h49.3h6.9h17.1
		c1.9,0,3.4-1.5,3.4-3.4C5915.2,75.7,5913.7,74.2,5911.8,74.2z M5877.3,63.9L5877.3,63.9C5877.3,63.9,5877.3,63.9,5877.3,63.9
		C5877.3,63.9,5877.3,63.9,5877.3,63.9z"/>
	<path class="st2" d="M6331.1,176.9h-8.8c0.1-0.6,0.2-1.1,0.2-1.7c0-1.4-0.4-2.8-1-4c1.8-2.4,2.8-5.3,2.8-8.4
		c0-7.8-6.3-14.2-14.2-14.2c-2.4,0-4.6,0.6-6.6,1.6c-1.1-8.8-8.6-15.7-17.7-15.7c-9.4,0-17.1,7.3-17.8,16.5c-0.3,0-0.5,0-0.8,0
		c-6,0-10.8,4.9-10.8,10.8c0,1.7,0.4,3.3,1.1,4.8c-4.6,0.1-8.4,3.8-8.4,8.5c0,4.7,3.8,8.5,8.5,8.5h49.3h6.9h17.1
		c1.9,0,3.4-1.5,3.4-3.4S6333,176.9,6331.1,176.9z M6296.6,166.6L6296.6,166.6C6296.6,166.6,6296.6,166.6,6296.6,166.6
		C6296.6,166.6,6296.6,166.6,6296.6,166.6z"/>
	<path class="st2" d="M6691.1,56h-8.8c0.1-0.6,0.2-1.1,0.2-1.7c0-1.4-0.4-2.8-1-4c1.8-2.4,2.8-5.3,2.8-8.4c0-7.8-6.3-14.2-14.2-14.2
		c-2.4,0-4.6,0.6-6.6,1.6c-1.1-8.8-8.6-15.7-17.7-15.7c-9.4,0-17.1,7.3-17.8,16.5c-0.3,0-0.5,0-0.8,0c-6,0-10.8,4.9-10.8,10.8
		c0,1.7,0.4,3.3,1.1,4.8c-4.6,0.1-8.4,3.8-8.4,8.5c0,4.7,3.8,8.5,8.5,8.5h49.3h6.9h17.1c1.9,0,3.4-1.5,3.4-3.4S6693,56,6691.1,56z
		 M6656.6,45.8L6656.6,45.8C6656.6,45.8,6656.6,45.7,6656.6,45.8C6656.6,45.7,6656.6,45.8,6656.6,45.8z"/>
	<path class="st2" d="M6403.7,66h-4.2c0.1-0.3,0.1-0.5,0.1-0.8c0-0.7-0.2-1.3-0.5-1.9c0.8-1.1,1.3-2.5,1.3-4c0-3.7-3-6.8-6.8-6.8
		c-1.1,0-2.2,0.3-3.2,0.8c-0.5-4.2-4.1-7.5-8.4-7.5c-4.5,0-8.2,3.5-8.5,7.9c-0.1,0-0.2,0-0.4,0c-2.9,0-5.2,2.3-5.2,5.2
		c0,0.8,0.2,1.6,0.5,2.3c-2.2,0-4,1.8-4,4.1c0,2.2,1.8,4.1,4.1,4.1h23.6h3.3h8.2c0.9,0,1.6-0.7,1.6-1.6
		C6405.3,66.7,6404.6,66,6403.7,66z M6387.2,61.1L6387.2,61.1C6387.2,61.1,6387.2,61.1,6387.2,61.1
		C6387.2,61.1,6387.2,61.1,6387.2,61.1z"/>
	<path class="st2" d="M6003.7,177.2h-4.2c0.1-0.3,0.1-0.5,0.1-0.8c0-0.7-0.2-1.3-0.5-1.9c0.8-1.1,1.3-2.5,1.3-4c0-3.7-3-6.8-6.8-6.8
		c-1.1,0-2.2,0.3-3.2,0.8c-0.5-4.2-4.1-7.5-8.4-7.5c-4.5,0-8.2,3.5-8.5,7.9c-0.1,0-0.2,0-0.4,0c-2.9,0-5.2,2.3-5.2,5.2
		c0,0.8,0.2,1.6,0.5,2.3c-2.2,0-4,1.8-4,4.1c0,2.2,1.8,4.1,4.1,4.1h23.6h3.3h8.2c0.9,0,1.6-0.7,1.6-1.6S6004.6,177.2,6003.7,177.2z
		 M5987.2,172.3L5987.2,172.3C5987.2,172.3,5987.2,172.3,5987.2,172.3C5987.2,172.3,5987.2,172.3,5987.2,172.3z"/>
	<path class="st2" d="M5649,58.4h-4.2c0.1-0.3,0.1-0.5,0.1-0.8c0-0.7-0.2-1.3-0.5-1.9c0.8-1.1,1.3-2.5,1.3-4c0-3.7-3-6.8-6.8-6.8
		c-1.1,0-2.2,0.3-3.2,0.8c-0.5-4.2-4.1-7.5-8.4-7.5c-4.5,0-8.2,3.5-8.5,7.9c-0.1,0-0.2,0-0.4,0c-2.9,0-5.2,2.3-5.2,5.2
		c0,0.8,0.2,1.6,0.5,2.3c-2.2,0-4,1.8-4,4.1c0,2.2,1.8,4.1,4.1,4.1h23.6h3.3h8.2c0.9,0,1.6-0.7,1.6-1.6S5649.9,58.4,5649,58.4z
		 M5632.5,53.5L5632.5,53.5L5632.5,53.5L5632.5,53.5z"/>
	<path class="st2" d="M5452.4,192.1h-4.2c0.1-0.3,0.1-0.5,0.1-0.8c0-0.7-0.2-1.3-0.5-1.9c0.8-1.1,1.3-2.5,1.3-4c0-3.7-3-6.8-6.8-6.8
		c-1.1,0-2.2,0.3-3.2,0.8c-0.5-4.2-4.1-7.5-8.4-7.5c-4.5,0-8.2,3.5-8.5,7.9c-0.1,0-0.2,0-0.4,0c-2.9,0-5.2,2.3-5.2,5.2
		c0,0.8,0.2,1.6,0.5,2.3c-2.2,0-4,1.8-4,4.1c0,2.2,1.8,4.1,4.1,4.1h23.6h3.3h8.2c0.9,0,1.6-0.7,1.6-1.6
		C5454,192.8,5453.3,192.1,5452.4,192.1z M5435.9,187.2L5435.9,187.2C5435.9,187.2,5435.9,187.2,5435.9,187.2
		C5435.9,187.2,5435.9,187.2,5435.9,187.2z"/>
	<path class="st2" d="M5079.7,154.8h-4.2c0.1-0.3,0.1-0.5,0.1-0.8c0-0.7-0.2-1.3-0.5-1.9c0.8-1.1,1.3-2.5,1.3-4c0-3.7-3-6.8-6.8-6.8
		c-1.1,0-2.2,0.3-3.2,0.8c-0.5-4.2-4.1-7.5-8.4-7.5c-4.5,0-8.2,3.5-8.5,7.9c-0.1,0-0.2,0-0.4,0c-2.9,0-5.2,2.3-5.2,5.2
		c0,0.8,0.2,1.6,0.5,2.3c-2.2,0-4,1.8-4,4.1c0,2.2,1.8,4.1,4.1,4.1h23.6h3.3h8.2c0.9,0,1.6-0.7,1.6-1.6S5080.6,154.8,5079.7,154.8z
		 M5063.2,149.9L5063.2,149.9C5063.2,149.9,5063.2,149.9,5063.2,149.9C5063.2,149.9,5063.2,149.9,5063.2,149.9z"/>
	<path class="st2" d="M4853.7,28.6h-4.2c0.1-0.3,0.1-0.5,0.1-0.8c0-0.7-0.2-1.3-0.5-1.9c0.8-1.1,1.3-2.5,1.3-4c0-3.7-3-6.8-6.8-6.8
		c-1.1,0-2.2,0.3-3.2,0.8c-0.5-4.2-4.1-7.5-8.4-7.5c-4.5,0-8.2,3.5-8.5,7.9c-0.1,0-0.2,0-0.4,0c-2.9,0-5.2,2.3-5.2,5.2
		c0,0.8,0.2,1.6,0.5,2.3c-2.2,0-4,1.8-4,4.1c0,2.2,1.8,4.1,4.1,4.1h23.6h3.3h8.2c0.9,0,1.6-0.7,1.6-1.6S4854.6,28.6,4853.7,28.6z
		 M4837.2,23.7L4837.2,23.7C4837.2,23.7,4837.2,23.7,4837.2,23.7C4837.2,23.7,4837.2,23.7,4837.2,23.7z"/>
	<path class="st2" d="M4705.8,167.3h-4.2c0.1-0.3,0.1-0.5,0.1-0.8c0-0.7-0.2-1.3-0.5-1.9c0.8-1.1,1.3-2.5,1.3-4c0-3.7-3-6.8-6.8-6.8
		c-1.1,0-2.2,0.3-3.2,0.8c-0.5-4.2-4.1-7.5-8.4-7.5c-4.5,0-8.2,3.5-8.5,7.9c-0.1,0-0.2,0-0.4,0c-2.9,0-5.2,2.3-5.2,5.2
		c0,0.8,0.2,1.6,0.5,2.3c-2.2,0-4,1.8-4,4.1c0,2.2,1.8,4.1,4.1,4.1h23.6h3.3h8.2c0.9,0,1.6-0.7,1.6-1.6S4706.6,167.3,4705.8,167.3z
		 M4689.3,162.4L4689.3,162.4C4689.3,162.4,4689.3,162.4,4689.3,162.4C4689.3,162.4,4689.3,162.4,4689.3,162.4z"/>
	<path class="st2" d="M4395.8,184.6h-4.2c0.1-0.3,0.1-0.5,0.1-0.8c0-0.7-0.2-1.3-0.5-1.9c0.8-1.1,1.3-2.5,1.3-4c0-3.7-3-6.8-6.8-6.8
		c-1.1,0-2.2,0.3-3.2,0.8c-0.5-4.2-4.1-7.5-8.4-7.5c-4.5,0-8.2,3.5-8.5,7.9c-0.1,0-0.2,0-0.4,0c-2.9,0-5.2,2.3-5.2,5.2
		c0,0.8,0.2,1.6,0.5,2.3c-2.2,0-4,1.8-4,4.1c0,2.2,1.8,4.1,4.1,4.1h23.6h3.3h8.2c0.9,0,1.6-0.7,1.6-1.6S4396.6,184.6,4395.8,184.6z
		 M4379.3,179.7L4379.3,179.7C4379.3,179.7,4379.3,179.7,4379.3,179.7C4379.3,179.7,4379.3,179.7,4379.3,179.7z"/>
	<path class="st2" d="M4005.8,46.7h-4.2c0.1-0.3,0.1-0.5,0.1-0.8c0-0.7-0.2-1.3-0.5-1.9c0.8-1.1,1.3-2.5,1.3-4c0-3.7-3-6.8-6.8-6.8
		c-1.1,0-2.2,0.3-3.2,0.8c-0.5-4.2-4.1-7.5-8.4-7.5c-4.5,0-8.2,3.5-8.5,7.9c-0.1,0-0.2,0-0.4,0c-2.9,0-5.2,2.3-5.2,5.2
		c0,0.8,0.2,1.6,0.5,2.3c-2.2,0-4,1.8-4,4.1c0,2.2,1.8,4.1,4.1,4.1h23.6h3.3h8.2c0.9,0,1.6-0.7,1.6-1.6
		C4007.4,47.4,4006.6,46.7,4005.8,46.7z M3989.3,41.8L3989.3,41.8L3989.3,41.8L3989.3,41.8z"/>
	<path class="st2" d="M3789.8,201.4h-4.2c0.1-0.3,0.1-0.5,0.1-0.8c0-0.7-0.2-1.3-0.5-1.9c0.8-1.1,1.3-2.5,1.3-4c0-3.7-3-6.8-6.8-6.8
		c-1.1,0-2.2,0.3-3.2,0.8c-0.5-4.2-4.1-7.5-8.4-7.5c-4.5,0-8.2,3.5-8.5,7.9c-0.1,0-0.2,0-0.4,0c-2.9,0-5.2,2.3-5.2,5.2
		c0,0.8,0.2,1.6,0.5,2.3c-2.2,0-4,1.8-4,4.1c0,2.2,1.8,4.1,4.1,4.1h23.6h3.3h8.2c0.9,0,1.6-0.7,1.6-1.6S3790.6,201.4,3789.8,201.4z
		 M3773.3,196.5L3773.3,196.5C3773.3,196.5,3773.3,196.5,3773.3,196.5C3773.3,196.5,3773.3,196.5,3773.3,196.5z"/>
	<path class="st2" d="M3507.8,99.7h-4.2c0.1-0.3,0.1-0.5,0.1-0.8c0-0.7-0.2-1.3-0.5-1.9c0.8-1.1,1.3-2.5,1.3-4c0-3.7-3-6.8-6.8-6.8
		c-1.1,0-2.2,0.3-3.2,0.8c-0.5-4.2-4.1-7.5-8.4-7.5c-4.5,0-8.2,3.5-8.5,7.9c-0.1,0-0.2,0-0.4,0c-2.9,0-5.2,2.3-5.2,5.2
		c0,0.8,0.2,1.6,0.5,2.3c-2.2,0-4,1.8-4,4.1c0,2.2,1.8,4.1,4.1,4.1h23.6h3.3h8.2c0.9,0,1.6-0.7,1.6-1.6
		C3509.4,100.4,3508.6,99.7,3507.8,99.7z M3491.3,94.8L3491.3,94.8C3491.3,94.8,3491.3,94.8,3491.3,94.8
		C3491.3,94.8,3491.3,94.8,3491.3,94.8z"/>
	<path class="st2" d="M4361.2,134.2h-5.5c0.1-0.4,0.1-0.7,0.1-1.1c0-0.9-0.2-1.7-0.6-2.5c1.1-1.5,1.8-3.3,1.8-5.3
		c0-4.9-4-8.9-8.9-8.9c-1.5,0-2.9,0.4-4.1,1c-0.7-5.5-5.4-9.8-11.1-9.8c-5.9,0-10.7,4.6-11.1,10.4c-0.2,0-0.3,0-0.5,0
		c-3.7,0-6.8,3-6.8,6.8c0,1.1,0.3,2.1,0.7,3c-2.9,0-5.2,2.4-5.2,5.3c0,2.9,2.4,5.3,5.3,5.3h30.9h4.3h10.7c1.2,0,2.1-0.9,2.1-2.1
		C4363.4,135.2,4362.4,134.2,4361.2,134.2z M4339.6,127.8L4339.6,127.8C4339.6,127.8,4339.6,127.8,4339.6,127.8
		C4339.6,127.8,4339.6,127.8,4339.6,127.8z"/>
	<path class="st2" d="M3539.3,48.5h-8c0.1-0.5,0.2-1,0.2-1.6c0-1.3-0.3-2.5-0.9-3.6c1.6-2.1,2.6-4.8,2.6-7.7
		c0-7.1-5.8-12.9-12.9-12.9c-2.2,0-4.2,0.5-6,1.5c-1-8-7.8-14.2-16.1-14.2c-8.5,0-15.5,6.6-16.1,15c-0.2,0-0.5,0-0.7,0
		c-5.4,0-9.8,4.4-9.8,9.8c0,1.6,0.4,3,1,4.3c-4.2,0.1-7.6,3.5-7.6,7.7c0,4.3,3.5,7.7,7.7,7.7h44.8h6.3h15.5c1.7,0,3.1-1.4,3.1-3.1
		C3542.4,49.8,3541,48.5,3539.3,48.5z M3508,39.2L3508,39.2C3508,39.2,3508,39.2,3508,39.2C3508,39.2,3508,39.2,3508,39.2z"/>
	<path class="st2" d="M3884,154.4h-5.2c0.1-0.3,0.1-0.7,0.1-1c0-0.9-0.2-1.7-0.6-2.4c1-1.4,1.7-3.1,1.7-5c0-4.6-3.8-8.4-8.4-8.4
		c-1.4,0-2.7,0.4-3.9,1c-0.6-5.2-5.1-9.3-10.5-9.3c-5.6,0-10.1,4.3-10.5,9.8c-0.2,0-0.3,0-0.5,0c-3.6,0-6.4,2.9-6.4,6.4
		c0,1,0.2,2,0.7,2.8c-2.7,0-5,2.3-5,5c0,2.8,2.3,5,5,5h29.3h4.1h10.2c1.1,0,2-0.9,2-2C3886,155.3,3885.1,154.4,3884,154.4z
		 M3863.5,148.4L3863.5,148.4C3863.5,148.4,3863.5,148.4,3863.5,148.4C3863.5,148.4,3863.5,148.4,3863.5,148.4z"/>
</g>
<g id="Night_BLDG_BG_3">
	<path class="st6" d="M0,607.7V178h107.7v32.8h11v-56.7c0-2.8,2.4-4.9,4.9-4.1l65,18.6v70.3h14.7v11.2h13.1v-41.4h36.1V162h52.1v69
		h85.6v-93.3h71.8v59.6h11v-41.1h41.4v52.5h68.1v166.7h33.1V255l74.6-30v-63h72.7v58.5h16.8v-42.8h60.6v-28h35.9v529H0V607.7z"/>
	<path class="st6" d="M876.4,615.7V206H768.7v32.8h-11v-56.7c0-2.8-2.4-4.9-4.9-4.1l-65,18.6v70.3h-14.7v11.2h-13.1v-41.4h-36.1V190
		h-52.1v69h-85.6v-93.3h-71.8v59.6h-11v-41.1h-41.4v52.5h-68.1v166.7h-33.1V283L186,253v-63h-72.7v58.5H96.5v-42.8H35.9v-28H0v509
		h876.4V615.7z"/>
</g>
<g id="_x33_">
	<rect id="Sky_Floor_8_" x="3786" y="617" class="st7" width="2952.7" height="71.4"/>
	<rect id="Sky_Floor_3_" x="3786" y="634.4" class="st4" width="2952.7" height="54"/>
	<rect id="Sky_Floor_1_" x="3785" y="634.4" class="st7" width="2953.7" height="0.2"/>
</g>
<g id="Stars_and_Constellations_2">
	<g id="Stars">
		<path class="st2" d="M1024.4,51.3l-2.5-2.4c-0.2-0.2-0.6-0.3-0.9-0.2l-3.4,0.8c-0.8,0.2-1.4-0.6-1.1-1.3l1.5-3.2
			c0.1-0.3,0.1-0.6,0-0.9l-1.8-3c-0.4-0.7,0.2-1.5,0.9-1.4l3.5,0.4c0.3,0,0.6-0.1,0.8-0.3l2.3-2.6c0.5-0.6,1.5-0.3,1.7,0.5l0.7,3.4
			c0.1,0.3,0.3,0.6,0.6,0.7l3.2,1.4c0.7,0.3,0.8,1.3,0.1,1.7l-3,1.7c-0.3,0.2-0.5,0.4-0.5,0.7l-0.3,3.5
			C1025.9,51.5,1024.9,51.9,1024.4,51.3"/>
		<path class="st2" d="M1127.4,158.6c0,1.9-1.6,3.5-3.5,3.5c-1.9,0-3.5-1.6-3.5-3.5c0-1.9,1.6-3.5,3.5-3.5
			C1125.8,155,1127.4,156.6,1127.4,158.6"/>
		<path class="st2" d="M1017.4,278.6c0,1.9-1.6,3.5-3.5,3.5c-1.9,0-3.5-1.6-3.5-3.5c0-1.9,1.6-3.5,3.5-3.5
			C1015.8,275,1017.4,276.6,1017.4,278.6"/>
		<path class="st2" d="M1198.6,632.7c-1.9-0.2-3.4-1.9-3.2-3.9c0.2-1.9,1.9-3.4,3.9-3.2c1.9,0.2,3.4,1.9,3.2,3.9
			C1202.2,631.5,1200.5,632.9,1198.6,632.7"/>
		<path class="st2" d="M1040,511.4c-1.9-0.2-3.4-1.9-3.2-3.9c0.2-1.9,1.9-3.4,3.9-3.2c1.9,0.2,3.4,1.9,3.2,3.9
			C1043.7,510.2,1041.9,511.6,1040,511.4"/>
		<path class="st2" d="M1734.6,595.7c-1.9-0.2-3.4-1.9-3.2-3.9c0.2-1.9,1.9-3.4,3.9-3.2c1.9,0.2,3.4,1.9,3.2,3.9
			C1738.2,594.5,1736.5,595.9,1734.6,595.7"/>
		<path class="st2" d="M1718.2,414.7c-1.9-0.2-3.4-1.9-3.2-3.9c0.2-1.9,1.9-3.4,3.9-3.2c1.9,0.2,3.4,1.9,3.2,3.9
			C1721.8,413.5,1720.1,414.9,1718.2,414.7"/>
		<path class="st2" d="M1693.2,223.2c-1.9-0.2-3.4-1.9-3.2-3.9c0.2-1.9,1.9-3.4,3.9-3.2c1.9,0.2,3.4,1.9,3.2,3.9
			S1695.1,223.4,1693.2,223.2"/>
		<path class="st2" d="M1729.2,185.2c-1.9-0.2-3.4-1.9-3.2-3.9c0.2-1.9,1.9-3.4,3.9-3.2c1.9,0.2,3.4,1.9,3.2,3.9
			S1731.1,185.4,1729.2,185.2"/>
		<path class="st2" d="M1856.7,66.7c-1.9-0.2-3.4-1.9-3.2-3.9c0.2-1.9,1.9-3.4,3.9-3.2c1.9,0.2,3.4,1.9,3.2,3.9
			C1860.3,65.4,1858.6,66.9,1856.7,66.7"/>
		<path class="st2" d="M1615.1,24.4c-1.9-0.2-3.4-1.9-3.2-3.9c0.2-1.9,1.9-3.4,3.9-3.2c1.9,0.2,3.4,1.9,3.2,3.9
			C1618.8,23.2,1617,24.6,1615.1,24.4"/>
		<path class="st2" d="M1235.8,37c-1.9-0.2-3.4-1.9-3.2-3.9c0.2-1.9,1.9-3.4,3.9-3.2c1.9,0.2,3.4,1.9,3.2,3.9
			C1239.5,35.8,1237.8,37.2,1235.8,37"/>
		<path class="st2" d="M1531.4,661.3l-2.5-2.4c-0.2-0.2-0.6-0.3-0.9-0.2l-3.4,0.8c-0.8,0.2-1.4-0.6-1.1-1.3l1.5-3.2
			c0.1-0.3,0.1-0.6,0-0.9l-1.8-3c-0.4-0.7,0.2-1.5,0.9-1.4l3.5,0.4c0.3,0,0.6-0.1,0.8-0.3l2.3-2.6c0.5-0.6,1.5-0.3,1.7,0.5l0.7,3.4
			c0.1,0.3,0.3,0.6,0.6,0.7l3.2,1.4c0.7,0.3,0.8,1.3,0.1,1.7l-3,1.7c-0.3,0.2-0.5,0.4-0.5,0.7l-0.3,3.5
			C1532.9,661.5,1531.9,661.9,1531.4,661.3"/>
		<path class="st2" d="M1825.6,332.5l-2.8,2.1c-0.3,0.2-0.4,0.5-0.4,0.8l0.2,3.5c0,0.8-0.8,1.3-1.5,0.8l-2.9-2
			c-0.3-0.2-0.6-0.2-0.9-0.1l-3.3,1.2c-0.7,0.3-1.5-0.4-1.3-1.2l1-3.3c0.1-0.3,0-0.6-0.2-0.9l-2.2-2.7c-0.5-0.6-0.1-1.5,0.7-1.6
			l3.5-0.1c0.3,0,0.6-0.2,0.8-0.4l1.9-2.9c0.4-0.7,1.4-0.5,1.7,0.2l1.1,3.3c0.1,0.3,0.3,0.5,0.7,0.6l3.4,0.9
			C1826,331,1826.2,332,1825.6,332.5"/>
		<path class="st2" d="M1521.2,46.3l-1.5-1.4c-0.1-0.1-0.3-0.2-0.5-0.1l-2.1,0.5c-0.5,0.1-0.9-0.4-0.7-0.8l0.9-1.9
			c0.1-0.2,0.1-0.4,0-0.5l-1.1-1.8c-0.2-0.4,0.1-0.9,0.6-0.9l2.1,0.3c0.2,0,0.4,0,0.5-0.2l1.4-1.6c0.3-0.4,0.9-0.2,1,0.3l0.4,2.1
			c0,0.2,0.2,0.3,0.3,0.4l1.9,0.8c0.4,0.2,0.5,0.8,0.1,1l-1.8,1c-0.2,0.1-0.3,0.3-0.3,0.5l-0.2,2.1
			C1522.1,46.4,1521.5,46.6,1521.2,46.3"/>
		<path class="st2" d="M988.4,582l-2.2-2c-0.2-0.2-0.5-0.3-0.7-0.2l-2.9,0.7c-0.7,0.1-1.2-0.5-0.9-1.2l1.3-2.7
			c0.1-0.2,0.1-0.5,0-0.8l-1.5-2.6c-0.3-0.6,0.1-1.3,0.8-1.2l3,0.4c0.3,0,0.5-0.1,0.7-0.3l2-2.2c0.5-0.5,1.3-0.3,1.4,0.4l0.6,2.9
			c0.1,0.3,0.2,0.5,0.5,0.6l2.8,1.2c0.6,0.3,0.7,1.1,0.1,1.5l-2.6,1.5c-0.2,0.1-0.4,0.4-0.4,0.6l-0.3,3
			C989.7,582.2,988.9,582.5,988.4,582"/>
		<path class="st2" d="M958.3,674c0,0.4-0.3,0.7-0.7,0.7c-0.4,0-0.7-0.3-0.7-0.7c0-0.4,0.3-0.7,0.7-0.7
			C958,673.4,958.3,673.7,958.3,674"/>
		<path class="st2" d="M1036.3,539c0,0.4-0.3,0.7-0.7,0.7c-0.4,0-0.7-0.3-0.7-0.7s0.3-0.7,0.7-0.7
			C1036,538.4,1036.3,538.7,1036.3,539"/>
		<path class="st2" d="M996.3,405c0,0.4-0.3,0.7-0.7,0.7c-0.4,0-0.7-0.3-0.7-0.7s0.3-0.7,0.7-0.7C996,404.4,996.3,404.7,996.3,405"
			/>
		<path class="st2" d="M1111.3,311c0,0.4-0.3,0.7-0.7,0.7c-0.4,0-0.7-0.3-0.7-0.7c0-0.4,0.3-0.7,0.7-0.7
			C1111,310.4,1111.3,310.7,1111.3,311"/>
		<path class="st2" d="M1053.3,218c0,0.4-0.3,0.7-0.7,0.7c-0.4,0-0.7-0.3-0.7-0.7c0-0.4,0.3-0.7,0.7-0.7
			C1053,217.4,1053.3,217.7,1053.3,218"/>
		<path class="st2" d="M1011.3,127c0,0.4-0.3,0.7-0.7,0.7c-0.4,0-0.7-0.3-0.7-0.7c0-0.4,0.3-0.7,0.7-0.7
			C1011,126.4,1011.3,126.7,1011.3,127"/>
		<path class="st2" d="M1078.3,39c0,0.4-0.3,0.7-0.7,0.7c-0.4,0-0.7-0.3-0.7-0.7c0-0.4,0.3-0.7,0.7-0.7
			C1078,38.4,1078.3,38.7,1078.3,39"/>
		<path class="st2" d="M1223.3,146c0,0.4-0.3,0.7-0.7,0.7c-0.4,0-0.7-0.3-0.7-0.7c0-0.4,0.3-0.7,0.7-0.7
			C1223,145.4,1223.3,145.7,1223.3,146"/>
		<path class="st2" d="M1406.3,132c0,0.4-0.3,0.7-0.7,0.7c-0.4,0-0.7-0.3-0.7-0.7c0-0.4,0.3-0.7,0.7-0.7
			C1406,131.4,1406.3,131.7,1406.3,132"/>
		<path class="st2" d="M1381.3,68c0,0.4-0.3,0.7-0.7,0.7c-0.4,0-0.7-0.3-0.7-0.7c0-0.4,0.3-0.7,0.7-0.7
			C1381,67.4,1381.3,67.7,1381.3,68"/>
		<path class="st2" d="M1571.3,75c0,0.4-0.3,0.7-0.7,0.7c-0.4,0-0.7-0.3-0.7-0.7c0-0.4,0.3-0.7,0.7-0.7
			C1571,74.4,1571.3,74.7,1571.3,75"/>
		<path class="st2" d="M1575.3,195c0,0.4-0.3,0.7-0.7,0.7c-0.4,0-0.7-0.3-0.7-0.7c0-0.4,0.3-0.7,0.7-0.7
			C1575,194.4,1575.3,194.7,1575.3,195"/>
		<path class="st2" d="M1729.3,74c0,0.4-0.3,0.7-0.7,0.7c-0.4,0-0.7-0.3-0.7-0.7c0-0.4,0.3-0.7,0.7-0.7
			C1729,73.4,1729.3,73.7,1729.3,74"/>
		<path class="st2" d="M1893.3,38c0,0.4-0.3,0.7-0.7,0.7c-0.4,0-0.7-0.3-0.7-0.7c0-0.4,0.3-0.7,0.7-0.7
			C1893,37.4,1893.3,37.7,1893.3,38"/>
		<path class="st2" d="M1834.3,184c0,0.4-0.3,0.7-0.7,0.7c-0.4,0-0.7-0.3-0.7-0.7c0-0.4,0.3-0.7,0.7-0.7
			C1834,183.4,1834.3,183.7,1834.3,184"/>
		<path class="st2" d="M1788.3,257c0,0.4-0.3,0.7-0.7,0.7c-0.4,0-0.7-0.3-0.7-0.7c0-0.4,0.3-0.7,0.7-0.7
			C1788,256.4,1788.3,256.7,1788.3,257"/>
		<path class="st2" d="M958.3,674c0,0.4-0.3,0.7-0.7,0.7c-0.4,0-0.7-0.3-0.7-0.7c0-0.4,0.3-0.7,0.7-0.7
			C958,673.4,958.3,673.7,958.3,674"/>
		<path class="st2" d="M1627.3,398c0,0.4-0.3,0.7-0.7,0.7c-0.4,0-0.7-0.3-0.7-0.7s0.3-0.7,0.7-0.7
			C1627,397.4,1627.3,397.7,1627.3,398"/>
		<path class="st2" d="M1792.3,420c0,0.4-0.3,0.7-0.7,0.7c-0.4,0-0.7-0.3-0.7-0.7s0.3-0.7,0.7-0.7
			C1792,419.4,1792.3,419.7,1792.3,420"/>
		<path class="st2" d="M1724.3,150c0,0.4-0.3,0.7-0.7,0.7c-0.4,0-0.7-0.3-0.7-0.7c0-0.4,0.3-0.7,0.7-0.7
			C1724,149.4,1724.3,149.7,1724.3,150"/>
		<path class="st2" d="M1674.3,314c0,0.4-0.3,0.7-0.7,0.7c-0.4,0-0.7-0.3-0.7-0.7c0-0.4,0.3-0.7,0.7-0.7
			C1674,313.4,1674.3,313.7,1674.3,314"/>
		<path class="st2" d="M1797.3,649c0,0.4-0.3,0.7-0.7,0.7c-0.4,0-0.7-0.3-0.7-0.7c0-0.4,0.3-0.7,0.7-0.7
			C1797,648.4,1797.3,648.7,1797.3,649"/>
		<path class="st2" d="M1636.3,667c0,0.4-0.3,0.7-0.7,0.7c-0.4,0-0.7-0.3-0.7-0.7c0-0.4,0.3-0.7,0.7-0.7
			C1636,666.4,1636.3,666.7,1636.3,667"/>
		<path class="st2" d="M1585.3,598c0,0.4-0.3,0.7-0.7,0.7c-0.4,0-0.7-0.3-0.7-0.7c0-0.4,0.3-0.7,0.7-0.7
			C1585,597.4,1585.3,597.7,1585.3,598"/>
		<path class="st2" d="M1453.3,533c0,0.4-0.3,0.7-0.7,0.7c-0.4,0-0.7-0.3-0.7-0.7s0.3-0.7,0.7-0.7
			C1453,532.4,1453.3,532.7,1453.3,533"/>
		<path class="st2" d="M1362.3,631c0,0.4-0.3,0.7-0.7,0.7c-0.4,0-0.7-0.3-0.7-0.7c0-0.4,0.3-0.7,0.7-0.7
			C1362,630.4,1362.3,630.7,1362.3,631"/>
		<path class="st2" d="M1243.3,529c0,0.4-0.3,0.7-0.7,0.7c-0.4,0-0.7-0.3-0.7-0.7s0.3-0.7,0.7-0.7
			C1243,528.4,1243.3,528.7,1243.3,529"/>
		<path class="st2" d="M1131.3,638c0,0.4-0.3,0.7-0.7,0.7c-0.4,0-0.7-0.3-0.7-0.7c0-0.4,0.3-0.7,0.7-0.7
			C1131,637.4,1131.3,637.7,1131.3,638"/>
		<path class="st2" d="M1464.7,354.2c-1.9-0.2-3.4-1.9-3.2-3.9c0.2-1.9,1.9-3.4,3.9-3.2c1.9,0.2,3.4,1.9,3.2,3.9
			C1468.4,353,1466.7,354.4,1464.7,354.2"/>
		<path class="st2" d="M1306.2,232.9c-1.9-0.2-3.4-1.9-3.2-3.9c0.2-1.9,1.9-3.4,3.9-3.2c1.9,0.2,3.4,1.9,3.2,3.9
			C1309.8,231.7,1308.1,233.1,1306.2,232.9"/>
		<path class="st2" d="M1292.5,365.4l-2.2-2c-0.2-0.2-0.5-0.3-0.7-0.2l-2.9,0.7c-0.7,0.1-1.2-0.5-0.9-1.2l1.3-2.7
			c0.1-0.2,0.1-0.5,0-0.8l-1.5-2.6c-0.3-0.6,0.1-1.3,0.8-1.2l3,0.4c0.3,0,0.5-0.1,0.7-0.3l2-2.2c0.5-0.5,1.3-0.3,1.4,0.4l0.6,2.9
			c0.1,0.3,0.2,0.5,0.5,0.6l2.8,1.2c0.6,0.3,0.7,1.1,0.1,1.5l-2.6,1.5c-0.2,0.1-0.4,0.4-0.4,0.6l-0.3,3
			C1293.9,365.5,1293,365.8,1292.5,365.4"/>
		<path class="st2" d="M1302.5,260.6c0,0.4-0.3,0.7-0.7,0.7c-0.4,0-0.7-0.3-0.7-0.7c0-0.4,0.3-0.7,0.7-0.7
			C1302.2,259.9,1302.5,260.2,1302.5,260.6"/>
		<path class="st2" d="M1397.5,359.6c0,0.4-0.3,0.7-0.7,0.7c-0.4,0-0.7-0.3-0.7-0.7c0-0.4,0.3-0.7,0.7-0.7
			C1397.2,358.9,1397.5,359.2,1397.5,359.6"/>
		<path class="st2" d="M1241.3,342c0,0.4-0.3,0.7-0.7,0.7c-0.4,0-0.7-0.3-0.7-0.7c0-0.4,0.3-0.7,0.7-0.7
			C1241,341.4,1241.3,341.7,1241.3,342"/>
		<path class="st2" d="M2351.2,632.7c1.9-0.2,3.4-1.9,3.2-3.9c-0.2-1.9-1.9-3.4-3.9-3.2c-1.9,0.2-3.4,1.9-3.2,3.9
			C2347.5,631.5,2349.2,632.9,2351.2,632.7"/>
		<path class="st2" d="M1934.6,24.4c1.9-0.2,3.4-1.9,3.2-3.9c-0.2-1.9-1.9-3.4-3.9-3.2c-1.9,0.2-3.4,1.9-3.2,3.9
			C1931,23.2,1932.7,24.6,1934.6,24.4"/>
		<path class="st2" d="M2169.6,56.5c1.9-0.2,3.4-1.9,3.2-3.9c-0.2-1.9-1.9-3.4-3.9-3.2c-1.9,0.2-3.4,1.9-3.2,3.9
			C2165.9,55.3,2167.6,56.7,2169.6,56.5"/>
		<path class="st2" d="M2018.4,661.3l2.5-2.4c0.2-0.2,0.6-0.3,0.9-0.2l3.4,0.8c0.8,0.2,1.4-0.6,1.1-1.3l-1.5-3.2
			c-0.1-0.3-0.1-0.6,0-0.9l1.8-3c0.4-0.7-0.2-1.5-0.9-1.4l-3.5,0.4c-0.3,0-0.6-0.1-0.8-0.3l-2.3-2.6c-0.5-0.6-1.5-0.3-1.7,0.5
			l-0.7,3.4c-0.1,0.3-0.3,0.6-0.6,0.7l-3.2,1.4c-0.7,0.3-0.8,1.3-0.1,1.7l3,1.7c0.3,0.2,0.5,0.4,0.5,0.7l0.3,3.5
			C2016.8,661.5,2017.8,661.9,2018.4,661.3"/>
		<path class="st2" d="M2028.6,46.3l1.5-1.4c0.1-0.1,0.3-0.2,0.5-0.1l2.1,0.5c0.5,0.1,0.9-0.4,0.7-0.8l-0.9-1.9
			c-0.1-0.2-0.1-0.4,0-0.5l1.1-1.8c0.2-0.4-0.1-0.9-0.6-0.9l-2.1,0.3c-0.2,0-0.4,0-0.5-0.2l-1.4-1.6c-0.3-0.4-0.9-0.2-1,0.3
			l-0.4,2.1c0,0.2-0.2,0.3-0.3,0.4l-1.9,0.8c-0.4,0.2-0.5,0.8-0.1,1l1.8,1c0.2,0.1,0.3,0.3,0.3,0.5l0.2,2.1
			C2027.6,46.4,2028.2,46.6,2028.6,46.3"/>
		<path class="st2" d="M2326.4,146c0,0.4,0.3,0.7,0.7,0.7c0.4,0,0.7-0.3,0.7-0.7c0-0.4-0.3-0.7-0.7-0.7
			C2326.7,145.4,2326.4,145.7,2326.4,146"/>
		<path class="st2" d="M2143.4,132c0,0.4,0.3,0.7,0.7,0.7c0.4,0,0.7-0.3,0.7-0.7c0-0.4-0.3-0.7-0.7-0.7
			C2143.7,131.4,2143.4,131.7,2143.4,132"/>
		<path class="st2" d="M2168.4,68c0,0.4,0.3,0.7,0.7,0.7c0.4,0,0.7-0.3,0.7-0.7c0-0.4-0.3-0.7-0.7-0.7
			C2168.7,67.4,2168.4,67.7,2168.4,68"/>
		<path class="st2" d="M1998.4,85c0,0.4,0.3,0.7,0.7,0.7c0.4,0,0.7-0.3,0.7-0.7c0-0.4-0.3-0.7-0.7-0.7
			C1998.7,84.4,1998.4,84.7,1998.4,85"/>
		<path class="st2" d="M1974.4,195c0,0.4,0.3,0.7,0.7,0.7c0.4,0,0.7-0.3,0.7-0.7c0-0.4-0.3-0.7-0.7-0.7
			C1974.7,194.4,1974.4,194.7,1974.4,195"/>
		<path class="st2" d="M1922.4,398c0,0.4,0.3,0.7,0.7,0.7c0.4,0,0.7-0.3,0.7-0.7s-0.3-0.7-0.7-0.7
			C1922.7,397.4,1922.4,397.7,1922.4,398"/>
		<path class="st2" d="M1875.4,314c0,0.4,0.3,0.7,0.7,0.7c0.4,0,0.7-0.3,0.7-0.7c0-0.4-0.3-0.7-0.7-0.7
			C1875.7,313.4,1875.4,313.7,1875.4,314"/>
		<path class="st2" d="M1913.4,667c0,0.4,0.3,0.7,0.7,0.7c0.4,0,0.7-0.3,0.7-0.7c0-0.4-0.3-0.7-0.7-0.7
			C1913.7,666.4,1913.4,666.7,1913.4,667"/>
		<path class="st2" d="M1964.4,598c0,0.4,0.3,0.7,0.7,0.7c0.4,0,0.7-0.3,0.7-0.7c0-0.4-0.3-0.7-0.7-0.7
			C1964.7,597.4,1964.4,597.7,1964.4,598"/>
		<path class="st2" d="M2096.4,533c0,0.4,0.3,0.7,0.7,0.7c0.4,0,0.7-0.3,0.7-0.7s-0.3-0.7-0.7-0.7
			C2096.7,532.4,2096.4,532.7,2096.4,533"/>
		<path class="st2" d="M2187.4,631c0,0.4,0.3,0.7,0.7,0.7c0.4,0,0.7-0.3,0.7-0.7c0-0.4-0.3-0.7-0.7-0.7
			C2187.7,630.4,2187.4,630.7,2187.4,631"/>
		<path class="st2" d="M2306.4,529c0,0.4,0.3,0.7,0.7,0.7c0.4,0,0.7-0.3,0.7-0.7s-0.3-0.7-0.7-0.7
			C2306.7,528.4,2306.4,528.7,2306.4,529"/>
		<path class="st2" d="M2308.4,342c0,0.4,0.3,0.7,0.7,0.7c0.4,0,0.7-0.3,0.7-0.7c0-0.4-0.3-0.7-0.7-0.7
			C2308.7,341.4,2308.4,341.7,2308.4,342"/>
		<path class="st2" d="M780.4,94.6c0,1.9-1.6,3.5-3.5,3.5c-1.9,0-3.5-1.6-3.5-3.5c0-1.9,1.6-3.5,3.5-3.5
			C778.8,91,780.4,92.6,780.4,94.6"/>
		<path class="st2" d="M816.3,34c0,0.4-0.3,0.7-0.7,0.7c-0.4,0-0.7-0.3-0.7-0.7c0-0.4,0.3-0.7,0.7-0.7C816,33.4,816.3,33.7,816.3,34
			"/>
		<path class="st2" d="M2710.6,62.2l-1.6-3.1c-0.1-0.3-0.4-0.5-0.7-0.5l-3.5-0.4c-0.8-0.1-1.1-1-0.6-1.6l2.4-2.5
			c0.2-0.2,0.3-0.5,0.2-0.9l-0.7-3.4c-0.2-0.8,0.6-1.4,1.4-1l3.1,1.5c0.3,0.1,0.6,0.1,0.9,0l3-1.7c0.7-0.4,1.5,0.2,1.4,1l-0.5,3.4
			c0,0.3,0.1,0.6,0.3,0.8l2.6,2.4c0.6,0.5,0.3,1.5-0.5,1.6l-3.4,0.6c-0.3,0.1-0.6,0.3-0.7,0.5l-1.4,3.2
			C2712,62.9,2711,62.9,2710.6,62.2"/>
		<path class="st2" d="M2773.1,197.1c-0.6,1.8-2.6,2.8-4.5,2.2c-1.8-0.6-2.8-2.6-2.2-4.5c0.6-1.8,2.6-2.8,4.5-2.2
			C2772.8,193.3,2773.8,195.3,2773.1,197.1"/>
		<path class="st2" d="M2630.1,274.7c-0.6,1.8-2.6,2.8-4.5,2.2c-1.8-0.6-2.8-2.6-2.2-4.5c0.6-1.8,2.6-2.8,4.5-2.2
			C2629.7,270.9,2630.7,272.9,2630.1,274.7"/>
		<path class="st2" d="M2575.6,502.3c-1.8-0.8-2.5-2.9-1.7-4.7c0.8-1.8,2.9-2.5,4.7-1.7c1.8,0.8,2.5,2.9,1.7,4.7
			C2579.5,502.3,2577.4,503.1,2575.6,502.3"/>
		<path class="st2" d="M2519.6,623l-1.4-2.7c-0.1-0.2-0.4-0.4-0.6-0.4l-3-0.3c-0.7-0.1-1-0.9-0.5-1.4l2.1-2.2
			c0.2-0.2,0.3-0.5,0.2-0.7l-0.6-2.9c-0.1-0.7,0.6-1.2,1.2-0.9l2.7,1.3c0.2,0.1,0.5,0.1,0.8,0l2.6-1.5c0.6-0.3,1.3,0.2,1.2,0.8
			l-0.4,3c0,0.3,0.1,0.5,0.3,0.7l2.2,2c0.5,0.5,0.3,1.3-0.4,1.4l-3,0.5c-0.3,0-0.5,0.2-0.6,0.5l-1.2,2.7
			C2520.8,623.6,2519.9,623.6,2519.6,623"/>
		<path class="st2" d="M2445.5,629.4c-0.1,0.3-0.5,0.5-0.8,0.4c-0.3-0.1-0.5-0.5-0.4-0.8c0.1-0.3,0.5-0.5,0.8-0.4
			C2445.4,628.7,2445.6,629.1,2445.5,629.4"/>
		<path class="st2" d="M2563.2,527.2c-0.1,0.3-0.5,0.5-0.8,0.4c-0.3-0.1-0.5-0.5-0.4-0.8c0.1-0.3,0.5-0.5,0.8-0.4
			C2563.1,526.5,2563.3,526.9,2563.2,527.2"/>
		<path class="st2" d="M2569,387.5c-0.1,0.3-0.5,0.5-0.8,0.4c-0.3-0.1-0.5-0.5-0.4-0.8c0.1-0.3,0.5-0.5,0.8-0.4
			C2568.9,386.7,2569.1,387.1,2569,387.5"/>
		<path class="st2" d="M2708.3,336c-0.1,0.3-0.5,0.5-0.8,0.4c-0.3-0.1-0.5-0.5-0.4-0.8c0.1-0.3,0.5-0.5,0.8-0.4
			C2708.3,335.3,2708.4,335.7,2708.3,336"/>
		<path class="st2" d="M2683.8,229.2c-0.1,0.3-0.5,0.5-0.8,0.4c-0.3-0.1-0.5-0.5-0.4-0.8c0.1-0.3,0.5-0.5,0.8-0.4
			C2683.7,228.5,2683.9,228.9,2683.8,229.2"/>
		<path class="st2" d="M2673.7,129.5c-0.1,0.3-0.5,0.5-0.8,0.4c-0.3-0.1-0.5-0.5-0.4-0.8c0.1-0.3,0.5-0.5,0.8-0.4
			C2673.6,128.8,2673.8,129.2,2673.7,129.5"/>
		<path class="st2" d="M2765.7,68.1c-0.1,0.3-0.5,0.5-0.8,0.4c-0.3-0.1-0.5-0.5-0.4-0.8c0.1-0.3,0.5-0.5,0.8-0.4
			C2765.6,67.4,2765.8,67.8,2765.7,68.1"/>
		<path class="st2" d="M2445.5,629.4c-0.1,0.3-0.5,0.5-0.8,0.4c-0.3-0.1-0.5-0.5-0.4-0.8c0.1-0.3,0.5-0.5,0.8-0.4
			C2445.4,628.7,2445.6,629.1,2445.5,629.4"/>
		<path class="st2" d="M2382.7,149.8c-0.3,0.2-0.4,0.6-0.2,0.9c0.2,0.3,0.6,0.4,0.9,0.2s0.4-0.6,0.2-0.9
			C2383.4,149.7,2383,149.6,2382.7,149.8"/>
		<path class="st2" d="M2414.3,380.6l1.5-2.6c0.1-0.2,0.2-0.5,0-0.8l-1.3-2.7c-0.3-0.6,0.3-1.3,0.9-1.2l2.9,0.6
			c0.3,0.1,0.5,0,0.7-0.2l2.2-2.1c0.5-0.5,1.3-0.2,1.4,0.5l0.3,3c0,0.3,0.2,0.5,0.4,0.6l2.6,1.5c0.6,0.3,0.6,1.2-0.1,1.5l-2.8,1.2
			c-0.3,0.1-0.4,0.3-0.5,0.6l-0.6,2.9c-0.1,0.7-1,0.9-1.4,0.4l-2-2.2c-0.2-0.2-0.4-0.3-0.7-0.3l-3,0.4
			C2414.4,382,2414,381.2,2414.3,380.6"/>
		<path class="st2" d="M2370,320.8c-0.4,0.1-0.7-0.1-0.8-0.5c-0.1-0.4,0.1-0.7,0.5-0.8c0.4-0.1,0.7,0.1,0.8,0.5
			C2370.6,320.4,2370.4,320.8,2370,320.8"/>
		<path class="st2" d="M2370,320.8c-0.4,0.1-0.7-0.1-0.8-0.5c-0.1-0.4,0.1-0.7,0.5-0.8c0.4-0.1,0.7,0.1,0.8,0.5
			C2370.6,320.4,2370.4,320.8,2370,320.8"/>
		<path class="st2" d="M2620.8,651.7c-0.1,0.3-0.5,0.5-0.8,0.4c-0.3-0.1-0.5-0.5-0.4-0.8c0.1-0.3,0.5-0.5,0.8-0.4
			C2620.7,651,2620.9,651.4,2620.8,651.7"/>
		<path class="st2" d="M2465.9,23.6c-0.6,1.8-2.6,2.8-4.5,2.2c-1.8-0.6-2.8-2.6-2.2-4.5c0.6-1.8,2.6-2.8,4.5-2.2
			C2465.6,19.8,2466.5,21.8,2465.9,23.6"/>
		<path class="st2" d="M2519.6-21.9c-0.1,0.3-0.5,0.5-0.8,0.4c-0.3-0.1-0.5-0.5-0.4-0.8c0.1-0.3,0.5-0.5,0.8-0.4
			C2519.5-22.6,2519.7-22.3,2519.6-21.9"/>
		<path class="st2" d="M520.1,23.6c1.6,1.1,2.1,3.2,1,4.9c-1.1,1.6-3.2,2.1-4.9,1c-1.6-1.1-2.1-3.2-1-4.9
			C516.2,23,518.4,22.5,520.1,23.6"/>
		<path class="st2" d="M559.1,40.4c0.3,0.2,0.4,0.6,0.2,0.9c-0.2,0.3-0.6,0.4-0.9,0.2c-0.3-0.2-0.4-0.6-0.2-0.9
			C558.3,40.3,558.8,40.2,559.1,40.4"/>
		<path class="st2" d="M235.4,138.6c0,1.9-1.6,3.5-3.5,3.5c-1.9,0-3.5-1.6-3.5-3.5c0-1.9,1.6-3.5,3.5-3.5
			C233.8,135,235.4,136.6,235.4,138.6"/>
		<path class="st2" d="M321.3,128c0,0.4-0.3,0.7-0.7,0.7c-0.4,0-0.7-0.3-0.7-0.7c0-0.4,0.3-0.7,0.7-0.7
			C321,127.4,321.3,127.7,321.3,128"/>
		<path class="st2" d="M51.8,81c1.5,1.2,1.8,3.4,0.6,5c-1.2,1.5-3.4,1.8-5,0.6c-1.5-1.2-1.8-3.4-0.6-5C48.1,80.1,50.3,79.8,51.8,81"
			/>
		<path class="st2" d="M26.4,15.3c0.3,0.2,0.3,0.6,0.1,0.9c-0.2,0.3-0.6,0.3-0.9,0.1c-0.3-0.2-0.3-0.6-0.1-0.9
			C25.7,15.2,26.1,15.1,26.4,15.3"/>
		<path class="st2" d="M236.4,85.3c0.3,0.2,0.3,0.6,0.1,0.9c-0.2,0.3-0.6,0.3-0.9,0.1c-0.3-0.2-0.3-0.6-0.1-0.9
			C235.7,85.2,236.1,85.1,236.4,85.3"/>
		<path class="st2" d="M335.4,30.3c0.3,0.2,0.3,0.6,0.1,0.9c-0.2,0.3-0.6,0.3-0.9,0.1c-0.3-0.2-0.3-0.6-0.1-0.9
			C334.7,30.2,335.1,30.1,335.4,30.3"/>
		<path class="st2" d="M511.4,138.3c0.3,0.2,0.3,0.6,0.1,0.9c-0.2,0.3-0.6,0.3-0.9,0.1c-0.3-0.2-0.3-0.6-0.1-0.9
			C510.7,138.2,511.1,138.1,511.4,138.3"/>
		<path class="st2" d="M742.4,69.3c0.3,0.2,0.3,0.6,0.1,0.9c-0.2,0.3-0.6,0.3-0.9,0.1c-0.3-0.2-0.3-0.6-0.1-0.9
			C741.7,69.2,742.1,69.1,742.4,69.3"/>
	</g>
	<g id="Constellations">
		<g id="Monitor">
			<g id="Monitor_Cons">
				<path class="st2" d="M2445.6,291.4c0.9,1.1,2.5,1.3,3.6,0.5c1.1-0.9,1.3-2.5,0.5-3.6c-0.9-1.1-2.5-1.3-3.6-0.5
					C2444.9,288.7,2444.7,290.3,2445.6,291.4"/>
				<path class="st2" d="M2435.4,232.6c0.9,1.1,2.5,1.3,3.6,0.5c1.1-0.9,1.3-2.5,0.5-3.6c-0.9-1.1-2.5-1.3-3.6-0.5
					C2434.7,229.9,2434.5,231.5,2435.4,232.6"/>
				<path class="st2" d="M2557.2,273c0.9,1.1,2.5,1.3,3.6,0.5c1.1-0.9,1.3-2.5,0.5-3.6c-0.9-1.1-2.5-1.3-3.6-0.5
					C2556.6,270.3,2556.4,271.9,2557.2,273"/>
				<path class="st2" d="M2550.2,207.3c0.9,1.1,2.5,1.3,3.6,0.5c1.1-0.9,1.3-2.5,0.5-3.6c-0.9-1.1-2.5-1.3-3.6-0.5
					C2549.5,204.5,2549.3,206.2,2550.2,207.3"/>
				<path class="st2" d="M2446.4,241c0.9,1.1,2.5,1.3,3.6,0.5c1.1-0.9,1.4-2.5,0.5-3.6c-0.9-1.1-2.5-1.3-3.6-0.5
					C2445.7,238.2,2445.5,239.9,2446.4,241"/>
				<path class="st2" d="M2453.3,277.5c0.9,1.1,2.5,1.3,3.6,0.5c1.1-0.9,1.3-2.5,0.5-3.6c-0.9-1.1-2.5-1.3-3.6-0.5
					C2452.7,274.8,2452.4,276.4,2453.3,277.5"/>
				<path class="st2" d="M2544.1,262.7c0.9,1.1,2.5,1.3,3.6,0.5c1.1-0.9,1.3-2.5,0.5-3.6c-0.9-1.1-2.5-1.3-3.6-0.5
					C2543.4,260,2543.2,261.6,2544.1,262.7"/>
				<path class="st2" d="M2541.5,220.2c0.9,1.1,2.5,1.3,3.6,0.5c1.1-0.9,1.3-2.5,0.5-3.6c-0.9-1.1-2.5-1.3-3.6-0.5
					C2540.9,217.4,2540.7,219,2541.5,220.2"/>
				<path class="st2" d="M2552.1,296.6c0.9,1.1,2.5,1.3,3.6,0.5c1.1-0.9,1.3-2.5,0.5-3.6c-0.9-1.1-2.5-1.3-3.6-0.5
					C2551.5,293.8,2551.2,295.4,2552.1,296.6"/>
				<path class="st2" d="M2454.9,312.2c0.9,1.1,2.5,1.3,3.6,0.5s1.3-2.5,0.5-3.6c-0.9-1.1-2.5-1.3-3.6-0.5
					C2454.2,309.5,2454,311.1,2454.9,312.2"/>
				<path class="st2" d="M2445.8,347.5c0.9,1.1,2.5,1.3,3.6,0.5c1.1-0.9,1.3-2.5,0.5-3.6c-0.9-1.1-2.5-1.3-3.6-0.5
					C2445.1,344.8,2444.9,346.4,2445.8,347.5"/>
				<path class="st2" d="M2571.6,324.4c0.9,1.1,2.5,1.3,3.6,0.5c1.1-0.9,1.3-2.5,0.5-3.6c-0.9-1.1-2.5-1.3-3.6-0.5
					C2571,321.7,2570.8,323.3,2571.6,324.4"/>
			</g>
			<line class="st8" x1="2452.8" y1="238.5" x2="2539.6" y2="219.4"/>
			<line class="st8" x1="2543.6" y1="222.1" x2="2544.7" y2="257.2"/>
			<line class="st8" x1="2542.1" y1="261.8" x2="2458.8" y2="275.1"/>
			<line class="st8" x1="2454.5" y1="272.4" x2="2449.2" y2="243.1"/>
			<line class="st8" x1="2441.6" y1="230.3" x2="2547.8" y2="206.9"/>
			<line class="st8" x1="2553.3" y1="209.2" x2="2558.4" y2="267.6"/>
			<line class="st8" x1="2555.8" y1="272.4" x2="2451" y2="289"/>
			<line class="st8" x1="2446.8" y1="286.3" x2="2438.2" y2="235"/>
			<line class="st8" x1="2460.8" y1="309.5" x2="2550.1" y2="295"/>
			<line class="st8" x1="2556.7" y1="297.6" x2="2571.1" y2="320.3"/>
			<line class="st8" x1="2570.3" y1="324.1" x2="2451" y2="346"/>
			<line class="st8" x1="2448.6" y1="342.2" x2="2455.9" y2="314.4"/>
		</g>
		<g id="iPad">
			<path class="st2" d="M1321.3,166.6c-1.9-0.2-3.4-1.9-3.2-3.9c0.2-1.9,1.9-3.4,3.9-3.2c1.9,0.2,3.4,1.9,3.2,3.9
				C1325,165.4,1323.3,166.8,1321.3,166.6"/>
			<path class="st2" d="M1410.3,143.3c-1.9-0.2-3.4-1.9-3.2-3.9c0.2-1.9,1.9-3.4,3.9-3.2c1.9,0.2,3.4,1.9,3.2,3.9
				C1414,142.1,1412.3,143.5,1410.3,143.3"/>
			<path class="st2" d="M1298.5,60c-1.9-0.2-3.4-1.9-3.2-3.9c0.2-1.9,1.9-3.4,3.9-3.2c1.9,0.2,3.4,1.9,3.2,3.9
				C1302.2,58.8,1300.4,60.2,1298.5,60"/>
			<path class="st2" d="M1388.3,37c-1.9-0.2-3.4-1.9-3.2-3.9c0.2-1.9,1.9-3.4,3.9-3.2c1.9,0.2,3.4,1.9,3.2,3.9
				C1392,35.8,1390.3,37.2,1388.3,37"/>
			<path class="st2" d="M1330.1,151.9c-1.1-0.1-2-1.1-1.9-2.3c0.1-1.1,1.1-2,2.3-1.9c1.1,0.1,2,1.1,1.9,2.3
				C1332.3,151.1,1331.3,152,1330.1,151.9"/>
			<path class="st2" d="M1366.1,148.3c-1.1-0.1-2-1.1-1.9-2.3c0.1-1.1,1.1-2,2.3-1.9c1.1,0.1,2,1.1,1.9,2.3
				S1367.2,148.4,1366.1,148.3"/>
			<path class="st2" d="M1399.2,132.8c-1.1-0.1-2-1.1-1.9-2.3c0.1-1.1,1.1-2,2.3-1.9c1.1,0.1,2,1.1,1.9,2.3
				C1401.3,132.1,1400.3,132.9,1399.2,132.8"/>
			<path class="st2" d="M1311.5,67.1c-1.1-0.1-2-1.1-1.9-2.3c0.1-1.1,1.1-2,2.3-1.9c1.1,0.1,2,1.1,1.9,2.3
				C1313.7,66.4,1312.7,67.2,1311.5,67.1"/>
			<path class="st2" d="M1378.5,48.5c-1.1-0.1-2-1.1-1.9-2.3c0.1-1.1,1.1-2,2.3-1.9c1.1,0.1,2,1.1,1.9,2.3
				C1380.6,47.8,1379.6,48.6,1378.5,48.5"/>
			<line class="st8" x1="1303.7" y1="55.2" x2="1384" y2="34.9"/>
			<line class="st8" x1="1390.2" y1="38.5" x2="1409.7" y2="134.4"/>
			<line class="st8" x1="1405.7" y1="141.9" x2="1327.5" y2="161.9"/>
			<line class="st8" x1="1320.5" y1="157.7" x2="1298.9" y2="62.4"/>
			<line class="st8" x1="1314.7" y1="63.8" x2="1375.2" y2="47.2"/>
			<line class="st8" x1="1380" y1="49.2" x2="1397.3" y2="127.1"/>
			<line class="st8" x1="1328.3" y1="146.2" x2="1312.7" y2="68.7"/>
			<line class="st8" x1="1332.6" y1="148.6" x2="1395.8" y2="132.2"/>
		</g>
		<g id="server">
			<path class="st2" d="M2336.2,497.7c1.2,1.6,3.4,1.9,4.9,0.7c1.6-1.2,1.9-3.4,0.7-4.9c-1.2-1.6-3.4-1.9-4.9-0.7
				C2335.4,493.9,2335.1,496.1,2336.2,497.7"/>
			<path class="st2" d="M2399.4,524.2c1.2,1.6,3.4,1.9,4.9,0.7c1.6-1.2,1.9-3.4,0.7-4.9c-1.2-1.6-3.4-1.9-4.9-0.7
				C2398.5,520.5,2398.2,522.7,2399.4,524.2"/>
			<path class="st2" d="M2324.2,521.9c1.2,1.6,3.4,1.9,4.9,0.7c1.6-1.2,1.9-3.4,0.7-4.9c-1.2-1.6-3.4-1.9-4.9-0.7
				C2323.4,518.1,2323.1,520.3,2324.2,521.9"/>
			<path class="st2" d="M2311.9,551.7c1.2,1.6,3.4,1.9,4.9,0.7c1.6-1.2,1.9-3.4,0.7-4.9c-1.2-1.6-3.4-1.9-4.9-0.7
				C2311,548,2310.7,550.2,2311.9,551.7"/>
			<path class="st2" d="M2389.1,550c1.2,1.6,3.4,1.9,4.9,0.7c1.6-1.2,1.9-3.4,0.7-4.9c-1.2-1.6-3.4-1.9-4.9-0.7
				C2388.2,546.3,2387.9,548.5,2389.1,550"/>
			<path class="st2" d="M2373.2,579.3c1.2,1.6,3.4,1.9,4.9,0.7c1.6-1.2,1.9-3.4,0.7-4.9c-1.2-1.6-3.4-1.9-4.9-0.7
				C2372.4,575.6,2372.1,577.8,2373.2,579.3"/>
			<path class="st2" d="M2374.5,500.5c0.6,0.8,1.8,1,2.7,0.4c0.8-0.6,1-1.8,0.4-2.7c-0.6-0.8-1.8-1-2.7-0.4
				C2374.1,498.5,2373.9,499.7,2374.5,500.5"/>
			<path class="st2" d="M2352.8,542.4c0.6,0.8,1.8,1,2.7,0.4c0.8-0.6,1-1.8,0.4-2.7c-0.6-0.8-1.8-1-2.7-0.4
				C2352.3,540.4,2352.2,541.6,2352.8,542.4"/>
			<path class="st2" d="M2365.2,518.7c0.6,0.8,1.8,1,2.7,0.4c0.8-0.6,1-1.8,0.4-2.7c-0.6-0.8-1.8-1-2.7-0.4
				C2364.7,516.7,2364.5,517.9,2365.2,518.7"/>
			<path class="st2" d="M2335.9,573.9c0.6,0.8,1.8,1,2.7,0.4c0.8-0.6,1-1.8,0.4-2.7c-0.6-0.8-1.8-1-2.7-0.4
				C2335.4,571.8,2335.3,573,2335.9,573.9"/>
			<line class="st8" x1="2345.1" y1="495.5" x2="2373.1" y2="498.1"/>
			<line class="st8" x1="2378.6" y1="501.3" x2="2398" y2="517.6"/>
			<line class="st8" x1="2341" y1="499.4" x2="2361.9" y2="514.4"/>
			<line class="st8" x1="2371.5" y1="518.6" x2="2396.9" y2="522.1"/>
			<line class="st8" x1="2401.2" y1="527.3" x2="2394.7" y2="543.2"/>
			<line class="st8" x1="2386.7" y1="547.9" x2="2357.4" y2="543.2"/>
			<line class="st8" x1="2350.9" y1="540.7" x2="2330.6" y2="523.3"/>
			<line class="st8" x1="2330.6" y1="515.7" x2="2336.7" y2="499.9"/>
			<line class="st8" x1="2326" y1="524.4" x2="2317.6" y2="544.4"/>
			<line class="st8" x1="2390.5" y1="553.1" x2="2379.6" y2="572.7"/>
			<line class="st8" x1="2370.6" y1="577.8" x2="2341" y2="573.7"/>
			<line class="st8" x1="2334.4" y1="570.8" x2="2318.2" y2="553.8"/>
			<g id="server2">
				<path class="st2" d="M2409.2,528.9c1.2,1.6,3.4,1.9,4.9,0.7c1.6-1.2,1.9-3.4,0.7-4.9c-1.2-1.6-3.4-1.9-4.9-0.7
					C2408.4,525.2,2408.1,527.4,2409.2,528.9"/>
				<path class="st2" d="M2472.4,555.5c1.2,1.6,3.4,1.9,4.9,0.7c1.6-1.2,1.9-3.4,0.7-4.9c-1.2-1.6-3.4-1.9-4.9-0.7
					C2471.5,551.7,2471.2,553.9,2472.4,555.5"/>
				<path class="st2" d="M2397.2,553.1c1.2,1.6,3.4,1.9,4.9,0.7c1.6-1.2,1.9-3.4,0.7-4.9c-1.2-1.6-3.4-1.9-4.9-0.7
					C2396.4,549.4,2396.1,551.6,2397.2,553.1"/>
				<path class="st2" d="M2384.9,583c1.2,1.6,3.4,1.9,4.9,0.7c1.6-1.2,1.9-3.4,0.7-4.9c-1.2-1.6-3.4-1.9-4.9-0.7
					C2384,579.2,2383.7,581.4,2384.9,583"/>
				<path class="st2" d="M2462.1,581.3c1.2,1.6,3.4,1.9,4.9,0.7c1.6-1.2,1.9-3.4,0.7-4.9c-1.2-1.6-3.4-1.9-4.9-0.7
					C2461.2,577.5,2460.9,579.8,2462.1,581.3"/>
				<path class="st2" d="M2446.2,610.6c1.2,1.6,3.4,1.9,4.9,0.7c1.6-1.2,1.9-3.4,0.7-4.9c-1.2-1.6-3.4-1.9-4.9-0.7
					C2445.4,606.8,2445.1,609,2446.2,610.6"/>
				<path class="st2" d="M2447.5,531.8c0.6,0.8,1.8,1,2.7,0.4c0.8-0.6,1-1.8,0.4-2.7c-0.6-0.8-1.8-1-2.7-0.4
					C2447.1,529.8,2446.9,531,2447.5,531.8"/>
				<path class="st2" d="M2425.8,573.7c0.6,0.8,1.8,1,2.7,0.4c0.8-0.6,1-1.8,0.4-2.7c-0.6-0.8-1.8-1-2.7-0.4
					C2425.3,571.7,2425.2,572.9,2425.8,573.7"/>
				<path class="st2" d="M2438.2,550c0.6,0.8,1.8,1,2.7,0.4c0.8-0.6,1-1.8,0.4-2.7c-0.6-0.8-1.8-1-2.7-0.4
					C2437.7,547.9,2437.5,549.1,2438.2,550"/>
				<path class="st2" d="M2408.9,605.1c0.6,0.8,1.8,1,2.7,0.4c0.8-0.6,1-1.8,0.4-2.7c-0.6-0.8-1.8-1-2.7-0.4
					C2408.4,603.1,2408.3,604.3,2408.9,605.1"/>
				<line class="st8" x1="2418.1" y1="526.8" x2="2446.1" y2="529.3"/>
				<line class="st8" x1="2451.6" y1="532.6" x2="2471" y2="548.8"/>
				<line class="st8" x1="2414" y1="530.6" x2="2434.9" y2="545.7"/>
				<line class="st8" x1="2444.5" y1="549.8" x2="2469.9" y2="553.3"/>
				<line class="st8" x1="2474.2" y1="558.6" x2="2467.7" y2="574.5"/>
				<line class="st8" x1="2459.7" y1="579.2" x2="2430.4" y2="574.5"/>
				<line class="st8" x1="2423.9" y1="571.9" x2="2403.6" y2="554.5"/>
				<line class="st8" x1="2403.6" y1="547" x2="2409.7" y2="531.2"/>
				<line class="st8" x1="2399" y1="555.7" x2="2390.6" y2="575.6"/>
				<line class="st8" x1="2463.5" y1="584.4" x2="2452.6" y2="604"/>
				<line class="st8" x1="2443.6" y1="609.1" x2="2414" y2="604.9"/>
				<line class="st8" x1="2407.4" y1="602.1" x2="2391.2" y2="585.1"/>
			</g>
		</g>
	</g>
</g>
</svg>
