<?xml version="1.0" encoding="utf-8"?>
<!-- Generator: Adobe Illustrator 19.2.0, SVG Export Plug-In . SVG Version: 6.00 Build 0)  -->
<svg version="1.1" id="Main_Layer" xmlns="http://www.w3.org/2000/svg" xmlns:xlink="http://www.w3.org/1999/xlink" x="0px" y="0px"
	 viewBox="0 0 6738.7 688.3" style="enable-background:new 0 0 6738.7 688.3;" xml:space="preserve">
<style type="text/css">
	.st0{fill:#205EA3;}
	.st1{display:none;fill:#0D294F;}
	.st2{fill:#FFFFFF;}
	.st3{fill:#B3EDFF;}
	.st4{fill:#64C8FF;}
	.st5{fill:#97D4EF;}
	.st6{opacity:0.2;fill:#010B1D;}
	.st7{fill:#4A6070;}
</style>
<g id="Night_Sky">
	<rect x="0" y="0.7" class="st0" width="3340.9" height="688"/>
	<rect x="0" y="0.7" class="st1" width="3227.9" height="87.3"/>
	<rect x="0" y="95.5" class="st1" width="3227.9" height="28.4"/>
	<rect x="0" y="130.7" class="st1" width="3227.9" height="11.1"/>
	<rect x="0" y="472.8" class="st1" width="3227.9" height="215.9"/>
	<rect x="0" y="443.6" class="st1" width="3227.9" height="18.3"/>
	<rect x="0" y="425.9" class="st1" width="3227.9" height="10.2"/>
</g>
<g id="Sky_BG">
	<rect id="White_BG" x="3222.2" y="0.3" class="st2" width="3516.5" height="617.6"/>
	<g id="Sky_BG_1_">
		<rect x="3222" class="st3" width="3516.7" height="215.9"/>
		<rect x="3222" y="226.8" class="st3" width="3516.7" height="18.3"/>
		<rect x="3222" y="252.9" class="st3" width="3516.7" height="9.7"/>
		<rect x="3222" y="472.3" class="st3" width="3516.7" height="215.9"/>
		<rect x="3222" y="443.1" class="st3" width="3516.7" height="18.3"/>
		<rect x="3222" y="425.7" class="st3" width="3516.7" height="9.7"/>
		<g>
			<rect x="3222" class="st4" width="3516.7" height="87.6"/>
			<rect x="3222" y="95.1" class="st4" width="3516.7" height="28.4"/>
			<rect x="3222" y="130.3" class="st4" width="3516.7" height="11.1"/>
		</g>
	</g>
	<g>
		<g>
			<path id="Sky_BLDG_BG" class="st5" d="M5453.8,630V280.5h-226.7v26.7h-61.9v-46.1c0-2.3-2.6-4-5.4-3.4l-60.4,15.1V330h-35.9v50
				h-14.2v-74.5h-29.1v-38h-46.4v56.1h-92.7v-35.1l-77.8-16.3v56.6h-41.9v-66.1l-44.9,16.3v108h-43.8v45.8h-35.9V286.1h-110.7v-18.6
				h-48.8v14.6h-18.2v-18l-75.6-8.2v-22.7l-158.9-16.3v470.9h1229.2V630z"/>
			<path id="Sky_BLDG_BG_1_" class="st5" d="M3000.9,629.4V279.9h226.7v26.7h61.9v-46.1c0-2.3,2.7-4,5.4-3.4l60.4,15.1v57.2h35.9v50
				h14.2v-74.5h29.1v-38h46.4V323h92.7V288l77.8-16.3v56.6h41.9v-66.1l44.9,16.3v108h43.8v45.8h35.9V285.5h110.7v-18.6h48.8V388
				h18.2V263.5l75.6-8.2v-22.7l158.9-16.3v470.9H3000.9V629.4z"/>
		</g>
		<g>
			<path id="Sky_BLDG_BG_3_" class="st5" d="M6738.7,630.6V281.9h-300.9v26.6h-61.9v-46c0-2.3-2.7-3.9-5.4-3.4l-60.4,15.1v57.1
				h-35.9v49.8H6260v-74.3h-29.1V269h-46.4v56h-92.7v-35l-77.8-16.3v56.5H5972v-65.9l-44.9,16.3v107.8h-43.8V434h-35.9V287.5h-110.7
				V269h-48.8v14.6h-18.2v-18l-75.6-8.1v-22.7l-158.9-16.3v469.8h1303.4V630.6z"/>
			<path id="Sky_BLDG_BG_2_" class="st5" d="M4213.8,630.5V280.9h226.7v26.7h61.9v-46.1c0-2.3,2.7-4,5.4-3.4l60.4,15.1v57.2h35.9v50
				h14.2v-74.5h29.1v-38h46.4V324h92.7V289l77.8-16.3v56.6h41.9v-66.1l44.9,16.3v108h43.8v45.8h35.9V286.5h110.7v-18.6h48.8V389
				h18.2V264.5l75.6-8.2v-22.7l158.9-16.3v470.9H4213.8V630.5z"/>
		</g>
	</g>
</g>

<g id="Night_BLDG_BG_3">
	<path class="st6" d="M0,607.7V178h107.7v32.8h11v-56.7c0-2.8,2.4-4.9,4.9-4.1l65,18.6v70.3h14.7v11.2h13.1v-41.4h36.1V162h52.1v69
		h85.6v-93.3h71.8v59.6h11v-41.1h41.4v52.5h68.1v166.7h33.1V255l74.6-30v-63h72.7v58.5h16.8v-42.8h60.6v-28h35.9v529H0V607.7z"/>
	<path class="st6" d="M876.4,615.7V206H768.7v32.8h-11v-56.7c0-2.8-2.4-4.9-4.9-4.1l-65,18.6v70.3h-14.7v11.2h-13.1v-41.4h-36.1V190
		h-52.1v69h-85.6v-93.3h-71.8v59.6h-11v-41.1h-41.4v52.5h-68.1v166.7h-33.1V283L186,253v-63h-72.7v58.5H96.5v-42.8H35.9v-28H0v509
		h876.4V615.7z"/>
</g>
<g id="_x33_">
	<rect id="Sky_Floor_8_" x="3786" y="617" class="st7" width="2952.7" height="71.4"/>
	<rect id="Sky_Floor_3_" x="3786" y="634.4" class="st4" width="2952.7" height="54"/>
	<rect id="Sky_Floor_1_" x="3785" y="634.4" class="st7" width="2953.7" height="0.2"/>
</g>
</svg>