<?xml version="1.0" encoding="utf-8"?>
<!-- Generator: Adobe Illustrator 19.2.0, SVG Export Plug-In . SVG Version: 6.00 Build 0)  -->
<svg version="1.1" id="Main_Layer" xmlns="http://www.w3.org/2000/svg" xmlns:xlink="http://www.w3.org/1999/xlink" x="0px" y="0px"
	 viewBox="0 0 373 373" style="enable-background:new 0 0 373 373;" xml:space="preserve">
<style type="text/css">
	.st0{fill:#FFF7D4;}
	.st1{fill:#64C8FF;}
	.st2{clip-path:url(#SVGID_2_);fill:#54AD4B;}
	.st3{opacity:0.2;}
	.st4{clip-path:url(#SVGID_4_);fill:#433B4B;}
</style>
<g id="Earth">
	<path class="st0" d="M373,186.5c0,103-83.5,186.5-186.5,186.5C83.5,373,0,289.5,0,186.5S83.5,0,186.5,0C289.5,0,373,83.5,373,186.5
		"/>
	<path class="st1" d="M370.4,186.5c0,101.6-82.3,183.9-183.9,183.9C84.9,370.4,2.6,288.1,2.6,186.5C2.6,84.9,84.9,2.6,186.5,2.6
		C288.1,2.6,370.4,84.9,370.4,186.5"/>
	<g id="Lands">
		<defs>
			<path id="SVGID_1_" d="M2.6,186.5c0,101.6,82.3,183.9,183.9,183.9c101.6,0,183.9-82.3,183.9-183.9S288.1,2.6,186.5,2.6
				C84.9,2.6,2.6,84.9,2.6,186.5"/>
		</defs>
		<clipPath id="SVGID_2_">
			<use xlink:href="#SVGID_1_"  style="overflow:visible;"/>
		</clipPath>
		<path class="st2" d="M297.1,305.1l-10.3-3.9c-1.7-0.7-3.6-0.8-5.4-0.3l-5.6,1.6c-0.7,0.2-1.4,0.5-2.1,0.9l-10.2,6
			c-2.7,1.6-5.9,1.6-8.6,0.1c-1.2-0.7-2.3-1.7-3.1-2.9l-2.9-4.4c-1.5-2.4-1.8-5.4-0.8-8l0.5-1.3c0.7-1.7,1.8-3.1,3.3-4l11.2-7.3
			l13.4-9.5c1.3-1,2.9-1.5,4.6-1.6l14.5-0.8c1.5-0.1,2.9,0.2,4.2,0.8l7.5,3.6c1.9,0.9,3.4,2.5,4.3,4.5l5.3,12.7
			c0.3,0.6,0.5,1.3,0.6,2l0.5,3c0.8,4.8-2.6,9.3-7.4,10l-2.4,0.3c-0.9,0.1-1.8,0.1-2.6,0l-6.8-1.1
			C298.2,305.4,297.7,305.3,297.1,305.1"/>
		<path class="st2" d="M277.5,339.4c-2.5-0.6-4.5-1.1-5.5-1.3c-0.4-0.1-0.7-0.1-1.1-0.2l-25.3-1.4c-0.3,0-0.6,0-0.8,0l-14,1.1
			c-0.8,0.1-1.7,0-2.5-0.3l-6.6-2.3c-1.4-0.5-3-0.5-4.3,0.1l-4.7,1.9c-2,0.8-4.2,0.5-5.9-0.7c-1.8-1.3-4.3-1.5-6.3-0.5l-4,2
			c-2.7,1.4-6.1,0.5-7.8-2l-5.8-8.6c-0.1-0.2-0.2-0.3-0.3-0.4L171,312.6c-0.4-0.4-0.6-0.9-0.8-1.5c-0.8-1.9-3.5-6.4-9.5,4.7
			c-7.2,13.5,6.9,4.1-6.3,12.6c-6.2,4-9,6-10.2,7.2c-0.9,0.9-2.1,1.4-3.4,1.6l-9.2,1.1c-1.9,0.2-3.7-0.4-5-1.7l-3.1-3.1
			c-1.1-1.1-2.6-1.8-4.2-1.8l-13.9-0.2c-1.4,0-2.7-0.5-3.7-1.3l-8.3-6.6c-0.7-0.6-1.6-1-2.4-1.2l-4.9-1.1c-1.6-0.4-3.2-0.1-4.6,0.8
			l-4.7,3c-0.6,0.4-1.1,0.8-1.5,1.4l-2,2.5c-1.7,2.1-1.8,5.1-0.2,7.3l7.5,10.7c0.5,0.7,1.1,1.2,1.7,1.7l36.4,23.3
			c0.8,0.5,1.8,0.9,2.8,0.9l41.4,3.6c0.4,0,0.8,0,1.3,0l93.6-11.5c1-0.1,1.9-0.5,2.7-1l19.3-13.4
			C283.8,347.3,282.6,340.6,277.5,339.4"/>
		<path class="st2" d="M44.7,197.5v27.4c0,0.5,0.1,1.1,0.2,1.6l4.5,15.6c0.3,1.2,1,2.2,2,3l32.4,25.4c0.6,0.5,1.1,1,1.5,1.7
			l16.8,29.1c0.9,1.6,2.5,2.6,4.2,2.9l4.8,0.7c1.8,0.3,3.7-0.4,5-1.7l11.9-12c0.2-0.2,0.4-0.4,0.6-0.7l10.8-15
			c0.6-0.8,1-1.8,1.1-2.8l1.6-16.1c0.1-1.3,0.7-2.6,1.7-3.5l20.4-20.4c1.1-1.1,1.7-2.6,1.7-4.1c0-2.6-1.8-4.9-4.3-5.6l-2.4-0.7
			c-2.5-0.7-4.2-2.9-4.3-5.5l-0.1-7.2c0-1.3-0.5-2.5-1.2-3.5l-7.8-10.1c-1.3-1.6-3.3-2.5-5.4-2.2l-16.8,2.2c-0.2,0-0.4,0.1-0.6,0.1
			l-25.2,6.2c-1.4,0.3-2.9,0.2-4.2-0.6l-18.3-10.1c-0.6-0.4-1.4-0.6-2.1-0.7L59.7,189c-0.8-0.1-1.7,0-2.5,0.2l-8.4,2.6
			C46.4,192.6,44.7,194.9,44.7,197.5"/>
		<path class="st2" d="M219.7,236.4c0,1.2,2,17.2,2,17.2l13.5,9.8l3.5-11.5l-6.5-7l-1.5-8.5H219.7z"/>
		<path class="st2" d="M265.4,208.6c0,1.2-2.2,9.5-2.2,9.5l9.5,2.5l4-7.2l-2-8L265.4,208.6z"/>
		<polygon class="st2" points="285.4,196.9 278.9,186.5 290.2,178.1 299.9,164.9 305.2,147.4 311.4,137.1 318.7,149.1 318.7,158.4 
			308.9,171.4 298.8,182.6 291,190.5 		"/>
		<path class="st2" d="M260.7,195.8c0,0.8-2.9,12.7-4.3,18.3c-0.5,1.9-1.7,3.5-3.4,4.4l-5.1,2.7c-1.3,0.7-2.7,1-4.1,0.8l-6.8-0.8
			c-3-0.4-5.4-2.7-6-5.6l-1.6-8.7c-0.2-1-0.6-2-1.2-2.9l-1.8-2.4c-2-2.8-5.8-3.6-8.8-2l-2.8,1.5c-0.9,0.5-1.7,1.2-2.4,2l-7.7,10.6
			c-1.3,1.8-3.4,2.8-5.6,2.8h-6.5c-1.8,0-3.5-0.7-4.8-1.9l-8-7.6c-0.2-0.2-0.3-0.3-0.5-0.4L159.3,191c-1.7-1.3-2.7-3.3-2.7-5.4
			c0-3.5-2.6-6.4-6.1-6.9l-26.9-3.3l-18-3c-1.9-0.3-3.6-1.4-4.7-3l-6.5-9.9c-0.5-0.8-0.9-1.8-1.1-2.8L90,133.8
			c-0.1-0.5-0.1-0.9-0.1-1.4l1-16.9c0.2-2.8,2-5.2,4.6-6.1l19.7-6.9c1.4-0.5,2.7-1.5,3.5-2.8l8-12.4c1.1-1.7,2.8-2.8,4.8-3.1
			l23.6-3.4c0.9-0.1,1.7-0.4,2.4-0.8l21-11.8c0.9-0.5,1.9-0.8,2.9-0.9l35.3-2.5c1.2-0.1,2.5,0.2,3.6,0.7l38.9,19.2
			c1,0.5,2,0.7,3.1,0.7h38.2c0.9,0,1.9,0.2,2.8,0.6l13.5,5.9c0.4,0.2,0.9,0.3,1.3,0.4l17.3,3.6c2.3,0.5,4.3,2.2,5.1,4.4l2.7,7.4
			c1,2.8,0.1,6-2.2,7.8l-12.9,10.2c-3,2.3-7.3,1.9-9.7-1.1l-6.3-7.9c-0.9-1.1-2.2-2-3.6-2.3l-13.5-3.8c-3-0.8-6.2,0.4-7.8,3.1
			l-3.8,6.3c-1.2,2-1.3,4.5-0.3,6.6l6.2,12.5c0.9,1.8,1,3.9,0.2,5.8l-9.1,21.4c-0.2,0.6-0.5,1.1-0.9,1.6l-17.1,21.7
			c-0.9,1.1-1.4,2.5-1.5,3.9L260.7,195.8z"/>
		<path class="st2" d="M63.8,49.5c0.7,0.7,3,3.7,4.5,5.7c0.8,1.1,1,2.5,0.5,3.7l-8,19.4c-0.1,0.4-0.3,0.7-0.6,1L47.2,95.1l-9.9,11.6
			c-0.4,0.4-0.7,1-0.8,1.5l-6.4,24.5c-0.1,0.4-0.3,0.9-0.6,1.2l-11.4,16.1c-1.1,1.6-3.3,2.1-5,1.1c-1.4-0.8-3-0.6-4.3,0.3l-2.4,1.9
			c-2.3,1.8-5.8,0.4-6.2-2.5l-3.3-25.3c-0.1-0.7,0-1.3,0.3-1.9l18.2-44.5c0.1-0.2,0.2-0.4,0.3-0.6l16.9-27.3
			c0.4-0.6,0.9-1.1,1.5-1.4l17.2-8.8c1.4-0.7,3.2-0.5,4.4,0.7L63.8,49.5z"/>
		<path class="st2" d="M62.5,117.9l-4.3,10.6c-0.3,0.8-0.2,1.8,0.4,2.5l5.1,6.5c0.3,0.4,0.5,0.8,0.5,1.3l1.2,11.5
			c0.1,1.3,1.2,2.3,2.5,2.3c1,0,2,0.6,2.4,1.6l3.3,8.4c0.5,1.1,1.7,1.8,2.9,1.5l3.6-0.8c0.8-0.2,1.5-0.8,1.8-1.6l2.8-7.3
			c0.1-0.3,0.2-0.6,0.2-0.9v-11.9c0-0.6-0.2-1.1-0.5-1.5l-10.7-14.1l-6.8-8.8C65.7,115.8,63.3,116.1,62.5,117.9"/>
	</g>
	<g>
		<g class="st3">
			<g>
				<defs>
					<rect id="SVGID_3_" x="12.1" y="12.1" width="348.7" height="348.7"/>
				</defs>
				<clipPath id="SVGID_4_">
					<use xlink:href="#SVGID_3_"  style="overflow:visible;"/>
				</clipPath>
				<path class="st4" d="M360.8,186.5c0,96.3-78.1,174.4-174.4,174.4c-96.3,0-174.4-78.1-174.4-174.4S90.2,12.1,186.5,12.1
					C282.8,12.1,360.8,90.2,360.8,186.5"/>
			</g>
		</g>
	</g>
</g>
</svg>
