<?xml version="1.0" encoding="utf-8"?>
<!-- Generator: Adobe Illustrator 19.2.0, SVG Export Plug-In . SVG Version: 6.00 Build 0)  -->
<svg version="1.1" id="Main_Layer" xmlns="http://www.w3.org/2000/svg" xmlns:xlink="http://www.w3.org/1999/xlink" x="0px" y="0px"
	 viewBox="0 0 496.7 369.5" style="enable-background:new 0 0 496.7 369.5;" xml:space="preserve">
<style type="text/css">
	.st0{opacity:0.9;fill:#FFFFFF;stroke:#010B1D;stroke-width:2;stroke-miterlimit:10;}
	.st1{fill:#FFFFFF;stroke:#3E3A39;stroke-width:2;stroke-linecap:round;stroke-linejoin:round;stroke-miterlimit:10;}
	.st2{fill:#3E3A39;}
	.st3{font-family:'NewRodinPro-B-83pv-RKSJ-H';}
	.st4{font-size:12px;}
	.st5{display:none;}
	.st6{display:inline;fill:#FFFFFF;stroke:#3E3A39;stroke-linecap:round;stroke-linejoin:round;stroke-miterlimit:10;}
	.st7{fill:#64C8FF;stroke:#3E3A39;stroke-linecap:round;stroke-linejoin:round;stroke-miterlimit:10;}
	.st8{fill:#B3EDFF;stroke:#3E3A39;stroke-width:2;stroke-linecap:round;stroke-linejoin:round;stroke-miterlimit:10;}
	.st9{fill:#64C8FF;stroke:#3E3A39;stroke-miterlimit:10;}
	.st10{font-family:'NewRodinPro-M-83pv-RKSJ-H';}
	.st11{font-size:10px;}
	.st12{letter-spacing:2;}
	.st13{display:inline;}
	.st14{fill:#B3EDFF;stroke:#3E3A39;stroke-linecap:round;stroke-linejoin:round;stroke-miterlimit:10;}
	.st15{display:inline;fill:#3E3A39;}
	.st16{font-size:8px;}
	.st17{font-size:7px;}
	.st18{font-family:'RoNOWStd-MU-83pv-RKSJ-H';}
	.st19{font-size:13px;}
	.st20{font-family:'HelveticaNeue-Bold';}
	.st21{font-size:28px;}
	.st22{font-size:16px;}
	.st23{font-size:11px;}
	.st24{font-size:6px;}
	.st25{fill:#B3EDFF;stroke:#3E3A39;stroke-miterlimit:10;}
	.st26{fill:#E45751;stroke:#3E3A39;stroke-miterlimit:10;}
	.st27{fill:#DD3B40;stroke:#3E3A39;stroke-miterlimit:10;}
	.st28{fill:#B3EDFF;stroke:#3E3A39;stroke-width:2;stroke-miterlimit:10;}
	.st29{fill:#64C8FF;stroke:#3E3A39;stroke-width:2;stroke-miterlimit:10;}
	.st30{fill:#E45751;stroke:#3E3A39;stroke-width:2;stroke-miterlimit:10;}
	.st31{fill:#DD3B40;stroke:#3E3A39;stroke-width:2;stroke-miterlimit:10;}
	.st32{font-size:15px;}
	.st33{font-size:22px;}
	.st34{fill:#FFFFFF;stroke:#3E3A39;stroke-width:3;stroke-linecap:round;stroke-linejoin:round;stroke-miterlimit:10;}
	.st35{fill:#A0A1A0;}
	.st36{fill:#A0A1A0;stroke:#3E3A39;stroke-miterlimit:10;}
	.st37{fill:#A0A1A0;stroke:#3E3A39;stroke-width:3;stroke-linecap:round;stroke-linejoin:round;stroke-miterlimit:10;}
</style>
<g>
	<path class="st0" d="M496.7,359.5c0,5.5-4.5,10-10,10H10c-5.5,0-10-4.5-10-10V10C0,4.5,4.5,0,10,0h476.7c5.5,0,10,4.5,10,10V359.5z
		"/>
	<g id="Box_Big">
		<path class="st1" d="M474.5,358.5H22.1c-5.5,0-10-4.5-10-10v-148c0-5.5,4.5-10,10-10h452.4c5.5,0,10,4.5,10,10v148
			C484.5,354,480,358.5,474.5,358.5z"/>
		<g>
			<text transform="matrix(1 0 0 1 230.3315 211.3413)" class="st2 st3 st4">出身地</text>
		</g>
		<g id="Japan_Map" class="st5">
			<path class="st6" d="M407.8,273.8v1c0,0,2.9-1.1,2.9-1.2c0-0.1,0.6-1.8,0.6-1.8l-0.9,0.1l0.5-2.8l-2.2,2.9l-0.3,0.8L407.8,273.8z
				"/>
			<path class="st6" d="M422.3,304.7c0.1-0.1,4.1-2.9,4.1-2.9l0.3-3.4l1.2-1.5l2.5-0.5l-2.7-6.3l2.1-6l1.3-0.8l0.3-7.9l-1.1-2.7
				l3.3-4.3l2.2,1.4l0.7-6.2l3.3-6l-3.8-10.8l-2-9l-4-1.2l-0.4,3.5l2.2-0.6l0.1,4.1h-2.9l-1.1-3.5l-2.4,0.2v3.8l-3.2,1.3l0.5,5.5
				l-2,2.6l2.4,0.9l-0.2,4.6l-4.9,12.4l-4.7,3.3l-2,4.5l-9.4,4.8l-1,1.8l-2.6-1v-2.6l2.8-3.4l-0.7-1.1l-4.5,2.6l0.2,4.3l-5.9,9.2
				l0.9,2.7l-4.1,2.3l-2.9-0.9l0.5-1.5l-1.8-0.4l-13.4,2.6h-4.6l-2.1,2c0,0-10.4,9.4-10.5,9.2s-3.9,0.7-3.9,0.7v4h7.5l3.1,1.2
				l0.6-3.5l2.3-1.8l1,1.6l10.9-3.3l4.1-2.5l7.9,0.8l-2.7,8c0,0,5.2,4.7,5.5,4.7c0.2,0,4.3-6.9,4.3-6.9l5-2.1l-3.1-3.8l2.3-3.8
				l4.7,4.1l6.6,0.4l2.9-5.2h2.8l-0.8,5.8l2.3-3v-4.4l3.6-0.6l3.6-3.6l1,1l-2.2,3.7L422.3,304.7z"/>
			<polygon class="st6" points="365.7,327.2 368.5,321.4 371.8,319 373.9,319.6 376,321.6 380.2,315.7 379.4,311.7 375,310 
				371.7,311.7 371.1,314 367.4,314.4 365.7,313 363.7,316.8 361.1,319.3 362.5,325.1 			"/>
			<path class="st6" d="M346.5,315c0.2,0.2,6.3,3.1,6.3,3.1l2.5-0.8c0,0,0.9,2.5,0.7,2.5c-0.2,0-1.4,1.2-1.4,1.2l2.4,0.9l1.1,4.3
				l-2,3l-2.8,11.5l-2.8-0.4l0.4,2l-2.8,2.2l-1.1-6.4l-1,5l-3.2-1.7v-7.8l4.1-5.7c0,0-3.4-6-3.5-5.9s-0.5,1.3-0.5,1.3l1.8,4
				l-4.1,0.4l-1.4-4.2l-0.8-3.3l5.7-2.4L346.5,315z"/>
			<path class="st6" d="M332.8,324c0,0.3-2.8,4-2.8,4s0.7,1.1,0.9,1s1.9-2.8,1.9-2.8V324z"/>
			<path class="st6" d="M431.7,227.7c-0.2,0-3.2-2.7-3.2-2.7l-2.9,3.3l6.3,4.5c0.3,0.2,0.2,0.7-0.2,0.8l-1.8,0.2l-5,3.5l-1.8-1
				l1.2-5l-3.2-3.4l1.2-3.6l3.3-1.6l1.9-2.2l-1.5-2.7l1.6-0.5l5.4,2.2l2.4-2.4l-1.1-4.2l2.5-1.2l1.4-7c0.1-0.7,0.1-1.4-0.2-2.1
				l-1.9-4.8l3.2-2.3l10.3,10.7c0.4,0.4,0.8,0.7,1.3,0.9l10.9,4.3l4.8-3.7l-1.7,5.5l3.1,5.3l-6.8,3l-3.9-0.2l-5.2,4.5
				c-0.5,0.4-0.9,1-1.1,1.7l0,0c-0.7,2.2-3.2,3.2-5.3,2.2l-9.2-4.6L431.7,227.7z"/>
			<path class="st6" d="M468,213.6c0.2-0.2,5-5.3,5-5.3s3.3-1.7,3-1.7s-3.2-1.2-3.2-1.2l-2.9,3.7L468,213.6z"/>
			<path class="st6" d="M332.7,347.9c0.2,0.2-1.4,4.1-1.4,4.1l-7.7,2.8l4.2-3.4L332.7,347.9z"/>
		</g>
		<g id="Japan_Map_1_">
			<path class="st7" d="M332.7,318.7l-1,0.8c0,0,4.6,1.3,4.7,1.3c0.1-0.1,2.5-0.9,2.5-0.9l-1.2-0.6l3.3-1.9l-5.5,0.6l-1.1,0.4
				L332.7,318.7z"/>
			<path class="st7" d="M319.2,354.7c0.3,0,7.8,0.9,7.8,0.9l3.8-2.5l3-0.3l3.5,1.5l3.1-7.2l8.5-3.2l2.4,0.4l8.3-6.2l1.4-3.1l8.2-0.9
				l1.3,2.8l7-4.5l10-2.3l6.3-11.6l6.6-8.8l-3.5-4.1l-4,2.6l3.3,1.2l-4,3.4l-3.4-2.2l2.2-3.7l-3.1-1.7l-3.8,3.1l-5.1-1.4l-4.8,4.8
				l-5,0.6l2,2.6l-4.8,3.5l-18.2,6.3l-8.9-1l-6.8,2.1l-16-3.3l-3,0.7l-2.1-2.8l2.6-2.1l6.7-0.6l0.3-1.4l-8-1.4l-4.1,3.6l-16.3,2.9
				l-1.7,2.9l-7.3-1.3l-2.5-2.9l2.1-0.8l-1.7-1.7l-18.6-8.2l-5.5-3.5l-4.5,0.1c0,0-21.8-0.4-21.8-0.6c0-0.2-5.3-2.5-5.3-2.5l-4,3.3
				l9,5.8l2.4,3.4l4.2-2.4l4.5,0.3l-0.4,2l16.4,5.7l7.3,1.1l8.7,6.7l-11.3,4.4c0,0,1.6,7.8,1.8,8c0.2,0.2,12.1-2.3,12.1-2.3l8,2.1
				l0-5.4l6.5-1.2l1.5,6.9l7.4,5.4l8.7-2l3.3,2.1l-6.8,4.1l5.7-0.6l4.4-3.5l4.9,2.3l7.9-0.1l0.2,1.6l-6.3,1.2L319.2,354.7z"/>
			<polygon class="st7" points="229.1,329.5 238.2,327 244.5,327.6 246.5,329.7 247,332.9 257.9,331.3 261,327.4 257.4,322.7 
				251.7,321.6 248.8,323 244,320.5 243.3,318 237.1,319.5 231.6,319.6 227.4,325.3 			"/>
			<path class="st7" d="M218.3,304.9c0,0.3,4.5,7.4,4.5,7.4l3.7,1.3c0,0-1.4,2.7-1.7,2.6c-0.2-0.2-2.9-0.1-2.9-0.1l1.9,2.6l-3,4.3
				l-5.4,0.9l-14.9,7.2l-2.9-2.5l-1.5,1.9l-5.4-0.4l5.1-6.1l-6.2,3.3l-2.1-3.8l7.7-6.3l10.5-1.4c0,0,1.9-7.5,1.6-7.5
				c-0.3,0-2,0.7-2,0.7l-1.8,4.6l-5.3-2.8l2.5-4.4l2.4-3.3l9.1,2.4L218.3,304.9z"/>
			<path class="st7" d="M193.1,301.7c-0.3,0.3-7.3,1.1-7.3,1.1s-0.3,1.4,0.1,1.4c0.4,0,5-0.8,5-0.8L193.1,301.7z"/>
			<path class="st7" d="M407.3,299.7c-0.2-0.2-1.2-4.6-1.2-4.6l-6.8,0.5l3,8.5c0.2,0.4-0.5,0.7-1,0.5l-2.3-1.2l-9.5-0.9l-1.1-2.1
				l6.5-3.1l-0.5-5.2l5-2l5.6,1.2l4.5-0.3l0.9-3.4l2.3,0.8l4.3,5.9l5.3-0.1l2.9-4.3l4.2,1l8.6-4.6c0.9-0.5,1.5-1.1,1.9-1.9l2.5-5.3
				l6.2,0.6l1.7,16.6c0.1,0.6,0.3,1.2,0.7,1.7l8.7,11.8l9.4,0.7l-7.5,3.1l-1.6,6.6l-11.1-2.7l-4.4-3.1l-10.7-0.4
				c-1.1,0-2.1,0.1-3,0.5l0,0c-3,1.2-7,0.1-8.5-2.3l-6.4-10.8L407.3,299.7z"/>
			<path class="st7" d="M464.8,316.2c0.5,0,11.3-0.4,11.3-0.4s5.6,1.2,5.3,1c-0.3-0.2-2.6-3.4-2.6-3.4l-7.2,0.8L464.8,316.2z"/>
			<path class="st7" d="M169.1,321c0.1,0.4-5.8,2.2-5.8,2.2l-11.9-3.7l8.4,0.4L169.1,321z"/>
		</g>
		<g>
			<path class="st1" d="M336.8,226.9c0,10-3.8,17.2-10.4,23.8c-3.3,3.3-15.1,13.6-15.1,13.6s-11.1-8.9-15-12.9
				c-6.8-6.8-12-14.3-12-24.5c0-14.5,11.8-26.3,26.2-26.3C325.1,200.7,336.8,212.4,336.8,226.9z"/>
			<line class="st8" x1="311.3" y1="263.8" x2="311.3" y2="341.8"/>
		</g>
		<circle id="地球" class="st9" cx="83.3" cy="306.4" r="34.3"/>
		<path id="海外" class="st1" d="M108.3,243.7c0,10-3.8,17.1-10.4,23.7c-3.3,3.3-15.1,13.6-15.1,13.6s-11-8.9-15-12.9
			c-6.8-6.8-12-14.3-12-24.5c0-14.5,11.7-26.2,26.2-26.2C96.6,217.5,108.3,229.3,108.3,243.7z"/>
		<g>
			<text transform="matrix(1 0 0 1 71.332 235.5083)" class="st2 st10 st4">海外</text>
		</g>
		<g>
			<text transform="matrix(1 0 0 1 289.792 222.5083)"><tspan x="0" y="0" class="st2 st10 st11">東</tspan><tspan x="10" y="0" class="st2 st10 st11 st12">海3</tspan><tspan x="33.1" y="0" class="st2 st10 st11">県</tspan></text>
		</g>
		<g id="東北" class="st5">
			<g class="st13">
				<path class="st1" d="M401.3,258.8c0,5.9-2.2,10.1-6.1,14c-2,2-8.9,8-8.9,8s-6.5-5.3-8.9-7.6c-4-4-7.1-8.4-7.1-14.5
					c0-8.6,6.9-15.5,15.5-15.5C394.4,243.3,401.3,250.2,401.3,258.8z"/>
				<line class="st14" x1="385.8" y1="280.8" x2="385.8" y2="314.8"/>
			</g>
			<text transform="matrix(1 0 0 1 377.832 257.5083)" class="st15 st10 st16">東北</text>
		</g>
		<g id="九州" class="st5">
			<g class="st13">
				<path class="st1" d="M228.6,262.1c0,5.7-2.2,9.9-6,13.7c-1.9,1.9-8.7,7.9-8.7,7.9s-6.4-5.2-8.6-7.4c-3.9-3.9-6.9-8.2-6.9-14.1
					c0-8.4,6.8-15.1,15.1-15.1C221.8,247,228.6,253.8,228.6,262.1z"/>
				<line class="st14" x1="213.8" y1="283.8" x2="213.8" y2="316.8"/>
			</g>
			<text transform="matrix(1 0 0 1 206.0664 258.7583)" class="st15 st10 st17">九州</text>
		</g>
		<g>
			<text transform="matrix(1 0 0 1 86.082 263.5913)" class="st2 st18 st19">％</text>
		</g>
		<g>
			<text transform="matrix(1 0 0 1 70.0688 263.5913)" class="st2 st20 st21">8</text>
		</g>
		<g>
			<text transform="matrix(1 0 0 1 290.082 240.8413)" class="st2 st18 st22">６０</text>
		</g>
		<g>
			<text transform="matrix(1 0 0 1 320.5801 241.0689)" class="st2 st18 st23">％</text>
		</g>
		<g id="北海道">
			<g>
				<path class="st1" d="M447.5,247.4c0,4.8-1.8,8.2-5,11.4c-1.6,1.6-7.2,6.5-7.2,6.5s-5.3-4.3-7.2-6.2c-3.2-3.2-5.7-6.8-5.7-11.7
					c0-6.9,5.6-12.6,12.6-12.6C441.8,234.8,447.5,240.5,447.5,247.4z"/>
				<line class="st14" x1="434.8" y1="264.8" x2="434.8" y2="292.8"/>
			</g>
			<g>
				<text transform="matrix(1 0 0 1 425.8975 245.3413)" class="st2 st10 st24">北海道</text>
			</g>
			<g>
				<text transform="matrix(1 0 0 1 428.8618 256.8413)" class="st2 st18 st11">8</text>
			</g>
			<g>
				<text transform="matrix(1 0 0 1 435.4146 256.8423)" class="st2 st18 st17">％</text>
			</g>
		</g>
		<g id="関西">
			<line class="st14" x1="280.8" y1="263.8" x2="280.8" y2="328.8"/>
			<g>
				<path class="st1" d="M292.3,269c0,4.4-1.7,7.5-4.5,10.4c-1.5,1.5-6.8,6-6.8,6s-4.7-3.9-6.4-5.6c-3-3-5.3-6.3-5.3-10.7
					c0-6.4,5.3-11.5,11.7-11.5C287.3,257.5,292.3,262.6,292.3,269z"/>
				<text transform="matrix(1 0 0 1 274.8315 267.3081)" class="st2 st10 st24">関西</text>
			</g>
			<g>
				<text transform="matrix(1 0 0 1 274.0288 277.5083)" class="st2 st18 st11">8</text>
			</g>
			<g>
				<text transform="matrix(1 0 0 1 280.5815 277.5083)" class="st2 st18 st17">％</text>
			</g>
		</g>
		<g id="北陸">
			<line class="st14" x1="332.8" y1="263.8" x2="332.8" y2="328.8"/>
			<g>
				<path class="st1" d="M344.3,269c0,4.4-1.7,7.5-4.5,10.4c-1.5,1.5-6.8,6-6.8,6s-4.7-3.9-6.4-5.6c-3-3-5.3-6.3-5.3-10.7
					c0-6.4,5.3-11.5,11.7-11.5C339.3,257.5,344.3,262.6,344.3,269z"/>
				<text transform="matrix(1 0 0 1 326.8315 267.3081)" class="st2 st10 st24">北陸</text>
			</g>
			<g>
				<text transform="matrix(1 0 0 1 326.0288 277.5083)" class="st2 st18 st11">8</text>
			</g>
			<g>
				<text transform="matrix(1 0 0 1 332.5815 277.5083)" class="st2 st18 st17">％</text>
			</g>
		</g>
		<g id="関東">
			<line class="st14" x1="336.8" y1="302.8" x2="336.8" y2="347.8"/>
			<g>
				<path class="st1" d="M348.3,308c0,4.4-1.7,7.5-4.5,10.4c-1.5,1.5-6.8,6-6.8,6s-4.7-3.9-6.4-5.6c-3-3-5.3-6.3-5.3-10.7
					c0-6.4,5.3-11.5,11.7-11.5C343.3,296.5,348.3,301.6,348.3,308z"/>
				<text transform="matrix(1 0 0 1 330.8315 306.3081)" class="st2 st10 st24">関東</text>
			</g>
			<g>
				<text transform="matrix(1 0 0 1 330.0288 316.5083)" class="st2 st18 st11">8</text>
			</g>
			<g>
				<text transform="matrix(1 0 0 1 336.5815 316.5083)" class="st2 st18 st17">％</text>
			</g>
		</g>
	</g>
	<g id="Guide_1_">
		<path id="_x33__1_" class="st1" d="M475.1,178.5H355.8c-5.1,0-9.3-4.1-9.3-9.3V19.8c0-5.1,4.1-9.3,9.3-9.3h119.3
			c5.1,0,9.3,4.1,9.3,9.3v149.5C484.4,174.4,480.2,178.5,475.1,178.5z"/>
		<path id="_x32__1_" class="st1" d="M308,178.5H188.7c-5.1,0-9.3-4.1-9.3-9.3V19.8c0-5.1,4.1-9.3,9.3-9.3H308
			c5.1,0,9.3,4.1,9.3,9.3v149.5C317.2,174.4,313.1,178.5,308,178.5z"/>
		<path id="_x31__1_" class="st1" d="M140.5,178.5H21.2c-5.1,0-9.3-4.1-9.3-9.3V19.8c0-5.1,4.1-9.3,9.3-9.3h119.3
			c5.1,0,9.3,4.1,9.3,9.3v149.5C149.7,174.4,145.6,178.5,140.5,178.5z"/>
	</g>
	<g id="Box_3_2_">
		<g>
			<text transform="matrix(1 0 0 1 399.3662 32.1743)" class="st2 st3 st4">社員数</text>
		</g>
		<g id="_x31_3人_2_">
			<g>
				<text transform="matrix(1 0 0 1 382.3848 159.9893)" class="st2 st3 st21">13</text>
			</g>
			<g>
				<text transform="matrix(1 0 0 1 429.8325 159.9893)" class="st2 st3 st21">人</text>
			</g>
		</g>
		<g id="People_2_">
			<g id="people_line2_2_">
				<g id="head2_34_">
					<circle class="st25" cx="385.2" cy="98.2" r="3.6"/>
					<path class="st9" d="M388.1,122.5h-5.7l-2.2-14.9c0-2.5,2-4.5,4.5-4.5h1.3c2.5,0,4.5,2,4.5,4.5L388.1,122.5z"/>
				</g>
				<g id="head2_33_">
					<circle class="st25" cx="398.3" cy="98.2" r="3.6"/>
					<path class="st9" d="M401.1,122.5h-5.7l-2.2-14.9c0-2.5,2-4.5,4.5-4.5h1.3c2.5,0,4.5,2,4.5,4.5L401.1,122.5z"/>
				</g>
				<g id="head2_32_">
					<circle class="st25" cx="411.3" cy="98.2" r="3.6"/>
					<path class="st9" d="M414.2,122.5h-5.7l-2.2-14.9c0-2.5,2-4.5,4.5-4.5h1.3c2.5,0,4.5,2,4.5,4.5L414.2,122.5z"/>
				</g>
				<g id="head2_31_">
					<circle class="st25" cx="424.4" cy="98.2" r="3.6"/>
					<path class="st9" d="M427.2,122.5h-5.7l-2.2-14.9c0-2.5,2-4.5,4.5-4.5h1.3c2.5,0,4.5,2,4.5,4.5L427.2,122.5z"/>
				</g>
				<g id="head2_30_">
					<circle class="st25" cx="437.4" cy="98.2" r="3.6"/>
					<path class="st9" d="M440.3,122.5h-5.7l-2.2-14.9c0-2.5,2-4.5,4.5-4.5h1.3c2.5,0,4.5,2,4.5,4.5L440.3,122.5z"/>
				</g>
				<g id="head2_29_">
					<circle class="st25" cx="450.5" cy="98.2" r="3.6"/>
					<path class="st9" d="M453.3,122.5h-5.7l-2.2-14.9c0-2.5,2-4.5,4.5-4.5h1.3c2.5,0,4.5,2,4.5,4.5L453.3,122.5z"/>
				</g>
			</g>
			<g id="people_line_1_2_">
				<g id="head2_28_">
					<circle class="st25" cx="378.7" cy="56.7" r="3.6"/>
					<path class="st9" d="M381.6,80.9h-5.7L373.6,66c0-2.5,2-4.5,4.5-4.5h1.3c2.5,0,4.5,2,4.5,4.5L381.6,80.9z"/>
				</g>
				<g id="head2_27_">
					<circle class="st25" cx="404.8" cy="56.7" r="3.6"/>
					<path class="st9" d="M407.7,80.9h-5.7L399.7,66c0-2.5,2-4.5,4.5-4.5h1.3c2.5,0,4.5,2,4.5,4.5L407.7,80.9z"/>
				</g>
				<g id="head2_26_">
					<circle class="st25" cx="430.9" cy="56.7" r="3.6"/>
					<path class="st9" d="M433.8,80.9H428L425.8,66c0-2.5,2-4.5,4.5-4.5h1.3c2.5,0,4.5,2,4.5,4.5L433.8,80.9z"/>
				</g>
				<g id="g_17_">
					<path class="st26" d="M395.3,56.8c-0.1,0.8,0.7,1.9,1,2.5c0.1,0.1,0,0.3-0.2,0.3c-0.7,0-2.3,0.1-2.3,0.2
						c-0.6,0.4-1.3,0.6-2,0.6c-0.7,0-1.4-0.2-2-0.6c-0.1,0-1.6-0.1-2.3-0.1c-0.2,0-0.2-0.2-0.2-0.3c0.3-0.5,1-1.6,1-2.4
						c0-2.7,3-4.6,5.8-2.7C394.9,54.8,395.3,55.8,395.3,56.8z"/>
					<path class="st27" d="M394.5,80.4H389l-0.3-2.3l-3.5-0.3c-0.2,0-0.4-0.3-0.4-0.5c0.7-2.6,4.3-15.6,6.4-15.6h1.2
						c2.1,0,5.7,13,6.4,15.6c0.1,0.2-0.1,0.5-0.4,0.5l-3.5,0.3L394.5,80.4z"/>
				</g>
				<g id="g_16_">
					<path class="st26" d="M420.8,57.4c-0.1,0.8,0.7,1.9,1,2.5c0.1,0.1,0,0.3-0.2,0.3c-0.7,0-2.3,0.1-2.3,0.2
						c-0.6,0.4-1.3,0.6-2,0.6c-0.8,0-1.4-0.2-2-0.6c-0.1,0-1.6-0.1-2.3-0.1c-0.2,0-0.2-0.2-0.2-0.3c0.3-0.5,1-1.6,1-2.4
						c0-2.7,3-4.6,5.8-2.7C420.5,55.3,420.9,56.4,420.8,57.4z"/>
					<path class="st27" d="M420.1,80.9h-5.5l-0.3-2.3l-3.5-0.3c-0.2,0-0.4-0.3-0.4-0.5c0.7-2.6,4.3-15.6,6.4-15.6h1.2
						c2.1,0,5.7,13,6.4,15.6c0.1,0.2-0.1,0.5-0.4,0.5l-3.5,0.3L420.1,80.9z"/>
				</g>
				<g id="g_15_">
					<path class="st26" d="M446.4,58c-0.1,0.8,0.7,1.9,1,2.5c0.1,0.1,0,0.3-0.2,0.3c-0.7,0-2.3,0.1-2.3,0.2c-0.6,0.4-1.3,0.6-2,0.6
						s-1.4-0.2-2-0.6c-0.1,0-1.6-0.1-2.3-0.1c-0.2,0-0.2-0.2-0.2-0.3c0.3-0.5,1-1.6,1-2.4c0-2.7,3-4.6,5.8-2.7
						C446.1,55.9,446.5,56.9,446.4,58z"/>
					<path class="st27" d="M445.7,81.5h-5.5l-0.3-2.3l-3.5-0.3c-0.2,0-0.4-0.3-0.4-0.5c0.7-2.6,4.3-15.6,6.4-15.6h1.2
						c2.1,0,5.7,13,6.4,15.6c0.1,0.2-0.1,0.5-0.4,0.5l-3.5,0.3L445.7,81.5z"/>
				</g>
				<g id="head2_25_">
					<circle class="st25" cx="457" cy="56.7" r="3.6"/>
					<path class="st9" d="M459.8,80.9h-5.7L451.9,66c0-2.5,2-4.5,4.5-4.5h1.3c2.5,0,4.5,2,4.5,4.5L459.8,80.9z"/>
				</g>
			</g>
		</g>
	</g>
	<g id="Box_2_7_">
		<g>
			<text transform="matrix(1 0 0 1 203.5142 162.4204)" class="st2 st10 st4">男性</text>
		</g>
		<g>
			<text transform="matrix(1 0 0 1 271.3955 162.4204)" class="st2 st10 st4">女性</text>
		</g>
		<g id="b_8_">
			<circle class="st28" cx="215.3" cy="97.6" r="7.1"/>
			<path class="st29" d="M220.9,144.9h-11.2l-4.4-29.1c0-4.8,3.9-8.7,8.7-8.7h2.5c4.8,0,8.7,3.9,8.7,8.7L220.9,144.9z"/>
		</g>
		<g id="g_14_">
			<path class="st30" d="M290.3,97.4c-0.1,1.6,1.3,3.9,2.1,5c0.2,0.3,0,0.6-0.3,0.6c-1.5,0.1-4.6,0.2-4.7,0.3
				c-1.1,0.8-2.6,1.3-4.1,1.3c-1.5,0-2.9-0.5-4.1-1.3c-0.1-0.1-3.2-0.2-4.7-0.3c-0.3,0-0.5-0.4-0.3-0.6c0.7-1,2-3.2,2-4.8
				c0-5.4,6-9.4,11.7-5.5C289.6,93.2,290.4,95.3,290.3,97.4z"/>
			<path class="st31" d="M288.8,144.9h-11.2l-0.7-4.7l-7.1-0.5c-0.5,0-0.8-0.5-0.7-1c1.4-5.3,8.6-31.6,12.9-31.6h2.5
				c4.3,0,11.5,26.3,12.9,31.6c0.1,0.5-0.2,1-0.7,1l-7.1,0.5L288.8,144.9z"/>
		</g>
		<g id="_x37_7_x25__7_">
			<g>
				<g>
					<text transform="matrix(1 0 0 1 200.7661 76.6748)" class="st2 st3 st32">77</text>
				</g>
				<g>
					<text transform="matrix(1 0 0 1 225.5347 76.6748)" class="st2 st3 st23">%</text>
				</g>
			</g>
		</g>
		<g id="_x32_3_x25__7_">
			<g>
				<g>
					<text transform="matrix(1 0 0 1 266.9072 76.6743)" class="st2 st3 st32">23</text>
				</g>
				<g>
					<text transform="matrix(1 0 0 1 293.3682 76.6748)" class="st2 st3 st23">%</text>
				</g>
			</g>
		</g>
		<g id="平均年齢_7_">
			<g>
				<text transform="matrix(1 0 0 1 197.1655 45.3413)" class="st2 st3 st4">平均年齢</text>
			</g>
			<g>
				<text transform="matrix(1 0 0 1 248.7925 45.3413)" class="st2 st3 st33">34</text>
			</g>
			<g>
				<text transform="matrix(1 0 0 1 286.3325 45.3408)" class="st2 st3 st4">歳</text>
			</g>
		</g>
	</g>
	<g id="Box_1">
		<g id="Numbers">
			<g>
				<text transform="matrix(1 0 0 1 45.5005 159.9888)" class="st2 st3 st21">33</text>
			</g>
			<g>
				<text transform="matrix(1 0 0 1 90.8462 159.9893)" class="st2 st3 st21">%</text>
			</g>
		</g>
		<g>
			<text transform="matrix(1 0 0 1 56.853 32.1743)" class="st2 st3 st4">メガネ率</text>
		</g>
		<g id="megane">
			<line class="st34" x1="72.3" y1="86.3" x2="94.3" y2="86.3"/>
			<circle class="st35" cx="104.3" cy="86.3" r="15.2"/>
			<circle class="st35" cx="56.2" cy="86.1" r="15.2"/>
			<path class="st36" d="M72.2,86.1c0,8.8-7.2,16-16,16c-8.8,0-16-7.2-16-16"/>
			<path class="st36" d="M120.3,86.1c0,8.8-7.2,16-16,16c-8.8,0-16-7.2-16-16"/>
			<path class="st37" d="M88.3,86.1c0-8.8,7.2-16,16-16c8.8,0,16,7.2,16,16"/>
			<path class="st37" d="M40.2,86.1c0-8.8,7.2-16,16-16c8.8,0,16,7.2,16,16"/>
			<path class="st2" d="M36.7,83.5H40c0.9,0,1.6,0.7,1.6,1.6v2.5c0,0.9-0.7,1.6-1.6,1.6h-3.3c-0.9,0-1.6-0.7-1.6-1.6v-2.5
				C35.1,84.2,35.8,83.5,36.7,83.5z"/>
			<path class="st2" d="M124.1,83.5h-3.6c-0.9,0-1.7,0.8-1.7,1.7v2.4c0,0.9,0.8,1.7,1.7,1.7h3.6c0.9,0,1.7-0.8,1.7-1.7v-2.4
				C125.8,84.2,125,83.5,124.1,83.5z"/>
		</g>
	</g>
</g>
</svg>
