<?xml version="1.0" encoding="utf-8"?>
<!-- Generator: Adobe Illustrator 19.2.0, SVG Export Plug-In . SVG Version: 6.00 Build 0)  -->
<svg version="1.1" id="Main_Layer" xmlns="http://www.w3.org/2000/svg" xmlns:xlink="http://www.w3.org/1999/xlink" x="0px" y="0px"
	 viewBox="0 0 496.7 367.1" style="enable-background:new 0 0 496.7 367.1;" xml:space="preserve">
<style type="text/css">
	.st0{display:none;}
	
		.st1{display:inline;fill:#FFFFFF;stroke:#3E3A39;stroke-width:2.8361;stroke-linecap:round;stroke-linejoin:round;stroke-miterlimit:10;}
	
		.st2{clip-path:url(#_x33__1_);fill:#FFFFFF;stroke:#3E3A39;stroke-width:2.8361;stroke-linecap:round;stroke-linejoin:round;stroke-miterlimit:10;}
	.st3{clip-path:url(#_x33__1_);}
	.st4{fill:#B3EDFF;}
	.st5{fill:#ECECF5;stroke:#3E3A39;stroke-width:2;stroke-miterlimit:10;}
	.st6{fill:#E45751;}
	.st7{clip-path:url(#SVGID_2_);}
	.st8{fill:#DD3B40;}
	.st9{fill:none;stroke:#3E3A39;stroke-miterlimit:10;}
	.st10{display:none;fill:#DD3B40;}
	.st11{fill:#3E3A39;}
	.st12{fill:#FFFFFF;stroke:#3E3A39;stroke-miterlimit:10;}
	.st13{fill:#ECECF5;}
	.st14{fill:#CC2E3A;}
	.st15{fill:#F27968;}
	.st16{font-family:'NewRodinPro-B-83pv-RKSJ-H';}
	.st17{font-size:6px;}
	.st18{font-size:5px;}
	.st19{fill:#FFFFFF;}
	.st20{clip-path:url(#SVGID_4_);}
	.st21{clip-path:url(#SVGID_6_);}
	.st22{clip-path:url(#SVGID_8_);}
	.st23{clip-path:url(#SVGID_10_);}
	.st24{fill:#57C14C;stroke:#3E3A39;stroke-miterlimit:10;}
	.st25{clip-path:url(#SVGID_12_);fill:#54AD4B;}
	.st26{fill:none;stroke:#3E3A39;stroke-linecap:round;stroke-linejoin:round;stroke-miterlimit:10;}
	.st27{clip-path:url(#SVGID_14_);fill:#54AD4B;}
	.st28{fill:#64C8FF;}
	.st29{font-size:28px;}
	.st30{font-size:12px;}
	.st31{fill:none;stroke:#3E3A39;stroke-width:2.8361;stroke-linecap:round;stroke-linejoin:round;stroke-miterlimit:10;}
	.st32{fill:#FFFFFF;stroke:#3E3A39;stroke-width:2.8361;stroke-linecap:round;stroke-linejoin:round;stroke-miterlimit:10;}
	.st33{fill:#FFFFFF;stroke:#3E3A39;stroke-width:1.1658;stroke-linecap:round;stroke-linejoin:round;stroke-miterlimit:10;}
	.st34{fill:#635568;stroke:#3E3A39;stroke-width:0.7068;stroke-linecap:round;stroke-linejoin:round;stroke-miterlimit:10;}
	.st35{fill:#FFFFFF;stroke:#3E3A39;stroke-width:1.0596;stroke-linecap:round;stroke-linejoin:round;stroke-miterlimit:10;}
	.st36{fill:#FFFFFF;stroke:#3E3A39;stroke-width:1.2669;stroke-linecap:round;stroke-linejoin:round;stroke-miterlimit:10;}
	.st37{fill:#433B4B;}
	.st38{fill:#635568;}
	.st39{fill:#ECECF5;stroke:#3E3A39;stroke-width:1.2575;stroke-linecap:round;stroke-linejoin:round;stroke-miterlimit:10;}
	.st40{fill:#FFFFFF;stroke:#3E3A39;stroke-width:1.0698;stroke-linecap:round;stroke-linejoin:round;stroke-miterlimit:10;}
	.st41{fill:#FFFFFF;stroke:#3E3A39;stroke-linecap:round;stroke-linejoin:round;stroke-miterlimit:10;}
	.st42{fill:#635568;stroke:#3E3A39;stroke-width:0.4218;stroke-linecap:round;stroke-linejoin:round;stroke-miterlimit:10;}
	.st43{fill:#FFFFFF;stroke:#3E3A39;stroke-width:0.5595;stroke-linecap:round;stroke-linejoin:round;stroke-miterlimit:10;}
	.st44{fill:#635568;stroke:#3E3A39;stroke-width:1.1419;stroke-linecap:round;stroke-linejoin:round;stroke-miterlimit:10;}
	.st45{clip-path:url(#_x32__1_);}
	.st46{fill:#64C8FF;stroke:#3E3A39;stroke-linecap:round;stroke-linejoin:round;stroke-miterlimit:10;}
	.st47{fill:#676259;stroke:#3E3A39;stroke-linecap:round;stroke-linejoin:round;stroke-miterlimit:10;}
	.st48{clip-path:url(#SVGID_16_);fill:#FFFFFF;stroke:#3E3A39;stroke-linecap:round;stroke-linejoin:round;stroke-miterlimit:10;}
	.st49{fill:#7F7369;stroke:#3E3A39;stroke-linecap:round;stroke-linejoin:round;stroke-miterlimit:10;}
	.st50{clip-path:url(#SVGID_18_);fill:#ECECF5;}
	.st51{clip-path:url(#SVGID_18_);fill:#64C8FF;}
	.st52{fill:#FFFFFF;stroke:#3E3A39;stroke-width:2;stroke-linecap:round;stroke-linejoin:round;stroke-miterlimit:10;}
	.st53{clip-path:url(#SVGID_20_);fill:#DD3B40;}
	.st54{fill:none;stroke:#3E3A39;stroke-linejoin:round;stroke-miterlimit:10;}
	.st55{fill:#C2CEE6;stroke:#3E3A39;stroke-linecap:round;stroke-linejoin:round;stroke-miterlimit:10;}
	.st56{fill:#ECECF5;stroke:#3E3A39;stroke-linecap:round;stroke-linejoin:round;stroke-miterlimit:10;}
	.st57{clip-path:url(#SVGID_22_);fill:#ECECF5;}
	.st58{clip-path:url(#SVGID_22_);fill:#E45751;}
</style>
<g id="社員属性_x2462__1_">
	<g id="社員属性3">
		<g id="Guide_2_" class="st0">
			<path id="_x33__2_" class="st1" d="M471.7,353.5H360.1c-7.2,0-13.1-5.9-13.1-13.1V28.8c0-7.2,5.9-13.1,13.1-13.1h111.5
				c7.2,0,13.1,5.9,13.1,13.1v311.6C484.8,347.6,478.9,353.5,471.7,353.5z"/>
			<path id="_x32__2_" class="st1" d="M304.5,353.5H193c-7.2,0-13.1-5.9-13.1-13.1V28.8c0-7.2,5.9-13.1,13.1-13.1h111.5
				c7.2,0,13.1,5.9,13.1,13.1v311.6C317.7,347.6,311.8,353.5,304.5,353.5z"/>
			<path id="_x31__2_" class="st1" d="M137,353.5H25.5c-7.2,0-13.1-5.9-13.1-13.1V28.8c0-7.2,5.9-13.1,13.1-13.1H137
				c7.2,0,13.1,5.9,13.1,13.1v311.6C150.2,347.6,144.3,353.5,137,353.5z"/>
		</g>
		<g id="Box__xFF13_">
			<g>
				<defs>
					<path id="_x33__4_" d="M471.7,353.5H360.1c-7.2,0-13.1-5.9-13.1-13.1V28.8c0-7.2,5.9-13.1,13.1-13.1h111.5
						c7.2,0,13.1,5.9,13.1,13.1v311.6C484.8,347.6,478.9,353.5,471.7,353.5z"/>
				</defs>
				<clipPath id="_x33__1_">
					<use xlink:href="#_x33__4_"  style="overflow:visible;"/>
				</clipPath>
				<path id="_x33__8_" class="st2" d="M471.7,353.5H360.1c-7.2,0-13.1-5.9-13.1-13.1V28.8c0-7.2,5.9-13.1,13.1-13.1h111.5
					c7.2,0,13.1,5.9,13.1,13.1v311.6C484.8,347.6,478.9,353.5,471.7,353.5z"/>
				<g id="Gallery_1_" class="st3">
					<g>
						
							<rect x="344.5" y="259.7" transform="matrix(-1 -1.224647e-16 1.224647e-16 -1 830.5829 631.0299)" class="st4" width="141.6" height="111.6"/>
						
							<rect x="344.5" y="244.6" transform="matrix(-1 -1.224647e-16 1.224647e-16 -1 830.5829 498.7318)" class="st4" width="141.6" height="9.5"/>
						
							<rect x="344.5" y="235.6" transform="matrix(-1 -1.224647e-16 1.224647e-16 -1 830.5829 476.2798)" class="st4" width="141.6" height="5"/>
					</g>
					<polygon class="st5" points="312.7,328 529.7,328 529.7,354 312.7,354 312.7,328 					"/>
					<g id="BLDG_2_">
						<path class="st6" d="M442.8,327.2H395v-71.2c0-0.8,0.7-1.5,1.5-1.5h45c0.8,0,1.5,0.7,1.5,1.5V327.2z"/>
						<g>
							<defs>
								<rect id="SVGID_1_" x="395" y="254.5" width="47.9" height="72.7"/>
							</defs>
							<clipPath id="SVGID_2_">
								<use xlink:href="#SVGID_1_"  style="overflow:visible;"/>
							</clipPath>
							<g class="st7">
								<g>
									<rect x="395" y="254" class="st8" width="4.9" height="3.1"/>
									<rect x="400.8" y="254" class="st8" width="4.9" height="3.1"/>
									<rect x="406.6" y="254" class="st8" width="4.9" height="3.1"/>
									<rect x="412.4" y="254" class="st8" width="4.9" height="3.1"/>
									<rect x="418.2" y="254" class="st8" width="4.9" height="3.1"/>
									<rect x="424" y="254" class="st8" width="4.9" height="3.1"/>
									<rect x="429.8" y="254" class="st8" width="4.9" height="3.1"/>
									<rect x="435.6" y="254" class="st8" width="4.9" height="3.1"/>
									<rect x="441.5" y="254" class="st8" width="4.9" height="3.1"/>
									<rect x="387.3" y="257.7" class="st8" width="4.9" height="3.1"/>
									<rect x="393.1" y="257.7" class="st8" width="4.9" height="3.1"/>
									<rect x="399" y="257.7" class="st8" width="4.9" height="3.1"/>
									<rect x="404.8" y="257.7" class="st8" width="4.9" height="3.1"/>
									<rect x="410.6" y="257.7" class="st8" width="4.9" height="3.1"/>
									<rect x="416.4" y="257.7" class="st8" width="4.9" height="3.1"/>
									<rect x="422.2" y="257.7" class="st8" width="4.9" height="3.1"/>
									<rect x="428" y="257.7" class="st8" width="4.9" height="3.1"/>
									<rect x="433.8" y="257.7" class="st8" width="4.9" height="3.1"/>
									<rect x="439.6" y="257.7" class="st8" width="4.9" height="3.1"/>
								</g>
								<g>
									<rect x="395" y="261.4" class="st8" width="4.9" height="3.1"/>
									<rect x="400.8" y="261.4" class="st8" width="4.9" height="3.1"/>
									<rect x="406.6" y="261.4" class="st8" width="4.9" height="3.1"/>
									<rect x="412.4" y="261.4" class="st8" width="4.9" height="3.1"/>
									<rect x="418.2" y="261.4" class="st8" width="4.9" height="3.1"/>
									<rect x="424.1" y="261.4" class="st8" width="4.9" height="3.1"/>
									<rect x="429.9" y="261.4" class="st8" width="4.9" height="3.1"/>
									<rect x="435.7" y="261.4" class="st8" width="4.9" height="3.1"/>
									<rect x="441.5" y="261.4" class="st8" width="4.9" height="3.1"/>
									<rect x="387.4" y="265.1" class="st8" width="4.9" height="3.1"/>
									<rect x="393.2" y="265.1" class="st8" width="4.9" height="3.1"/>
									<rect x="399" y="265.1" class="st8" width="4.9" height="3.1"/>
									<rect x="404.8" y="265.1" class="st8" width="4.9" height="3.1"/>
									<rect x="410.6" y="265.1" class="st8" width="4.9" height="3.1"/>
									<rect x="416.4" y="265.1" class="st8" width="4.9" height="3.1"/>
									<rect x="422.2" y="265.1" class="st8" width="4.9" height="3.1"/>
									<rect x="428.1" y="265.1" class="st8" width="4.9" height="3.1"/>
									<rect x="433.9" y="265.1" class="st8" width="4.9" height="3.1"/>
									<rect x="439.7" y="265.1" class="st8" width="4.9" height="3.1"/>
								</g>
								<g>
									<rect x="395" y="268.8" class="st8" width="4.9" height="3.1"/>
									<rect x="400.8" y="268.8" class="st8" width="4.9" height="3.1"/>
									<rect x="406.6" y="268.8" class="st8" width="4.9" height="3.1"/>
									<rect x="412.4" y="268.8" class="st8" width="4.9" height="3.1"/>
									<rect x="418.3" y="268.8" class="st8" width="4.9" height="3.1"/>
									<rect x="424.1" y="268.8" class="st8" width="4.9" height="3.1"/>
									<rect x="429.9" y="268.8" class="st8" width="4.9" height="3.1"/>
									<rect x="435.7" y="268.8" class="st8" width="4.9" height="3.1"/>
									<rect x="441.5" y="268.8" class="st8" width="4.9" height="3.1"/>
									<rect x="387.4" y="272.4" class="st8" width="4.9" height="3.1"/>
									<rect x="393.2" y="272.4" class="st8" width="4.9" height="3.1"/>
									<rect x="399" y="272.4" class="st8" width="4.9" height="3.1"/>
									<rect x="404.8" y="272.4" class="st8" width="4.9" height="3.1"/>
									<rect x="410.6" y="272.4" class="st8" width="4.9" height="3.1"/>
									<rect x="416.4" y="272.4" class="st8" width="4.9" height="3.1"/>
									<rect x="422.3" y="272.4" class="st8" width="4.9" height="3.1"/>
									<rect x="428.1" y="272.4" class="st8" width="4.9" height="3.1"/>
									<rect x="433.9" y="272.4" class="st8" width="4.9" height="3.1"/>
									<rect x="439.7" y="272.4" class="st8" width="4.9" height="3.1"/>
								</g>
								<g>
									<rect x="395" y="276.2" class="st8" width="4.9" height="3.1"/>
									<rect x="400.8" y="276.2" class="st8" width="4.9" height="3.1"/>
									<rect x="406.7" y="276.2" class="st8" width="4.9" height="3.1"/>
									<rect x="412.5" y="276.2" class="st8" width="4.9" height="3.1"/>
									<rect x="418.3" y="276.2" class="st8" width="4.9" height="3.1"/>
									<rect x="424.1" y="276.2" class="st8" width="4.9" height="3.1"/>
									<rect x="429.9" y="276.2" class="st8" width="4.9" height="3.1"/>
									<rect x="435.7" y="276.2" class="st8" width="4.9" height="3.1"/>
									<rect x="441.5" y="276.2" class="st8" width="4.9" height="3.1"/>
									<rect x="387.4" y="279.8" class="st8" width="4.9" height="3.1"/>
									<rect x="393.2" y="279.8" class="st8" width="4.9" height="3.1"/>
									<rect x="399" y="279.8" class="st8" width="4.9" height="3.1"/>
									<rect x="404.8" y="279.8" class="st8" width="4.9" height="3.1"/>
									<rect x="410.7" y="279.8" class="st8" width="4.9" height="3.1"/>
									<rect x="416.5" y="279.8" class="st8" width="4.9" height="3.1"/>
									<rect x="422.3" y="279.8" class="st8" width="4.9" height="3.1"/>
									<rect x="428.1" y="279.8" class="st8" width="4.9" height="3.1"/>
									<rect x="433.9" y="279.8" class="st8" width="4.9" height="3.1"/>
									<rect x="439.7" y="279.8" class="st8" width="4.9" height="3.1"/>
								</g>
								<g>
									<rect x="395.4" y="283.6" class="st8" width="4.9" height="3.1"/>
									<rect x="401.2" y="283.6" class="st8" width="4.9" height="3.1"/>
									<rect x="407" y="283.6" class="st8" width="4.9" height="3.1"/>
									<rect x="412.8" y="283.6" class="st8" width="4.9" height="3.1"/>
									<rect x="418.6" y="283.6" class="st8" width="4.9" height="3.1"/>
									<rect x="424.5" y="283.6" class="st8" width="4.9" height="3.1"/>
									<rect x="430.3" y="283.6" class="st8" width="4.9" height="3.1"/>
									<rect x="436.1" y="283.6" class="st8" width="4.9" height="3.1"/>
									<rect x="441.9" y="283.6" class="st8" width="4.9" height="3.1"/>
									<rect x="387.8" y="287.2" class="st8" width="4.9" height="3.1"/>
									<rect x="393.6" y="287.2" class="st8" width="4.9" height="3.1"/>
									<rect x="399.4" y="287.2" class="st8" width="4.9" height="3.1"/>
									<rect x="405.2" y="287.2" class="st8" width="4.9" height="3.1"/>
									<rect x="411" y="287.2" class="st8" width="4.9" height="3.1"/>
									<rect x="416.8" y="287.2" class="st8" width="4.9" height="3.1"/>
									<rect x="422.6" y="287.2" class="st8" width="4.9" height="3.1"/>
									<rect x="428.5" y="287.2" class="st8" width="4.9" height="3.1"/>
									<rect x="434.3" y="287.2" class="st8" width="4.9" height="3.1"/>
									<rect x="440.1" y="287.2" class="st8" width="4.9" height="3.1"/>
								</g>
								<g>
									<rect x="395.4" y="291" class="st8" width="4.9" height="3.1"/>
									<rect x="401.2" y="291" class="st8" width="4.9" height="3.1"/>
									<rect x="407" y="291" class="st8" width="4.9" height="3.1"/>
									<rect x="412.9" y="291" class="st8" width="4.9" height="3.1"/>
									<rect x="418.7" y="291" class="st8" width="4.9" height="3.1"/>
									<rect x="424.5" y="291" class="st8" width="4.9" height="3.1"/>
									<rect x="430.3" y="291" class="st8" width="4.9" height="3.1"/>
									<rect x="436.1" y="291" class="st8" width="4.9" height="3.1"/>
									<rect x="441.9" y="291" class="st8" width="4.9" height="3.1"/>
									<rect x="387.8" y="294.6" class="st8" width="4.9" height="3.1"/>
									<rect x="393.6" y="294.6" class="st8" width="4.9" height="3.1"/>
									<rect x="399.4" y="294.6" class="st8" width="4.9" height="3.1"/>
									<rect x="405.2" y="294.6" class="st8" width="4.9" height="3.1"/>
									<rect x="411" y="294.6" class="st8" width="4.9" height="3.1"/>
									<rect x="416.9" y="294.6" class="st8" width="4.9" height="3.1"/>
									<rect x="422.7" y="294.6" class="st8" width="4.9" height="3.1"/>
									<rect x="428.5" y="294.6" class="st8" width="4.9" height="3.1"/>
									<rect x="434.3" y="294.6" class="st8" width="4.9" height="3.1"/>
									<rect x="440.1" y="294.6" class="st8" width="4.9" height="3.1"/>
								</g>
								<g>
									<rect x="395.4" y="298.4" class="st8" width="4.9" height="3.1"/>
									<rect x="401.2" y="298.4" class="st8" width="4.9" height="3.1"/>
									<rect x="407.1" y="298.4" class="st8" width="4.9" height="3.1"/>
									<rect x="412.9" y="298.4" class="st8" width="4.9" height="3.1"/>
									<rect x="418.7" y="298.4" class="st8" width="4.9" height="3.1"/>
									<rect x="424.5" y="298.4" class="st8" width="4.9" height="3.1"/>
									<rect x="430.3" y="298.4" class="st8" width="4.9" height="3.1"/>
									<rect x="436.1" y="298.4" class="st8" width="4.9" height="3.1"/>
									<rect x="441.9" y="298.4" class="st8" width="4.9" height="3.1"/>
									<rect x="387.8" y="302" class="st8" width="4.9" height="3.1"/>
									<rect x="393.6" y="302" class="st8" width="4.9" height="3.1"/>
									<rect x="399.4" y="302" class="st8" width="4.9" height="3.1"/>
									<rect x="405.2" y="302" class="st8" width="4.9" height="3.1"/>
									<rect x="411.1" y="302" class="st8" width="4.9" height="3.1"/>
									<rect x="416.9" y="302" class="st8" width="4.9" height="3.1"/>
									<rect x="422.7" y="302" class="st8" width="4.9" height="3.1"/>
									<rect x="428.5" y="302" class="st8" width="4.9" height="3.1"/>
									<rect x="434.3" y="302" class="st8" width="4.9" height="3.1"/>
									<rect x="440.1" y="302" class="st8" width="4.9" height="3.1"/>
								</g>
								<g>
									<rect x="395.5" y="305.8" class="st8" width="4.9" height="3.1"/>
									<rect x="401.3" y="305.8" class="st8" width="4.9" height="3.1"/>
									<rect x="407.1" y="305.8" class="st8" width="4.9" height="3.1"/>
									<rect x="412.9" y="305.8" class="st8" width="4.9" height="3.1"/>
									<rect x="418.7" y="305.8" class="st8" width="4.9" height="3.1"/>
									<rect x="424.5" y="305.8" class="st8" width="4.9" height="3.1"/>
									<rect x="430.3" y="305.8" class="st8" width="4.9" height="3.1"/>
									<rect x="436.2" y="305.8" class="st8" width="4.9" height="3.1"/>
									<rect x="442" y="305.8" class="st8" width="4.9" height="3.1"/>
									<rect x="387.8" y="309.4" class="st8" width="4.9" height="3.1"/>
									<rect x="393.7" y="309.4" class="st8" width="4.9" height="3.1"/>
									<rect x="399.5" y="309.4" class="st8" width="4.9" height="3.1"/>
									<rect x="405.3" y="309.4" class="st8" width="4.9" height="3.1"/>
									<rect x="411.1" y="309.4" class="st8" width="4.9" height="3.1"/>
									<rect x="416.9" y="309.4" class="st8" width="4.9" height="3.1"/>
									<rect x="422.7" y="309.4" class="st8" width="4.9" height="3.1"/>
									<rect x="428.5" y="309.4" class="st8" width="4.9" height="3.1"/>
									<rect x="434.3" y="309.4" class="st8" width="4.9" height="3.1"/>
									<rect x="440.2" y="309.4" class="st8" width="4.9" height="3.1"/>
								</g>
								<g>
									<rect x="395.9" y="313.2" class="st8" width="4.9" height="3.1"/>
									<rect x="401.7" y="313.2" class="st8" width="4.9" height="3.1"/>
									<rect x="407.5" y="313.2" class="st8" width="4.9" height="3.1"/>
									<rect x="413.4" y="313.2" class="st8" width="4.9" height="3.1"/>
									<rect x="419.2" y="313.2" class="st8" width="4.9" height="3.1"/>
									<rect x="425" y="313.2" class="st8" width="4.9" height="3.1"/>
									<rect x="430.8" y="313.2" class="st8" width="4.9" height="3.1"/>
									<rect x="436.6" y="313.2" class="st8" width="4.9" height="3.1"/>
									<rect x="442.4" y="313.2" class="st8" width="4.9" height="3.1"/>
									<rect x="388.3" y="316.8" class="st8" width="4.9" height="3.1"/>
									<rect x="394.1" y="316.8" class="st8" width="4.9" height="3.1"/>
									<rect x="399.9" y="316.8" class="st8" width="4.9" height="3.1"/>
									<rect x="405.7" y="316.8" class="st8" width="4.9" height="3.1"/>
									<rect x="411.5" y="316.8" class="st8" width="4.9" height="3.1"/>
									<rect x="417.4" y="316.8" class="st8" width="4.9" height="3.1"/>
									<rect x="423.2" y="316.8" class="st8" width="4.9" height="3.1"/>
									<rect x="429" y="316.8" class="st8" width="4.9" height="3.1"/>
									<rect x="434.8" y="316.8" class="st8" width="4.9" height="3.1"/>
									<rect x="440.6" y="316.8" class="st8" width="4.9" height="3.1"/>
								</g>
								<g>
									<rect x="396" y="320.6" class="st8" width="4.9" height="3.1"/>
									<rect x="401.8" y="320.6" class="st8" width="4.9" height="3.1"/>
									<rect x="407.6" y="320.6" class="st8" width="4.9" height="3.1"/>
									<rect x="413.4" y="320.6" class="st8" width="4.9" height="3.1"/>
									<rect x="419.2" y="320.6" class="st8" width="4.9" height="3.1"/>
									<rect x="425" y="320.6" class="st8" width="4.9" height="3.1"/>
									<rect x="430.8" y="320.6" class="st8" width="4.9" height="3.1"/>
									<rect x="436.6" y="320.6" class="st8" width="4.9" height="3.1"/>
									<rect x="442.5" y="320.6" class="st8" width="4.9" height="3.1"/>
									<rect x="388.3" y="324.2" class="st8" width="4.9" height="3.1"/>
									<rect x="394.1" y="324.2" class="st8" width="4.9" height="3.1"/>
									<rect x="400" y="324.2" class="st8" width="4.9" height="3.1"/>
									<rect x="405.8" y="324.2" class="st8" width="4.9" height="3.1"/>
									<rect x="411.6" y="324.2" class="st8" width="4.9" height="3.1"/>
									<rect x="417.4" y="324.2" class="st8" width="4.9" height="3.1"/>
									<rect x="423.2" y="324.2" class="st8" width="4.9" height="3.1"/>
									<rect x="429" y="324.2" class="st8" width="4.9" height="3.1"/>
									<rect x="434.8" y="324.2" class="st8" width="4.9" height="3.1"/>
									<rect x="440.6" y="324.2" class="st8" width="4.9" height="3.1"/>
								</g>
							</g>
						</g>
						<path class="st9" d="M442.8,327.2H395v-71.2c0-0.8,0.7-1.5,1.5-1.5h45c0.8,0,1.5,0.7,1.5,1.5V327.2z"/>
						<rect x="418.9" y="255" class="st10" width="23.4" height="71.6"/>
						<path class="st11" d="M408.9,271.2h-6.4c-0.5,0-1-0.4-1-1v-6.7c0-0.5,0.4-1,1-1h6.4c0.5,0,1,0.4,1,1v6.7
							C409.9,270.7,409.4,271.2,408.9,271.2z"/>
						<path class="st11" d="M408.9,282.8h-6.4c-0.5,0-1-0.4-1-1v-6.7c0-0.5,0.4-1,1-1h6.4c0.5,0,1,0.4,1,1v6.7
							C409.9,282.4,409.4,282.8,408.9,282.8z"/>
						<path class="st11" d="M408.9,294.4h-6.4c-0.5,0-1-0.4-1-1v-6.7c0-0.5,0.4-1,1-1h6.4c0.5,0,1,0.4,1,1v6.7
							C409.9,294,409.4,294.4,408.9,294.4z"/>
						<path class="st11" d="M422.1,271.2h-6.4c-0.5,0-1-0.4-1-1v-6.7c0-0.5,0.4-1,1-1h6.4c0.5,0,1,0.4,1,1v6.7
							C423,270.7,422.6,271.2,422.1,271.2z"/>
						<path class="st11" d="M421.9,282.8h-6.4c-0.5,0-1-0.4-1-1v-6.7c0-0.5,0.4-1,1-1h6.4c0.5,0,1,0.4,1,1v6.7
							C422.9,282.4,422.5,282.8,421.9,282.8z"/>
						<path class="st11" d="M421.9,294.4h-6.4c-0.5,0-1-0.4-1-1v-6.7c0-0.5,0.4-1,1-1h6.4c0.5,0,1,0.4,1,1v6.7
							C422.9,294,422.5,294.4,421.9,294.4z"/>
						<path class="st11" d="M434.7,271.2h-6.4c-0.5,0-1-0.4-1-1v-6.7c0-0.5,0.4-1,1-1h6.4c0.5,0,1,0.4,1,1v6.7
							C435.7,270.7,435.2,271.2,434.7,271.2z"/>
						<path class="st11" d="M435,282.8h-6.4c-0.5,0-1-0.4-1-1v-6.7c0-0.5,0.4-1,1-1h6.4c0.5,0,1,0.4,1,1v6.7
							C435.9,282.4,435.5,282.8,435,282.8z"/>
						<path class="st11" d="M435,294.4h-6.4c-0.5,0-1-0.4-1-1v-6.7c0-0.5,0.4-1,1-1h6.4c0.5,0,1,0.4,1,1v6.7
							C435.9,294,435.5,294.4,435,294.4z"/>
						<path class="st11" d="M418.7,327.2h-8.9v-13.4c0-0.6,0.5-1,1-1h7.8V327.2z"/>
						<path class="st11" d="M427.6,327.2h-8.9v-14.4h7.8c0.6,0,1,0.5,1,1V327.2z"/>
						<path class="st12" d="M435.9,254h-34.4v-8.4c0-0.7,0.6-1.3,1.3-1.3h31.8c0.7,0,1.3,0.6,1.3,1.3V254z"/>
						<path class="st12" d="M395,301.5h-8.8c-0.6,0-1-0.5-1-1v-36.9c0-0.6,0.5-1,1-1h8.8V301.5z"/>
						<g id="DaLa_Farm_1_">
							<rect x="390.4" y="262.5" class="st13" width="4.5" height="39"/>
							<path class="st9" d="M386.2,301.5h8.8v-39h-8.8c-0.6,0-1,0.5-1,1v36.9C385.1,301,385.6,301.5,386.2,301.5z"/>
						</g>
						<g id="tokiwaveranda_3_">
							<path class="st14" d="M409.6,297h-7.7c-0.2,0-0.3-0.1-0.3-0.3v-1.9c0-0.2,0.1-0.3,0.3-0.3h7.7c0.2,0,0.3,0.1,0.3,0.3v1.9
								C409.9,296.9,409.7,297,409.6,297z"/>
							<path class="st14" d="M422.6,297h-7.7c-0.2,0-0.3-0.1-0.3-0.3v-1.9c0-0.2,0.1-0.3,0.3-0.3h7.7c0.2,0,0.3,0.1,0.3,0.3v1.9
								C422.9,296.9,422.8,297,422.6,297z"/>
							<path class="st14" d="M435.6,297h-7.7c-0.2,0-0.3-0.1-0.3-0.3v-1.9c0-0.2,0.1-0.3,0.3-0.3h7.7c0.2,0,0.3,0.1,0.3,0.3v1.9
								C435.9,296.9,435.8,297,435.6,297z"/>
							<path class="st14" d="M409.7,285.4H402c-0.2,0-0.3-0.1-0.3-0.3v-1.9c0-0.2,0.1-0.3,0.3-0.3h7.7c0.2,0,0.3,0.1,0.3,0.3v1.9
								C410,285.3,409.9,285.4,409.7,285.4z"/>
							<path class="st14" d="M422.7,285.4h-7.7c-0.2,0-0.3-0.1-0.3-0.3v-1.9c0-0.2,0.1-0.3,0.3-0.3h7.7c0.2,0,0.3,0.1,0.3,0.3v1.9
								C423.1,285.3,422.9,285.4,422.7,285.4z"/>
							<path class="st14" d="M435.8,285.4h-7.7c-0.2,0-0.3-0.1-0.3-0.3v-1.9c0-0.2,0.1-0.3,0.3-0.3h7.7c0.2,0,0.3,0.1,0.3,0.3v1.9
								C436.1,285.3,436,285.4,435.8,285.4z"/>
							<path class="st14" d="M409.7,273.8H402c-0.2,0-0.3-0.1-0.3-0.3v-1.9c0-0.2,0.1-0.3,0.3-0.3h7.7c0.2,0,0.3,0.1,0.3,0.3v1.9
								C410,273.6,409.9,273.8,409.7,273.8z"/>
							<path class="st14" d="M422.7,273.8H415c-0.2,0-0.3-0.1-0.3-0.3v-1.9c0-0.2,0.1-0.3,0.3-0.3h7.7c0.2,0,0.3,0.1,0.3,0.3v1.9
								C423,273.6,422.9,273.8,422.7,273.8z"/>
							<path class="st14" d="M435.7,273.8h-7.7c-0.2,0-0.3-0.1-0.3-0.3v-1.9c0-0.2,0.1-0.3,0.3-0.3h7.7c0.2,0,0.3,0.1,0.3,0.3v1.9
								C436.1,273.6,435.9,273.8,435.7,273.8z"/>
							<path class="st15" d="M409.7,271.9H402c-0.2,0-0.3-0.2-0.3-0.3v0c0-0.2,0.2-0.4,0.3-0.4h7.6c0.2,0,0.4,0.2,0.4,0.4v0
								C410,271.7,409.9,271.9,409.7,271.9z"/>
							<path class="st15" d="M422.7,271.9h-7.6c-0.2,0-0.4-0.2-0.4-0.3v0c0-0.2,0.2-0.4,0.4-0.4h7.6c0.2,0,0.4,0.2,0.4,0.4v0
								C423.1,271.7,422.9,271.9,422.7,271.9z"/>
							<path class="st15" d="M435.7,271.9h-7.6c-0.2,0-0.3-0.2-0.3-0.3v0c0-0.2,0.2-0.4,0.3-0.4h7.6c0.2,0,0.3,0.2,0.3,0.4v0
								C436.1,271.7,435.9,271.9,435.7,271.9z"/>
							<path class="st15" d="M409.7,283.5H402c-0.2,0-0.3-0.2-0.3-0.4v0c0-0.2,0.2-0.4,0.3-0.4h7.6c0.2,0,0.4,0.2,0.4,0.4v0
								C410,283.4,409.9,283.5,409.7,283.5z"/>
							<path class="st15" d="M422.7,283.5h-7.6c-0.2,0-0.4-0.2-0.4-0.4v0c0-0.2,0.2-0.4,0.4-0.4h7.6c0.2,0,0.4,0.2,0.4,0.4v0
								C423.1,283.4,422.9,283.5,422.7,283.5z"/>
							<path class="st15" d="M435.7,283.5h-7.6c-0.2,0-0.3-0.2-0.3-0.4v0c0-0.2,0.2-0.4,0.3-0.4h7.6c0.2,0,0.3,0.2,0.3,0.4v0
								C436.1,283.4,435.9,283.5,435.7,283.5z"/>
							<path class="st15" d="M409.5,295.1h-7.6c-0.2,0-0.4-0.2-0.4-0.4v0c0-0.2,0.2-0.3,0.4-0.3h7.6c0.2,0,0.4,0.2,0.4,0.3v0
								C409.8,295,409.7,295.1,409.5,295.1z"/>
							<path class="st15" d="M422.5,295.1h-7.6c-0.2,0-0.4-0.2-0.4-0.4v0c0-0.2,0.2-0.3,0.4-0.3h7.6c0.2,0,0.4,0.2,0.4,0.3v0
								C422.9,295,422.7,295.1,422.5,295.1z"/>
							<path class="st15" d="M435.5,295.1h-7.6c-0.2,0-0.3-0.2-0.3-0.4v0c0-0.2,0.2-0.3,0.3-0.3h7.6c0.2,0,0.4,0.2,0.4,0.3v0
								C435.9,295,435.7,295.1,435.5,295.1z"/>
						</g>
						<text transform="matrix(1 0 0 1 403.4995 251.7189)" class="st11 st16 st17">トキワビル</text>
						<text transform="matrix(0 -1 1 0 391.9999 296.8823)" class="st11 st16 st18">DaLa Farm</text>
					</g>
					<g id="bldg3_3_">
						<path class="st19" d="M486.1,327.2h-23.6v-34.5c0-1,0.8-1.8,1.8-1.8h21.8V327.2z"/>
						<g>
							<defs>
								<path id="SVGID_3_" d="M486.1,327.2h-23.6v-34.5c0-1,0.8-1.8,1.8-1.8h21.8V327.2z"/>
							</defs>
							<clipPath id="SVGID_4_">
								<use xlink:href="#SVGID_3_"  style="overflow:visible;"/>
							</clipPath>
							<g class="st20">
								<rect x="474.2" y="291.2" class="st13" width="11.3" height="35.7"/>
								<path class="st11" d="M480.9,297.6h-13.4c-0.3,0-0.5-0.2-0.5-0.5v-2.8c0-0.3,0.2-0.5,0.5-0.5h13.4c0.3,0,0.5,0.2,0.5,0.5
									v2.8C481.4,297.3,481.2,297.6,480.9,297.6z"/>
								<path class="st11" d="M480.9,304.5h-13.4c-0.3,0-0.5-0.2-0.5-0.5v-2.8c0-0.3,0.2-0.5,0.5-0.5h13.4c0.3,0,0.5,0.2,0.5,0.5
									v2.8C481.4,304.3,481.2,304.5,480.9,304.5z"/>
								<path class="st11" d="M480.9,311.4h-13.4c-0.3,0-0.5-0.2-0.5-0.5v-2.8c0-0.3,0.2-0.5,0.5-0.5h13.4c0.3,0,0.5,0.2,0.5,0.5
									v2.8C481.4,311.2,481.2,311.4,480.9,311.4z"/>
							</g>
						</g>
						<path class="st9" d="M486.1,327.2h-23.6v-34.5c0-1,0.8-1.8,1.8-1.8h21.8V327.2z"/>
					</g>
					<g id="bldg3_2_">
						<path class="st19" d="M375.1,327.2h-23.6v-36.4h21.8c1,0,1.8,0.8,1.8,1.8V327.2z"/>
						<g>
							<defs>
								<path id="SVGID_5_" d="M375.1,327.2h-23.6v-36.4h21.8c1,0,1.8,0.8,1.8,1.8V327.2z"/>
							</defs>
							<clipPath id="SVGID_6_">
								<use xlink:href="#SVGID_5_"  style="overflow:visible;"/>
							</clipPath>
							<g class="st21">
								<path class="st13" d="M363.2,326.8h11.3V293c0-1-0.8-1.8-1.8-1.8h-9.5V326.8z"/>
								<path class="st11" d="M369.9,297.6h-13.4c-0.3,0-0.5-0.2-0.5-0.5v-2.8c0-0.3,0.2-0.5,0.5-0.5h13.4c0.3,0,0.5,0.2,0.5,0.5
									v2.8C370.4,297.3,370.2,297.6,369.9,297.6z"/>
								<path class="st11" d="M369.9,304.5h-13.4c-0.3,0-0.5-0.2-0.5-0.5v-2.8c0-0.3,0.2-0.5,0.5-0.5h13.4c0.3,0,0.5,0.2,0.5,0.5
									v2.8C370.4,304.3,370.2,304.5,369.9,304.5z"/>
								<path class="st11" d="M369.9,311.4h-13.4c-0.3,0-0.5-0.2-0.5-0.5v-2.8c0-0.3,0.2-0.5,0.5-0.5h13.4c0.3,0,0.5,0.2,0.5,0.5
									v2.8C370.4,311.2,370.2,311.4,369.9,311.4z"/>
							</g>
						</g>
						<path class="st9" d="M375.1,327.2h-23.6v-36.4h21.8c1,0,1.8,0.8,1.8,1.8V327.2z"/>
					</g>
					<g id="BLDGside_3_">
						<path class="st19" d="M351.1,327.2h-33.9v-51.3h32.1c1,0,1.8,0.8,1.8,1.8V327.2z"/>
						<g>
							<defs>
								<path id="SVGID_7_" d="M351.1,327.2h-33.9v-51.3h32.1c1,0,1.8,0.8,1.8,1.8V327.2z"/>
							</defs>
							<clipPath id="SVGID_8_">
								<use xlink:href="#SVGID_7_"  style="overflow:visible;"/>
							</clipPath>
							<g class="st22">
								<path class="st13" d="M327,326.6h25.5v-49.9c0-1.1-0.9-1.9-1.9-1.9H327V326.6z"/>
								<path class="st11" d="M330.7,291h-7.4c-0.3,0-0.5-0.2-0.5-0.5v-8.5c0-0.3,0.2-0.5,0.5-0.5h7.4c0.3,0,0.5,0.2,0.5,0.5v8.5
									C331.2,290.8,330.9,291,330.7,291z"/>
								<path class="st11" d="M330.7,303.7h-7.4c-0.3,0-0.5-0.2-0.5-0.5v-8.5c0-0.3,0.2-0.5,0.5-0.5h7.4c0.3,0,0.5,0.2,0.5,0.5v8.5
									C331.2,303.5,330.9,303.7,330.7,303.7z"/>
								<path class="st11" d="M330.7,316.4h-7.4c-0.3,0-0.5-0.2-0.5-0.5v-8.5c0-0.3,0.2-0.5,0.5-0.5h7.4c0.3,0,0.5,0.2,0.5,0.5v8.5
									C331.2,316.2,330.9,316.4,330.7,316.4z"/>
								<path class="st11" d="M343.5,291h-7.4c-0.3,0-0.5-0.2-0.5-0.5v-8.5c0-0.3,0.2-0.5,0.5-0.5h7.4c0.3,0,0.5,0.2,0.5,0.5v8.5
									C343.9,290.8,343.7,291,343.5,291z"/>
								<path class="st11" d="M343.7,303.7h-7.4c-0.3,0-0.5-0.2-0.5-0.5v-8.5c0-0.3,0.2-0.5,0.5-0.5h7.4c0.3,0,0.5,0.2,0.5,0.5v8.5
									C344.2,303.5,344,303.7,343.7,303.7z"/>
								<path class="st11" d="M343.7,316.4h-7.4c-0.3,0-0.5-0.2-0.5-0.5v-8.5c0-0.3,0.2-0.5,0.5-0.5h7.4c0.3,0,0.5,0.2,0.5,0.5v8.5
									C344.2,316.2,344,316.4,343.7,316.4z"/>
								<path class="st11" d="M330.7,327.2h-7.4c-0.3,0-0.5-0.2-0.5-0.5v-6.5c0-0.3,0.2-0.5,0.5-0.5h7.4c0.3,0,0.5,0.2,0.5,0.5v6.5
									C331.2,327,330.9,327.2,330.7,327.2z"/>
							</g>
						</g>
						<path class="st9" d="M351.1,327.2h-33.9v-51.3h32.1c1,0,1.8,0.8,1.8,1.8V327.2z"/>
					</g>
					<g id="BLDGside_2_">
						<path class="st19" d="M486.2,327.2h33.9v-51.3H488c-1,0-1.8,0.8-1.8,1.8V327.2z"/>
						<g>
							<defs>
								<path id="SVGID_9_" d="M486.2,327.2h33.9v-51.3H488c-1,0-1.8,0.8-1.8,1.8V327.2z"/>
							</defs>
							<clipPath id="SVGID_10_">
								<use xlink:href="#SVGID_9_"  style="overflow:visible;"/>
							</clipPath>
							<g class="st23">
								<rect x="510.3" y="273.3" class="st13" width="9.3" height="53.7"/>
								<path class="st11" d="M506.6,291h7.4c0.3,0,0.5-0.2,0.5-0.5v-8.5c0-0.3-0.2-0.5-0.5-0.5h-7.4c-0.3,0-0.5,0.2-0.5,0.5v8.5
									C506.2,290.8,506.4,291,506.6,291z"/>
								<path class="st11" d="M506.6,303.7h7.4c0.3,0,0.5-0.2,0.5-0.5v-8.5c0-0.3-0.2-0.5-0.5-0.5h-7.4c-0.3,0-0.5,0.2-0.5,0.5v8.5
									C506.2,303.5,506.4,303.7,506.6,303.7z"/>
								<path class="st11" d="M506.6,316.4h7.4c0.3,0,0.5-0.2,0.5-0.5v-8.5c0-0.3-0.2-0.5-0.5-0.5h-7.4c-0.3,0-0.5,0.2-0.5,0.5v8.5
									C506.2,316.2,506.4,316.4,506.6,316.4z"/>
								<path class="st11" d="M493.9,291h7.4c0.3,0,0.5-0.2,0.5-0.5v-8.5c0-0.3-0.2-0.5-0.5-0.5h-7.4c-0.3,0-0.5,0.2-0.5,0.5v8.5
									C493.4,290.8,493.6,291,493.9,291z"/>
								<path class="st11" d="M493.6,303.7h7.4c0.3,0,0.5-0.2,0.5-0.5v-8.5c0-0.3-0.2-0.5-0.5-0.5h-7.4c-0.3,0-0.5,0.2-0.5,0.5v8.5
									C493.1,303.5,493.3,303.7,493.6,303.7z"/>
								<path class="st11" d="M493.6,316.4h7.4c0.3,0,0.5-0.2,0.5-0.5v-8.5c0-0.3-0.2-0.5-0.5-0.5h-7.4c-0.3,0-0.5,0.2-0.5,0.5v8.5
									C493.1,316.2,493.3,316.4,493.6,316.4z"/>
								<path class="st11" d="M506.6,327.2h7.4c0.3,0,0.5-0.2,0.5-0.5v-6.5c0-0.3-0.2-0.5-0.5-0.5h-7.4c-0.3,0-0.5,0.2-0.5,0.5v6.5
									C506.2,327,506.4,327.2,506.6,327.2z"/>
							</g>
						</g>
						<path class="st9" d="M486.2,327.2h33.9v-51.3H488c-1,0-1.8,0.8-1.8,1.8V327.2z"/>
					</g>
					<g id="tree_4_">
						<circle class="st24" cx="382.5" cy="315.5" r="4.9"/>
						<g>
							<defs>
								<circle id="SVGID_11_" cx="382.5" cy="315.5" r="4.9"/>
							</defs>
							<clipPath id="SVGID_12_">
								<use xlink:href="#SVGID_11_"  style="overflow:visible;"/>
							</clipPath>
							<rect x="382.5" y="307" class="st25" width="6.8" height="15.2"/>
						</g>
						<circle class="st9" cx="382.6" cy="315.6" r="5.1"/>
						<path class="st26" d="M382.2,327v-8c0,0-0.7-2.2-1.4-2.8"/>
						<line class="st26" x1="382.2" y1="319" x2="384.1" y2="316.9"/>
					</g>
					<g id="tree_3_">
						<circle class="st24" cx="454.5" cy="315.5" r="4.9"/>
						<g>
							<defs>
								<circle id="SVGID_13_" cx="454.5" cy="315.5" r="4.9"/>
							</defs>
							<clipPath id="SVGID_14_">
								<use xlink:href="#SVGID_13_"  style="overflow:visible;"/>
							</clipPath>
							<rect x="454.5" y="307" class="st27" width="6.8" height="15.2"/>
						</g>
						<circle class="st9" cx="454.6" cy="315.6" r="5.1"/>
						<path class="st26" d="M454.2,327v-8c0,0-0.7-2.2-1.4-2.8"/>
						<line class="st26" x1="454.2" y1="319" x2="456.1" y2="316.9"/>
					</g>
					<g id="clouds_14_">
						<path class="st12" d="M468.7,224.6c-2.7,0-4.9,3-3.8,5.8c0.6,1.6,2.3,2.5,4,2.5h27c2.1,0,4.1-1.5,4.3-3.7
							c0.2-2.4-1.7-4.7-4-4.7l-5.2,0c2.7,0,4.3-1.9,4-4.3c-0.2-2.1-2.1-3.6-4.3-3.6h-26.9c-2.1,0-4,1.5-4.3,3.6
							c-0.2,2.4,1.7,4.5,4,4.3H468.7"/>
					</g>
					<g id="clouds_13_">
						<path class="st12" d="M342.9,214.1c-2.7,0-4.9,3-3.8,5.8c0.6,1.6,2.3,2.5,4,2.5h27c2.1,0,4.1-1.5,4.3-3.7
							c0.2-2.4-1.7-4.7-4-4.7l-5.2,0c2.7,0,4.3-1.9,4-4.3c-0.2-2.1-2.1-3.6-4.3-3.6h-26.9c-2.1,0-4,1.5-4.3,3.6
							c-0.2,2.4,1.7,4.5,4,4.3H342.9"/>
					</g>
				</g>
				<g class="st3">
					<g>
						<rect x="340.7" y="15.6" class="st4" width="163.3" height="111.6"/>
						<rect x="340.7" y="132.9" class="st4" width="163.3" height="9.5"/>
						<rect x="340.7" y="146.3" class="st4" width="163.3" height="5"/>
						<rect x="340.7" y="15.6" class="st28" width="163.3" height="45.3"/>
						<rect x="340.7" y="64.8" class="st28" width="163.3" height="14.7"/>
						<rect x="340.7" y="83" class="st28" width="163.3" height="5.8"/>
					</g>
				</g>
				<g id="clouds" class="st3">
					<g id="clouds_18_">
						<path class="st12" d="M367,68.4c-1.4,0-2.4,1.5-1.9,2.9c0.3,0.8,1.1,1.3,2,1.3h13.5c1.1,0,2-0.8,2.1-1.8
							c0.1-1.2-0.8-2.3-2-2.3l-2.6,0c1.4,0,2.1-0.9,2-2.1c-0.1-1.1-1.1-1.8-2.1-1.8h-13.5c-1.1,0-2,0.8-2.1,1.8
							c-0.1,1.2,0.8,2.2,2,2.1H367"/>
					</g>
					<g id="clouds_17_">
						<path class="st12" d="M456.6,82.5c-1.4,0-2.4,1.5-1.9,2.9c0.3,0.8,1.1,1.3,2,1.3h13.5c1.1,0,2-0.8,2.1-1.8
							c0.1-1.2-0.8-2.3-2-2.3l-2.6,0c1.4,0,2.1-0.9,2-2.1c-0.1-1.1-1.1-1.8-2.1-1.8h-13.5c-1.1,0-2,0.8-2.1,1.8
							c-0.1,1.2,0.8,2.2,2,2.1H456.6"/>
					</g>
				</g>
				<g id="_x32_0" class="st3">
					<g>
						<g>
							<text transform="matrix(1 0 0 1 419.03 227.6477)" class="st11 st16 st29">年</text>
						</g>
						<g>
							<text transform="matrix(1 0 0 1 392.1938 227.2732)" class="st11 st16 st29">5</text>
						</g>
					</g>
				</g>
				<g class="st3">
					<g>
						<text transform="matrix(1 0 0 1 383.8425 36.4732)" class="st11 st16 st30">平均勤続年数</text>
					</g>
				</g>
			</g>
			<path id="_x33__6_" class="st31" d="M471.7,353.5H360.1c-7.2,0-13.1-5.9-13.1-13.1V28.8c0-7.2,5.9-13.1,13.1-13.1h111.5
				c7.2,0,13.1,5.9,13.1,13.1v311.6C484.8,347.6,478.9,353.5,471.7,353.5z"/>
		</g>
		<g id="Box_2_3_">
			<path id="_x31__6_" class="st32" d="M304.5,353.5H193c-7.2,0-13.1-5.9-13.1-13.1V28.8c0-7.2,5.9-13.1,13.1-13.1h111.5
				c7.2,0,13.1,5.9,13.1,13.1v311.6C317.6,347.6,311.8,353.5,304.5,353.5z"/>
			<g>
				<text transform="matrix(1 0 0 1 197.7493 36.4732)" class="st11 st16 st30">年間プロジェクト数</text>
			</g>
			<g id="ipad_7_">
				<path class="st33" d="M240.6,252.5l-46.2,0c-1.6,0-2.8,1.3-2.8,2.8l0,63.4c0,1.6,1.3,2.8,2.8,2.8l46.2,0c1.6,0,2.8-1.3,2.8-2.8
					l0-63.4C243.4,253.8,242.1,252.5,240.6,252.5z"/>
				<rect x="193.9" y="258.6" class="st34" width="47.1" height="55.9"/>
				<circle class="st35" cx="216.5" cy="317.5" r="1.4"/>
			</g>
			<g>
				<text transform="matrix(1 0 0 1 209.9131 330.9732)" class="st11 st16 st17">iPad</text>
			</g>
			<g id="mac_12_">
				<path class="st36" d="M285.3,97.8h-69.6c-0.7,0-1.4-0.6-1.4-1.4V48.4c0-0.7,0.6-1.4,1.4-1.4h69.6c0.7,0,1.4,0.6,1.4,1.4v48.1
					C286.6,97.2,286,97.8,285.3,97.8z"/>
				<path class="st37" d="M283.6,89.2h-66.1c-1.1,0-1.9-0.9-1.9-1.9V50.2c0-1.1,0.9-1.9,1.9-1.9h66.1c1.1,0,1.9,0.9,1.9,1.9v37.2
					C285.5,88.4,284.6,89.2,283.6,89.2z"/>
				<rect x="218.1" y="51.5" class="st38" width="64.2" height="33.2"/>
				<polygon class="st39" points="259.5,97.9 243.1,97.9 238,113.5 264.6,113.5 				"/>
				<polygon class="st36" points="286.6,133.1 214.3,133.1 218.4,120 282.5,120 				"/>
				<g id="keyboard_4_">
					<path class="st11" d="M250.6,131.2h-25.8c-0.4,0-0.8-0.3-0.8-0.8l0,0c0-0.4,0.3-0.8,0.8-0.8h25.8c0.4,0,0.8,0.3,0.8,0.8l0,0
						C251.3,130.9,251,131.2,250.6,131.2z"/>
					<path class="st11" d="M222.6,131.2L222.6,131.2c0.4,0,0.8-0.3,0.8-0.8l0,0c0-0.4-0.3-0.8-0.8-0.8l0,0c-0.4,0-0.8,0.3-0.8,0.8
						l0,0C221.8,130.9,222.1,131.2,222.6,131.2z"/>
					<path class="st11" d="M220.5,131.2L220.5,131.2c0.4,0,0.8-0.3,0.8-0.8l0,0c0-0.4-0.3-0.8-0.8-0.8l0,0c-0.4,0-0.8,0.3-0.8,0.8
						l0,0C219.7,130.9,220.1,131.2,220.5,131.2z"/>
					<path class="st11" d="M218.5,131.2L218.5,131.2c0.4,0,0.8-0.3,0.8-0.8l0,0c0-0.4-0.3-0.8-0.8-0.8l0,0c-0.4,0-0.8,0.3-0.8,0.8
						l0,0C217.7,130.9,218,131.2,218.5,131.2z"/>
					<path class="st11" d="M257.3,131.3L257.3,131.3c0.4,0,0.8-0.3,0.8-0.8l0,0c0-0.4-0.3-0.8-0.8-0.8l0,0c-0.4,0-0.8,0.3-0.8,0.8
						l0,0C256.6,130.9,256.9,131.3,257.3,131.3z"/>
					<path class="st11" d="M255.3,131.3L255.3,131.3c0.4,0,0.8-0.3,0.8-0.8l0,0c0-0.4-0.3-0.8-0.8-0.8l0,0c-0.4,0-0.8,0.3-0.8,0.8
						l0,0C254.5,130.9,254.8,131.3,255.3,131.3z"/>
					<path class="st11" d="M253.2,131.3L253.2,131.3c0.4,0,0.8-0.3,0.8-0.8l0,0c0-0.4-0.3-0.8-0.8-0.8l0,0c-0.4,0-0.8,0.3-0.8,0.8
						l0,0C252.4,130.9,252.8,131.3,253.2,131.3z"/>
					<path class="st11" d="M257.4,128.9L257.4,128.9c0.4,0,0.8-0.3,0.8-0.8l0,0c0-0.4-0.3-0.8-0.8-0.8l0,0c-0.4,0-0.8,0.3-0.8,0.8
						l0,0C256.6,128.6,257,128.9,257.4,128.9z"/>
					<path class="st11" d="M255.3,128.9L255.3,128.9c0.4,0,0.8-0.3,0.8-0.8l0,0c0-0.4-0.3-0.8-0.8-0.8l0,0c-0.4,0-0.8,0.3-0.8,0.8
						l0,0C254.6,128.6,254.9,128.9,255.3,128.9z"/>
					<path class="st11" d="M253.3,128.9L253.3,128.9c0.4,0,0.8-0.3,0.8-0.8l0,0c0-0.4-0.3-0.8-0.8-0.8l0,0c-0.4,0-0.8,0.3-0.8,0.8
						l0,0C252.5,128.6,252.8,128.9,253.3,128.9z"/>
					<path class="st11" d="M251,128.9L251,128.9c0.4,0,0.8-0.3,0.8-0.8l0,0c0-0.4-0.3-0.8-0.8-0.8l0,0c-0.4,0-0.8,0.3-0.8,0.8l0,0
						C250.2,128.6,250.6,128.9,251,128.9z"/>
					<path class="st11" d="M248.9,128.9L248.9,128.9c0.4,0,0.8-0.3,0.8-0.8l0,0c0-0.4-0.3-0.8-0.8-0.8l0,0c-0.4,0-0.8,0.3-0.8,0.8
						l0,0C248.2,128.6,248.5,128.9,248.9,128.9z"/>
					<path class="st11" d="M246.9,128.9L246.9,128.9c0.4,0,0.8-0.3,0.8-0.8l0,0c0-0.4-0.3-0.8-0.8-0.8l0,0c-0.4,0-0.8,0.3-0.8,0.8
						l0,0C246.1,128.6,246.5,128.9,246.9,128.9z"/>
					<path class="st11" d="M244.5,128.9L244.5,128.9c0.4,0,0.8-0.3,0.8-0.8l0,0c0-0.4-0.3-0.8-0.8-0.8l0,0c-0.4,0-0.8,0.3-0.8,0.8
						l0,0C243.8,128.6,244.1,128.9,244.5,128.9z"/>
					<path class="st11" d="M242.5,128.9L242.5,128.9c0.4,0,0.8-0.3,0.8-0.8l0,0c0-0.4-0.3-0.8-0.8-0.8l0,0c-0.4,0-0.8,0.3-0.8,0.8
						l0,0C241.7,128.6,242.1,128.9,242.5,128.9z"/>
					<path class="st11" d="M240.4,128.9L240.4,128.9c0.4,0,0.8-0.3,0.8-0.8l0,0c0-0.4-0.3-0.8-0.8-0.8l0,0c-0.4,0-0.8,0.3-0.8,0.8
						l0,0C239.7,128.6,240,128.9,240.4,128.9z"/>
					<path class="st11" d="M238.2,128.9L238.2,128.9c0.4,0,0.8-0.3,0.8-0.8l0,0c0-0.4-0.3-0.8-0.8-0.8l0,0c-0.4,0-0.8,0.3-0.8,0.8
						l0,0C237.4,128.6,237.7,128.9,238.2,128.9z"/>
					<path class="st11" d="M236.1,128.9L236.1,128.9c0.4,0,0.8-0.3,0.8-0.8l0,0c0-0.4-0.3-0.8-0.8-0.8l0,0c-0.4,0-0.8,0.3-0.8,0.8
						l0,0C235.3,128.6,235.7,128.9,236.1,128.9z"/>
					<path class="st11" d="M234.1,128.9L234.1,128.9c0.4,0,0.8-0.3,0.8-0.8l0,0c0-0.4-0.3-0.8-0.8-0.8l0,0c-0.4,0-0.8,0.3-0.8,0.8
						l0,0C233.3,128.6,233.6,128.9,234.1,128.9z"/>
					<path class="st11" d="M231.7,128.9L231.7,128.9c0.4,0,0.8-0.3,0.8-0.8l0,0c0-0.4-0.3-0.8-0.8-0.8l0,0c-0.4,0-0.8,0.3-0.8,0.8
						l0,0C230.9,128.6,231.3,128.9,231.7,128.9z"/>
					<path class="st11" d="M229.7,128.9L229.7,128.9c0.4,0,0.8-0.3,0.8-0.8l0,0c0-0.4-0.3-0.8-0.8-0.8l0,0c-0.4,0-0.8,0.3-0.8,0.8
						l0,0C228.9,128.6,229.2,128.9,229.7,128.9z"/>
					<path class="st11" d="M227.6,128.9L227.6,128.9c0.4,0,0.8-0.3,0.8-0.8l0,0c0-0.4-0.3-0.8-0.8-0.8l0,0c-0.4,0-0.8,0.3-0.8,0.8
						l0,0C226.8,128.6,227.2,128.9,227.6,128.9z"/>
					<path class="st11" d="M225.3,128.9L225.3,128.9c0.4,0,0.8-0.3,0.8-0.8l0,0c0-0.4-0.3-0.8-0.8-0.8l0,0c-0.4,0-0.8,0.3-0.8,0.8
						l0,0C224.6,128.6,224.9,128.9,225.3,128.9z"/>
					<path class="st11" d="M223.3,128.9L223.3,128.9c0.4,0,0.8-0.3,0.8-0.8l0,0c0-0.4-0.3-0.8-0.8-0.8l0,0c-0.4,0-0.8,0.3-0.8,0.8
						l0,0C222.5,128.6,222.9,128.9,223.3,128.9z"/>
					<path class="st11" d="M221.2,128.9L221.2,128.9c0.4,0,0.8-0.3,0.8-0.8l0,0c0-0.4-0.3-0.8-0.8-0.8l0,0c-0.4,0-0.8,0.3-0.8,0.8
						l0,0C220.5,128.6,220.8,128.9,221.2,128.9z"/>
					<path class="st11" d="M218.9,128.9L218.9,128.9c0.4,0,0.8-0.3,0.8-0.8l0,0c0-0.4-0.3-0.8-0.8-0.8l0,0c-0.4,0-0.8,0.3-0.8,0.8
						l0,0C218.1,128.6,218.5,128.9,218.9,128.9z"/>
					<path class="st11" d="M258.1,126.5L258.1,126.5c0.4,0,0.8-0.3,0.8-0.8l0,0c0-0.4-0.3-0.8-0.8-0.8l0,0c-0.4,0-0.8,0.3-0.8,0.8
						l0,0C257.4,126.2,257.7,126.5,258.1,126.5z"/>
					<path class="st11" d="M256.1,126.5L256.1,126.5c0.4,0,0.8-0.3,0.8-0.8l0,0c0-0.4-0.3-0.8-0.8-0.8l0,0c-0.4,0-0.8,0.3-0.8,0.8
						l0,0C255.3,126.2,255.7,126.5,256.1,126.5z"/>
					<path class="st11" d="M254,126.5L254,126.5c0.4,0,0.8-0.3,0.8-0.8l0,0c0-0.4-0.3-0.8-0.8-0.8l0,0c-0.4,0-0.8,0.3-0.8,0.8l0,0
						C253.3,126.2,253.6,126.5,254,126.5z"/>
					<path class="st11" d="M251.8,126.5L251.8,126.5c0.4,0,0.8-0.3,0.8-0.8l0,0c0-0.4-0.3-0.8-0.8-0.8l0,0c-0.4,0-0.8,0.3-0.8,0.8
						l0,0C251,126.2,251.3,126.5,251.8,126.5z"/>
					<path class="st11" d="M249.7,126.5L249.7,126.5c0.4,0,0.8-0.3,0.8-0.8l0,0c0-0.4-0.3-0.8-0.8-0.8l0,0c-0.4,0-0.8,0.3-0.8,0.8
						l0,0C248.9,126.2,249.3,126.5,249.7,126.5z"/>
					<path class="st11" d="M247.7,126.5L247.7,126.5c0.4,0,0.8-0.3,0.8-0.8l0,0c0-0.4-0.3-0.8-0.8-0.8l0,0c-0.4,0-0.8,0.3-0.8,0.8
						l0,0C246.9,126.2,247.2,126.5,247.7,126.5z"/>
					<path class="st11" d="M245.3,126.5L245.3,126.5c0.4,0,0.8-0.3,0.8-0.8l0,0c0-0.4-0.3-0.8-0.8-0.8l0,0c-0.4,0-0.8,0.3-0.8,0.8
						l0,0C244.5,126.2,244.9,126.5,245.3,126.5z"/>
					<path class="st11" d="M243.3,126.5L243.3,126.5c0.4,0,0.8-0.3,0.8-0.8l0,0c0-0.4-0.3-0.8-0.8-0.8l0,0c-0.4,0-0.8,0.3-0.8,0.8
						l0,0C242.5,126.2,242.8,126.5,243.3,126.5z"/>
					<path class="st11" d="M241.2,126.5L241.2,126.5c0.4,0,0.8-0.3,0.8-0.8l0,0c0-0.4-0.3-0.8-0.8-0.8l0,0c-0.4,0-0.8,0.3-0.8,0.8
						l0,0C240.4,126.2,240.8,126.5,241.2,126.5z"/>
					<path class="st11" d="M238.9,126.5L238.9,126.5c0.4,0,0.8-0.3,0.8-0.8l0,0c0-0.4-0.3-0.8-0.8-0.8l0,0c-0.4,0-0.8,0.3-0.8,0.8
						l0,0C238.2,126.2,238.5,126.5,238.9,126.5z"/>
					<path class="st11" d="M236.9,126.5L236.9,126.5c0.4,0,0.8-0.3,0.8-0.8l0,0c0-0.4-0.3-0.8-0.8-0.8l0,0c-0.4,0-0.8,0.3-0.8,0.8
						l0,0C236.1,126.2,236.5,126.5,236.9,126.5z"/>
					<path class="st11" d="M234.8,126.5L234.8,126.5c0.4,0,0.8-0.3,0.8-0.8l0,0c0-0.4-0.3-0.8-0.8-0.8l0,0c-0.4,0-0.8,0.3-0.8,0.8
						l0,0C234.1,126.2,234.4,126.5,234.8,126.5z"/>
					<path class="st11" d="M232.5,126.5L232.5,126.5c0.4,0,0.8-0.3,0.8-0.8l0,0c0-0.4-0.3-0.8-0.8-0.8l0,0c-0.4,0-0.8,0.3-0.8,0.8
						l0,0C231.7,126.2,232.1,126.5,232.5,126.5z"/>
					<path class="st11" d="M230.4,126.5L230.4,126.5c0.4,0,0.8-0.3,0.8-0.8l0,0c0-0.4-0.3-0.8-0.8-0.8l0,0c-0.4,0-0.8,0.3-0.8,0.8
						l0,0C229.7,126.2,230,126.5,230.4,126.5z"/>
					<path class="st11" d="M228.4,126.5L228.4,126.5c0.4,0,0.8-0.3,0.8-0.8l0,0c0-0.4-0.3-0.8-0.8-0.8l0,0c-0.4,0-0.8,0.3-0.8,0.8
						l0,0C227.6,126.2,228,126.5,228.4,126.5z"/>
					<path class="st11" d="M226.1,126.5L226.1,126.5c0.4,0,0.8-0.3,0.8-0.8l0,0c0-0.4-0.3-0.8-0.8-0.8l0,0c-0.4,0-0.8,0.3-0.8,0.8
						l0,0C225.3,126.2,225.7,126.5,226.1,126.5z"/>
					<path class="st11" d="M224.1,126.5L224.1,126.5c0.4,0,0.8-0.3,0.8-0.8l0,0c0-0.4-0.3-0.8-0.8-0.8l0,0c-0.4,0-0.8,0.3-0.8,0.8
						l0,0C223.3,126.2,223.6,126.5,224.1,126.5z"/>
					<path class="st11" d="M222,126.5L222,126.5c0.4,0,0.8-0.3,0.8-0.8l0,0c0-0.4-0.3-0.8-0.8-0.8l0,0c-0.4,0-0.8,0.3-0.8,0.8l0,0
						C221.2,126.2,221.6,126.5,222,126.5z"/>
					<path class="st11" d="M219.7,126.5L219.7,126.5c0.4,0,0.8-0.3,0.8-0.8l0,0c0-0.4-0.3-0.8-0.8-0.8l0,0c-0.4,0-0.8,0.3-0.8,0.8
						l0,0C218.9,126.2,219.2,126.5,219.7,126.5z"/>
					<path class="st11" d="M258.7,124.1L258.7,124.1c0.4,0,0.8-0.3,0.8-0.8l0,0c0-0.4-0.3-0.8-0.8-0.8l0,0c-0.4,0-0.8,0.3-0.8,0.8
						l0,0C258,123.7,258.3,124.1,258.7,124.1z"/>
					<path class="st11" d="M256.7,124.1L256.7,124.1c0.4,0,0.8-0.3,0.8-0.8l0,0c0-0.4-0.3-0.8-0.8-0.8l0,0c-0.4,0-0.8,0.3-0.8,0.8
						l0,0C255.9,123.7,256.3,124.1,256.7,124.1z"/>
					<path class="st11" d="M254.6,124.1L254.6,124.1c0.4,0,0.8-0.3,0.8-0.8l0,0c0-0.4-0.3-0.8-0.8-0.8l0,0c-0.4,0-0.8,0.3-0.8,0.8
						l0,0C253.9,123.7,254.2,124.1,254.6,124.1z"/>
					<path class="st11" d="M266.8,124.1L266.8,124.1c0.4,0,0.8-0.3,0.8-0.8l0,0c0-0.4-0.3-0.8-0.8-0.8l0,0c-0.4,0-0.8,0.3-0.8,0.8
						l0,0C266,123.7,266.4,124.1,266.8,124.1z"/>
					<path class="st11" d="M264.8,124.1L264.8,124.1c0.4,0,0.8-0.3,0.8-0.8l0,0c0-0.4-0.3-0.8-0.8-0.8l0,0c-0.4,0-0.8,0.3-0.8,0.8
						l0,0C264,123.7,264.3,124.1,264.8,124.1z"/>
					<path class="st11" d="M262.7,124.1L262.7,124.1c0.4,0,0.8-0.3,0.8-0.8l0,0c0-0.4-0.3-0.8-0.8-0.8l0,0c-0.4,0-0.8,0.3-0.8,0.8
						l0,0C261.9,123.7,262.3,124.1,262.7,124.1z"/>
					<path class="st11" d="M252.4,124.1L252.4,124.1c0.4,0,0.8-0.3,0.8-0.8l0,0c0-0.4-0.3-0.8-0.8-0.8l0,0c-0.4,0-0.8,0.3-0.8,0.8
						l0,0C251.6,123.7,251.9,124.1,252.4,124.1z"/>
					<path class="st11" d="M276,128.9L276,128.9c-0.4,0-0.8-0.3-0.8-0.8l0,0c0-0.4,0.3-0.8,0.8-0.8l0,0c0.4,0,0.8,0.3,0.8,0.8l0,0
						C276.8,128.6,276.4,128.9,276,128.9z"/>
					<path class="st11" d="M278.1,128.9L278.1,128.9c-0.4,0-0.8-0.3-0.8-0.8l0,0c0-0.4,0.3-0.8,0.8-0.8l0,0c0.4,0,0.8,0.3,0.8,0.8
						l0,0C278.8,128.6,278.5,128.9,278.1,128.9z"/>
					<path class="st11" d="M280.1,128.9L280.1,128.9c-0.4,0-0.8-0.3-0.8-0.8l0,0c0-0.4,0.3-0.8,0.8-0.8l0,0c0.4,0,0.8,0.3,0.8,0.8
						l0,0C280.9,128.6,280.5,128.9,280.1,128.9z"/>
					<path class="st11" d="M282.4,128.9L282.4,128.9c-0.4,0-0.8-0.3-0.8-0.8l0,0c0-0.4,0.3-0.8,0.8-0.8l0,0c0.4,0,0.8,0.3,0.8,0.8
						l0,0C283.1,128.6,282.8,128.9,282.4,128.9z"/>
					<path class="st11" d="M276.9,131.2L276.9,131.2c-0.4,0-0.8-0.3-0.8-0.8l0,0c0-0.4,0.3-0.8,0.8-0.8l0,0c0.4,0,0.8,0.3,0.8,0.8
						l0,0C277.7,130.9,277.3,131.2,276.9,131.2z"/>
					<path class="st11" d="M279,131.2L279,131.2c-0.4,0-0.8-0.3-0.8-0.8l0,0c0-0.4,0.3-0.8,0.8-0.8l0,0c0.4,0,0.8,0.3,0.8,0.8l0,0
						C279.7,130.9,279.4,131.2,279,131.2z"/>
					<path class="st11" d="M281,131.2L281,131.2c-0.4,0-0.8-0.3-0.8-0.8l0,0c0-0.4,0.3-0.8,0.8-0.8l0,0c0.4,0,0.8,0.3,0.8,0.8l0,0
						C281.8,130.9,281.5,131.2,281,131.2z"/>
					<path class="st11" d="M283.3,131.2L283.3,131.2c-0.4,0-0.8-0.3-0.8-0.8l0,0c0-0.4,0.3-0.8,0.8-0.8l0,0c0.4,0,0.8,0.3,0.8,0.8
						l0,0C284.1,130.9,283.7,131.2,283.3,131.2z"/>
					<path class="st11" d="M275.2,126.5L275.2,126.5c-0.4,0-0.8-0.3-0.8-0.8l0,0c0-0.4,0.3-0.8,0.8-0.8l0,0c0.4,0,0.8,0.3,0.8,0.8
						l0,0C276,126.2,275.7,126.5,275.2,126.5z"/>
					<path class="st11" d="M277.3,126.5L277.3,126.5c-0.4,0-0.8-0.3-0.8-0.8l0,0c0-0.4,0.3-0.8,0.8-0.8l0,0c0.4,0,0.8,0.3,0.8,0.8
						l0,0C278.1,126.2,277.7,126.5,277.3,126.5z"/>
					<path class="st11" d="M279.3,126.5L279.3,126.5c-0.4,0-0.8-0.3-0.8-0.8l0,0c0-0.4,0.3-0.8,0.8-0.8l0,0c0.4,0,0.8,0.3,0.8,0.8
						l0,0C280.1,126.2,279.8,126.5,279.3,126.5z"/>
					<path class="st11" d="M281.6,126.5L281.6,126.5c-0.4,0-0.8-0.3-0.8-0.8l0,0c0-0.4,0.3-0.8,0.8-0.8l0,0c0.4,0,0.8,0.3,0.8,0.8
						l0,0C282.4,126.2,282,126.5,281.6,126.5z"/>
					<path class="st11" d="M274.6,124.1L274.6,124.1c-0.4,0-0.8-0.3-0.8-0.8l0,0c0-0.4,0.3-0.8,0.8-0.8l0,0c0.4,0,0.8,0.3,0.8,0.8
						l0,0C275.4,123.7,275.1,124.1,274.6,124.1z"/>
					<path class="st11" d="M273.9,129L273.9,129c-0.4,0-0.8-0.3-0.8-0.8l0,0c0-0.4,0.3-0.8,0.8-0.8l0,0c0.4,0,0.8,0.3,0.8,0.8l0,0
						C274.7,128.7,274.3,129,273.9,129z"/>
					<path class="st11" d="M274.8,131.3L274.8,131.3c-0.4,0-0.8-0.3-0.8-0.8l0,0c0-0.4,0.3-0.8,0.8-0.8l0,0c0.4,0,0.8,0.3,0.8,0.8
						l0,0C275.6,131,275.3,131.3,274.8,131.3z"/>
					<path class="st11" d="M273.1,126.6L273.1,126.6c-0.4,0-0.8-0.3-0.8-0.8l0,0c0-0.4,0.3-0.8,0.8-0.8l0,0c0.4,0,0.8,0.3,0.8,0.8
						l0,0C273.9,126.3,273.6,126.6,273.1,126.6z"/>
					<path class="st11" d="M265.3,128.9L265.3,128.9c-0.4,0-0.8-0.3-0.8-0.8l0,0c0-0.4,0.3-0.8,0.8-0.8l0,0c0.4,0,0.8,0.3,0.8,0.8
						l0,0C266.1,128.6,265.8,128.9,265.3,128.9z"/>
					<path class="st11" d="M267.4,128.9L267.4,128.9c-0.4,0-0.8-0.3-0.8-0.8l0,0c0-0.4,0.3-0.8,0.8-0.8l0,0c0.4,0,0.8,0.3,0.8,0.8
						l0,0C268.2,128.6,267.8,128.9,267.4,128.9z"/>
					<path class="st11" d="M265.6,131.2L265.6,131.2c-0.4,0-0.8-0.3-0.8-0.8l0,0c0-0.4,0.3-0.8,0.8-0.8l0,0c0.4,0,0.8,0.3,0.8,0.8
						l0,0C266.3,130.8,266,131.2,265.6,131.2z"/>
					<path class="st11" d="M265,126.5L265,126.5c-0.4,0-0.8-0.3-0.8-0.8l0,0c0-0.4,0.3-0.8,0.8-0.8l0,0c0.4,0,0.8,0.3,0.8,0.8l0,0
						C265.8,126.2,265.4,126.5,265,126.5z"/>
					<path class="st11" d="M263.3,129L263.3,129c-0.4,0-0.8-0.3-0.8-0.8l0,0c0-0.4,0.3-0.8,0.8-0.8l0,0c0.4,0,0.8,0.3,0.8,0.8l0,0
						C264,128.7,263.7,129,263.3,129z"/>
					<path class="st11" d="M272.6,124.2L272.6,124.2c-0.4,0-0.8-0.3-0.8-0.8l0,0c0-0.4,0.3-0.8,0.8-0.8l0,0c0.4,0,0.8,0.3,0.8,0.8
						l0,0C273.3,123.8,273,124.2,272.6,124.2z"/>
					<path class="st11" d="M276.7,124.1L276.7,124.1c-0.4,0-0.8-0.3-0.8-0.8l0,0c0-0.4,0.3-0.8,0.8-0.8l0,0c0.4,0,0.8,0.3,0.8,0.8
						l0,0C277.5,123.7,277.1,124.1,276.7,124.1z"/>
					<path class="st11" d="M278.7,124.1L278.7,124.1c-0.4,0-0.8-0.3-0.8-0.8l0,0c0-0.4,0.3-0.8,0.8-0.8l0,0c0.4,0,0.8,0.3,0.8,0.8
						l0,0C279.5,123.7,279.2,124.1,278.7,124.1z"/>
					<path class="st11" d="M281,124.1L281,124.1c-0.4,0-0.8-0.3-0.8-0.8l0,0c0-0.4,0.3-0.8,0.8-0.8l0,0c0.4,0,0.8,0.3,0.8,0.8l0,0
						C281.8,123.7,281.4,124.1,281,124.1z"/>
					<path class="st11" d="M250.3,124.1L250.3,124.1c0.4,0,0.8-0.3,0.8-0.8l0,0c0-0.4-0.3-0.8-0.8-0.8l0,0c-0.4,0-0.8,0.3-0.8,0.8
						l0,0C249.5,123.7,249.9,124.1,250.3,124.1z"/>
					<path class="st11" d="M248.3,124.1L248.3,124.1c0.4,0,0.8-0.3,0.8-0.8l0,0c0-0.4-0.3-0.8-0.8-0.8l0,0c-0.4,0-0.8,0.3-0.8,0.8
						l0,0C247.5,123.7,247.8,124.1,248.3,124.1z"/>
					<path class="st11" d="M245.9,124.1L245.9,124.1c0.4,0,0.8-0.3,0.8-0.8l0,0c0-0.4-0.3-0.8-0.8-0.8l0,0c-0.4,0-0.8,0.3-0.8,0.8
						l0,0C245.1,123.7,245.5,124.1,245.9,124.1z"/>
					<path class="st11" d="M243.9,124.1L243.9,124.1c0.4,0,0.8-0.3,0.8-0.8l0,0c0-0.4-0.3-0.8-0.8-0.8l0,0c-0.4,0-0.8,0.3-0.8,0.8
						l0,0C243.1,123.7,243.4,124.1,243.9,124.1z"/>
					<path class="st11" d="M241.8,124.1L241.8,124.1c0.4,0,0.8-0.3,0.8-0.8l0,0c0-0.4-0.3-0.8-0.8-0.8l0,0c-0.4,0-0.8,0.3-0.8,0.8
						l0,0C241,123.7,241.4,124.1,241.8,124.1z"/>
					<path class="st11" d="M239.5,124.1L239.5,124.1c0.4,0,0.8-0.3,0.8-0.8l0,0c0-0.4-0.3-0.8-0.8-0.8l0,0c-0.4,0-0.8,0.3-0.8,0.8
						l0,0C238.8,123.7,239.1,124.1,239.5,124.1z"/>
					<path class="st11" d="M237.5,124.1L237.5,124.1c0.4,0,0.8-0.3,0.8-0.8l0,0c0-0.4-0.3-0.8-0.8-0.8l0,0c-0.4,0-0.8,0.3-0.8,0.8
						l0,0C236.7,123.7,237.1,124.1,237.5,124.1z"/>
					<path class="st11" d="M235.4,124.1L235.4,124.1c0.4,0,0.8-0.3,0.8-0.8l0,0c0-0.4-0.3-0.8-0.8-0.8l0,0c-0.4,0-0.8,0.3-0.8,0.8
						l0,0C234.7,123.7,235,124.1,235.4,124.1z"/>
					<path class="st11" d="M233.1,124.1L233.1,124.1c0.4,0,0.8-0.3,0.8-0.8l0,0c0-0.4-0.3-0.8-0.8-0.8l0,0c-0.4,0-0.8,0.3-0.8,0.8
						l0,0C232.3,123.7,232.7,124.1,233.1,124.1z"/>
					<path class="st11" d="M231,124.1L231,124.1c0.4,0,0.8-0.3,0.8-0.8l0,0c0-0.4-0.3-0.8-0.8-0.8l0,0c-0.4,0-0.8,0.3-0.8,0.8l0,0
						C230.3,123.7,230.6,124.1,231,124.1z"/>
					<path class="st11" d="M229,124.1L229,124.1c0.4,0,0.8-0.3,0.8-0.8l0,0c0-0.4-0.3-0.8-0.8-0.8l0,0c-0.4,0-0.8,0.3-0.8,0.8l0,0
						C228.2,123.7,228.6,124.1,229,124.1z"/>
					<path class="st11" d="M226.7,124.1L226.7,124.1c0.4,0,0.8-0.3,0.8-0.8l0,0c0-0.4-0.3-0.8-0.8-0.8l0,0c-0.4,0-0.8,0.3-0.8,0.8
						l0,0C225.9,123.7,226.3,124.1,226.7,124.1z"/>
					<path class="st11" d="M224.7,124.1L224.7,124.1c0.4,0,0.8-0.3,0.8-0.8l0,0c0-0.4-0.3-0.8-0.8-0.8l0,0c-0.4,0-0.8,0.3-0.8,0.8
						l0,0C223.9,123.7,224.2,124.1,224.7,124.1z"/>
					<path class="st11" d="M222.6,124.1L222.6,124.1c0.4,0,0.8-0.3,0.8-0.8l0,0c0-0.4-0.3-0.8-0.8-0.8l0,0c-0.4,0-0.8,0.3-0.8,0.8
						l0,0C221.8,123.7,222.2,124.1,222.6,124.1z"/>
					<path class="st11" d="M220.3,124.1L220.3,124.1c0.4,0,0.8-0.3,0.8-0.8l0,0c0-0.4-0.3-0.8-0.8-0.8l0,0c-0.4,0-0.8,0.3-0.8,0.8
						l0,0C219.5,123.7,219.8,124.1,220.3,124.1z"/>
				</g>
			</g>
			<g id="books_10_">
				<g>
					
						<rect x="218.6" y="151.5" transform="matrix(0.9917 0.1288 -0.1288 0.9917 23.4887 -28.0023)" class="st40" width="19.4" height="32.3"/>
					<g>
						<path class="st11" d="M234.7,162.3l-11.2-1.5c-0.4-0.1-0.7-0.4-0.6-0.8l0,0c0.1-0.4,0.4-0.7,0.8-0.6l11.2,1.5
							c0.4,0.1,0.7,0.4,0.6,0.8l0,0C235.4,162.1,235.1,162.4,234.7,162.3z"/>
						<path class="st11" d="M234,167l-11.2-1.5c-0.4-0.1-0.7-0.4-0.6-0.8l0,0c0.1-0.4,0.4-0.7,0.8-0.6l11.2,1.5
							c0.4,0.1,0.7,0.4,0.6,0.8l0,0C234.8,166.7,234.4,167,234,167z"/>
						<path class="st11" d="M233.4,171.5l-11.2-1.5c-0.4-0.1-0.7-0.4-0.6-0.8l0,0c0.1-0.4,0.4-0.7,0.8-0.6l11.2,1.5
							c0.4,0.1,0.7,0.4,0.6,0.8l0,0C234.2,171.3,233.8,171.6,233.4,171.5z"/>
					</g>
				</g>
			</g>
			<g id="books_9_">
				<g>
					<rect x="201.4" y="149.5" class="st40" width="19.4" height="32.3"/>
					<g>
						<path class="st11" d="M216.8,159.6h-11.3c-0.4,0-0.7-0.3-0.7-0.7l0,0c0-0.4,0.3-0.7,0.7-0.7h11.3c0.4,0,0.7,0.3,0.7,0.7l0,0
							C217.5,159.2,217.2,159.6,216.8,159.6z"/>
						<path class="st11" d="M216.7,164.2h-11.3c-0.4,0-0.7-0.3-0.7-0.7l0,0c0-0.4,0.3-0.7,0.7-0.7h11.3c0.4,0,0.7,0.3,0.7,0.7l0,0
							C217.4,163.9,217.1,164.2,216.7,164.2z"/>
						<path class="st11" d="M216.7,168.8h-11.3c-0.4,0-0.7-0.3-0.7-0.7l0,0c0-0.4,0.3-0.7,0.7-0.7h11.3c0.4,0,0.7,0.3,0.7,0.7l0,0
							C217.4,168.5,217.1,168.8,216.7,168.8z"/>
					</g>
				</g>
			</g>
			<g id="iphone_12_">
				<path class="st41" d="M295.1,142.9l-24.7,0.1c-0.9,0-1.7,0.8-1.7,1.7l0.2,42c0,0.9,0.8,1.7,1.7,1.7l24.7-0.1
					c0.9,0,1.7-0.8,1.7-1.7l-0.2-42C296.8,143.6,296.1,142.9,295.1,142.9z"/>
				
					<rect x="270.1" y="147" transform="matrix(1 -5.167707e-03 5.167707e-03 1 -0.8506 1.4642)" class="st42" width="25.5" height="36.7"/>
				
					<ellipse transform="matrix(1 -5.136536e-03 5.136536e-03 1 -0.9489 1.4562)" class="st43" cx="283" cy="185.5" rx="0.7" ry="0.8"/>
			</g>
			<g>
				<text transform="matrix(1 0 0 1 274.0181 196.9732)" class="st11 st16 st17">スマホ</text>
			</g>
			<g>
				<text transform="matrix(1 0 0 1 206.4312 196.4732)" class="st11 st16 st17">パンフ</text>
			</g>
			<g id="_x35_0件_1_">
				<g>
					<text transform="matrix(1 0 0 1 212.3054 227.4605)" class="st11 st16 st29">50</text>
				</g>
				<g>
					<text transform="matrix(1 0 0 1 259.2654 227.4605)" class="st11 st16 st29">件</text>
				</g>
			</g>
			<g>
				<text transform="matrix(1 0 0 1 271.666 330.9732)" class="st11 st16 st17">サーバー</text>
			</g>
			<g id="サーバー">
				<path class="st44" d="M306,321.8h-44v-67c0-1.5,1.2-2.7,2.7-2.7h38.6c1.5,0,2.7,1.2,2.7,2.7V321.8z"/>
				<g>
					<path class="st11" d="M299,316.1h-29.9c-0.6,0-1-0.4-1-1V312c0-0.6,0.4-1,1-1H299c0.6,0,1,0.4,1,1v3.2
						C300,315.7,299.6,316.1,299,316.1z"/>
					<path class="st11" d="M299,307.8h-29.9c-0.6,0-1-0.4-1-1v-3.2c0-0.6,0.4-1,1-1H299c0.6,0,1,0.4,1,1v3.2
						C300,307.4,299.6,307.8,299,307.8z"/>
					<path class="st11" d="M299,299.5h-29.9c-0.6,0-1-0.4-1-1v-3.2c0-0.6,0.4-1,1-1H299c0.6,0,1,0.4,1,1v3.2
						C300,299,299.6,299.5,299,299.5z"/>
					<circle class="st11" cx="297.2" cy="288.8" r="2.3"/>
				</g>
			</g>
		</g>
		<g id="Box_1_2_">
			<path id="_x32__8_" class="st32" d="M136.5,353.5H25c-7.2,0-13.1-5.9-13.1-13.1V28.8c0-7.2,5.9-13.1,13.1-13.1h111.5
				c7.2,0,13.1,5.9,13.1,13.1v311.6C149.7,347.6,143.8,353.5,136.5,353.5z"/>
			<g>
				<defs>
					<path id="_x32__4_" d="M136.5,353.5H25c-7.2,0-13.1-5.9-13.1-13.1V28.8c0-7.2,5.9-13.1,13.1-13.1h111.5
						c7.2,0,13.1,5.9,13.1,13.1v311.6C149.7,347.6,143.8,353.5,136.5,353.5z"/>
				</defs>
				<clipPath id="_x32__1_">
					<use xlink:href="#_x32__4_"  style="overflow:visible;"/>
				</clipPath>
				<g class="st45">
					<g>
						<rect x="11.9" y="15.6" class="st4" width="136.2" height="111.6"/>
						<rect x="11.9" y="132.9" class="st4" width="136.2" height="9.5"/>
						<rect x="11.9" y="146.3" class="st4" width="136.2" height="5"/>
						
							<rect x="11.9" y="259.7" transform="matrix(-1 -1.224647e-16 1.224647e-16 -1 159.9593 631.0297)" class="st4" width="136.2" height="111.6"/>
						
							<rect x="11.9" y="244.6" transform="matrix(-1 -1.224647e-16 1.224647e-16 -1 159.9593 498.7318)" class="st4" width="136.2" height="9.5"/>
						
							<rect x="11.9" y="235.6" transform="matrix(-1 -1.224647e-16 1.224647e-16 -1 159.9593 476.2798)" class="st4" width="136.2" height="5"/>
						<rect x="11.9" y="15.6" class="st28" width="136.2" height="45.3"/>
						<rect x="11.9" y="64.8" class="st28" width="136.2" height="14.7"/>
						<rect x="11.9" y="83" class="st28" width="136.2" height="5.8"/>
					</g>
					<path class="st46" d="M83.5,261.8l63.6,58.4H14.5l63.6-58.4C79.6,260.3,82,260.3,83.5,261.8z"/>
					<rect x="10.9" y="320.5" class="st47" width="138.7" height="20.6"/>
					<g>
						<defs>
							<path id="SVGID_15_" d="M83.5,261.8l63.6,58.4H14.5l63.6-58.4C79.6,260.3,82,260.3,83.5,261.8z"/>
						</defs>
						<clipPath id="SVGID_16_">
							<use xlink:href="#SVGID_15_"  style="overflow:visible;"/>
						</clipPath>
						<path class="st48" d="M53,281l-1,8.6c-0.1,1,0.8,1.8,1.8,1.6l11.5-2.7c0.5-0.1,1.1,0.1,1.5,0.5l5.2,6.6c0.5,0.6,1.3,0.7,2,0.3
							l8.7-6.1c0.5-0.3,1.2-0.3,1.7,0l8.5,6c0.7,0.5,1.7,0.3,2.1-0.5l3.3-6.3c0.4-0.7,1.2-1,2-0.6l9.9,5.2c0.9,0.5,2-0.1,2.1-1.1
							l1.2-9.5c0-0.4,0-0.7-0.3-1l-17.6-24.6c-0.3-0.4-0.8-0.6-1.3-0.6l-19.1,1.2c-0.3,0-0.5,0.1-0.7,0.3l-13,9
							c-0.2,0.1-0.3,0.3-0.4,0.4l-7.8,12.8C53.1,280.6,53,280.8,53,281z"/>
					</g>
					<path class="st26" d="M83.5,261.8l63.6,58.4H14.5l63.6-58.4C79.6,260.3,82,260.3,83.5,261.8z"/>
					<polygon class="st49" points="169.9,303.8 246.7,349.7 86.9,348.6 					"/>
					<g id="新幹線">
						<path class="st19" d="M65.4,345.2c7.2,0,44.2,0,44.2,0c2,0,10.7,0.9,14.6,0.3c2.4-0.3,1.3-1.6,1.1-2.7
							c-0.9-4.1-11.9-3.6-14.6-4.6c-1.4-0.5-3-2.8-4.5-3.3c-2.2-0.7-4.2-0.4-5.2-0.4H57.7l-44.6-0.2l0.3,10.8L65.4,345.2z"/>
						<g>
							<defs>
								<path id="SVGID_17_" d="M65.4,345.2c7.2,0,44.2,0,44.2,0c2.4,0,11.5,0.8,15.4-0.2c1.4-0.4,1-1.7,0.6-2.4
									c-2.2-3.4-12.2-3.4-14.9-4.3c-1.4-0.5-3-2.8-4.5-3.3c-2.2-0.7-4.2-0.4-5.2-0.4H57.7l-44.5-0.1v10.7L65.4,345.2z"/>
							</defs>
							<clipPath id="SVGID_18_">
								<use xlink:href="#SVGID_17_"  style="overflow:visible;"/>
							</clipPath>
							<polygon class="st50" points="117,356.2 7,356.2 7,341.1 132.5,341.1 							"/>
							<path class="st51" d="M121.3,341H13.1c-0.2,0-0.4-0.2-0.4-0.4l0,0c0-0.2,0.2-0.4,0.4-0.4h108.2c0.2,0,0.4,0.2,0.4,0.4l0,0
								C121.7,340.8,121.5,341,121.3,341z"/>
						</g>
						<path class="st26" d="M65.4,345.2c7.2,0,44.2,0,44.2,0c3.3,0,15.9,0,15.9,0s0.7-2.7-2.4-4.6c-2.9-1.8-11.3-1.9-12.5-2.3
							c-1.4-0.5-2.9-2.6-4.4-3.1c-2.2-0.7-4.2-0.6-5.3-0.6H57.7l-44.5-0.1v10.7L65.4,345.2z"/>
						<path class="st11" d="M111.6,338.9H103c-0.4,0-0.8-0.3-0.8-0.8V337c0-0.4,0.3-0.8,0.8-0.8h5c0.6,0,1.2,0.5,1.2,1.1l0.7,0.4
							C110,338.4,112.2,338.9,111.6,338.9z"/>
						<g>
							<path class="st11" d="M95.6,338.9h1.1c0.3,0,0.5-0.2,0.5-0.5v-1.6c0-0.3-0.2-0.5-0.5-0.5h-1.1c-0.3,0-0.5,0.2-0.5,0.5v1.6
								C95.1,338.6,95.3,338.9,95.6,338.9z"/>
							<path class="st11" d="M92.9,338.9H94c0.3,0,0.5-0.2,0.5-0.5v-1.6c0-0.3-0.2-0.5-0.5-0.5h-1.1c-0.3,0-0.5,0.2-0.5,0.5v1.6
								C92.4,338.6,92.7,338.9,92.9,338.9z"/>
							<path class="st11" d="M90.3,338.9h1.1c0.3,0,0.5-0.2,0.5-0.5v-1.6c0-0.3-0.2-0.5-0.5-0.5h-1.1c-0.3,0-0.5,0.2-0.5,0.5v1.6
								C89.8,338.6,90,338.9,90.3,338.9z"/>
							<path class="st11" d="M87.6,338.9h1.1c0.3,0,0.5-0.2,0.5-0.5v-1.6c0-0.3-0.2-0.5-0.5-0.5h-1.1c-0.3,0-0.5,0.2-0.5,0.5v1.6
								C87.1,338.6,87.4,338.9,87.6,338.9z"/>
							<path class="st11" d="M85,338.9h1.1c0.3,0,0.5-0.2,0.5-0.5v-1.6c0-0.3-0.2-0.5-0.5-0.5H85c-0.3,0-0.5,0.2-0.5,0.5v1.6
								C84.5,338.6,84.7,338.9,85,338.9z"/>
							<path class="st11" d="M82.3,338.9h1.1c0.3,0,0.5-0.2,0.5-0.5v-1.6c0-0.3-0.2-0.5-0.5-0.5h-1.1c-0.3,0-0.5,0.2-0.5,0.5v1.6
								C81.8,338.6,82.1,338.9,82.3,338.9z"/>
							<path class="st11" d="M79.7,338.9h1.1c0.3,0,0.5-0.2,0.5-0.5v-1.6c0-0.3-0.2-0.5-0.5-0.5h-1.1c-0.3,0-0.5,0.2-0.5,0.5v1.6
								C79.2,338.6,79.4,338.9,79.7,338.9z"/>
							<path class="st11" d="M77.1,338.9h1.1c0.3,0,0.5-0.2,0.5-0.5v-1.6c0-0.3-0.2-0.5-0.5-0.5h-1.1c-0.3,0-0.5,0.2-0.5,0.5v1.6
								C76.6,338.6,76.8,338.9,77.1,338.9z"/>
							<path class="st11" d="M74.4,338.9h1.1c0.3,0,0.5-0.2,0.5-0.5v-1.6c0-0.3-0.2-0.5-0.5-0.5h-1.1c-0.3,0-0.5,0.2-0.5,0.5v1.6
								C73.9,338.6,74.1,338.9,74.4,338.9z"/>
							<path class="st11" d="M71.8,338.9h1.1c0.3,0,0.5-0.2,0.5-0.5v-1.6c0-0.3-0.2-0.5-0.5-0.5h-1.1c-0.3,0-0.5,0.2-0.5,0.5v1.6
								C71.3,338.6,71.5,338.9,71.8,338.9z"/>
							<path class="st11" d="M69.1,338.9h1.1c0.3,0,0.5-0.2,0.5-0.5v-1.6c0-0.3-0.2-0.5-0.5-0.5h-1.1c-0.3,0-0.5,0.2-0.5,0.5v1.6
								C68.6,338.6,68.8,338.9,69.1,338.9z"/>
							<path class="st11" d="M66.5,338.9h1.1c0.3,0,0.5-0.2,0.5-0.5v-1.6c0-0.3-0.2-0.5-0.5-0.5h-1.1c-0.3,0-0.5,0.2-0.5,0.5v1.6
								C66,338.6,66.2,338.9,66.5,338.9z"/>
							<path class="st11" d="M63.8,338.9h1.1c0.3,0,0.5-0.2,0.5-0.5v-1.6c0-0.3-0.2-0.5-0.5-0.5h-1.1c-0.3,0-0.5,0.2-0.5,0.5v1.6
								C63.3,338.6,63.5,338.9,63.8,338.9z"/>
						</g>
						<g>
							<path class="st11" d="M53.6,338.9h1.1c0.3,0,0.5-0.2,0.5-0.5v-1.6c0-0.3-0.2-0.5-0.5-0.5h-1.1c-0.3,0-0.5,0.2-0.5,0.5v1.6
								C53.1,338.6,53.3,338.9,53.6,338.9z"/>
							<path class="st11" d="M50.9,338.9H52c0.3,0,0.5-0.2,0.5-0.5v-1.6c0-0.3-0.2-0.5-0.5-0.5h-1.1c-0.3,0-0.5,0.2-0.5,0.5v1.6
								C50.4,338.6,50.7,338.9,50.9,338.9z"/>
							<path class="st11" d="M48.3,338.9h1.1c0.3,0,0.5-0.2,0.5-0.5v-1.6c0-0.3-0.2-0.5-0.5-0.5h-1.1c-0.3,0-0.5,0.2-0.5,0.5v1.6
								C47.8,338.6,48,338.9,48.3,338.9z"/>
							<path class="st11" d="M45.6,338.9h1.1c0.3,0,0.5-0.2,0.5-0.5v-1.6c0-0.3-0.2-0.5-0.5-0.5h-1.1c-0.3,0-0.5,0.2-0.5,0.5v1.6
								C45.1,338.6,45.4,338.9,45.6,338.9z"/>
							<path class="st11" d="M43,338.9h1.1c0.3,0,0.5-0.2,0.5-0.5v-1.6c0-0.3-0.2-0.5-0.5-0.5H43c-0.3,0-0.5,0.2-0.5,0.5v1.6
								C42.5,338.6,42.7,338.9,43,338.9z"/>
							<path class="st11" d="M40.3,338.9h1.1c0.3,0,0.5-0.2,0.5-0.5v-1.6c0-0.3-0.2-0.5-0.5-0.5h-1.1c-0.3,0-0.5,0.2-0.5,0.5v1.6
								C39.8,338.6,40.1,338.9,40.3,338.9z"/>
							<path class="st11" d="M37.7,338.9h1.1c0.3,0,0.5-0.2,0.5-0.5v-1.6c0-0.3-0.2-0.5-0.5-0.5h-1.1c-0.3,0-0.5,0.2-0.5,0.5v1.6
								C37.2,338.6,37.4,338.9,37.7,338.9z"/>
							<path class="st11" d="M35.1,338.9h1.1c0.3,0,0.5-0.2,0.5-0.5v-1.6c0-0.3-0.2-0.5-0.5-0.5h-1.1c-0.3,0-0.5,0.2-0.5,0.5v1.6
								C34.6,338.6,34.8,338.9,35.1,338.9z"/>
							<path class="st11" d="M32.4,338.9h1.1c0.3,0,0.5-0.2,0.5-0.5v-1.6c0-0.3-0.2-0.5-0.5-0.5h-1.1c-0.3,0-0.5,0.2-0.5,0.5v1.6
								C31.9,338.6,32.1,338.9,32.4,338.9z"/>
							<path class="st11" d="M29.8,338.9h1.1c0.3,0,0.5-0.2,0.5-0.5v-1.6c0-0.3-0.2-0.5-0.5-0.5h-1.1c-0.3,0-0.5,0.2-0.5,0.5v1.6
								C29.3,338.6,29.5,338.9,29.8,338.9z"/>
							<path class="st11" d="M27.1,338.9h1.1c0.3,0,0.5-0.2,0.5-0.5v-1.6c0-0.3-0.2-0.5-0.5-0.5h-1.1c-0.3,0-0.5,0.2-0.5,0.5v1.6
								C26.6,338.6,26.8,338.9,27.1,338.9z"/>
							<path class="st11" d="M24.5,338.9h1.1c0.3,0,0.5-0.2,0.5-0.5v-1.6c0-0.3-0.2-0.5-0.5-0.5h-1.1c-0.3,0-0.5,0.2-0.5,0.5v1.6
								C24,338.6,24.2,338.9,24.5,338.9z"/>
							<path class="st11" d="M21.8,338.9h1.1c0.3,0,0.5-0.2,0.5-0.5v-1.6c0-0.3-0.2-0.5-0.5-0.5h-1.1c-0.3,0-0.5,0.2-0.5,0.5v1.6
								C21.3,338.6,21.5,338.9,21.8,338.9z"/>
						</g>
					</g>
					<g id="_x31_20">
						<g>
							<g>
								<text transform="matrix(1 0 0 1 33.6941 229.4605)" class="st11 st16 st29">120</text>
							</g>
							<g>
								<text transform="matrix(1 0 0 1 103.8005 229.4603)" class="st11 st16 st29">日</text>
							</g>
						</g>
					</g>
					<g id="schedule">
						<g id="スケジュール_3_">
							<rect x="59.4" y="162.1" class="st52" width="44.7" height="37.3"/>
							<g id="colors">
								<rect x="60.5" y="162.5" class="st6" width="42.8" height="7.9"/>
								<g>
									<defs>
										<rect id="SVGID_19_" x="60.5" y="162.5" width="42.8" height="7.9"/>
									</defs>
									<clipPath id="SVGID_20_">
										<use xlink:href="#SVGID_19_"  style="overflow:visible;"/>
									</clipPath>
									<rect x="82.7" y="155.8" class="st53" width="25" height="14.6"/>
								</g>
							</g>
							<line class="st54" x1="59.7" y1="170.5" x2="104.7" y2="170.5"/>
							<path class="st11" d="M70.9,166.5L70.9,166.5c1,0,1.8-0.8,1.8-1.8v-6.3c0-1-0.8-1.8-1.8-1.8l0,0c-1,0-1.8,0.8-1.8,1.8v6.3
								C69,165.7,69.9,166.5,70.9,166.5z"/>
							<path class="st11" d="M93.5,166.5L93.5,166.5c1,0,1.8-0.8,1.8-1.8v-6.3c0-1-0.8-1.8-1.8-1.8l0,0c-1,0-1.8,0.8-1.8,1.8v6.3
								C91.7,165.7,92.5,166.5,93.5,166.5z"/>
							<g id="boxes">
								<rect x="66.9" y="174.4" class="st41" width="7.6" height="7.6"/>
								<rect x="66.9" y="185.8" class="st41" width="7.6" height="7.6"/>
								<rect x="78.5" y="174.4" class="st41" width="7.6" height="7.6"/>
								<rect x="78.6" y="185.8" class="st41" width="7.6" height="7.6"/>
								<rect x="90.2" y="174.4" class="st41" width="7.6" height="7.6"/>
								<rect x="90.2" y="185.8" class="st41" width="7.6" height="7.6"/>
							</g>
						</g>
						<g id="note">
							<circle class="st4" cx="111.4" cy="163.6" r="3.1"/>
							<path class="st4" d="M114.1,152.7L114.1,152.7c0.2,0,0.4,0.2,0.4,0.4v10c0,0.2-0.2,0.4-0.4,0.4l0,0c-0.2,0-0.4-0.2-0.4-0.4
								v-10C113.7,152.9,113.9,152.7,114.1,152.7z"/>
							<path class="st4" d="M114,152.7h5.4c0.2,0,0.3,0.2,0.2,0.3c-0.3,0.8-1.6,2.9-5.6,3V152.7z"/>
						</g>
						<g id="note_1_">
							
								<ellipse transform="matrix(0.9606 -0.2778 0.2778 0.9606 -42.2956 39.1073)" class="st28" cx="116.9" cy="168.8" rx="1.4" ry="1.4"/>
							<path class="st28" d="M116.7,163.8L116.7,163.8c0.1,0,0.2,0,0.2,0.1l1.3,4.3c0,0.1,0,0.2-0.1,0.2l0,0c-0.1,0-0.2,0-0.2-0.1
								l-1.3-4.3C116.5,163.9,116.6,163.8,116.7,163.8z"/>
							<path class="st28" d="M116.6,163.8l2.3-0.7c0.1,0,0.1,0,0.1,0.1c0,0.4-0.3,1.5-2.1,2L116.6,163.8z"/>
						</g>
					</g>
					<rect x="11.9" y="345.5" class="st55" width="136.1" height="9.2"/>
					<g id="社員旅行_1_">
						<path class="st56" d="M97.5,106.3c0,0-1.5-9.6-7.2-10.7c-0.6-0.1-1.1,0.3-1.1,0.9v9.8H97.5z"/>
						<path class="st19" d="M57.7,104.6h43.3c1.1,0,3.1-0.3,5.2,0.4c1.5,0.5,3,2.8,4.5,3.3c2.7,0.9,4.9,1.3,4.9,4.3
							c0,3-2.7,2.6-5.9,2.6c0,0-37,0-44.2,0c-3.3,0-15.5-10.5-15.5-10.5v-9.4H53L57.7,104.6z"/>
						<g>
							<defs>
								<path id="SVGID_21_" d="M57.7,104.6h43.3c1.1,0,3.1-0.3,5.2,0.4c1.5,0.5,3,2.8,4.5,3.3c2.7,0.9,4.9,1.3,4.9,4.3
									c0,3-2.7,2.6-5.9,2.6c0,0-37,0-44.2,0c-3.3,0-15.5-10.5-15.5-10.5v-9.4H53L57.7,104.6z"/>
							</defs>
							<clipPath id="SVGID_22_">
								<use xlink:href="#SVGID_21_"  style="overflow:visible;"/>
							</clipPath>
							<rect x="51.7" y="111.1" class="st57" width="70.8" height="15.1"/>
							<path class="st58" d="M115.1,111H55.8c-0.2,0-0.4-0.2-0.4-0.4l0,0c0-0.2,0.2-0.4,0.4-0.4h59.3c0.2,0,0.4,0.2,0.4,0.4l0,0
								C115.6,110.8,115.4,111,115.1,111z"/>
						</g>
						<path class="st26" d="M57.7,104.6h43.3c1.1,0,3.1-0.3,5.2,0.4c1.5,0.5,3,2.8,4.5,3.3c2.7,0.9,4.9,1.3,4.9,4.3
							c0,3-2.7,2.6-5.9,2.6c0,0-37,0-44.2,0c-3.3,0-15.5-10.5-15.5-10.5v-9.4H53L57.7,104.6z"/>
						<path class="st56" d="M88,113.3h7.5c0,0-5.4,17.4-15.4,19.5c-0.9,0.2-1.6-0.8-1.2-1.6L88,113.3z"/>
						<path class="st11" d="M111.6,108.9H103c-0.4,0-0.8-0.3-0.8-0.8V107c0-0.4,0.3-0.8,0.8-0.8h5c0.6,0,1.2,0.5,1.2,1.1l0.7,0.4
							C110,108.4,112.2,108.9,111.6,108.9z"/>
						<path class="st11" d="M95.6,108.9h1.1c0.3,0,0.5-0.2,0.5-0.5v-1.6c0-0.3-0.2-0.5-0.5-0.5h-1.1c-0.3,0-0.5,0.2-0.5,0.5v1.6
							C95.1,108.6,95.3,108.9,95.6,108.9z"/>
						<path class="st11" d="M92.9,108.9H94c0.3,0,0.5-0.2,0.5-0.5v-1.6c0-0.3-0.2-0.5-0.5-0.5h-1.1c-0.3,0-0.5,0.2-0.5,0.5v1.6
							C92.4,108.6,92.7,108.9,92.9,108.9z"/>
						<path class="st11" d="M90.3,108.9h1.1c0.3,0,0.5-0.2,0.5-0.5v-1.6c0-0.3-0.2-0.5-0.5-0.5h-1.1c-0.3,0-0.5,0.2-0.5,0.5v1.6
							C89.8,108.6,90,108.9,90.3,108.9z"/>
						<path class="st11" d="M87.6,108.9h1.1c0.3,0,0.5-0.2,0.5-0.5v-1.6c0-0.3-0.2-0.5-0.5-0.5h-1.1c-0.3,0-0.5,0.2-0.5,0.5v1.6
							C87.1,108.6,87.4,108.9,87.6,108.9z"/>
						<path class="st11" d="M85,108.9h1.1c0.3,0,0.5-0.2,0.5-0.5v-1.6c0-0.3-0.2-0.5-0.5-0.5H85c-0.3,0-0.5,0.2-0.5,0.5v1.6
							C84.5,108.6,84.7,108.9,85,108.9z"/>
						<path class="st11" d="M82.3,108.9h1.1c0.3,0,0.5-0.2,0.5-0.5v-1.6c0-0.3-0.2-0.5-0.5-0.5h-1.1c-0.3,0-0.5,0.2-0.5,0.5v1.6
							C81.8,108.6,82.1,108.9,82.3,108.9z"/>
						<path class="st11" d="M79.7,108.9h1.1c0.3,0,0.5-0.2,0.5-0.5v-1.6c0-0.3-0.2-0.5-0.5-0.5h-1.1c-0.3,0-0.5,0.2-0.5,0.5v1.6
							C79.2,108.6,79.4,108.9,79.7,108.9z"/>
						<path class="st11" d="M77.1,108.9h1.1c0.3,0,0.5-0.2,0.5-0.5v-1.6c0-0.3-0.2-0.5-0.5-0.5h-1.1c-0.3,0-0.5,0.2-0.5,0.5v1.6
							C76.6,108.6,76.8,108.9,77.1,108.9z"/>
						<path class="st11" d="M74.4,108.9h1.1c0.3,0,0.5-0.2,0.5-0.5v-1.6c0-0.3-0.2-0.5-0.5-0.5h-1.1c-0.3,0-0.5,0.2-0.5,0.5v1.6
							C73.9,108.6,74.1,108.9,74.4,108.9z"/>
						<path class="st11" d="M71.8,108.9h1.1c0.3,0,0.5-0.2,0.5-0.5v-1.6c0-0.3-0.2-0.5-0.5-0.5h-1.1c-0.3,0-0.5,0.2-0.5,0.5v1.6
							C71.3,108.6,71.5,108.9,71.8,108.9z"/>
						<path class="st11" d="M69.1,108.9h1.1c0.3,0,0.5-0.2,0.5-0.5v-1.6c0-0.3-0.2-0.5-0.5-0.5h-1.1c-0.3,0-0.5,0.2-0.5,0.5v1.6
							C68.6,108.6,68.8,108.9,69.1,108.9z"/>
						<path class="st11" d="M66.5,108.9h1.1c0.3,0,0.5-0.2,0.5-0.5v-1.6c0-0.3-0.2-0.5-0.5-0.5h-1.1c-0.3,0-0.5,0.2-0.5,0.5v1.6
							C66,108.6,66.2,108.9,66.5,108.9z"/>
						<path class="st11" d="M63.8,108.9h1.1c0.3,0,0.5-0.2,0.5-0.5v-1.6c0-0.3-0.2-0.5-0.5-0.5h-1.1c-0.3,0-0.5,0.2-0.5,0.5v1.6
							C63.3,108.6,63.5,108.9,63.8,108.9z"/>
						<g id="clouds_16_">
							<path class="st12" d="M52.5,68.7c-1.4,0-2.4,1.5-1.9,2.9c0.3,0.8,1.1,1.3,2,1.3H66c1.1,0,2-0.8,2.1-1.8
								c0.1-1.2-0.8-2.3-2-2.3l-2.6,0c1.4,0,2.1-0.9,2-2.1c-0.1-1.1-1.1-1.8-2.1-1.8H50c-1.1,0-2,0.8-2.1,1.8
								c-0.1,1.2,0.8,2.2,2,2.1H52.5"/>
						</g>
						<g id="clouds_15_">
							<path class="st12" d="M102.1,82.9c-1.4,0-2.4,1.5-1.9,2.9c0.3,0.8,1.1,1.3,2,1.3h13.5c1.1,0,2-0.8,2.1-1.8
								c0.1-1.2-0.8-2.3-2-2.3l-2.6,0c1.4,0,2.1-0.9,2-2.1c-0.1-1.1-1.1-1.8-2.1-1.8H99.6c-1.1,0-2,0.8-2.1,1.8
								c-0.1,1.2,0.8,2.2,2,2.1H102.1"/>
						</g>
					</g>
					<g>
						<text transform="matrix(1 0 0 1 59.749 36.4732)" class="st11 st16 st30">年間休日</text>
					</g>
				</g>
			</g>
			<path id="_x32__6_" class="st31" d="M136.5,353.5H25c-7.2,0-13.1-5.9-13.1-13.1V28.8c0-7.2,5.9-13.1,13.1-13.1h111.5
				c7.2,0,13.1,5.9,13.1,13.1v311.6C149.7,347.6,143.8,353.5,136.5,353.5z"/>
		</g>
	</g>
</g>
</svg>
