<?xml version="1.0" encoding="utf-8"?>
<!-- Generator: Adobe Illustrator 19.2.0, SVG Export Plug-In . SVG Version: 6.00 Build 0)  -->
<svg version="1.1" id="Main_Layer" xmlns="http://www.w3.org/2000/svg" xmlns:xlink="http://www.w3.org/1999/xlink" x="0px" y="0px"
	 viewBox="0 0 459.2 370" style="enable-background:new 0 0 459.2 370;" xml:space="preserve">
<style type="text/css">
	.st0{fill:#E6DBB6;}
	.st1{fill:#3E3A39;}
	.st2{font-family:'HiraKakuPro-W6-83pv-RKSJ-H';}
	.st3{font-size:12px;}
	.st4{display:none;}
	.st5{display:inline;fill:#3E3A39;}
	.st6{fill:#FFFFFF;stroke:#3E3A39;stroke-linecap:round;stroke-linejoin:round;stroke-miterlimit:10;}
	.st7{fill:#635568;stroke:#3E3A39;stroke-linecap:round;stroke-linejoin:round;stroke-miterlimit:10;}
	.st8{fill:none;stroke:#3E3A39;stroke-width:0.8743;stroke-linecap:round;stroke-linejoin:round;stroke-miterlimit:10;}
	.st9{fill:#FFFFFF;}
	.st10{fill:#64C8FF;}
	.st11{fill:#FFFFFF;stroke:#3E3A39;stroke-width:0.8103;stroke-linecap:round;stroke-linejoin:round;stroke-miterlimit:10;}
	.st12{fill:#64C8FF;stroke:#3E3A39;stroke-width:0.8103;stroke-linecap:round;stroke-linejoin:round;stroke-miterlimit:10;}
	.st13{font-family:'HiraKakuPro-W3-83pv-RKSJ-H';}
	.st14{font-size:8px;}
	.st15{fill:none;stroke:#3E3A39;stroke-width:0.8103;stroke-linecap:round;stroke-linejoin:round;stroke-miterlimit:10;}
	.st16{fill:#FFFFFF;stroke:#3E3A39;stroke-width:0.3842;stroke-linecap:round;stroke-linejoin:round;stroke-miterlimit:10;}
	.st17{fill:#64C8FF;stroke:#3E3A39;stroke-linecap:round;stroke-linejoin:round;stroke-miterlimit:10;}
	.st18{fill:#B3EDFF;}
	.st19{fill:none;stroke:#3E3A39;stroke-width:0.3842;stroke-linecap:round;stroke-linejoin:round;stroke-miterlimit:10;}
	.st20{fill:#FFAF1E;stroke:#3E3A39;stroke-miterlimit:10;}
	.st21{fill:#FFDD27;stroke:#3E3A39;stroke-miterlimit:10;}
	.st22{fill:none;stroke:#3E3A39;stroke-width:0.4268;stroke-linecap:round;stroke-linejoin:round;stroke-miterlimit:10;}
	.st23{fill:none;stroke:#3E3A39;stroke-width:0.4;stroke-linecap:round;stroke-linejoin:round;stroke-miterlimit:10;}
	.st24{fill:none;stroke:#3E3A39;stroke-width:0.2;stroke-linecap:round;stroke-linejoin:round;stroke-miterlimit:10;}
	.st25{fill:none;stroke:#3E3A39;stroke-linecap:round;stroke-linejoin:round;stroke-miterlimit:10;}
	.st26{fill:none;stroke:#3E3A39;stroke-width:0.8001;stroke-linecap:round;stroke-linejoin:round;stroke-miterlimit:10;}
	.st27{font-size:14px;}
	.st28{fill:#FC664E;}
	.st29{fill:none;stroke:#3E3A39;stroke-width:0.3202;stroke-linecap:round;stroke-linejoin:round;stroke-miterlimit:10;}
	.st30{fill:none;stroke:#3E3A39;stroke-width:0.6403;stroke-linecap:round;stroke-linejoin:round;stroke-miterlimit:10;}
	.st31{fill:#FFAF1E;stroke:#3E3A39;stroke-width:0.25;stroke-miterlimit:10;}
	.st32{fill:#FFDD27;stroke:#3E3A39;stroke-width:0.25;stroke-miterlimit:10;}
	.st33{letter-spacing:-4;}
	.st34{font-family:'NewRodinPro-B-83pv-RKSJ-H';}
	.st35{font-size:11px;}
	.st36{font-size:9px;}
	.st37{font-size:19px;}
	.st38{font-size:13px;}
	.st39{fill:#FFAF1E;}
	.st40{fill:#FF991F;}
</style>
<g id="Sample_PopUp">
	<g>
		<g id="Attire">
			<path class="st0" d="M437,359.3H319.2c-5.5,0-10-4.5-10-10v-328c0-5.5,4.5-10,10-10H437c5.5,0,10,4.5,10,10v328
				C447,354.8,442.5,359.3,437,359.3z"/>
			<g>
				<text transform="matrix(1 0 0 1 345.4285 32.1738)" class="st1 st2 st3">職業時の服装</text>
			</g>
			<g id="graph" class="st4">
				<rect x="416.6" y="210.3" class="st5" width="17" height="134.6"/>
				<rect x="386.6" y="241.6" class="st5" width="17" height="103.3"/>
				<rect x="356.6" y="300.9" class="st5" width="17" height="44"/>
				<rect x="326.5" y="331.8" class="st5" width="17" height="13.1"/>
			</g>
			<g id="boxes_1_">
				<path class="st6" d="M367.8,352.1h-45c-2.8,0-5-2.3-5-5V209c0-2.8,2.3-5,5-5h45c2.8,0,5,2.3,5,5v138.1
					C372.8,349.9,370.6,352.1,367.8,352.1z"/>
				<path class="st6" d="M435.6,352.1h-45c-2.8,0-5-2.3-5-5V209c0-2.8,2.3-5,5-5h45c2.8,0,5,2.3,5,5v138.1
					C440.6,349.9,438.3,352.1,435.6,352.1z"/>
				<path class="st6" d="M368.1,193.8h-45c-2.8,0-5-2.3-5-5V50.7c0-2.8,2.3-5,5-5h45c2.8,0,5,2.3,5,5v138.1
					C373.1,191.5,370.9,193.8,368.1,193.8z"/>
				<path class="st6" d="M434.1,193.8h-45c-2.8,0-5-2.3-5-5V50.7c0-2.8,2.3-5,5-5h45c2.8,0,5,2.3,5,5v138.1
					C439.1,191.5,436.9,193.8,434.1,193.8z"/>
			</g>
			<g id="スーツ">
				<g id="suit">
					<polygon class="st7" points="369.4,273.1 353.6,252.2 338.7,252.2 338.6,252.2 322.7,273.1 327.3,275.7 336.7,264 337.6,264.2 
						337.6,285.2 353.6,285.2 353.6,264.2 354.9,264 364.6,275.7 					"/>
					<path class="st8" d="M341.3,252.2c0,0.6,4.8,9.2,4.8,9.2l4.6-9.2"/>
					<path class="st8" d="M346.1,261.4l-0.1,17.1c0,0,0.8,7.1-8.3,6.8"/>
					<path class="st8" d="M345.9,279.1c0,0-0.9,6.1,7.7,6.1"/>
					<path class="st8" d="M343,255.8l-2.8,3.3c0,0,5.8,1.3,5.8,4.2"/>
					<path class="st8" d="M340,252.2l-1,3.2c0,0,2.2,0.2,3.3,1.1"/>
					<path class="st8" d="M348.9,255.8l2.8,3.3c0,0-5.8,1.3-5.8,4.2"/>
					<path class="st8" d="M352,252.2l1,3.2c0,0-2.2,0.2-3.3,1.1"/>
					<polygon class="st9" points="341.6,252.7 350.5,252.7 346.1,261.2 					"/>
					<polygon class="st10" points="345.3,257.6 345.9,258 346.5,257.8 347.3,258.9 346.1,261.4 344.7,258.6 					"/>
					<line class="st11" x1="346.7" y1="257.4" x2="347.2" y2="258.5"/>
					<line class="st11" x1="345.1" y1="257.4" x2="344.8" y2="258.5"/>
					<polygon class="st12" points="347.4,256.9 345.9,257.6 344.5,256.9 344.5,254.8 347.4,254.8 					"/>
					<line class="st11" x1="347.5" y1="254.7" x2="350" y2="252.5"/>
					<line class="st11" x1="344.5" y1="254.7" x2="342" y2="252.5"/>
					<line class="st11" x1="348.4" y1="276.8" x2="352.1" y2="279.1"/>
					<line class="st11" x1="343.3" y1="276.8" x2="339.6" y2="279.1"/>
					<circle class="st1" cx="344.8" cy="266.3" r="0.4"/>
					<circle class="st1" cx="344.8" cy="270.9" r="0.4"/>
				</g>
				<g>
					<g>
						<g>
							<path class="st1" d="M332.5,321.7v-13.3h-4v-2.7h6.9v16L332.5,321.7z"/>
							<path class="st1" d="M356.6,318.5c-0.4,2.1-1.7,3.1-4.2,3.4c-0.9,0.1-1.7,0.1-2.7,0.1c-0.8,0-1.6,0-2.4-0.1
								c-2.9-0.2-4.5-1.4-4.6-4.3l0-0.6l2.8,0c0,0,0,0.5,0,0.6c0.1,1.2,0.9,1.7,2,1.9c0.8,0.1,1.6,0.1,2.2,0.1c0.7,0,1.5,0,2.2-0.1
								c1-0.2,1.7-0.6,1.9-1.5c0.1-0.3,0.1-0.9,0.1-1.4c0-0.3,0-0.9-0.1-1.3c-0.2-1.1-0.7-1.4-2-1.6c-0.4-0.1-1.1-0.1-1.7-0.1
								c-0.1,0-0.3,0-0.4,0c-0.7,0-1.4,0-1.8,0.1c-1.3,0.1-2.2,0.8-2.4,1.6l-2.6,0l0.4-9.5H356v2.6h-10.1l-0.3,4
								c0.4-0.3,0.8-0.6,1.5-0.8c1-0.3,2-0.3,3-0.3c0.2,0,0.4,0,0.6,0c0.9,0,1.8,0,2.7,0.2c1.5,0.3,2.8,0.9,3.2,2.7
								c0.2,0.7,0.3,1.6,0.3,2.4C356.8,317.2,356.7,317.9,356.6,318.5z"/>
						</g>
					</g>
					<g>
						<g>
							<path class="st1" d="M362.1,311.9c0.6,0.1,1,0.5,1.2,1.3c0.1,0.4,0.1,0.8,0.1,1.2c0,0.2,0,0.4,0,0.6c0,0.4-0.1,0.8-0.1,1.1
								c-0.2,0.7-0.8,1.1-1.5,1.2c-0.2,0-0.6,0-0.9,0c-0.1,0-0.2,0-0.3,0c-0.2,0-0.4,0-0.6-0.1c-0.8-0.1-1.2-0.6-1.3-1.5
								c0-0.3-0.1-0.8-0.1-1.2c0-0.4,0-0.8,0-1.1c0.1-1.1,0.7-1.4,1.4-1.5c0.3,0,0.6-0.1,0.9-0.1c0.2,0,0.4,0,0.6,0
								C361.7,311.8,362,311.9,362.1,311.9z M364.5,317.1l-3.6,4.5l-1.7,0l4.2-5l3.6-4.6h1.7L364.5,317.1z M362,313.6
								c-0.1-0.4-0.3-0.5-0.5-0.5c-0.1,0-0.3,0-0.5,0c-0.1,0-0.1,0-0.2,0c-0.1,0-0.3,0-0.3,0c-0.3,0-0.5,0.2-0.5,0.6
								c0,0.3,0,0.6,0,0.9c0,0.3,0,0.6,0,0.9c0.1,0.5,0.2,0.6,0.5,0.7c0.1,0,0.2,0,0.4,0c0.1,0,0.2,0,0.4,0c0.1,0,0.2,0,0.3,0
								c0.3,0,0.5-0.3,0.5-0.7c0-0.2,0-0.5,0-0.9C362.1,314.2,362.1,313.8,362,313.6z M367.9,316.4c0.7,0.1,1.1,0.5,1.2,1.3
								c0.1,0.4,0.1,0.8,0.1,1.2c0,0.2,0,0.4,0,0.6c0,0.4-0.1,0.8-0.1,1.1c-0.2,0.8-0.7,1.1-1.5,1.2c-0.2,0-0.4,0-0.6,0
								s-0.4,0-0.6,0c-0.2,0-0.4,0-0.6,0c-0.8-0.1-1.2-0.6-1.3-1.5c0-0.3-0.1-0.8-0.1-1.2c0-0.4,0-0.8,0.1-1.1
								c0.1-1,0.8-1.4,1.5-1.5c0.3,0,0.6,0,1,0c0.1,0,0.2,0,0.3,0C367.5,316.3,367.7,316.3,367.9,316.4z M367.8,318.1
								c-0.1-0.4-0.3-0.5-0.5-0.5c-0.1,0-0.3,0-0.5,0c-0.1,0-0.1,0-0.2,0c-0.1,0-0.3,0-0.3,0c-0.3,0-0.5,0.2-0.5,0.6
								c0,0.3,0,0.6,0,0.9c0,0.3,0,0.6,0,0.9c0.1,0.5,0.2,0.6,0.5,0.7c0.1,0,0.2,0,0.4,0c0.1,0,0.2,0,0.4,0c0.1,0,0.2,0,0.3,0
								c0.3,0,0.5-0.3,0.5-0.7c0-0.2,0-0.5,0-0.9C367.9,318.6,367.9,318.3,367.8,318.1z"/>
						</g>
					</g>
				</g>
				<g>
					<text transform="matrix(1 0 0 1 334.0564 230.8652)" class="st1 st13 st14">スーツ</text>
				</g>
			</g>
			<g id="Business">
				<g>
					<text transform="matrix(1 0 0 1 330.6106 67.6738)"><tspan x="0" y="0" class="st1 st13 st14">ビジネス</tspan><tspan x="-4" y="14" class="st1 st13 st14">カジュアル</tspan></text>
				</g>
				<g id="Business_Casual">
					<polygon class="st6" points="369.4,123.1 353.6,102.2 338.7,102.2 338.6,102.2 322.7,123.1 327.3,125.7 336.7,114 337.6,114.2 
						337.6,135.2 353.6,135.2 353.6,114.2 354.9,114 364.6,125.7 					"/>
					<path class="st8" d="M346.1,123.4l-0.1,5.1c0,0,0.8,7.1-8.3,6.8"/>
					<path class="st8" d="M345.9,129.1c0,0-0.9,6.1,7.7,6.1"/>
					<polygon class="st12" points="347.4,122.9 345.9,123.6 344.5,122.9 344.5,106.8 347.4,106.8 					"/>
					<polygon class="st12" points="347.4,106.9 345.9,107.6 344.5,106.9 344.5,104.8 347.4,104.8 					"/>
					<line class="st11" x1="347.5" y1="104.7" x2="350" y2="102.5"/>
					<line class="st11" x1="344.5" y1="104.7" x2="342" y2="102.5"/>
					<polyline class="st15" points="339.8,102.5 341.4,108.7 344.5,106.8 					"/>
					<polyline class="st15" points="352.5,102.5 351,108.7 347.8,106.8 					"/>
				</g>
				<g>
					<g>
						<g>
							<path class="st1" d="M337.4,168.9v2.9h-2.7v-2.9h-10.2v-2.6l9.8-10.7h3.1v10.9h2.3v2.5H337.4z M327.4,166.5l7.3,0v-3.2
								l0.1-4.6L327.4,166.5z"/>
							<path class="st1" d="M355.4,167.7c-0.3,2.7-1.6,4.1-4.3,4.4c-0.7,0.1-1.6,0.1-2.5,0.1c-0.9,0-1.8,0-2.5-0.1
								c-2.9-0.2-4.3-1.7-4.6-4.5c-0.1-1.1-0.2-2.6-0.2-4c0-1.3,0.1-2.7,0.2-3.7c0.3-3.1,1.7-4.3,4.6-4.5c0.7,0,1.5-0.1,2.4-0.1
								c1,0,1.9,0,2.7,0.1c2.4,0.2,3.6,1.4,4,3.7c0.2,1.2,0.3,2.8,0.4,4.4C355.6,165.1,355.5,166.6,355.4,167.7z M346.9,158
								c-1.8,0.2-2.3,1.1-2.5,2.7c-0.1,0.8-0.2,1.9-0.2,3s0,2.2,0.1,3c0.2,2,0.8,2.6,2.1,2.9c0.3,0.1,0.9,0.1,1.4,0.1
								c0.3,0,0.6,0,0.8,0c0.6,0,1.2,0,1.7-0.1c1.7-0.3,2.1-1.2,2.4-2.8c0.1-0.7,0.1-1.9,0.1-3.1c0-1.2-0.1-2.5-0.2-3.3
								c-0.3-1.5-0.8-2.2-2.1-2.4c-0.5-0.1-1.2-0.1-1.9-0.1C347.9,157.9,347.3,158,346.9,158z"/>
						</g>
					</g>
					<g>
						<g>
							<path class="st1" d="M361.1,162c0.6,0.1,1,0.5,1.2,1.3c0.1,0.4,0.1,0.8,0.1,1.2c0,0.2,0,0.4,0,0.6c0,0.4-0.1,0.8-0.1,1.1
								c-0.2,0.7-0.8,1.1-1.5,1.2c-0.2,0-0.6,0-0.9,0c-0.1,0-0.2,0-0.3,0c-0.2,0-0.4,0-0.6-0.1c-0.8-0.1-1.2-0.6-1.3-1.5
								c0-0.3-0.1-0.8-0.1-1.2c0-0.4,0-0.8,0-1.1c0.1-1.1,0.7-1.4,1.4-1.5c0.3,0,0.6-0.1,0.9-0.1c0.2,0,0.4,0,0.6,0
								C360.7,161.9,361,161.9,361.1,162z M363.5,167.1l-3.6,4.5l-1.7,0l4.2-5l3.6-4.6h1.7L363.5,167.1z M361,163.7
								c-0.1-0.4-0.3-0.5-0.5-0.5c-0.1,0-0.3,0-0.5,0c-0.1,0-0.1,0-0.2,0c-0.1,0-0.3,0-0.3,0c-0.3,0-0.5,0.2-0.5,0.6
								c0,0.3,0,0.6,0,0.9c0,0.3,0,0.6,0,0.9c0.1,0.5,0.2,0.6,0.5,0.7c0.1,0,0.2,0,0.4,0c0.1,0,0.2,0,0.4,0c0.1,0,0.2,0,0.3,0
								c0.3,0,0.5-0.3,0.5-0.7c0-0.2,0-0.5,0-0.9C361.1,164.2,361.1,163.9,361,163.7z M366.9,166.4c0.7,0.1,1.1,0.5,1.2,1.3
								c0.1,0.4,0.1,0.8,0.1,1.2c0,0.2,0,0.4,0,0.6c0,0.4-0.1,0.8-0.1,1.1c-0.2,0.8-0.7,1.1-1.5,1.2c-0.2,0-0.4,0-0.6,0
								s-0.4,0-0.6,0c-0.2,0-0.4,0-0.6,0c-0.8-0.1-1.2-0.6-1.3-1.5c0-0.3-0.1-0.8-0.1-1.2c0-0.4,0-0.8,0.1-1.1
								c0.1-1,0.8-1.4,1.5-1.5c0.3,0,0.6,0,1,0c0.1,0,0.2,0,0.3,0C366.5,166.4,366.7,166.4,366.9,166.4z M366.8,168.2
								c-0.1-0.4-0.3-0.5-0.5-0.5c-0.1,0-0.3,0-0.5,0c-0.1,0-0.1,0-0.2,0c-0.1,0-0.3,0-0.3,0c-0.3,0-0.5,0.2-0.5,0.6
								c0,0.3,0,0.6,0,0.9c0,0.3,0,0.6,0,0.9c0.1,0.5,0.2,0.6,0.5,0.7c0.1,0,0.2,0,0.4,0c0.1,0,0.2,0,0.4,0c0.1,0,0.2,0,0.3,0
								c0.3,0,0.5-0.3,0.5-0.7c0-0.2,0-0.5,0-0.9C366.9,168.7,366.9,168.4,366.8,168.2z"/>
						</g>
					</g>
				</g>
			</g>
			<g id="Casual_1_">
				<g id="Casual">
					<polygon class="st6" points="429.4,112.1 420.6,104.2 405.7,104.2 405.6,104.2 396.7,112.1 401.3,117.7 403.7,116 404.6,116.2 
						404.6,137.2 420.6,137.2 420.6,116.2 421.9,116 424.6,117.7 					"/>
					<rect x="407.8" y="104.5" class="st1" width="9.9" height="32.6"/>
					<path class="st16" d="M416.5,104.5c0,1.9-1.5,3.4-3.4,3.4s-3.4-1.5-3.4-3.4"/>
				</g>
				<g>
					<text transform="matrix(1 0 0 1 392.6106 82.6748)" class="st1 st13 st14">カジュアル</text>
				</g>
				<g>
					<g>
						<g>
							<path class="st1" d="M406.2,168.4c0,0.7-0.1,1.5-0.3,2.1c-0.6,1.6-2.1,2.3-3.9,2.5c-0.7,0.1-1.7,0.1-2.6,0.1
								c-1,0-1.9,0-2.7-0.1c-2.9-0.3-4.3-1.2-4.6-3.6c-0.1-0.5-0.1-1.1-0.1-1.8h2.8c0,0.3,0,0.5,0,0.7c0.1,1.1,0.3,2,2.1,2.3
								c0.6,0.1,1.3,0.1,2.3,0.1c0.1,0,0.2,0,0.3,0c0.6,0,1.4,0,1.9-0.1c0.9-0.1,1.5-0.5,1.8-1.3c0.1-0.3,0.1-0.7,0.1-1.1
								c0-0.4,0-0.8-0.1-1.1c-0.3-1.2-1.6-1.4-2.9-1.4h-4.9v-2.4h4.9c0.5,0,1,0,1.4-0.1c0.5-0.1,1-0.4,1.2-1.1
								c0.1-0.3,0.1-0.7,0.1-1c0-0.2,0-0.5-0.1-0.7c0-0.2-0.1-0.4-0.2-0.6c-0.3-0.5-0.7-0.7-1.4-0.8c-0.4-0.1-0.8-0.1-1.3-0.1
								c-0.2,0-0.4,0-0.7,0c-0.2,0-0.4,0-0.6,0c-0.8,0-1.7,0.1-2.2,0.2c-0.9,0.2-1.4,0.6-1.6,1.4c-0.1,0.3-0.1,0.7-0.1,1h-2.8
								c0-0.1,0.1-0.9,0.1-1.2c0.3-2.6,1.7-3.6,4.7-3.8c0.7,0,1.6-0.1,2.4-0.1c0.9,0,1.9,0,2.6,0.1c1.6,0.2,3,0.7,3.6,2.2
								c0.2,0.6,0.3,1.4,0.3,2.1c0,0.6-0.1,1.1-0.2,1.6c-0.4,1.4-1.3,1.8-2.1,2c0.9,0.2,1.7,0.7,2.2,1.7c0.2,0.4,0.2,0.9,0.3,1.4
								C406.2,167.8,406.2,168.1,406.2,168.4z"/>
							<path class="st1" d="M422.4,169.6c-0.4,2.1-1.7,3.1-4.2,3.4c-0.9,0.1-1.7,0.1-2.7,0.1c-0.8,0-1.6,0-2.4-0.1
								c-2.9-0.2-4.5-1.4-4.6-4.3l0-0.6l2.8,0c0,0,0,0.5,0,0.6c0.1,1.2,0.9,1.7,2,1.9c0.8,0.1,1.6,0.1,2.2,0.1c0.7,0,1.5,0,2.2-0.1
								c1-0.2,1.7-0.6,1.9-1.5c0.1-0.3,0.1-0.9,0.1-1.4c0-0.3,0-0.9-0.1-1.3c-0.2-1.1-0.7-1.4-2-1.6c-0.4-0.1-1.1-0.1-1.7-0.1
								c-0.1,0-0.3,0-0.4,0c-0.7,0-1.4,0-1.8,0.1c-1.3,0.1-2.2,0.8-2.4,1.6l-2.6,0l0.4-9.5h12.6v2.6h-10.1l-0.3,4
								c0.4-0.3,0.8-0.6,1.5-0.8c1-0.3,2-0.3,3-0.3c0.2,0,0.4,0,0.6,0c0.9,0,1.8,0,2.7,0.2c1.5,0.3,2.8,0.9,3.2,2.7
								c0.2,0.7,0.3,1.6,0.3,2.4C422.6,168.3,422.5,169,422.4,169.6z"/>
						</g>
					</g>
					<g>
						<g>
							<path class="st1" d="M427.5,163c0.6,0.1,1,0.5,1.2,1.3c0.1,0.4,0.1,0.8,0.1,1.2c0,0.2,0,0.4,0,0.6c0,0.4-0.1,0.8-0.1,1.1
								c-0.2,0.7-0.8,1.1-1.5,1.2c-0.2,0-0.6,0-0.9,0c-0.1,0-0.2,0-0.3,0c-0.2,0-0.4,0-0.6-0.1c-0.8-0.1-1.2-0.6-1.3-1.5
								c0-0.3-0.1-0.8-0.1-1.2c0-0.4,0-0.8,0-1.1c0.1-1.1,0.7-1.4,1.4-1.5c0.3,0,0.6-0.1,0.9-0.1c0.2,0,0.4,0,0.6,0
								C427.1,162.9,427.3,162.9,427.5,163z M429.8,168.1l-3.6,4.5l-1.7,0l4.2-5l3.6-4.6h1.7L429.8,168.1z M427.4,164.7
								c-0.1-0.4-0.3-0.5-0.5-0.5c-0.1,0-0.3,0-0.5,0c-0.1,0-0.1,0-0.2,0c-0.1,0-0.3,0-0.3,0c-0.3,0-0.5,0.2-0.5,0.6
								c0,0.3,0,0.6,0,0.9c0,0.3,0,0.6,0,0.9c0.1,0.5,0.2,0.6,0.5,0.7c0.1,0,0.2,0,0.4,0c0.1,0,0.2,0,0.4,0c0.1,0,0.2,0,0.3,0
								c0.3,0,0.5-0.3,0.5-0.7c0-0.2,0-0.5,0-0.9C427.4,165.2,427.4,164.9,427.4,164.7z M433.2,167.4c0.7,0.1,1.1,0.5,1.2,1.3
								c0.1,0.4,0.1,0.8,0.1,1.2c0,0.2,0,0.4,0,0.6c0,0.4-0.1,0.8-0.1,1.1c-0.2,0.8-0.7,1.1-1.5,1.2c-0.2,0-0.4,0-0.6,0
								s-0.4,0-0.6,0c-0.2,0-0.4,0-0.6,0c-0.8-0.1-1.2-0.6-1.3-1.5c0-0.3-0.1-0.8-0.1-1.2c0-0.4,0-0.8,0.1-1.1
								c0.1-1,0.8-1.4,1.5-1.5c0.3,0,0.6,0,1,0c0.1,0,0.2,0,0.3,0C432.8,167.4,433.1,167.4,433.2,167.4z M433.2,169.2
								c-0.1-0.4-0.3-0.5-0.5-0.5c-0.1,0-0.3,0-0.5,0c-0.1,0-0.1,0-0.2,0c-0.1,0-0.3,0-0.3,0c-0.3,0-0.5,0.2-0.5,0.6
								c0,0.3,0,0.6,0,0.9c0,0.3,0,0.6,0,0.9c0.1,0.5,0.2,0.6,0.5,0.7c0.1,0,0.2,0,0.4,0c0.1,0,0.2,0,0.4,0c0.1,0,0.2,0,0.3,0
								c0.3,0,0.5-0.3,0.5-0.7c0-0.2,0-0.5,0-0.9C433.2,169.7,433.2,169.4,433.2,169.2z"/>
						</g>
					</g>
				</g>
			</g>
			<g id="Others_1_">
				<g id="_x35___x25_">
					<g>
						<g>
							<path class="st1" d="M398.1,321.7v-13.3h-4v-2.7h6.9v16L398.1,321.7z"/>
							<path class="st1" d="M422.2,317.7c-0.3,2.7-1.6,4.1-4.3,4.4c-0.7,0.1-1.6,0.1-2.5,0.1c-0.9,0-1.8,0-2.5-0.1
								c-2.9-0.2-4.3-1.7-4.6-4.5c-0.1-1.1-0.2-2.6-0.2-4c0-1.3,0.1-2.7,0.2-3.7c0.3-3.1,1.7-4.3,4.6-4.5c0.7,0,1.5-0.1,2.4-0.1
								c1,0,1.9,0,2.7,0.1c2.4,0.2,3.6,1.4,4,3.7c0.2,1.2,0.3,2.8,0.4,4.4C422.4,315,422.3,316.5,422.2,317.7z M413.7,307.9
								c-1.8,0.2-2.3,1.1-2.5,2.7c-0.1,0.8-0.2,1.9-0.2,3s0,2.2,0.1,3c0.2,2,0.8,2.6,2.1,2.9c0.3,0.1,0.9,0.1,1.4,0.1
								c0.3,0,0.6,0,0.8,0c0.6,0,1.2,0,1.7-0.1c1.7-0.3,2.1-1.2,2.4-2.8c0.1-0.7,0.1-1.9,0.1-3.1c0-1.2-0.1-2.5-0.2-3.3
								c-0.3-1.5-0.8-2.2-2.1-2.4c-0.5-0.1-1.2-0.1-1.9-0.1C414.7,307.9,414.1,307.9,413.7,307.9z"/>
						</g>
					</g>
					<g>
						<g>
							<path class="st1" d="M427.5,311.9c0.6,0.1,1,0.5,1.2,1.3c0.1,0.4,0.1,0.8,0.1,1.2c0,0.2,0,0.4,0,0.6c0,0.4-0.1,0.8-0.1,1.1
								c-0.2,0.7-0.8,1.1-1.5,1.2c-0.2,0-0.6,0-0.9,0c-0.1,0-0.2,0-0.3,0c-0.2,0-0.4,0-0.6-0.1c-0.8-0.1-1.2-0.6-1.3-1.5
								c0-0.3-0.1-0.8-0.1-1.2c0-0.4,0-0.8,0-1.1c0.1-1.1,0.7-1.4,1.4-1.5c0.3,0,0.6-0.1,0.9-0.1c0.2,0,0.4,0,0.6,0
								C427.1,311.8,427.3,311.9,427.5,311.9z M429.8,317.1l-3.6,4.5l-1.7,0l4.2-5l3.6-4.6h1.7L429.8,317.1z M427.4,313.6
								c-0.1-0.4-0.3-0.5-0.5-0.5c-0.1,0-0.3,0-0.5,0c-0.1,0-0.1,0-0.2,0c-0.1,0-0.3,0-0.3,0c-0.3,0-0.5,0.2-0.5,0.6
								c0,0.3,0,0.6,0,0.9c0,0.3,0,0.6,0,0.9c0.1,0.5,0.2,0.6,0.5,0.7c0.1,0,0.2,0,0.4,0c0.1,0,0.2,0,0.4,0c0.1,0,0.2,0,0.3,0
								c0.3,0,0.5-0.3,0.5-0.7c0-0.2,0-0.5,0-0.9C427.4,314.2,427.4,313.8,427.4,313.6z M433.2,316.4c0.7,0.1,1.1,0.5,1.2,1.3
								c0.1,0.4,0.1,0.8,0.1,1.2c0,0.2,0,0.4,0,0.6c0,0.4-0.1,0.8-0.1,1.1c-0.2,0.8-0.7,1.1-1.5,1.2c-0.2,0-0.4,0-0.6,0
								s-0.4,0-0.6,0c-0.2,0-0.4,0-0.6,0c-0.8-0.1-1.2-0.6-1.3-1.5c0-0.3-0.1-0.8-0.1-1.2c0-0.4,0-0.8,0.1-1.1
								c0.1-1,0.8-1.4,1.5-1.5c0.3,0,0.6,0,1,0c0.1,0,0.2,0,0.3,0C432.8,316.3,433.1,316.3,433.2,316.4z M433.2,318.1
								c-0.1-0.4-0.3-0.5-0.5-0.5c-0.1,0-0.3,0-0.5,0c-0.1,0-0.1,0-0.2,0c-0.1,0-0.3,0-0.3,0c-0.3,0-0.5,0.2-0.5,0.6
								c0,0.3,0,0.6,0,0.9c0,0.3,0,0.6,0,0.9c0.1,0.5,0.2,0.6,0.5,0.7c0.1,0,0.2,0,0.4,0c0.1,0,0.2,0,0.4,0c0.1,0,0.2,0,0.3,0
								c0.3,0,0.5-0.3,0.5-0.7c0-0.2,0-0.5,0-0.9C433.2,318.6,433.2,318.3,433.2,318.1z"/>
						</g>
					</g>
				</g>
				<g id="Others">
					<polygon class="st17" points="430.4,260.1 421.6,252.2 406.7,252.2 406.6,252.2 397.8,260.1 402.3,265.7 404.8,264 
						405.6,264.2 405.6,285.2 421.6,285.2 421.6,264.2 422.9,264 425.6,265.7 					"/>
					<path class="st18" d="M417.1,252.7c0,1.7-1.5,3-3.3,3c-1.8,0-3.3-1.3-3.3-3H417.1z"/>
					<path class="st19" d="M417.2,252.2c0,1.9-1.5,3.4-3.4,3.4c-1.9,0-3.4-1.5-3.4-3.4"/>
				</g>
				<g>
					<text transform="matrix(1 0 0 1 399.0857 230.8661)" class="st1 st13 st14">その他</text>
				</g>
			</g>
		</g>
		<g id="Wedding">
			<path class="st0" d="M288,359.3H170.2c-5.5,0-10-4.5-10-10v-328c0-5.5,4.5-10,10-10H288c5.5,0,10,4.5,10,10v328
				C298,354.8,293.5,359.3,288,359.3z"/>
			<g id="Rings">
				<g id="ring_M">
					<ellipse class="st20" cx="185.3" cy="300.3" rx="12.4" ry="13.2"/>
					<ellipse class="st0" cx="185.3" cy="300.3" rx="9.8" ry="10.5"/>
				</g>
				<g id="ring_F_1_">
					<g id="ring_F">
						<ellipse class="st21" cx="207.8" cy="300.3" rx="12.4" ry="13.2"/>
						<ellipse class="st0" cx="207.8" cy="300.3" rx="9.8" ry="10.5"/>
					</g>
					<path class="st18" d="M204.9,278.2l-1.8,2.1l0.1,0.6l4.3,5.8h1.2l4.2-5.8l0.3-0.5l-1.8-2.1c0,0-2.2-0.4-3.3-0.4
						C207,277.8,205.6,277.9,204.9,278.2z"/>
					<g id="diamond">
						<ellipse class="st22" cx="208.1" cy="278.3" rx="3.3" ry="0.5"/>
						<path class="st23" d="M204.6,278.3l-1.5,1.8c-0.2,0.2-0.2,0.5,0,0.7l4.6,6.4"/>
						<polyline class="st23" points="207.9,287.1 205.6,280.7 206.7,278.8 						"/>
						<path class="st23" d="M211.6,278.3l1.5,1.8c0.2,0.2,0.2,0.5,0,0.7l-4.6,6.4"/>
						<polyline class="st23" points="208.3,287.1 210.6,280.7 209.5,278.8 						"/>
						<polyline class="st24" points="203.5,280.5 208.1,280.9 212.6,280.5 						"/>
					</g>
				</g>
				<line class="st25" x1="208.5" y1="272.7" x2="208.5" y2="270.7"/>
				<line class="st26" x1="214.4" y1="275.3" x2="215.3" y2="273.1"/>
				<line class="st26" x1="202.1" y1="275.3" x2="201.2" y2="273.1"/>
			</g>
			<g id="_x36_5__x25_">
				<g>
					<g>
						<path class="st1" d="M246.7,291.2v4.1h-3.8v-4.1h-14.3v-3.6l13.8-15h4.3v15.2h3.2v3.4H246.7z M232.6,287.8l10.2-0.1v-4.4
							l0.1-6.4L232.6,287.8z"/>
						<path class="st1" d="M271.9,290.8c-0.5,2.9-2.4,4.3-5.9,4.7c-1.3,0.1-2.4,0.2-3.7,0.2c-1.1,0-2.2,0-3.3-0.1
							c-4-0.3-6.3-2-6.4-6l0-0.9l3.9,0c0,0.1,0,0.7,0,0.9c0.1,1.7,1.2,2.4,2.9,2.6c1.2,0.1,2.2,0.1,3.1,0.1c1,0,2.1,0,3.1-0.2
							c1.4-0.2,2.4-0.9,2.7-2.1c0.1-0.4,0.1-1.3,0.1-1.9c0-0.5,0-1.3-0.1-1.8c-0.3-1.5-1-2-2.8-2.2c-0.6-0.1-1.5-0.1-2.4-0.1
							c-0.2,0-0.4,0-0.5,0c-1,0-1.9,0.1-2.5,0.1c-1.8,0.2-3.1,1.1-3.4,2.2l-3.7,0.1l0.6-13.4H271v3.6h-14.2l-0.4,5.5
							c0.6-0.4,1.1-0.8,2.1-1.1c1.3-0.4,2.8-0.5,4.2-0.5c0.3,0,0.6,0,0.9,0c1.2,0,2.5,0.1,3.7,0.3c2.1,0.4,3.9,1.3,4.5,3.8
							c0.3,1,0.4,2.3,0.4,3.4C272.1,288.9,272,290,271.9,290.8z"/>
					</g>
				</g>
				<g>
					<g>
						<path class="st1" d="M280.4,281.4c0.9,0.2,1.5,0.7,1.7,1.8c0.1,0.5,0.2,1.1,0.2,1.8c0,0.3,0,0.6,0,0.9c0,0.6-0.1,1.1-0.2,1.5
							c-0.2,1.1-1.2,1.5-2.1,1.6c-0.3,0-0.8,0.1-1.2,0.1c-0.1,0-0.3,0-0.4,0c-0.3,0-0.6-0.1-0.9-0.1c-1.1-0.2-1.7-0.8-1.9-2.1
							c-0.1-0.5-0.1-1.1-0.1-1.7c0-0.6,0-1.2,0.1-1.6c0.2-1.5,1-2,2-2.1c0.4-0.1,0.8-0.1,1.2-0.1c0.3,0,0.5,0,0.8,0
							C279.8,281.3,280.1,281.3,280.4,281.4z M283.7,288.7l-5.1,6.4l-2.4,0l5.9-7.2l5.1-6.5h2.4L283.7,288.7z M280.2,283.8
							c-0.1-0.5-0.4-0.7-0.7-0.8c-0.2,0-0.5,0-0.7,0c-0.1,0-0.2,0-0.3,0c-0.2,0-0.4,0-0.5,0.1c-0.5,0.1-0.7,0.3-0.7,0.8
							c0,0.4-0.1,0.8-0.1,1.2c0,0.4,0,0.9,0.1,1.2c0.1,0.7,0.3,0.9,0.7,1c0.1,0,0.3,0.1,0.5,0.1c0.2,0,0.3,0,0.5,0
							c0.2,0,0.3,0,0.5,0c0.5-0.1,0.7-0.4,0.8-1c0-0.3,0.1-0.8,0.1-1.2C280.3,284.6,280.3,284.1,280.2,283.8z M288.5,287.7
							c0.9,0.2,1.5,0.7,1.7,1.8c0.1,0.5,0.2,1.1,0.2,1.8c0,0.3,0,0.6,0,0.9c0,0.6-0.1,1.1-0.2,1.5c-0.2,1.1-1,1.5-2.1,1.6
							c-0.3,0-0.5,0-0.8,0s-0.6,0-0.9,0c-0.3,0-0.6,0-0.9-0.1c-1.2-0.2-1.8-0.8-1.9-2.1c-0.1-0.5-0.1-1.1-0.1-1.7
							c0-0.6,0.1-1.2,0.1-1.6c0.2-1.4,1.1-2,2.1-2.2c0.4-0.1,0.9-0.1,1.4-0.1c0.1,0,0.3,0,0.4,0
							C287.9,287.6,288.3,287.6,288.5,287.7z M288.4,290.1c-0.1-0.5-0.4-0.7-0.7-0.8c-0.2,0-0.5,0-0.7,0c-0.1,0-0.2,0-0.3,0
							c-0.2,0-0.4,0-0.5,0.1c-0.5,0.1-0.7,0.3-0.7,0.8c0,0.4-0.1,0.8-0.1,1.2c0,0.4,0,0.9,0.1,1.2c0.1,0.7,0.3,0.9,0.7,1
							c0.1,0,0.3,0.1,0.5,0.1c0.2,0,0.3,0,0.5,0c0.2,0,0.3,0,0.5,0c0.5-0.1,0.7-0.4,0.8-1c0-0.3,0.1-0.8,0.1-1.2
							C288.5,290.9,288.5,290.4,288.4,290.1z"/>
					</g>
				</g>
			</g>
			<g>
				<text transform="matrix(1 0 0 1 231.1794 313.4609)" class="st1 st13 st27">既婚者</text>
			</g>
			<g id="wineglass_2_">
				<path class="st28" d="M176.8,176.1c0,0,6.6,11.9,6.8,12.1c0.1,0.1,0.5,0.5,1,0.5c0.6,0,1.1-0.5,1.1-0.5l6.6-12.2
					c0,0,0.4-0.7-3.4-1.3c0,0-3.5-0.4-5.8-0.2c-2.2,0.2-4.8,0.3-5.9,0.9C177.2,175.3,176.8,175.7,176.8,176.1z"/>
				<path class="st18" d="M202.8,176.1c0,0,6.6,11.9,6.8,12.1c0.1,0.1,0.5,0.5,1,0.5c0.6,0,1.1-0.5,1.1-0.5l6.6-12.2
					c0,0,0.4-0.7-3.4-1.3c0,0-3.5-0.4-5.8-0.2c-2.2,0.2-4.8,0.3-5.9,0.9C203.2,175.3,202.8,175.7,202.8,176.1z"/>
				<g id="wineglass">
					<path class="st25" d="M185.5,196.3v-7.7l10.8-20.4h-0.4c0.2,0,0.4,0,0.4-0.2c0-0.8-5.3-1.3-11.9-1.3c-6.6,0-11.9,0.5-11.9,1.2
						c0,0.1,0.1,0.2,0.4,0.2h-0.4c0,0,8,14.9,11,20.4v7.6l-3.6,3.5c-0.3,0.3-0.1,0.8,0.2,1c0.8,0.4,2.3,0.9,4.3,0.9
						c2,0,3.5-0.5,4.3-0.9c0.4-0.2,0.6-0.7,0.3-1L185.5,196.3z"/>
					<ellipse class="st29" cx="184.4" cy="175.8" rx="7.7" ry="1.3"/>
					<ellipse class="st30" cx="184.4" cy="168.2" rx="11.9" ry="1.4"/>
					<g id="orange">
						<path class="st31" d="M173.5,168.7l-5-8.7c2.1-1.5,5.4,0.1,7.4,3.5c1.1,1.9,1.5,3.9,1.4,5.6L173.5,168.7z"/>
						<path class="st32" d="M176.7,169.2c0.2-1.6-0.1-3.6-1.2-5.4c-1.7-3-4.6-4.4-6.4-3.1l4.6,8L176.7,169.2z"/>
					</g>
				</g>
				<g id="wineglass_1_">
					<path class="st25" d="M209.5,196.3v-7.7l-11.1-20.4h0.4c-0.2,0-0.4,0-0.4-0.2c0-0.8,5.3-1.3,11.9-1.3c6.6,0,11.9,0.5,11.9,1.2
						c0,0.1-0.1,0.2-0.4,0.2h0.4c0,0-7.8,14.9-10.8,20.4v7.6l3.5,3.5c0.3,0.3,0.1,0.8-0.3,1c-0.8,0.4-2.3,0.9-4.4,0.9
						c-2,0-3.5-0.5-4.3-0.9c-0.4-0.2-0.5-0.7-0.2-1L209.5,196.3z"/>
					<ellipse class="st29" cx="210.4" cy="175.8" rx="7.6" ry="1.3"/>
					<ellipse class="st30" cx="210.4" cy="168.2" rx="11.9" ry="1.4"/>
					<g id="orange_1_">
						<path class="st31" d="M221.4,168.7l5-8.7c-2.1-1.5-5.4,0.1-7.4,3.5c-1.1,1.9-1.5,3.9-1.4,5.6L221.4,168.7z"/>
						<path class="st32" d="M218.2,169.2c-0.2-1.6,0.1-3.6,1.2-5.4c1.7-3,4.6-4.4,6.4-3.1l-4.6,8L218.2,169.2z"/>
					</g>
				</g>
			</g>
			<g id="_x33_5_x25_">
				<g>
					<g>
						<path class="st1" d="M249.2,180c-0.5,2.9-2.4,4.3-5.9,4.7c-1.3,0.1-2.4,0.2-3.7,0.2c-1.1,0-2.2,0-3.3-0.1c-4-0.3-6.3-2-6.4-6
							l0-0.9l3.9,0c0,0.1,0,0.7,0,0.9c0.1,1.7,1.2,2.4,2.9,2.6c1.2,0.1,2.2,0.1,3.1,0.1c1,0,2.1,0,3.1-0.2c1.4-0.2,2.4-0.9,2.7-2.1
							c0.1-0.4,0.1-1.3,0.1-1.9c0-0.5,0-1.3-0.1-1.8c-0.3-1.5-1-2-2.8-2.2c-0.6-0.1-1.5-0.1-2.4-0.1c-0.2,0-0.4,0-0.5,0
							c-1,0-1.9,0.1-2.5,0.1c-1.8,0.2-3.1,1.1-3.4,2.2l-3.7,0.1l0.6-13.4h17.6v3.6h-14.2l-0.4,5.5c0.6-0.4,1.1-0.8,2.1-1.1
							c1.3-0.4,2.8-0.5,4.2-0.5c0.3,0,0.6,0,0.9,0c1.2,0,2.5,0.1,3.7,0.3c2.1,0.4,3.9,1.3,4.5,3.8c0.3,1,0.4,2.3,0.4,3.4
							C249.4,178.1,249.3,179.2,249.2,180z"/>
						<path class="st1" d="M272.1,180c-0.5,2.9-2.4,4.3-5.9,4.7c-1.3,0.1-2.4,0.2-3.7,0.2c-1.1,0-2.2,0-3.3-0.1c-4-0.3-6.3-2-6.4-6
							l0-0.9l3.9,0c0,0.1,0,0.7,0,0.9c0.1,1.7,1.2,2.4,2.9,2.6c1.2,0.1,2.2,0.1,3.1,0.1c1,0,2.1,0,3.1-0.2c1.4-0.2,2.4-0.9,2.7-2.1
							c0.1-0.4,0.1-1.3,0.1-1.9c0-0.5,0-1.3-0.1-1.8c-0.3-1.5-1-2-2.8-2.2c-0.6-0.1-1.5-0.1-2.4-0.1c-0.2,0-0.4,0-0.5,0
							c-1,0-1.9,0.1-2.5,0.1c-1.8,0.2-3.1,1.1-3.4,2.2l-3.7,0.1l0.6-13.4h17.6v3.6H257l-0.4,5.5c0.6-0.4,1.1-0.8,2.1-1.1
							c1.3-0.4,2.8-0.5,4.2-0.5c0.3,0,0.6,0,0.9,0c1.2,0,2.5,0.1,3.7,0.3c2.1,0.4,3.9,1.3,4.5,3.8c0.3,1,0.4,2.3,0.4,3.4
							C272.4,178.1,272.3,179.2,272.1,180z"/>
					</g>
				</g>
				<g>
					<g>
						<path class="st1" d="M280.6,170.6c0.9,0.2,1.5,0.7,1.7,1.8c0.1,0.5,0.2,1.1,0.2,1.8c0,0.3,0,0.6,0,0.9c0,0.6-0.1,1.1-0.2,1.5
							c-0.2,1.1-1.2,1.5-2.1,1.6c-0.3,0-0.8,0.1-1.2,0.1c-0.1,0-0.3,0-0.4,0c-0.3,0-0.6-0.1-0.9-0.1c-1.1-0.2-1.7-0.8-1.9-2.1
							c-0.1-0.5-0.1-1.1-0.1-1.7c0-0.6,0-1.2,0.1-1.6c0.2-1.5,1-2,2-2.1c0.4-0.1,0.8-0.1,1.2-0.1c0.3,0,0.5,0,0.8,0
							C280,170.5,280.3,170.5,280.6,170.6z M283.9,177.9l-5.1,6.4l-2.4,0l5.9-7.2l5.1-6.5h2.4L283.9,177.9z M280.4,173
							c-0.1-0.5-0.4-0.7-0.7-0.8c-0.2,0-0.5,0-0.7,0c-0.1,0-0.2,0-0.3,0c-0.2,0-0.4,0-0.5,0.1c-0.5,0.1-0.7,0.3-0.7,0.8
							c0,0.4-0.1,0.8-0.1,1.2c0,0.4,0,0.8,0.1,1.2c0.1,0.7,0.3,0.9,0.7,1c0.1,0,0.3,0.1,0.5,0.1c0.2,0,0.3,0,0.5,0
							c0.2,0,0.3,0,0.5,0c0.5-0.1,0.7-0.4,0.8-1c0-0.3,0.1-0.8,0.1-1.2C280.5,173.8,280.5,173.3,280.4,173z M288.8,176.9
							c0.9,0.2,1.5,0.7,1.7,1.8c0.1,0.5,0.2,1.1,0.2,1.8c0,0.3,0,0.6,0,0.9c0,0.6-0.1,1.1-0.2,1.5c-0.2,1.1-1,1.5-2.1,1.6
							c-0.3,0-0.5,0-0.8,0s-0.6,0-0.9,0c-0.3,0-0.6,0-0.9-0.1c-1.2-0.2-1.8-0.8-1.9-2.1c-0.1-0.5-0.1-1.1-0.1-1.7
							c0-0.6,0.1-1.2,0.1-1.6c0.2-1.4,1.1-2,2.1-2.2c0.4-0.1,0.9-0.1,1.4-0.1c0.1,0,0.3,0,0.4,0
							C288.1,176.8,288.5,176.9,288.8,176.9z M288.7,179.3c-0.1-0.5-0.4-0.7-0.7-0.8c-0.2,0-0.5,0-0.7,0c-0.1,0-0.2,0-0.3,0
							c-0.2,0-0.4,0-0.5,0.1c-0.5,0.1-0.7,0.3-0.7,0.8c0,0.4-0.1,0.8-0.1,1.2c0,0.4,0,0.8,0.1,1.2c0.1,0.7,0.3,0.9,0.7,1
							c0.1,0,0.3,0.1,0.5,0.1c0.2,0,0.3,0,0.5,0c0.2,0,0.3,0,0.5,0c0.5-0.1,0.7-0.4,0.8-1c0-0.3,0.1-0.8,0.1-1.2
							C288.7,180.1,288.7,179.6,288.7,179.3z"/>
					</g>
				</g>
			</g>
			<g>
				<text transform="matrix(1 0 0 1 231.1794 201.6738)" class="st1 st13 st27">未婚者</text>
			</g>
			<g>
				<text transform="matrix(1 0 0 1 168.2068 52.329)"><tspan x="0" y="0" class="st1 st13 st14">既婚者の方でも存分にご活躍頂け</tspan><tspan x="0" y="14" class="st1 st13 st14">る環境を用意しています。家族と</tspan><tspan x="0" y="28" class="st1 st13 st14">の時間を大切にしたいという社員</tspan><tspan x="0" y="42" class="st1 st13 st14">思いを尊重します</tspan><tspan x="64" y="42" class="st1 st13 st14 st33">。</tspan><tspan x="0" y="70" class="st1 st13 st14">既婚者の方でも存分にご活躍頂け</tspan><tspan x="0" y="84" class="st1 st13 st14">る環境を用意しています</tspan><tspan x="88" y="84" class="st1 st13 st14 st33">。</tspan></text>
			</g>
			<g>
				<text transform="matrix(1 0 0 1 190.2268 32.1738)" class="st1 st2 st3">未婚既婚の割合</text>
			</g>
		</g>
		<g id="Lunch">
			<path class="st0" d="M138.2,359.2H20.4c-5.5,0-10-4.5-10-10v-328c0-5.5,4.5-10,10-10h117.8c5.5,0,10,4.5,10,10v328
				C148.2,354.7,143.7,359.2,138.2,359.2z"/>
			<g id="その他">
				<g>
					<text transform="matrix(1 0 0 1 105.5474 326.4609)" class="st1 st2 st14">その他</text>
				</g>
				<g>
					<g>
						<text transform="matrix(1 0 0 1 101.5469 337.9199)" class="st1 st34 st35">１５</text>
					</g>
					<g>
						<text transform="matrix(1 0 0 1 123.6299 337.9194)" class="st1 st34 st36">％</text>
					</g>
				</g>
			</g>
			<g id="コンビニ">
				<g>
					<text transform="matrix(1 0 0 1 32.5474 286.2324)" class="st1 st2 st14">コンビニ</text>
				</g>
				<g>
					<g>
						<text transform="matrix(1 0 0 1 32.5469 297.9199)" class="st1 st34 st35">１５</text>
					</g>
					<g>
						<text transform="matrix(1 0 0 1 54.6299 297.9194)" class="st1 st34 st36">％</text>
					</g>
				</g>
			</g>
			<g id="手作り">
				<g>
					<text transform="matrix(1 0 0 1 98.5474 243.9199)" class="st1 st2 st14">手作り弁当</text>
				</g>
				<g>
					<g>
						<text transform="matrix(1 0 0 1 101.5469 255.9199)" class="st1 st34 st35">１５</text>
					</g>
					<g>
						<text transform="matrix(1 0 0 1 123.6299 255.9194)" class="st1 st34 st36">％</text>
					</g>
				</g>
			</g>
			<g id="食堂">
				<g>
					<text transform="matrix(1 0 0 1 18.2969 178.3408)"><tspan x="0" y="0" class="st1 st2 st35">お客さま先</tspan><tspan x="11" y="19.2" class="st1 st2 st35">の食堂</tspan></text>
				</g>
				<g>
					<text transform="matrix(1 0 0 1 30.8799 210.8661)" class="st1 st34 st3">２５</text>
				</g>
				<g>
					<text transform="matrix(1 0 0 1 54.7129 210.8667)" class="st1 st34 st36">％</text>
				</g>
			</g>
			<g id="外食">
				<g>
					<text transform="matrix(1 0 0 1 29.5474 109.3408)" class="st1 st2 st37">外食</text>
				</g>
				<g>
					<text transform="matrix(1 0 0 1 31.7974 125.5903)" class="st1 st34 st38">３０</text>
				</g>
				<g>
					<text transform="matrix(1 0 0 1 57.7144 125.5903)" class="st1 st34 st36">％</text>
				</g>
			</g>
			<g id="graph_pattern_1_" class="st4">
				<rect x="24.1" y="45.7" class="st5" width="18.5" height="28.7"/>
				<rect x="24.1" y="75.7" class="st5" width="18.5" height="28.7"/>
				<rect x="24.1" y="105.8" class="st5" width="18.5" height="28.7"/>
				<rect x="24.1" y="135.9" class="st5" width="18.5" height="28.7"/>
				<rect x="24.1" y="165.9" class="st5" width="18.5" height="28.7"/>
				<rect x="24.1" y="196" class="st5" width="18.5" height="28.7"/>
				<rect x="24.1" y="226" class="st5" width="18.5" height="28.7"/>
				<rect x="24.1" y="256.1" class="st5" width="18.5" height="28.7"/>
				<rect x="24.1" y="286.1" class="st5" width="18.5" height="28.7"/>
				<rect x="24.1" y="316.2" class="st5" width="18.5" height="28.7"/>
			</g>
			<g id="fork">
				
					<rect x="36.8" y="29.9" transform="matrix(6.123234e-17 -1 1 6.123234e-17 -20.0341 98.6347)" class="st1" width="5.1" height="58.8"/>
				<g>
					<path class="st1" d="M80.3,69.5h-4.5c-5.8,0-10.6-3.4-10.6-7.5c0,0-0.7-1.2-0.7-2.7c0-1.5,0.7-2.6,0.7-2.6
						c0-4.1,4.8-7.6,10.6-7.6h4.5V69.5z"/>
					<path class="st1" d="M77.9,67.9L77.9,67.9c0,0.9,0.7,1.6,1.6,1.6h15.8c0.9,0,1.6-0.7,1.6-1.6l0,0c0-0.9-0.7-1.6-1.6-1.6H79.5
						C78.6,66.3,77.9,67.1,77.9,67.9z"/>
					<path class="st1" d="M78.1,62L78.1,62c0,0.9,0.7,1.6,1.6,1.6h15.8c0.9,0,1.6-0.7,1.6-1.6l0,0c0-0.9-0.7-1.6-1.6-1.6H79.7
						C78.8,60.4,78.1,61.1,78.1,62z"/>
					<path class="st1" d="M77.9,56.7L77.9,56.7c0,0.9,0.7,1.6,1.6,1.6h15.8c0.9,0,1.6-0.7,1.6-1.6l0,0c0-0.9-0.7-1.6-1.6-1.6H79.5
						C78.6,55.1,77.9,55.8,77.9,56.7z"/>
					<path class="st1" d="M77.9,50.7L77.9,50.7c0,0.9,0.7,1.6,1.6,1.6h15.8c0.9,0,1.6-0.7,1.6-1.6l0,0c0-0.9-0.7-1.6-1.6-1.6H79.5
						C78.6,49.2,77.9,49.9,77.9,50.7z"/>
				</g>
			</g>
			<g id="graph_lunch">
				<rect x="81.5" y="48.1" class="st39" width="4.3" height="104.4"/>
				<rect x="81.5" y="154.5" class="st39" width="4.3" height="68.5"/>
				<rect x="81.5" y="306" class="st39" width="4.3" height="40.9"/>
				<rect x="81.5" y="264.9" class="st39" width="4.3" height="40.3"/>
				<rect x="81.5" y="224.4" class="st39" width="4.3" height="39"/>
			</g>
			<g id="graph_lunch_1_">
				<rect x="86.5" y="48.1" class="st39" width="2.8" height="104.4"/>
				<rect x="86.5" y="154.5" class="st39" width="2.8" height="68.5"/>
				<rect x="86.5" y="306" class="st39" width="2.8" height="40.9"/>
				<rect x="86.5" y="264.9" class="st39" width="2.8" height="40.3"/>
				<rect x="86.5" y="224.4" class="st39" width="2.8" height="39"/>
			</g>
			<g id="graph_lunch_2_">
				<rect x="89.5" y="48.1" class="st40" width="1.3" height="104.4"/>
				<rect x="89.5" y="154.5" class="st40" width="1.3" height="68.5"/>
				<rect x="89.5" y="306" class="st40" width="1.3" height="40.9"/>
				<rect x="89.5" y="264.9" class="st40" width="1.3" height="40.3"/>
				<rect x="89.5" y="224.4" class="st40" width="1.3" height="39"/>
			</g>
			<g>
				<text transform="matrix(1 0 0 1 40.2334 32.1738)" class="st1 st2 st3">ランチパターン</text>
			</g>
		</g>
	</g>
</g>
</svg>
