<?xml version="1.0" encoding="utf-8"?>
<!-- Generator: Adobe Illustrator 19.2.0, SVG Export Plug-In . SVG Version: 6.00 Build 0)  -->
<svg version="1.1" id="Main_Layer" xmlns="http://www.w3.org/2000/svg" xmlns:xlink="http://www.w3.org/1999/xlink" x="0px" y="0px"
	 viewBox="0 0 465.2 367.1" style="enable-background:new 0 0 465.2 367.1;" xml:space="preserve">
<style type="text/css">
	
		.st0{clip-path:url(#_x33__1_);fill:#FFFFFF;stroke:#3E3A39;stroke-width:2.8361;stroke-linecap:round;stroke-linejoin:round;stroke-miterlimit:10;}
	.st1{clip-path:url(#_x33__1_);}
	.st2{fill:#B3EDFF;}
	.st3{fill:#ECECF5;stroke:#3E3A39;stroke-width:2;stroke-miterlimit:10;}
	.st4{fill:#E45751;}
	.st5{clip-path:url(#SVGID_2_);}
	.st6{fill:#DD3B40;}
	.st7{fill:none;stroke:#3E3A39;stroke-miterlimit:10;}
	.st8{display:none;fill:#DD3B40;}
	.st9{fill:#3E3A39;}
	.st10{fill:#FFFFFF;stroke:#3E3A39;stroke-miterlimit:10;}
	.st11{fill:#ECECF5;}
	.st12{fill:#CC2E3A;}
	.st13{fill:#F27968;}
	.st14{font-family:'NewRodinPro-B-83pv-RKSJ-H';}
	.st15{font-size:6px;}
	.st16{font-size:5px;}
	.st17{fill:#FFFFFF;}
	.st18{clip-path:url(#SVGID_4_);}
	.st19{clip-path:url(#SVGID_6_);}
	.st20{clip-path:url(#SVGID_8_);}
	.st21{clip-path:url(#SVGID_10_);}
	.st22{fill:#57C14C;stroke:#3E3A39;stroke-miterlimit:10;}
	.st23{clip-path:url(#SVGID_12_);fill:#54AD4B;}
	.st24{fill:none;stroke:#3E3A39;stroke-linecap:round;stroke-linejoin:round;stroke-miterlimit:10;}
	.st25{clip-path:url(#SVGID_14_);fill:#54AD4B;}
	.st26{fill:#64C8FF;}
	.st27{fill:none;stroke:#3E3A39;stroke-width:2.8361;stroke-linecap:round;stroke-linejoin:round;stroke-miterlimit:10;}
	.st28{fill:#FFFFFF;stroke:#3E3A39;stroke-width:2.8361;stroke-linecap:round;stroke-linejoin:round;stroke-miterlimit:10;}
	.st29{fill:#FFFFFF;stroke:#3E3A39;stroke-width:1.1658;stroke-linecap:round;stroke-linejoin:round;stroke-miterlimit:10;}
	.st30{fill:#635568;stroke:#3E3A39;stroke-width:0.7068;stroke-linecap:round;stroke-linejoin:round;stroke-miterlimit:10;}
	.st31{fill:#FFFFFF;stroke:#3E3A39;stroke-width:1.0596;stroke-linecap:round;stroke-linejoin:round;stroke-miterlimit:10;}
	.st32{fill:#FFFFFF;stroke:#3E3A39;stroke-width:1.2669;stroke-linecap:round;stroke-linejoin:round;stroke-miterlimit:10;}
	.st33{fill:#433B4B;}
	.st34{fill:#635568;}
	.st35{fill:#ECECF5;stroke:#3E3A39;stroke-width:1.2575;stroke-linecap:round;stroke-linejoin:round;stroke-miterlimit:10;}
	.st36{fill:#FFFFFF;stroke:#3E3A39;stroke-width:1.0698;stroke-linecap:round;stroke-linejoin:round;stroke-miterlimit:10;}
	.st37{fill:#FFFFFF;stroke:#3E3A39;stroke-linecap:round;stroke-linejoin:round;stroke-miterlimit:10;}
	.st38{fill:#635568;stroke:#3E3A39;stroke-width:0.4218;stroke-linecap:round;stroke-linejoin:round;stroke-miterlimit:10;}
	.st39{fill:#FFFFFF;stroke:#3E3A39;stroke-width:0.5595;stroke-linecap:round;stroke-linejoin:round;stroke-miterlimit:10;}
	.st40{fill:#635568;stroke:#3E3A39;stroke-width:1.1419;stroke-linecap:round;stroke-linejoin:round;stroke-miterlimit:10;}
	.st41{clip-path:url(#_x32__1_);}
	.st42{fill:#64C8FF;stroke:#3E3A39;stroke-linecap:round;stroke-linejoin:round;stroke-miterlimit:10;}
	.st43{fill:#676259;stroke:#3E3A39;stroke-linecap:round;stroke-linejoin:round;stroke-miterlimit:10;}
	.st44{clip-path:url(#SVGID_16_);fill:#FFFFFF;stroke:#3E3A39;stroke-linecap:round;stroke-linejoin:round;stroke-miterlimit:10;}
	.st45{fill:#7F7369;stroke:#3E3A39;stroke-linecap:round;stroke-linejoin:round;stroke-miterlimit:10;}
	.st46{clip-path:url(#SVGID_18_);fill:#ECECF5;}
	.st47{clip-path:url(#SVGID_18_);fill:#64C8FF;}
	.st48{fill:#FFFFFF;stroke:#3E3A39;stroke-width:2;stroke-linecap:round;stroke-linejoin:round;stroke-miterlimit:10;}
	.st49{clip-path:url(#SVGID_20_);fill:#DD3B40;}
	.st50{fill:none;stroke:#3E3A39;stroke-linejoin:round;stroke-miterlimit:10;}
	.st51{fill:#C2CEE6;stroke:#3E3A39;stroke-linecap:round;stroke-linejoin:round;stroke-miterlimit:10;}
	.st52{fill:#ECECF5;stroke:#3E3A39;stroke-linecap:round;stroke-linejoin:round;stroke-miterlimit:10;}
	.st53{clip-path:url(#SVGID_22_);fill:#ECECF5;}
	.st54{clip-path:url(#SVGID_22_);fill:#E45751;}
</style>
<g id="Sample_PopUp">
	<g id="社員属性_x2462__1_">
		<g id="社員属性3">
			<g id="Box__xFF13_">
				<g>
					<defs>
						<path id="_x33__4_" d="M434.8,351.5H323.3c-7.2,0-13.1-5.9-13.1-13.1V26.8c0-7.2,5.9-13.1,13.1-13.1h111.5
							c7.2,0,13.1,5.9,13.1,13.1v311.6C448,345.7,442.1,351.5,434.8,351.5z"/>
					</defs>
					<clipPath id="_x33__1_">
						<use xlink:href="#_x33__4_"  style="overflow:visible;"/>
					</clipPath>
					<path id="_x33__8_" class="st0" d="M434.8,351.5H323.3c-7.2,0-13.1-5.9-13.1-13.1V26.8c0-7.2,5.9-13.1,13.1-13.1h111.5
						c7.2,0,13.1,5.9,13.1,13.1v311.6C448,345.7,442.1,351.5,434.8,351.5z"/>
					<g id="Gallery_1_" class="st1">
						<g>
							
								<rect x="307.7" y="257.8" transform="matrix(-1 -1.224647e-16 1.224647e-16 -1 756.9088 627.1754)" class="st2" width="141.6" height="111.6"/>
							
								<rect x="307.7" y="242.7" transform="matrix(-1 -1.224647e-16 1.224647e-16 -1 756.9088 494.8773)" class="st2" width="141.6" height="9.5"/>
							
								<rect x="307.7" y="233.7" transform="matrix(-1 -1.224647e-16 1.224647e-16 -1 756.9088 472.4253)" class="st2" width="141.6" height="5"/>
						</g>
						<polygon class="st3" points="275.9,326 492.9,326 492.9,352 275.9,352 275.9,326 						"/>
						<g id="BLDG_2_">
							<path class="st4" d="M406,325.2h-47.9V254c0-0.8,0.7-1.5,1.5-1.5h45c0.8,0,1.5,0.7,1.5,1.5V325.2z"/>
							<g>
								<defs>
									<rect id="SVGID_1_" x="358.1" y="252.5" width="47.9" height="72.7"/>
								</defs>
								<clipPath id="SVGID_2_">
									<use xlink:href="#SVGID_1_"  style="overflow:visible;"/>
								</clipPath>
								<g class="st5">
									<g>
										<rect x="358.1" y="252.1" class="st6" width="4.9" height="3.1"/>
										<rect x="363.9" y="252.1" class="st6" width="4.9" height="3.1"/>
										<rect x="369.7" y="252.1" class="st6" width="4.9" height="3.1"/>
										<rect x="375.6" y="252.1" class="st6" width="4.9" height="3.1"/>
										<rect x="381.4" y="252.1" class="st6" width="4.9" height="3.1"/>
										<rect x="387.2" y="252.1" class="st6" width="4.9" height="3.1"/>
										<rect x="393" y="252.1" class="st6" width="4.9" height="3.1"/>
										<rect x="398.8" y="252.1" class="st6" width="4.9" height="3.1"/>
										<rect x="404.6" y="252.1" class="st6" width="4.9" height="3.1"/>
										<rect x="350.5" y="255.7" class="st6" width="4.9" height="3.1"/>
										<rect x="356.3" y="255.7" class="st6" width="4.9" height="3.1"/>
										<rect x="362.1" y="255.7" class="st6" width="4.9" height="3.1"/>
										<rect x="367.9" y="255.7" class="st6" width="4.9" height="3.1"/>
										<rect x="373.7" y="255.7" class="st6" width="4.9" height="3.1"/>
										<rect x="379.6" y="255.7" class="st6" width="4.9" height="3.1"/>
										<rect x="385.4" y="255.7" class="st6" width="4.9" height="3.1"/>
										<rect x="391.2" y="255.7" class="st6" width="4.9" height="3.1"/>
										<rect x="397" y="255.7" class="st6" width="4.9" height="3.1"/>
										<rect x="402.8" y="255.7" class="st6" width="4.9" height="3.1"/>
									</g>
									<g>
										<rect x="358.2" y="259.5" class="st6" width="4.9" height="3.1"/>
										<rect x="364" y="259.5" class="st6" width="4.9" height="3.1"/>
										<rect x="369.8" y="259.5" class="st6" width="4.9" height="3.1"/>
										<rect x="375.6" y="259.5" class="st6" width="4.9" height="3.1"/>
										<rect x="381.4" y="259.5" class="st6" width="4.9" height="3.1"/>
										<rect x="387.2" y="259.5" class="st6" width="4.9" height="3.1"/>
										<rect x="393" y="259.5" class="st6" width="4.9" height="3.1"/>
										<rect x="398.8" y="259.5" class="st6" width="4.9" height="3.1"/>
										<rect x="404.7" y="259.5" class="st6" width="4.9" height="3.1"/>
										<rect x="350.5" y="263.1" class="st6" width="4.9" height="3.1"/>
										<rect x="356.3" y="263.1" class="st6" width="4.9" height="3.1"/>
										<rect x="362.2" y="263.1" class="st6" width="4.9" height="3.1"/>
										<rect x="368" y="263.1" class="st6" width="4.9" height="3.1"/>
										<rect x="373.8" y="263.1" class="st6" width="4.9" height="3.1"/>
										<rect x="379.6" y="263.1" class="st6" width="4.9" height="3.1"/>
										<rect x="385.4" y="263.1" class="st6" width="4.9" height="3.1"/>
										<rect x="391.2" y="263.1" class="st6" width="4.9" height="3.1"/>
										<rect x="397" y="263.1" class="st6" width="4.9" height="3.1"/>
										<rect x="402.8" y="263.1" class="st6" width="4.9" height="3.1"/>
									</g>
									<g>
										<rect x="358.2" y="266.9" class="st6" width="4.9" height="3.1"/>
										<rect x="364" y="266.9" class="st6" width="4.9" height="3.1"/>
										<rect x="369.8" y="266.9" class="st6" width="4.9" height="3.1"/>
										<rect x="375.6" y="266.9" class="st6" width="4.9" height="3.1"/>
										<rect x="381.4" y="266.9" class="st6" width="4.9" height="3.1"/>
										<rect x="387.2" y="266.9" class="st6" width="4.9" height="3.1"/>
										<rect x="393" y="266.9" class="st6" width="4.9" height="3.1"/>
										<rect x="398.9" y="266.9" class="st6" width="4.9" height="3.1"/>
										<rect x="404.7" y="266.9" class="st6" width="4.9" height="3.1"/>
										<rect x="350.5" y="270.5" class="st6" width="4.9" height="3.1"/>
										<rect x="356.4" y="270.5" class="st6" width="4.9" height="3.1"/>
										<rect x="362.2" y="270.5" class="st6" width="4.9" height="3.1"/>
										<rect x="368" y="270.5" class="st6" width="4.9" height="3.1"/>
										<rect x="373.8" y="270.5" class="st6" width="4.9" height="3.1"/>
										<rect x="379.6" y="270.5" class="st6" width="4.9" height="3.1"/>
										<rect x="385.4" y="270.5" class="st6" width="4.9" height="3.1"/>
										<rect x="391.2" y="270.5" class="st6" width="4.9" height="3.1"/>
										<rect x="397" y="270.5" class="st6" width="4.9" height="3.1"/>
										<rect x="402.9" y="270.5" class="st6" width="4.9" height="3.1"/>
									</g>
									<g>
										<rect x="358.2" y="274.3" class="st6" width="4.9" height="3.1"/>
										<rect x="364" y="274.3" class="st6" width="4.9" height="3.1"/>
										<rect x="369.8" y="274.3" class="st6" width="4.9" height="3.1"/>
										<rect x="375.6" y="274.3" class="st6" width="4.9" height="3.1"/>
										<rect x="381.4" y="274.3" class="st6" width="4.9" height="3.1"/>
										<rect x="387.3" y="274.3" class="st6" width="4.9" height="3.1"/>
										<rect x="393.1" y="274.3" class="st6" width="4.9" height="3.1"/>
										<rect x="398.9" y="274.3" class="st6" width="4.9" height="3.1"/>
										<rect x="404.7" y="274.3" class="st6" width="4.9" height="3.1"/>
										<rect x="350.6" y="277.9" class="st6" width="4.9" height="3.1"/>
										<rect x="356.4" y="277.9" class="st6" width="4.9" height="3.1"/>
										<rect x="362.2" y="277.9" class="st6" width="4.9" height="3.1"/>
										<rect x="368" y="277.9" class="st6" width="4.9" height="3.1"/>
										<rect x="373.8" y="277.9" class="st6" width="4.9" height="3.1"/>
										<rect x="379.6" y="277.9" class="st6" width="4.9" height="3.1"/>
										<rect x="385.4" y="277.9" class="st6" width="4.9" height="3.1"/>
										<rect x="391.3" y="277.9" class="st6" width="4.9" height="3.1"/>
										<rect x="397.1" y="277.9" class="st6" width="4.9" height="3.1"/>
										<rect x="402.9" y="277.9" class="st6" width="4.9" height="3.1"/>
									</g>
									<g>
										<rect x="358.6" y="281.7" class="st6" width="4.9" height="3.1"/>
										<rect x="364.4" y="281.7" class="st6" width="4.9" height="3.1"/>
										<rect x="370.2" y="281.7" class="st6" width="4.9" height="3.1"/>
										<rect x="376" y="281.7" class="st6" width="4.9" height="3.1"/>
										<rect x="381.8" y="281.7" class="st6" width="4.9" height="3.1"/>
										<rect x="387.6" y="281.7" class="st6" width="4.9" height="3.1"/>
										<rect x="393.4" y="281.7" class="st6" width="4.9" height="3.1"/>
										<rect x="399.2" y="281.7" class="st6" width="4.9" height="3.1"/>
										<rect x="405.1" y="281.7" class="st6" width="4.9" height="3.1"/>
										<rect x="350.9" y="285.3" class="st6" width="4.9" height="3.1"/>
										<rect x="356.7" y="285.3" class="st6" width="4.9" height="3.1"/>
										<rect x="362.6" y="285.3" class="st6" width="4.9" height="3.1"/>
										<rect x="368.4" y="285.3" class="st6" width="4.9" height="3.1"/>
										<rect x="374.2" y="285.3" class="st6" width="4.9" height="3.1"/>
										<rect x="380" y="285.3" class="st6" width="4.9" height="3.1"/>
										<rect x="385.8" y="285.3" class="st6" width="4.9" height="3.1"/>
										<rect x="391.6" y="285.3" class="st6" width="4.9" height="3.1"/>
										<rect x="397.4" y="285.3" class="st6" width="4.9" height="3.1"/>
										<rect x="403.2" y="285.3" class="st6" width="4.9" height="3.1"/>
									</g>
									<g>
										<rect x="358.6" y="289.1" class="st6" width="4.9" height="3.1"/>
										<rect x="364.4" y="289.1" class="st6" width="4.9" height="3.1"/>
										<rect x="370.2" y="289.1" class="st6" width="4.9" height="3.1"/>
										<rect x="376" y="289.1" class="st6" width="4.9" height="3.1"/>
										<rect x="381.8" y="289.1" class="st6" width="4.9" height="3.1"/>
										<rect x="387.7" y="289.1" class="st6" width="4.9" height="3.1"/>
										<rect x="393.5" y="289.1" class="st6" width="4.9" height="3.1"/>
										<rect x="399.3" y="289.1" class="st6" width="4.9" height="3.1"/>
										<rect x="405.1" y="289.1" class="st6" width="4.9" height="3.1"/>
										<rect x="351" y="292.7" class="st6" width="4.9" height="3.1"/>
										<rect x="356.8" y="292.7" class="st6" width="4.9" height="3.1"/>
										<rect x="362.6" y="292.7" class="st6" width="4.9" height="3.1"/>
										<rect x="368.4" y="292.7" class="st6" width="4.9" height="3.1"/>
										<rect x="374.2" y="292.7" class="st6" width="4.9" height="3.1"/>
										<rect x="380" y="292.7" class="st6" width="4.9" height="3.1"/>
										<rect x="385.8" y="292.7" class="st6" width="4.9" height="3.1"/>
										<rect x="391.7" y="292.7" class="st6" width="4.9" height="3.1"/>
										<rect x="397.5" y="292.7" class="st6" width="4.9" height="3.1"/>
										<rect x="403.3" y="292.7" class="st6" width="4.9" height="3.1"/>
									</g>
									<g>
										<rect x="358.6" y="296.5" class="st6" width="4.9" height="3.1"/>
										<rect x="364.4" y="296.5" class="st6" width="4.9" height="3.1"/>
										<rect x="370.2" y="296.5" class="st6" width="4.9" height="3.1"/>
										<rect x="376" y="296.5" class="st6" width="4.9" height="3.1"/>
										<rect x="381.8" y="296.5" class="st6" width="4.9" height="3.1"/>
										<rect x="387.7" y="296.5" class="st6" width="4.9" height="3.1"/>
										<rect x="393.5" y="296.5" class="st6" width="4.9" height="3.1"/>
										<rect x="399.3" y="296.5" class="st6" width="4.9" height="3.1"/>
										<rect x="405.1" y="296.5" class="st6" width="4.9" height="3.1"/>
										<rect x="351" y="300.1" class="st6" width="4.9" height="3.1"/>
										<rect x="356.8" y="300.1" class="st6" width="4.9" height="3.1"/>
										<rect x="362.6" y="300.1" class="st6" width="4.9" height="3.1"/>
										<rect x="368.4" y="300.1" class="st6" width="4.9" height="3.1"/>
										<rect x="374.2" y="300.1" class="st6" width="4.9" height="3.1"/>
										<rect x="380" y="300.1" class="st6" width="4.9" height="3.1"/>
										<rect x="385.8" y="300.1" class="st6" width="4.9" height="3.1"/>
										<rect x="391.7" y="300.1" class="st6" width="4.9" height="3.1"/>
										<rect x="397.5" y="300.1" class="st6" width="4.9" height="3.1"/>
										<rect x="403.3" y="300.1" class="st6" width="4.9" height="3.1"/>
									</g>
									<g>
										<rect x="358.6" y="303.9" class="st6" width="4.9" height="3.1"/>
										<rect x="364.4" y="303.9" class="st6" width="4.9" height="3.1"/>
										<rect x="370.3" y="303.9" class="st6" width="4.9" height="3.1"/>
										<rect x="376.1" y="303.9" class="st6" width="4.9" height="3.1"/>
										<rect x="381.9" y="303.9" class="st6" width="4.9" height="3.1"/>
										<rect x="387.7" y="303.9" class="st6" width="4.9" height="3.1"/>
										<rect x="393.5" y="303.9" class="st6" width="4.9" height="3.1"/>
										<rect x="399.3" y="303.9" class="st6" width="4.9" height="3.1"/>
										<rect x="405.1" y="303.9" class="st6" width="4.9" height="3.1"/>
										<rect x="351" y="307.5" class="st6" width="4.9" height="3.1"/>
										<rect x="356.8" y="307.5" class="st6" width="4.9" height="3.1"/>
										<rect x="362.6" y="307.5" class="st6" width="4.9" height="3.1"/>
										<rect x="368.4" y="307.5" class="st6" width="4.9" height="3.1"/>
										<rect x="374.3" y="307.5" class="st6" width="4.9" height="3.1"/>
										<rect x="380.1" y="307.5" class="st6" width="4.9" height="3.1"/>
										<rect x="385.9" y="307.5" class="st6" width="4.9" height="3.1"/>
										<rect x="391.7" y="307.5" class="st6" width="4.9" height="3.1"/>
										<rect x="397.5" y="307.5" class="st6" width="4.9" height="3.1"/>
										<rect x="403.3" y="307.5" class="st6" width="4.9" height="3.1"/>
									</g>
									<g>
										<rect x="359.1" y="311.3" class="st6" width="4.9" height="3.1"/>
										<rect x="364.9" y="311.3" class="st6" width="4.9" height="3.1"/>
										<rect x="370.7" y="311.3" class="st6" width="4.9" height="3.1"/>
										<rect x="376.5" y="311.3" class="st6" width="4.9" height="3.1"/>
										<rect x="382.3" y="311.3" class="st6" width="4.9" height="3.1"/>
										<rect x="388.1" y="311.3" class="st6" width="4.9" height="3.1"/>
										<rect x="394" y="311.3" class="st6" width="4.9" height="3.1"/>
										<rect x="399.8" y="311.3" class="st6" width="4.9" height="3.1"/>
										<rect x="405.6" y="311.3" class="st6" width="4.9" height="3.1"/>
										<rect x="351.5" y="314.9" class="st6" width="4.9" height="3.1"/>
										<rect x="357.3" y="314.9" class="st6" width="4.9" height="3.1"/>
										<rect x="363.1" y="314.9" class="st6" width="4.9" height="3.1"/>
										<rect x="368.9" y="314.9" class="st6" width="4.9" height="3.1"/>
										<rect x="374.7" y="314.9" class="st6" width="4.9" height="3.1"/>
										<rect x="380.5" y="314.9" class="st6" width="4.9" height="3.1"/>
										<rect x="386.3" y="314.9" class="st6" width="4.9" height="3.1"/>
										<rect x="392.1" y="314.9" class="st6" width="4.9" height="3.1"/>
										<rect x="398" y="314.9" class="st6" width="4.9" height="3.1"/>
										<rect x="403.8" y="314.9" class="st6" width="4.9" height="3.1"/>
									</g>
									<g>
										<rect x="359.1" y="318.7" class="st6" width="4.9" height="3.1"/>
										<rect x="364.9" y="318.7" class="st6" width="4.9" height="3.1"/>
										<rect x="370.7" y="318.7" class="st6" width="4.9" height="3.1"/>
										<rect x="376.6" y="318.7" class="st6" width="4.9" height="3.1"/>
										<rect x="382.4" y="318.7" class="st6" width="4.9" height="3.1"/>
										<rect x="388.2" y="318.7" class="st6" width="4.9" height="3.1"/>
										<rect x="394" y="318.7" class="st6" width="4.9" height="3.1"/>
										<rect x="399.8" y="318.7" class="st6" width="4.9" height="3.1"/>
										<rect x="405.6" y="318.7" class="st6" width="4.9" height="3.1"/>
										<rect x="351.5" y="322.3" class="st6" width="4.9" height="3.1"/>
										<rect x="357.3" y="322.3" class="st6" width="4.9" height="3.1"/>
										<rect x="363.1" y="322.3" class="st6" width="4.9" height="3.1"/>
										<rect x="368.9" y="322.3" class="st6" width="4.9" height="3.1"/>
										<rect x="374.7" y="322.3" class="st6" width="4.9" height="3.1"/>
										<rect x="380.6" y="322.3" class="st6" width="4.9" height="3.1"/>
										<rect x="386.4" y="322.3" class="st6" width="4.9" height="3.1"/>
										<rect x="392.2" y="322.3" class="st6" width="4.9" height="3.1"/>
										<rect x="398" y="322.3" class="st6" width="4.9" height="3.1"/>
										<rect x="403.8" y="322.3" class="st6" width="4.9" height="3.1"/>
									</g>
								</g>
							</g>
							<path class="st7" d="M406,325.2h-47.9V254c0-0.8,0.7-1.5,1.5-1.5h45c0.8,0,1.5,0.7,1.5,1.5V325.2z"/>
							<rect x="382.1" y="253.1" class="st8" width="23.4" height="71.6"/>
							<path class="st9" d="M372.1,269.3h-6.4c-0.5,0-1-0.4-1-1v-6.7c0-0.5,0.4-1,1-1h6.4c0.5,0,1,0.4,1,1v6.7
								C373,268.8,372.6,269.3,372.1,269.3z"/>
							<path class="st9" d="M372.1,280.9h-6.4c-0.5,0-1-0.4-1-1v-6.7c0-0.5,0.4-1,1-1h6.4c0.5,0,1,0.4,1,1v6.7
								C373,280.5,372.6,280.9,372.1,280.9z"/>
							<path class="st9" d="M372.1,292.5h-6.4c-0.5,0-1-0.4-1-1v-6.7c0-0.5,0.4-1,1-1h6.4c0.5,0,1,0.4,1,1v6.7
								C373,292.1,372.6,292.5,372.1,292.5z"/>
							<path class="st9" d="M385.2,269.3h-6.4c-0.5,0-1-0.4-1-1v-6.7c0-0.5,0.4-1,1-1h6.4c0.5,0,1,0.4,1,1v6.7
								C386.2,268.8,385.8,269.3,385.2,269.3z"/>
							<path class="st9" d="M385.1,280.9h-6.4c-0.5,0-1-0.4-1-1v-6.7c0-0.5,0.4-1,1-1h6.4c0.5,0,1,0.4,1,1v6.7
								C386.1,280.5,385.6,280.9,385.1,280.9z"/>
							<path class="st9" d="M385.1,292.5h-6.4c-0.5,0-1-0.4-1-1v-6.7c0-0.5,0.4-1,1-1h6.4c0.5,0,1,0.4,1,1v6.7
								C386.1,292.1,385.6,292.5,385.1,292.5z"/>
							<path class="st9" d="M397.9,269.3h-6.4c-0.5,0-1-0.4-1-1v-6.7c0-0.5,0.4-1,1-1h6.4c0.5,0,1,0.4,1,1v6.7
								C398.8,268.8,398.4,269.3,397.9,269.3z"/>
							<path class="st9" d="M398.1,280.9h-6.4c-0.5,0-1-0.4-1-1v-6.7c0-0.5,0.4-1,1-1h6.4c0.5,0,1,0.4,1,1v6.7
								C399.1,280.5,398.7,280.9,398.1,280.9z"/>
							<path class="st9" d="M398.1,292.5h-6.4c-0.5,0-1-0.4-1-1v-6.7c0-0.5,0.4-1,1-1h6.4c0.5,0,1,0.4,1,1v6.7
								C399.1,292.1,398.7,292.5,398.1,292.5z"/>
							<path class="st9" d="M381.9,325.2H373v-13.4c0-0.6,0.5-1,1-1h7.8V325.2z"/>
							<path class="st9" d="M390.8,325.2h-8.9v-14.4h7.8c0.6,0,1,0.5,1,1V325.2z"/>
							<path class="st10" d="M399.1,252h-34.4v-8.4c0-0.7,0.6-1.3,1.3-1.3h31.8c0.7,0,1.3,0.6,1.3,1.3V252z"/>
							<path class="st10" d="M358.1,299.6h-8.8c-0.6,0-1-0.5-1-1v-36.9c0-0.6,0.5-1,1-1h8.8V299.6z"/>
							<g id="DaLa_Farm_1_">
								<rect x="353.6" y="260.6" class="st11" width="4.5" height="39"/>
								<path class="st7" d="M349.3,299.6h8.8v-39h-8.8c-0.6,0-1,0.5-1,1v36.9C348.3,299.1,348.7,299.6,349.3,299.6z"/>
							</g>
							<g id="tokiwaveranda_3_">
								<path class="st12" d="M372.7,295.1H365c-0.2,0-0.3-0.1-0.3-0.3v-1.9c0-0.2,0.1-0.3,0.3-0.3h7.7c0.2,0,0.3,0.1,0.3,0.3v1.9
									C373,295,372.9,295.1,372.7,295.1z"/>
								<path class="st12" d="M385.7,295.1h-7.7c-0.2,0-0.3-0.1-0.3-0.3v-1.9c0-0.2,0.1-0.3,0.3-0.3h7.7c0.2,0,0.3,0.1,0.3,0.3v1.9
									C386.1,295,385.9,295.1,385.7,295.1z"/>
								<path class="st12" d="M398.8,295.1h-7.7c-0.2,0-0.3-0.1-0.3-0.3v-1.9c0-0.2,0.1-0.3,0.3-0.3h7.7c0.2,0,0.3,0.1,0.3,0.3v1.9
									C399.1,295,398.9,295.1,398.8,295.1z"/>
								<path class="st12" d="M372.9,283.5h-7.7c-0.2,0-0.3-0.1-0.3-0.3v-1.9c0-0.2,0.1-0.3,0.3-0.3h7.7c0.2,0,0.3,0.1,0.3,0.3v1.9
									C373.2,283.3,373.1,283.5,372.9,283.5z"/>
								<path class="st12" d="M385.9,283.5h-7.7c-0.2,0-0.3-0.1-0.3-0.3v-1.9c0-0.2,0.1-0.3,0.3-0.3h7.7c0.2,0,0.3,0.1,0.3,0.3v1.9
									C386.2,283.3,386.1,283.5,385.9,283.5z"/>
								<path class="st12" d="M398.9,283.5h-7.7c-0.2,0-0.3-0.1-0.3-0.3v-1.9c0-0.2,0.1-0.3,0.3-0.3h7.7c0.2,0,0.3,0.1,0.3,0.3v1.9
									C399.3,283.3,399.1,283.5,398.9,283.5z"/>
								<path class="st12" d="M372.8,271.9h-7.7c-0.2,0-0.3-0.1-0.3-0.3v-1.9c0-0.2,0.1-0.3,0.3-0.3h7.7c0.2,0,0.3,0.1,0.3,0.3v1.9
									C373.2,271.7,373,271.9,372.8,271.9z"/>
								<path class="st12" d="M385.9,271.9h-7.7c-0.2,0-0.3-0.1-0.3-0.3v-1.9c0-0.2,0.1-0.3,0.3-0.3h7.7c0.2,0,0.3,0.1,0.3,0.3v1.9
									C386.2,271.7,386.1,271.9,385.9,271.9z"/>
								<path class="st12" d="M398.9,271.9h-7.7c-0.2,0-0.3-0.1-0.3-0.3v-1.9c0-0.2,0.1-0.3,0.3-0.3h7.7c0.2,0,0.3,0.1,0.3,0.3v1.9
									C399.2,271.7,399.1,271.9,398.9,271.9z"/>
								<path class="st13" d="M372.8,270h-7.6c-0.2,0-0.4-0.2-0.4-0.4v0c0-0.2,0.2-0.3,0.4-0.3h7.6c0.2,0,0.3,0.2,0.3,0.3v0
									C373.2,269.8,373,270,372.8,270z"/>
								<path class="st13" d="M385.9,270h-7.6c-0.2,0-0.3-0.2-0.3-0.4v0c0-0.2,0.2-0.3,0.3-0.3h7.6c0.2,0,0.4,0.2,0.4,0.3v0
									C386.2,269.8,386.1,270,385.9,270z"/>
								<path class="st13" d="M398.9,270h-7.6c-0.2,0-0.4-0.2-0.4-0.4v0c0-0.2,0.2-0.3,0.4-0.3h7.6c0.2,0,0.4,0.2,0.4,0.3v0
									C399.2,269.8,399.1,270,398.9,270z"/>
								<path class="st13" d="M372.8,281.6h-7.6c-0.2,0-0.4-0.2-0.4-0.4v0c0-0.2,0.2-0.4,0.4-0.4h7.6c0.2,0,0.3,0.2,0.3,0.4v0
									C373.2,281.4,373,281.6,372.8,281.6z"/>
								<path class="st13" d="M385.9,281.6h-7.6c-0.2,0-0.3-0.2-0.3-0.4v0c0-0.2,0.2-0.4,0.3-0.4h7.6c0.2,0,0.4,0.2,0.4,0.4v0
									C386.2,281.4,386.1,281.6,385.9,281.6z"/>
								<path class="st13" d="M398.9,281.6h-7.6c-0.2,0-0.4-0.2-0.4-0.4v0c0-0.2,0.2-0.4,0.4-0.4h7.6c0.2,0,0.4,0.2,0.4,0.4v0
									C399.2,281.4,399.1,281.6,398.9,281.6z"/>
								<path class="st13" d="M372.6,293.2H365c-0.2,0-0.4-0.2-0.4-0.3v0c0-0.2,0.2-0.4,0.4-0.4h7.6c0.2,0,0.3,0.2,0.3,0.4v0
									C373,293.1,372.8,293.2,372.6,293.2z"/>
								<path class="st13" d="M385.7,293.2h-7.6c-0.2,0-0.3-0.2-0.3-0.3v0c0-0.2,0.2-0.4,0.3-0.4h7.6c0.2,0,0.4,0.2,0.4,0.4v0
									C386.1,293.1,385.9,293.2,385.7,293.2z"/>
								<path class="st13" d="M398.7,293.2h-7.6c-0.2,0-0.4-0.2-0.4-0.3v0c0-0.2,0.2-0.4,0.4-0.4h7.6c0.2,0,0.3,0.2,0.3,0.4v0
									C399,293.1,398.9,293.2,398.7,293.2z"/>
							</g>
							<text transform="matrix(1 0 0 1 366.6609 249.7916)" class="st9 st14 st15">トキワビル</text>
							<text transform="matrix(0 -1 1 0 355.1633 294.955)" class="st9 st14 st16">DaLa Farm</text>
						</g>
						<g id="bldg3_3_">
							<path class="st17" d="M449.2,325.2h-23.6v-34.5c0-1,0.8-1.8,1.8-1.8h21.8V325.2z"/>
							<g>
								<defs>
									<path id="SVGID_3_" d="M449.2,325.2h-23.6v-34.5c0-1,0.8-1.8,1.8-1.8h21.8V325.2z"/>
								</defs>
								<clipPath id="SVGID_4_">
									<use xlink:href="#SVGID_3_"  style="overflow:visible;"/>
								</clipPath>
								<g class="st18">
									<rect x="437.4" y="289.2" class="st11" width="11.3" height="35.7"/>
									<path class="st9" d="M444.1,295.6h-13.4c-0.3,0-0.5-0.2-0.5-0.5v-2.8c0-0.3,0.2-0.5,0.5-0.5h13.4c0.3,0,0.5,0.2,0.5,0.5
										v2.8C444.6,295.4,444.3,295.6,444.1,295.6z"/>
									<path class="st9" d="M444.1,302.6h-13.4c-0.3,0-0.5-0.2-0.5-0.5v-2.8c0-0.3,0.2-0.5,0.5-0.5h13.4c0.3,0,0.5,0.2,0.5,0.5
										v2.8C444.6,302.4,444.3,302.6,444.1,302.6z"/>
									<path class="st9" d="M444.1,309.5h-13.4c-0.3,0-0.5-0.2-0.5-0.5v-2.8c0-0.3,0.2-0.5,0.5-0.5h13.4c0.3,0,0.5,0.2,0.5,0.5
										v2.8C444.6,309.3,444.3,309.5,444.1,309.5z"/>
								</g>
							</g>
							<path class="st7" d="M449.2,325.2h-23.6v-34.5c0-1,0.8-1.8,1.8-1.8h21.8V325.2z"/>
						</g>
						<g id="bldg3_2_">
							<path class="st17" d="M338.2,325.2h-23.6v-36.4h21.8c1,0,1.8,0.8,1.8,1.8V325.2z"/>
							<g>
								<defs>
									<path id="SVGID_5_" d="M338.2,325.2h-23.6v-36.4h21.8c1,0,1.8,0.8,1.8,1.8V325.2z"/>
								</defs>
								<clipPath id="SVGID_6_">
									<use xlink:href="#SVGID_5_"  style="overflow:visible;"/>
								</clipPath>
								<g class="st19">
									<path class="st11" d="M326.4,324.9h11.3v-33.8c0-1-0.8-1.8-1.8-1.8h-9.5V324.9z"/>
									<path class="st9" d="M333.1,295.6h-13.4c-0.3,0-0.5-0.2-0.5-0.5v-2.8c0-0.3,0.2-0.5,0.5-0.5h13.4c0.3,0,0.5,0.2,0.5,0.5
										v2.8C333.6,295.4,333.3,295.6,333.1,295.6z"/>
									<path class="st9" d="M333.1,302.6h-13.4c-0.3,0-0.5-0.2-0.5-0.5v-2.8c0-0.3,0.2-0.5,0.5-0.5h13.4c0.3,0,0.5,0.2,0.5,0.5
										v2.8C333.6,302.4,333.3,302.6,333.1,302.6z"/>
									<path class="st9" d="M333.1,309.5h-13.4c-0.3,0-0.5-0.2-0.5-0.5v-2.8c0-0.3,0.2-0.5,0.5-0.5h13.4c0.3,0,0.5,0.2,0.5,0.5
										v2.8C333.6,309.3,333.3,309.5,333.1,309.5z"/>
								</g>
							</g>
							<path class="st7" d="M338.2,325.2h-23.6v-36.4h21.8c1,0,1.8,0.8,1.8,1.8V325.2z"/>
						</g>
						<g id="BLDGside_3_">
							<path class="st17" d="M314.3,325.3h-33.9V274h32.1c1,0,1.8,0.8,1.8,1.8V325.3z"/>
							<g>
								<defs>
									<path id="SVGID_7_" d="M314.3,325.3h-33.9V274h32.1c1,0,1.8,0.8,1.8,1.8V325.3z"/>
								</defs>
								<clipPath id="SVGID_8_">
									<use xlink:href="#SVGID_7_"  style="overflow:visible;"/>
								</clipPath>
								<g class="st20">
									<path class="st11" d="M290.2,324.7h25.5v-49.9c0-1.1-0.9-1.9-1.9-1.9h-23.5V324.7z"/>
									<path class="st9" d="M293.8,289.1h-7.4c-0.3,0-0.5-0.2-0.5-0.5v-8.5c0-0.3,0.2-0.5,0.5-0.5h7.4c0.3,0,0.5,0.2,0.5,0.5v8.5
										C294.3,288.9,294.1,289.1,293.8,289.1z"/>
									<path class="st9" d="M293.8,301.8h-7.4c-0.3,0-0.5-0.2-0.5-0.5v-8.5c0-0.3,0.2-0.5,0.5-0.5h7.4c0.3,0,0.5,0.2,0.5,0.5v8.5
										C294.3,301.6,294.1,301.8,293.8,301.8z"/>
									<path class="st9" d="M293.8,314.5h-7.4c-0.3,0-0.5-0.2-0.5-0.5v-8.5c0-0.3,0.2-0.5,0.5-0.5h7.4c0.3,0,0.5,0.2,0.5,0.5v8.5
										C294.3,314.3,294.1,314.5,293.8,314.5z"/>
									<path class="st9" d="M306.6,289.1h-7.4c-0.3,0-0.5-0.2-0.5-0.5v-8.5c0-0.3,0.2-0.5,0.5-0.5h7.4c0.3,0,0.5,0.2,0.5,0.5v8.5
										C307.1,288.9,306.9,289.1,306.6,289.1z"/>
									<path class="st9" d="M306.9,301.8h-7.4c-0.3,0-0.5-0.2-0.5-0.5v-8.5c0-0.3,0.2-0.5,0.5-0.5h7.4c0.3,0,0.5,0.2,0.5,0.5v8.5
										C307.3,301.6,307.1,301.8,306.9,301.8z"/>
									<path class="st9" d="M306.9,314.5h-7.4c-0.3,0-0.5-0.2-0.5-0.5v-8.5c0-0.3,0.2-0.5,0.5-0.5h7.4c0.3,0,0.5,0.2,0.5,0.5v8.5
										C307.3,314.3,307.1,314.5,306.9,314.5z"/>
									<path class="st9" d="M293.8,325.3h-7.4c-0.3,0-0.5-0.2-0.5-0.5v-6.5c0-0.3,0.2-0.5,0.5-0.5h7.4c0.3,0,0.5,0.2,0.5,0.5v6.5
										C294.3,325.1,294.1,325.3,293.8,325.3z"/>
								</g>
							</g>
							<path class="st7" d="M314.3,325.3h-33.9V274h32.1c1,0,1.8,0.8,1.8,1.8V325.3z"/>
						</g>
						<g id="BLDGside_2_">
							<path class="st17" d="M449.4,325.3h33.9V274h-32.1c-1,0-1.8,0.8-1.8,1.8V325.3z"/>
							<g>
								<defs>
									<path id="SVGID_9_" d="M449.4,325.3h33.9V274h-32.1c-1,0-1.8,0.8-1.8,1.8V325.3z"/>
								</defs>
								<clipPath id="SVGID_10_">
									<use xlink:href="#SVGID_9_"  style="overflow:visible;"/>
								</clipPath>
								<g class="st21">
									<rect x="473.5" y="271.4" class="st11" width="9.3" height="53.7"/>
									<path class="st9" d="M469.8,289.1h7.4c0.3,0,0.5-0.2,0.5-0.5v-8.5c0-0.3-0.2-0.5-0.5-0.5h-7.4c-0.3,0-0.5,0.2-0.5,0.5v8.5
										C469.3,288.9,469.5,289.1,469.8,289.1z"/>
									<path class="st9" d="M469.8,301.8h7.4c0.3,0,0.5-0.2,0.5-0.5v-8.5c0-0.3-0.2-0.5-0.5-0.5h-7.4c-0.3,0-0.5,0.2-0.5,0.5v8.5
										C469.3,301.6,469.5,301.8,469.8,301.8z"/>
									<path class="st9" d="M469.8,314.5h7.4c0.3,0,0.5-0.2,0.5-0.5v-8.5c0-0.3-0.2-0.5-0.5-0.5h-7.4c-0.3,0-0.5,0.2-0.5,0.5v8.5
										C469.3,314.3,469.5,314.5,469.8,314.5z"/>
									<path class="st9" d="M457,289.1h7.4c0.3,0,0.5-0.2,0.5-0.5v-8.5c0-0.3-0.2-0.5-0.5-0.5H457c-0.3,0-0.5,0.2-0.5,0.5v8.5
										C456.5,288.9,456.8,289.1,457,289.1z"/>
									<path class="st9" d="M456.8,301.8h7.4c0.3,0,0.5-0.2,0.5-0.5v-8.5c0-0.3-0.2-0.5-0.5-0.5h-7.4c-0.3,0-0.5,0.2-0.5,0.5v8.5
										C456.3,301.6,456.5,301.8,456.8,301.8z"/>
									<path class="st9" d="M456.8,314.5h7.4c0.3,0,0.5-0.2,0.5-0.5v-8.5c0-0.3-0.2-0.5-0.5-0.5h-7.4c-0.3,0-0.5,0.2-0.5,0.5v8.5
										C456.3,314.3,456.5,314.5,456.8,314.5z"/>
									<path class="st9" d="M469.8,325.3h7.4c0.3,0,0.5-0.2,0.5-0.5v-6.5c0-0.3-0.2-0.5-0.5-0.5h-7.4c-0.3,0-0.5,0.2-0.5,0.5v6.5
										C469.3,325.1,469.5,325.3,469.8,325.3z"/>
								</g>
							</g>
							<path class="st7" d="M449.4,325.3h33.9V274h-32.1c-1,0-1.8,0.8-1.8,1.8V325.3z"/>
						</g>
						<g id="tree_4_">
							<circle class="st22" cx="345.6" cy="313.6" r="4.9"/>
							<g>
								<defs>
									<circle id="SVGID_11_" cx="345.6" cy="313.6" r="4.9"/>
								</defs>
								<clipPath id="SVGID_12_">
									<use xlink:href="#SVGID_11_"  style="overflow:visible;"/>
								</clipPath>
								<rect x="345.6" y="305.1" class="st23" width="6.8" height="15.2"/>
							</g>
							<circle class="st7" cx="345.7" cy="313.7" r="5.1"/>
							<path class="st24" d="M345.4,325v-8c0,0-0.7-2.2-1.4-2.8"/>
							<line class="st24" x1="345.4" y1="317" x2="347.3" y2="315"/>
						</g>
						<g id="tree_3_">
							<circle class="st22" cx="417.6" cy="313.6" r="4.9"/>
							<g>
								<defs>
									<circle id="SVGID_13_" cx="417.6" cy="313.6" r="4.9"/>
								</defs>
								<clipPath id="SVGID_14_">
									<use xlink:href="#SVGID_13_"  style="overflow:visible;"/>
								</clipPath>
								<rect x="417.6" y="305.1" class="st25" width="6.8" height="15.2"/>
							</g>
							<circle class="st7" cx="417.7" cy="313.7" r="5.1"/>
							<path class="st24" d="M417.4,325v-8c0,0-0.7-2.2-1.4-2.8"/>
							<line class="st24" x1="417.4" y1="317" x2="419.3" y2="315"/>
						</g>
						<g id="clouds_14_">
							<path class="st10" d="M431.9,222.7c-2.7,0-4.9,3-3.8,5.8c0.6,1.6,2.3,2.5,4,2.5h27c2.1,0,4.1-1.5,4.3-3.7
								c0.2-2.4-1.7-4.7-4-4.7l-5.2,0c2.7,0,4.3-1.9,4-4.3c-0.2-2.1-2.1-3.6-4.3-3.6h-26.9c-2.1,0-4,1.5-4.3,3.6
								c-0.2,2.4,1.7,4.5,4,4.3H431.9"/>
						</g>
						<g id="clouds_13_">
							<path class="st10" d="M306,212.2c-2.7,0-4.9,3-3.8,5.8c0.6,1.6,2.3,2.5,4,2.5h27c2.1,0,4.1-1.5,4.3-3.7
								c0.2-2.4-1.7-4.7-4-4.7l-5.2,0c2.7,0,4.3-1.9,4-4.3c-0.2-2.1-2.1-3.6-4.3-3.6h-26.9c-2.1,0-4,1.5-4.3,3.6
								c-0.2,2.4,1.7,4.5,4,4.3H306"/>
						</g>
					</g>
					<g class="st1">
						<g>
							<rect x="303.9" y="13.7" class="st2" width="163.3" height="111.6"/>
							<rect x="303.9" y="130.9" class="st2" width="163.3" height="9.5"/>
							<rect x="303.9" y="144.4" class="st2" width="163.3" height="5"/>
							<rect x="303.9" y="13.7" class="st26" width="163.3" height="45.3"/>
							<rect x="303.9" y="62.8" class="st26" width="163.3" height="14.7"/>
							<rect x="303.9" y="81" class="st26" width="163.3" height="5.8"/>
						</g>
					</g>
					<g id="clouds" class="st1">
						<g id="clouds_18_">
							<path class="st10" d="M330.1,66.5c-1.4,0-2.4,1.5-1.9,2.9c0.3,0.8,1.1,1.3,2,1.3h13.5c1.1,0,2-0.8,2.1-1.8
								c0.1-1.2-0.8-2.3-2-2.3l-2.6,0c1.4,0,2.1-0.9,2-2.1c-0.1-1.1-1.1-1.8-2.1-1.8h-13.5c-1.1,0-2,0.8-2.1,1.8
								c-0.1,1.2,0.8,2.2,2,2.1H330.1"/>
						</g>
						<g id="clouds_17_">
							<path class="st10" d="M419.7,80.6c-1.4,0-2.4,1.5-1.9,2.9c0.3,0.8,1.1,1.3,2,1.3h13.5c1.1,0,2-0.8,2.1-1.8
								c0.1-1.2-0.8-2.3-2-2.3l-2.6,0c1.4,0,2.1-0.9,2-2.1c-0.1-1.1-1.1-1.8-2.1-1.8h-13.5c-1.1,0-2,0.8-2.1,1.8
								c-0.1,1.2,0.8,2.2,2,2.1H419.7"/>
						</g>
					</g>
					<g id="_x32_0" class="st1">
						<g>
							<g>
								<g>
									<path class="st9" d="M386,213.1c0-0.6,0-1-0.1-1.6c0.6,0.1,1.2,0.1,2,0.1h6.1v-3.6h-5.9c-1.5,2.3-2.8,3.9-4.6,5.5
										c-0.8-1.2-1.1-1.6-2.1-2.5c2.9-2.4,4.3-4.3,5.5-7c0.4-0.9,0.6-1.5,0.7-2l3.3,0.7c-0.2,0.3-0.2,0.4-0.4,0.8
										c0,0.1-0.3,0.7-0.8,1.8h13.1c1.3,0,2,0,2.9-0.1v3.1c-0.9-0.1-1.6-0.1-2.9-0.1H397v3.6h4.5c1.3,0,2,0,2.9-0.1v3
										c-0.8-0.1-1.6-0.1-2.8-0.1H397v4.5h6.5c1.3,0,2.2-0.1,3.1-0.2v3.2c-0.9-0.1-1.8-0.2-3.1-0.2H397v3.5c0,1.4,0,2.2,0.2,3
										h-3.4c0.1-0.8,0.2-1.6,0.2-3.1v-3.4h-9.4c-1.2,0-2.1,0.1-3.1,0.2v-3.2c0.9,0.1,1.8,0.2,3.1,0.2h1.4V213.1z M394,218.8v-4.5
										h-5v4.5H394z"/>
								</g>
							</g>
							<g>
								<g>
									<path class="st9" d="M362.4,219.9c0.3,0.8,0.4,1.2,0.8,1.6c0.8,1,2,1.4,3.4,1.4c2.8,0,4.6-1.8,4.6-4.6
										c0-2.7-1.7-4.5-4.4-4.5c-1.4,0-2.6,0.4-3.5,1.3c-0.4,0.4-0.6,0.6-0.8,1.3l-3.5-0.3c0.3-2,0.3-2.1,0.4-2.9l0.6-6.9
										c0-0.5,0.1-1.5,0.1-2.9c0.8,0.1,1.5,0.1,3,0.1h6.9c1.9,0,2.6,0,3.9-0.2v3.5c-1.2-0.2-2.3-0.2-3.9-0.2h-6.6l-0.4,4.9
										c0,0.2-0.1,0.6-0.2,1.2c1.4-1.2,2.9-1.7,4.8-1.7c2.3,0,4.1,0.7,5.5,2.1c1.4,1.3,2,3,2,5.3c0,4.9-3.2,8-8.4,8
										c-2.8,0-4.8-0.8-6.4-2.4c-0.8-0.8-1.1-1.5-1.8-3.1L362.4,219.9z"/>
								</g>
							</g>
						</g>
					</g>
					<g class="st1">
						<g>
							<g>
								<path class="st9" d="M349.6,26.1c-0.6,0-1,0-1.5,0.1v-1.4c0.4,0,0.8,0.1,1.5,0.1h6.8c0.7,0,1.1,0,1.5-0.1v1.4
									c-0.4,0-0.8-0.1-1.5-0.1h-2.8v4.1h3.4c0.7,0,1,0,1.4-0.1v1.4c-0.4-0.1-0.9-0.1-1.5-0.1h-3.3v2.7c0,0.5,0,1,0.1,1.5h-1.5
									c0.1-0.5,0.1-1,0.1-1.5v-2.7h-3.2c-0.6,0-1,0-1.5,0.1v-1.4c0.4,0.1,0.8,0.1,1.5,0.1h3.2v-4.1H349.6z M349.9,26.4
									c0.7,1,1.1,1.7,1.5,2.8l-1.2,0.6c-0.4-1.2-0.8-1.9-1.4-2.9L349.9,26.4z M357.4,27c-0.5,1.2-0.9,1.9-1.7,2.9l-1.2-0.6
									c0.8-1,1.2-1.7,1.6-2.9L357.4,27z"/>
								<path class="st9" d="M361,25.9c0-0.6,0-0.9-0.1-1.3h1.4c-0.1,0.4-0.1,0.6-0.1,1.3v1.7h0.1c0.4,0,0.6,0,0.8,0v0.6
									c0.8-0.8,1.3-1.5,1.6-2.5c0.1-0.2,0.2-0.6,0.3-0.9c0,0,0-0.1,0-0.2c0,0,0,0,0-0.1l1.4,0.3c-0.1,0.1-0.1,0.2-0.1,0.4
									c-0.1,0.3-0.3,0.8-0.4,1h3.2c0.4,0,0.9,0,1.1,0c0,0.3,0,0.5,0,1.1c0,2.8-0.1,4.7-0.3,6c-0.2,1.1-0.4,1.6-0.7,1.9
									c-0.3,0.2-0.7,0.3-1.4,0.3c-0.3,0-0.4,0-1.3-0.1c0-0.5-0.1-0.8-0.3-1.4c0.6,0.1,1.3,0.2,1.6,0.2c0.4,0,0.6-0.1,0.7-0.4
									c0.3-0.8,0.4-2.9,0.4-6.3h-3.6c-0.5,0.8-0.9,1.3-1.6,2c-0.3-0.3-0.3-0.4-0.6-0.7v0.1c-0.3,0-0.4,0-0.9,0v3.1
									c0.5-0.2,0.7-0.3,1.2-0.6l0,1.3c-0.9,0.4-1.8,0.8-2.8,1.2c-0.6,0.2-0.6,0.2-1,0.4l-0.3-1.4c0.3,0,0.6-0.1,1.5-0.4v-3.6h-0.3
									c-0.5,0-0.7,0-1,0.1v-1.3c0.3,0,0.6,0.1,1,0.1h0.3V25.9z M368.3,31.7c-1,0.6-2.1,1.2-3.4,1.7c-0.3,0.1-0.4,0.2-0.6,0.3
									l-0.5-1.3c0.2,0,0.4-0.1,0.7-0.2c1.2-0.4,2.5-1,3.5-1.7L368.3,31.7z M364.5,28.8c0.3,0.1,0.6,0.1,1,0.1h1.5
									c0.4,0,0.7,0,0.9-0.1v1.3c-0.2,0-0.5,0-0.9,0h-1.6c-0.5,0-0.7,0-1,0.1V28.8z"/>
								<path class="st9" d="M372.9,25.2c0-0.3,0-0.5,0-0.7h1.3c0,0.2,0,0.3,0,0.7v0.1h1.1v-0.1c0-0.3,0-0.5,0-0.7h1.3
									c0,0.2,0,0.3,0,0.7v0.2h0.4c0.4,0,0.6,0,1-0.1v1.2c-0.3,0-0.5,0-1,0h-0.4v0.1c0,0.3,0,0.4,0,0.6h-1.3c0-0.1,0-0.3,0-0.6
									v-0.1h-1.1v0.1c0,0.3,0,0.4,0,0.6h-1.3c0-0.2,0-0.3,0-0.6v-0.1h-0.4c-0.5,0-0.8,0-0.9,0v-1.2c0.3,0,0.5,0.1,1,0.1h0.4V25.2z
									 M380.2,28.1c-0.1,1.6-0.3,2.9-0.6,4c-0.4,1.3-0.9,2.3-1.9,3.4c-0.2-0.4-0.5-0.7-0.9-1c-1.3,0.2-2.6,0.4-4.4,0.6
									c-0.3,0-0.4,0-0.6,0.1l-0.2-1.3c0.1,0,0.2,0,0.3,0c0.4,0,1,0,2.2-0.2v-0.7h-1c-0.4,0-0.7,0-1,0.1V32c0.3,0,0.6,0.1,1,0.1h1
									v-0.5h-1.2c-0.5,0-0.8,0-1.1,0.1v-1.2c0.3,0,0.5,0.1,1.1,0.1h1.2V30h-1.3c-0.4,0-0.5,0-0.9,0c0-0.2,0-0.4,0-0.7V28
									c0-0.3,0-0.5,0-0.7c0.3,0,0.4,0,0.9,0h3.7c0.5,0,0.7,0,0.9,0c0,0.3,0,0.4,0,0.8v1.1c0,0.4,0,0.7,0,0.8c-0.3,0-0.4,0-0.9,0
									h-1.3v0.5h1.1c0.6,0,0.8,0,1.1,0v1.1c-0.3,0-0.6,0-1.1,0h-1.1v0.5h0.9c0.6,0,0.8,0,1.1,0v1.1c-0.4,0-0.5,0-1.1,0h-0.9v0.6
									c1.3-0.1,1.3-0.1,2.1-0.3l0,0.4c1-1.3,1.5-3.1,1.6-5.8h-0.3c-0.6,0-0.8,0-1,0v-1.3c0.3,0,0.5,0.1,1,0.1h0.3
									c0-0.6,0-0.7,0-1.5c0-0.4,0-0.6-0.1-0.9h1.4c-0.1,0.4-0.1,0.4-0.1,2.4h1c0.6,0,0.8,0,1.2,0c0,0.3,0,0.3-0.1,2.7
									c-0.1,2.1-0.2,3.9-0.4,4.6c-0.2,0.8-0.6,1.1-1.6,1.1c-0.1,0-0.1,0-1,0c0-0.5-0.1-0.8-0.3-1.3c0.4,0.1,0.8,0.1,1.1,0.1
									c0.5,0,0.6-0.1,0.7-1c0.2-1.1,0.3-2.5,0.3-5H380.2z M373.1,28.3V29h1.1v-0.7H373.1z M375.3,29h1.1v-0.7h-1.1V29z"/>
								<path class="st9" d="M384.9,31.3c-0.1,1.7-0.2,2.6-0.5,3.6l-1-0.5c0.3-1,0.4-1.5,0.5-3.3L384.9,31.3z M383.4,29.5
									c0.2,0,0.3,0,0.5,0c0,0,0.2,0,0.4,0c0.3-0.5,0.3-0.5,0.6-0.9c-0.4-0.6-0.9-1.1-1.6-1.8l0.6-1l0.5,0.5c0.4-0.7,0.7-1.4,0.9-2
									l1.2,0.4c-0.1,0.1-0.1,0.2-0.3,0.4c-0.4,0.7-0.7,1.4-1.1,1.9c0.2,0.3,0.3,0.3,0.5,0.6c0.7-1.1,0.9-1.5,1.1-2l1.1,0.6
									c-0.1,0.2-0.1,0.2-0.6,0.9c-0.4,0.6-1.1,1.7-1.6,2.3c0.7,0,0.9-0.1,1.2-0.1c-0.1-0.3-0.2-0.5-0.3-0.9l0.8-0.3
									c0.3,0.7,0.5,1.4,0.7,2v-0.3c0-0.5,0-0.6,0-0.9c0.2,0,0.5,0,1.1,0h4.2c0.6,0,0.9,0,1.2-0.1c0,0.3,0,0.5,0,0.9v0.7
									c0,0.4,0,0.6,0,0.9h-1.2v-1.3h-4v1.3H388c0-0.3,0-0.3,0-0.8l-0.8,0.3c0-0.3-0.1-0.3-0.1-0.5c-0.3,0-0.4,0-0.7,0.1v3.8
									c0,0.6,0,0.9,0.1,1.3h-1.3c0.1-0.4,0.1-0.7,0.1-1.3v-3.7c-0.2,0-0.4,0-0.5,0c-0.2,0-0.4,0-0.5,0c-0.4,0-0.6,0-0.8,0.1
									L383.4,29.5z M387.6,31.1c0.2,1.1,0.3,1.4,0.4,2.6l-1,0.3c-0.1-1.3-0.1-1.7-0.3-2.7L387.6,31.1z M390.7,30.7
									c0,0.2,0,0.2-0.1,0.9c-0.1,1.1-0.3,1.9-0.8,2.5c-0.4,0.6-0.8,0.9-1.9,1.4c-0.2-0.5-0.4-0.8-0.8-1.1c1-0.3,1.4-0.6,1.8-1
									c0.4-0.5,0.6-1.2,0.6-2.1c0-0.2,0-0.3,0-0.6H390.7z M389.2,26.5c-0.6,0-1,0-1.3,0.1v-1.2c0.3,0,0.7,0.1,1.3,0.1h1.1v-0.1
									c0-0.4,0-0.6-0.1-0.9h1.4c0,0.3-0.1,0.5-0.1,0.9v0.1h1.5c0.6,0,1,0,1.3-0.1v1.2c-0.3,0-0.7-0.1-1.3-0.1h-1.5v0.9h1.2
									c0.6,0,0.9,0,1.2-0.1v1.2c-0.3,0-0.7-0.1-1.2-0.1h-3.5c-0.6,0-0.9,0-1.2,0.1v-1.2c0.3,0,0.6,0.1,1.2,0.1h1v-0.9H389.2z
									 M392.5,30.7c0,0.3-0.1,0.5-0.1,0.9v2.3c0,0.2,0.1,0.3,0.4,0.3c0.2,0,0.4,0,0.5-0.1c0.1-0.1,0.2-0.6,0.2-1.6
									c0.4,0.2,0.7,0.3,1.1,0.4c-0.1,1-0.2,1.5-0.3,1.8c-0.2,0.5-0.6,0.6-1.6,0.6c-1.2,0-1.5-0.2-1.5-1v-2.8c0-0.4,0-0.6-0.1-0.9
									H392.5z"/>
								<path class="st9" d="M397.5,29.1c0-0.3,0-0.4,0-0.7c0.3,0,0.5,0,0.8,0h2.6v-1.6h-2.5c-0.6,1-1.2,1.7-2,2.4
									c-0.3-0.5-0.5-0.7-0.9-1.1c1.2-1,1.8-1.8,2.3-3c0.2-0.4,0.3-0.6,0.3-0.9l1.4,0.3c-0.1,0.1-0.1,0.2-0.2,0.4
									c0,0-0.1,0.3-0.3,0.8h5.6c0.6,0,0.9,0,1.2-0.1V27c-0.4,0-0.7-0.1-1.2-0.1h-2.4v1.6h1.9c0.6,0,0.9,0,1.2-0.1v1.3
									c-0.4,0-0.7,0-1.2,0h-2v1.9h2.8c0.6,0,0.9,0,1.3-0.1v1.4c-0.4,0-0.8-0.1-1.3-0.1h-2.8v1.5c0,0.6,0,0.9,0.1,1.3h-1.5
									c0-0.3,0.1-0.7,0.1-1.3v-1.5h-4c-0.5,0-0.9,0-1.3,0.1v-1.4c0.4,0,0.8,0.1,1.3,0.1h0.6V29.1z M401,31.6v-1.9h-2.2v1.9H401z"
									/>
								<path class="st9" d="M412.7,26.7c0.4,0,0.6,0,0.8,0v1.1c-0.2,0-0.4,0-0.8,0h-0.8c0.2,0.3,0.5,0.4,1.1,0.8
									c-0.3,0.3-0.4,0.4-0.7,1c-0.6-0.5-0.8-0.7-1.1-1.1c0,0.3,0,0.4,0,0.5v0.4c0,0.2,0,0.3,0,0.4H410c0-0.1,0-0.3,0-0.4v-0.5
									c0-0.1,0-0.3,0-0.5c-0.6,0.9-1,1.2-2,1.9c-0.3-0.4-0.4-0.6-0.8-1c1-0.5,1.5-0.9,1.9-1.5h-0.6c-0.4,0-0.7,0-1,0.1v-1.2
									c0.3,0,0.6,0.1,1,0.1h1.4v-1.4c0-0.4,0-0.6-0.1-0.8h1.3c0,0.2,0,0.4,0,0.8v1.4H412.7z M412.1,34.9c-0.4-0.3-0.6-0.5-1.1-0.7
									c-0.8,0.7-1.5,1-2.9,1.4c-0.2-0.4-0.4-0.7-0.6-1.1c1.1-0.2,1.7-0.5,2.4-0.9c-0.6-0.3-0.9-0.4-1.8-0.7
									c0.4-0.5,0.5-0.7,0.8-1.2h-0.3c-0.4,0-0.7,0-0.9,0.1v-1.2c0.3,0,0.5,0.1,0.9,0.1h0.9c0.1-0.3,0.2-0.4,0.3-0.9L411,30
									c-0.1,0.3-0.2,0.4-0.3,0.6h1.9c0.4,0,0.7,0,0.9-0.1v1.2c-0.3,0-0.5-0.1-1-0.1c-0.2,0.8-0.3,1-0.7,1.5c0.5,0.2,0.6,0.3,1,0.5
									L412.1,34.9z M408.9,24.6c0.5,0.7,0.6,0.9,0.8,1.6l-1.1,0.4c-0.2-0.7-0.4-1-0.8-1.6L408.9,24.6z M410.2,31.7
									c-0.2,0.3-0.2,0.3-0.4,0.7c0.5,0.2,0.7,0.2,1,0.4c0.3-0.3,0.4-0.6,0.5-1.1H410.2z M413.4,25c-0.5,0.9-0.5,1.1-0.9,1.6
									l-1-0.5c0.4-0.5,0.6-1,0.9-1.6L413.4,25z M418.6,27.7c-0.2,0-0.4,0-0.8,0c-0.1,2-0.5,3.4-1.2,4.7c0.6,0.8,1.3,1.4,2.3,1.9
									c-0.3,0.4-0.5,0.7-0.7,1.3c-0.9-0.5-1.7-1.2-2.3-2.1c-0.8,0.9-1.7,1.6-2.7,2.1c-0.2-0.6-0.3-0.8-0.6-1.2
									c0.5-0.3,0.7-0.3,0.9-0.5c0.7-0.5,1.2-0.9,1.7-1.5c-0.6-1-0.8-1.7-1-2.8c-0.2,0.3-0.3,0.5-0.6,0.8c-0.3-0.3-0.5-0.6-0.9-0.9
									c0.7-0.9,1.2-2,1.6-3.5c0.2-0.6,0.3-1.3,0.3-1.6l1.3,0.3c0,0.1-0.1,0.3-0.2,0.7c-0.1,0.3-0.2,0.7-0.3,1.2h2.1
									c0.6,0,0.8,0,1.1-0.1V27.7z M415,27.7c-0.1,0.2-0.1,0.2-0.2,0.4c0.2,1.3,0.4,2.1,1,3.2c0.5-1,0.7-2,0.7-3.5H415z"/>
							</g>
						</g>
					</g>
				</g>
				<path id="_x33__6_" class="st27" d="M434.8,351.5H323.3c-7.2,0-13.1-5.9-13.1-13.1V26.8c0-7.2,5.9-13.1,13.1-13.1h111.5
					c7.2,0,13.1,5.9,13.1,13.1v311.6C448,345.7,442.1,351.5,434.8,351.5z"/>
			</g>
			<g id="Box_2_3_">
				<path id="_x31__6_" class="st28" d="M285.7,351.5H174.2c-7.2,0-13.1-5.9-13.1-13.1V26.8c0-7.2,5.9-13.1,13.1-13.1h111.5
					c7.2,0,13.1,5.9,13.1,13.1v311.6C298.8,345.7,293,351.5,285.7,351.5z"/>
				<g>
					<g>
						<path class="st9" d="M181.5,29.1c0-0.3,0-0.4,0-0.7c0.3,0,0.5,0,0.8,0h2.6v-1.6h-2.5c-0.6,1-1.2,1.7-2,2.4
							c-0.3-0.5-0.5-0.7-0.9-1.1c1.2-1,1.8-1.8,2.3-3c0.2-0.4,0.3-0.6,0.3-0.9l1.4,0.3c-0.1,0.1-0.1,0.2-0.2,0.4
							c0,0-0.1,0.3-0.3,0.8h5.6c0.6,0,0.9,0,1.2-0.1V27c-0.4,0-0.7-0.1-1.2-0.1h-2.4v1.6h1.9c0.6,0,0.9,0,1.2-0.1v1.3
							c-0.4,0-0.7,0-1.2,0h-2v1.9h2.8c0.6,0,0.9,0,1.3-0.1v1.4c-0.4,0-0.8-0.1-1.3-0.1h-2.8v1.5c0,0.6,0,0.9,0.1,1.3h-1.5
							c0-0.3,0.1-0.7,0.1-1.3v-1.5h-4c-0.5,0-0.9,0-1.3,0.1v-1.4c0.4,0,0.8,0.1,1.3,0.1h0.6V29.1z M184.9,31.6v-1.9h-2.2v1.9H184.9z
							"/>
						<path class="st9" d="M193.2,34c0,0.7,0,1.2,0.1,1.5h-1.4c0-0.4,0.1-0.7,0.1-1.5v-7.8c0-0.6,0-1,0-1.3c0.3,0,0.6,0,1.2,0h2.1
							c0.6,0,0.9,0,1.2,0c0,0.4,0,0.6,0,1.1v1.8c0,0.6,0,0.8,0,1.1c-0.3,0-0.7,0-1.1,0h-2.2V34z M193.2,26.5h2.1v-0.6h-2.1V26.5z
							 M193.2,27.9h2.1v-0.6h-2.1V27.9z M199.3,33.1c0,0.5,0,0.7,0,1c0.3,0,0.7,0.1,0.9,0.1c0.3,0,0.4-0.1,0.4-0.3v-5h-2.4
							c-0.4,0-0.8,0-1.1,0c0-0.3,0-0.6,0-1.1v-1.8c0-0.4,0-0.7,0-1.1c0.3,0,0.6,0,1.2,0h2.3c0.6,0,0.9,0,1.2,0c0,0.4,0,0.7,0,1.3V34
							c0,0.7-0.1,1-0.6,1.2c-0.3,0.1-0.6,0.1-1.4,0.1c-0.2,0-0.2,0-0.8,0c-0.1-0.5-0.1-0.8-0.3-1.2c-0.3,0-0.6,0-0.7,0h-2.5v0.7
							h-1.3c0-0.3,0.1-0.8,0.1-1.2v-2.9c0-0.4,0-0.8,0-1.1c0.3,0,0.6,0,1.1,0h2.7c0.5,0,0.8,0,1.1,0c0,0.3,0,0.6,0,1.1V33.1z
							 M195.7,31.3h2.4v-0.7h-2.4V31.3z M195.7,33.1h2.4v-0.8h-2.4V33.1z M198.5,26.5h2.2v-0.6h-2.2V26.5z M198.5,27.9h2.2v-0.6
							h-2.2V27.9z"/>
						<path class="st9" d="M211.3,25.8c0.2,0,0.4,0,0.7,0c0-0.7,0.6-1.3,1.3-1.3c0.7,0,1.3,0.6,1.3,1.3s-0.6,1.3-1.3,1.3
							c0,0,0,0-0.1,0c-0.4,1.6-0.9,2.8-1.6,3.9c-0.7,1.1-1.8,2.1-3,2.9c-0.7,0.5-1.2,0.7-2.3,1.2c-0.3-0.6-0.5-0.9-1.1-1.4
							c1.1-0.3,1.7-0.6,2.6-1.2c1.9-1.2,3-2.9,3.6-5.2h-5.7c-0.8,0-1.1,0-1.5,0.1v-1.6c0.5,0.1,0.7,0.1,1.5,0.1H211.3z M212.6,25.8
							c0,0.4,0.3,0.7,0.7,0.7s0.7-0.3,0.7-0.7c0-0.4-0.3-0.7-0.7-0.7C212.9,25.1,212.6,25.5,212.6,25.8z"/>
						<path class="st9" d="M218.1,33.9v0.8h-1.5c0-0.3,0-0.6,0-1v-6.9c0-0.5,0-0.7,0-1c0.3,0,0.5,0,1,0h6.8c0.5,0,0.7,0,1,0
							c0,0.3,0,0.6,0,1v6.9c0,0.4,0,0.8,0,1h-1.5v-0.8H218.1z M223.8,27.2h-5.8v5.3h5.8V27.2z"/>
						<path class="st9" d="M228.9,28c1.2,0.5,2.2,1,3.2,1.6l-0.7,1.4c-1-0.7-2-1.3-3.3-1.8L228.9,28z M228.3,33.4
							c0.9,0,2.2-0.3,3.5-0.8c1.5-0.6,2.5-1.4,3.5-2.6c0.6-0.9,1-1.6,1.4-2.7c0.5,0.5,0.7,0.7,1.2,1.1c-0.6,1.3-1.1,2.2-1.8,3
							c-1.5,1.8-3.6,2.8-6.5,3.4c-0.4,0.1-0.6,0.1-0.8,0.2L228.3,33.4z M229.8,25.1c1.2,0.5,2.2,0.9,3.2,1.5l-0.8,1.3
							c-1.1-0.7-2.2-1.3-3.2-1.6L229.8,25.1z M236.2,25.2c0.5,0.5,0.7,0.8,1.1,1.6l-0.9,0.5c-0.4-0.7-0.7-1.1-1.1-1.6L236.2,25.2z
							 M237.7,26.5c-0.3-0.6-0.7-1.1-1.1-1.5l0.9-0.5c0.5,0.5,0.8,0.9,1.1,1.5L237.7,26.5z"/>
						<path class="st9" d="M245.6,33.5h2.4c0.6,0,0.8,0,1.1-0.1v1.3c-0.3,0-0.6,0-1.1,0h-6.2c-0.5,0-0.8,0-1.1,0v-1.3
							c0.3,0.1,0.6,0.1,1.1,0.1h2.4v-3.9h-1.6c-0.4,0-0.7,0-1.1,0.1v-1.4c0.3,0.1,0.6,0.1,1.1,0.1h4.7c0.5,0,0.8,0,1.1-0.1v1.4
							c-0.3,0-0.5,0-1.1,0h-1.7V33.5z"/>
						<path class="st9" d="M261.4,26.9c-0.1,0.2-0.2,0.3-0.3,0.7c-0.6,1.8-1.4,3.4-2.5,4.6c-1.1,1.3-2.4,2.2-4.3,3
							c-0.3-0.6-0.5-0.8-1-1.3c1.2-0.5,1.9-0.9,2.6-1.4c1.7-1.3,2.8-2.9,3.5-5.1l-3.6,0.1c-0.7,1.2-1.7,2.2-2.8,3.1
							c-0.4-0.5-0.5-0.6-1.2-1c1.4-0.9,2.2-1.9,3.1-3.5c0.4-0.7,0.6-1.2,0.6-1.6l1.6,0.3c-0.1,0.1-0.1,0.1-0.2,0.4
							c0,0.1,0,0.1-0.2,0.3c0,0.1,0,0.1-0.2,0.3c-0.1,0.2-0.1,0.2-0.2,0.4c0.2,0,0.3,0,0.6,0l2.6,0c0.5,0,0.6,0,0.9-0.1L261.4,26.9z
							"/>
						<path class="st9" d="M266.1,35.1c0.1-0.4,0.1-0.7,0.1-1.3v-7.7c0-0.6,0-0.9-0.1-1.2h1.6c0,0.4,0,0.5,0,1.3v2.2
							c1.6,0.6,3.5,1.5,5.4,2.5l-0.8,1.4c-1-0.7-2.2-1.4-4.2-2.3c-0.3-0.1-0.3-0.1-0.4-0.2c0,0.3,0,0.5,0,0.8v3.2c0,0.6,0,0.9,0,1.3
							H266.1z"/>
						<path class="st9" d="M280.6,26.7c0.4,0,0.6,0,0.8,0v1.1c-0.2,0-0.4,0-0.8,0h-0.8c0.2,0.3,0.5,0.4,1.1,0.8
							c-0.3,0.3-0.4,0.4-0.7,1c-0.6-0.5-0.8-0.7-1.1-1.1c0,0.3,0,0.4,0,0.5v0.4c0,0.2,0,0.3,0,0.4h-1.3c0-0.1,0-0.3,0-0.4v-0.5
							c0-0.1,0-0.3,0-0.5c-0.6,0.9-1,1.2-2,1.9c-0.3-0.4-0.4-0.6-0.8-1c1-0.5,1.5-0.9,1.9-1.5h-0.6c-0.4,0-0.7,0-1,0.1v-1.2
							c0.3,0,0.6,0.1,1,0.1h1.4v-1.4c0-0.4,0-0.6-0.1-0.8h1.3c0,0.2,0,0.4,0,0.8v1.4H280.6z M280,34.9c-0.4-0.3-0.6-0.5-1.1-0.7
							c-0.8,0.7-1.5,1-2.9,1.4c-0.2-0.4-0.4-0.7-0.6-1.1c1.1-0.2,1.7-0.5,2.4-0.9c-0.6-0.3-0.9-0.4-1.8-0.7c0.4-0.5,0.5-0.7,0.8-1.2
							h-0.3c-0.4,0-0.7,0-0.9,0.1v-1.2c0.3,0,0.5,0.1,0.9,0.1h0.9c0.1-0.3,0.2-0.4,0.3-0.9l1.2,0.2c-0.1,0.3-0.2,0.4-0.3,0.6h1.9
							c0.4,0,0.7,0,0.9-0.1v1.2c-0.3,0-0.5-0.1-1-0.1c-0.2,0.8-0.3,1-0.7,1.5c0.5,0.2,0.6,0.3,1,0.5L280,34.9z M276.9,24.6
							c0.5,0.7,0.6,0.9,0.8,1.6l-1.1,0.4c-0.2-0.7-0.4-1-0.8-1.6L276.9,24.6z M278.1,31.7c-0.2,0.3-0.2,0.3-0.4,0.7
							c0.5,0.2,0.7,0.2,1,0.4c0.3-0.3,0.4-0.6,0.5-1.1H278.1z M281.3,25c-0.5,0.9-0.5,1.1-0.9,1.6l-1-0.5c0.4-0.5,0.6-1,0.9-1.6
							L281.3,25z M286.6,27.7c-0.2,0-0.4,0-0.8,0c-0.1,2-0.5,3.4-1.2,4.7c0.6,0.8,1.3,1.4,2.3,1.9c-0.3,0.4-0.5,0.7-0.7,1.3
							c-0.9-0.5-1.7-1.2-2.3-2.1c-0.8,0.9-1.7,1.6-2.7,2.1c-0.2-0.6-0.3-0.8-0.6-1.2c0.5-0.3,0.7-0.3,0.9-0.5
							c0.7-0.5,1.2-0.9,1.7-1.5c-0.6-1-0.8-1.7-1-2.8c-0.2,0.3-0.3,0.5-0.6,0.8c-0.3-0.3-0.5-0.6-0.9-0.9c0.7-0.9,1.2-2,1.6-3.5
							c0.2-0.6,0.3-1.3,0.3-1.6l1.3,0.3c0,0.1-0.1,0.3-0.2,0.7c-0.1,0.3-0.2,0.7-0.3,1.2h2.1c0.6,0,0.8,0,1.1-0.1V27.7z M282.9,27.7
							c-0.1,0.2-0.1,0.2-0.2,0.4c0.2,1.3,0.4,2.1,1,3.2c0.5-1,0.7-2,0.7-3.5H282.9z"/>
					</g>
				</g>
				<g id="ipad_7_">
					<path class="st29" d="M221.7,250.6l-46.2,0c-1.6,0-2.8,1.3-2.8,2.8l0,63.4c0,1.6,1.3,2.8,2.8,2.8l46.2,0c1.6,0,2.8-1.3,2.8-2.8
						l0-63.4C224.6,251.9,223.3,250.6,221.7,250.6z"/>
					<rect x="175.1" y="256.7" class="st30" width="47.1" height="55.9"/>
					<circle class="st31" cx="197.7" cy="315.6" r="1.4"/>
				</g>
				<g>
					<g>
						<path class="st9" d="M192.9,324.3v0.8H192v-0.8H192.9z M192.9,325.7c0,0.2,0,0.4,0,0.8v1.9c0,0.3,0,0.5,0,0.8H192
							c0-0.3,0-0.5,0-0.8v-1.9c0-0.3,0-0.5,0-0.8H192.9z"/>
						<path class="st9" d="M193.7,329.1c0-0.2,0-0.5,0-0.8v-3.2c0-0.3,0-0.5,0-0.8c0.3,0,0.4,0,0.8,0h1.3c0.6,0,1,0.1,1.3,0.4
							c0.2,0.2,0.4,0.6,0.4,1c0,0.5-0.1,0.8-0.4,1.1c-0.3,0.3-0.7,0.4-1.3,0.4h-1.1v1c0,0.3,0,0.6,0,0.8H193.7z M195.7,326.6
							c0.6,0,0.9-0.3,0.9-0.8c0-0.2-0.1-0.4-0.2-0.6c-0.1-0.2-0.3-0.2-0.7-0.2h-1.1v1.6H195.7z"/>
						<path class="st9" d="M200.2,328.7c-0.2,0.2-0.4,0.3-0.6,0.4c-0.2,0-0.4,0.1-0.6,0.1c-0.7,0-1.2-0.4-1.2-1c0-0.4,0.3-0.8,0.7-1
							c0.4-0.2,0.8-0.2,1.7-0.2v-0.3c0-0.3-0.2-0.5-0.7-0.5c-0.2,0-0.5,0.1-0.6,0.2c-0.1,0.1-0.2,0.2-0.2,0.4l-0.8-0.1
							c0.1-0.3,0.2-0.5,0.5-0.7c0.3-0.2,0.6-0.3,1.1-0.3c0.6,0,0.9,0.1,1.2,0.4c0.2,0.2,0.3,0.4,0.3,0.8v1.6c0,0.3,0,0.5,0,0.8h-0.8
							V328.7z M200.2,327.5c-1.1,0-1.6,0.2-1.6,0.7c0,0.3,0.2,0.5,0.5,0.5c0.3,0,0.6-0.1,0.8-0.3c0.1-0.1,0.2-0.3,0.2-0.5V327.5z"/>
						<path class="st9" d="M204.4,328.8c0-0.1,0-0.1,0-0.2c-0.3,0.4-0.6,0.6-1.2,0.6c-0.4,0-0.7-0.1-1-0.3c-0.4-0.3-0.6-0.9-0.6-1.5
							c0-1.1,0.6-1.8,1.6-1.8c0.4,0,0.7,0.1,0.9,0.3c0.1,0.1,0.2,0.2,0.3,0.3c0-0.1,0-0.1,0-0.2c0,0,0-0.2,0-0.3v-0.6
							c0-0.4,0-0.6,0-0.8h0.8c0,0.3,0,0.5,0,0.8v3.2c0,0.4,0,0.5,0,0.8h-0.8V328.8z M203.4,328.6c0.3,0,0.6-0.2,0.8-0.4
							c0.1-0.2,0.2-0.5,0.2-0.8c0-0.3-0.1-0.6-0.3-0.8c-0.2-0.2-0.5-0.3-0.8-0.3c-0.6,0-1,0.5-1,1.2
							C202.4,328.1,202.8,328.6,203.4,328.6z"/>
					</g>
				</g>
				<g id="mac_12_">
					<path class="st32" d="M266.4,95.9h-69.6c-0.7,0-1.4-0.6-1.4-1.4V46.4c0-0.7,0.6-1.4,1.4-1.4h69.6c0.7,0,1.4,0.6,1.4,1.4v48.1
						C267.8,95.3,267.2,95.9,266.4,95.9z"/>
					<path class="st33" d="M264.8,87.3h-66.1c-1.1,0-1.9-0.9-1.9-1.9V48.2c0-1.1,0.9-1.9,1.9-1.9h66.1c1.1,0,1.9,0.9,1.9,1.9v37.2
						C266.7,86.5,265.8,87.3,264.8,87.3z"/>
					<rect x="199.3" y="49.6" class="st34" width="64.2" height="33.2"/>
					<polygon class="st35" points="240.7,96 224.3,96 219.2,111.6 245.8,111.6 					"/>
					<polygon class="st32" points="267.8,131.2 195.5,131.2 199.6,118 263.7,118 					"/>
					<g id="keyboard_4_">
						<path class="st9" d="M231.7,129.3H206c-0.4,0-0.8-0.3-0.8-0.8l0,0c0-0.4,0.3-0.8,0.8-0.8h25.8c0.4,0,0.8,0.3,0.8,0.8l0,0
							C232.5,128.9,232.2,129.3,231.7,129.3z"/>
						<path class="st9" d="M203.7,129.3L203.7,129.3c0.4,0,0.8-0.3,0.8-0.8l0,0c0-0.4-0.3-0.8-0.8-0.8l0,0c-0.4,0-0.8,0.3-0.8,0.8
							l0,0C203,128.9,203.3,129.3,203.7,129.3z"/>
						<path class="st9" d="M201.7,129.3L201.7,129.3c0.4,0,0.8-0.3,0.8-0.8l0,0c0-0.4-0.3-0.8-0.8-0.8l0,0c-0.4,0-0.8,0.3-0.8,0.8
							l0,0C200.9,128.9,201.3,129.3,201.7,129.3z"/>
						<path class="st9" d="M199.6,129.3L199.6,129.3c0.4,0,0.8-0.3,0.8-0.8l0,0c0-0.4-0.3-0.8-0.8-0.8l0,0c-0.4,0-0.8,0.3-0.8,0.8
							l0,0C198.9,128.9,199.2,129.3,199.6,129.3z"/>
						<path class="st9" d="M238.5,129.3L238.5,129.3c0.4,0,0.8-0.3,0.8-0.8l0,0c0-0.4-0.3-0.8-0.8-0.8l0,0c-0.4,0-0.8,0.3-0.8,0.8
							l0,0C237.7,129,238.1,129.3,238.5,129.3z"/>
						<path class="st9" d="M236.5,129.3L236.5,129.3c0.4,0,0.8-0.3,0.8-0.8l0,0c0-0.4-0.3-0.8-0.8-0.8l0,0c-0.4,0-0.8,0.3-0.8,0.8
							l0,0C235.7,129,236,129.3,236.5,129.3z"/>
						<path class="st9" d="M234.4,129.3L234.4,129.3c0.4,0,0.8-0.3,0.8-0.8l0,0c0-0.4-0.3-0.8-0.8-0.8l0,0c-0.4,0-0.8,0.3-0.8,0.8
							l0,0C233.6,129,234,129.3,234.4,129.3z"/>
						<path class="st9" d="M238.6,127L238.6,127c0.4,0,0.8-0.3,0.8-0.8l0,0c0-0.4-0.3-0.8-0.8-0.8l0,0c-0.4,0-0.8,0.3-0.8,0.8l0,0
							C237.8,126.6,238.1,127,238.6,127z"/>
						<path class="st9" d="M236.5,127L236.5,127c0.4,0,0.8-0.3,0.8-0.8l0,0c0-0.4-0.3-0.8-0.8-0.8l0,0c-0.4,0-0.8,0.3-0.8,0.8l0,0
							C235.7,126.6,236.1,127,236.5,127z"/>
						<path class="st9" d="M234.5,127L234.5,127c0.4,0,0.8-0.3,0.8-0.8l0,0c0-0.4-0.3-0.8-0.8-0.8l0,0c-0.4,0-0.8,0.3-0.8,0.8l0,0
							C233.7,126.6,234,127,234.5,127z"/>
						<path class="st9" d="M232.2,127L232.2,127c0.4,0,0.8-0.3,0.8-0.8l0,0c0-0.4-0.3-0.8-0.8-0.8l0,0c-0.4,0-0.8,0.3-0.8,0.8l0,0
							C231.4,126.6,231.8,127,232.2,127z"/>
						<path class="st9" d="M230.1,127L230.1,127c0.4,0,0.8-0.3,0.8-0.8l0,0c0-0.4-0.3-0.8-0.8-0.8l0,0c-0.4,0-0.8,0.3-0.8,0.8l0,0
							C229.4,126.6,229.7,127,230.1,127z"/>
						<path class="st9" d="M228.1,127L228.1,127c0.4,0,0.8-0.3,0.8-0.8l0,0c0-0.4-0.3-0.8-0.8-0.8l0,0c-0.4,0-0.8,0.3-0.8,0.8l0,0
							C227.3,126.6,227.7,127,228.1,127z"/>
						<path class="st9" d="M225.7,127L225.7,127c0.4,0,0.8-0.3,0.8-0.8l0,0c0-0.4-0.3-0.8-0.8-0.8l0,0c-0.4,0-0.8,0.3-0.8,0.8l0,0
							C225,126.6,225.3,127,225.7,127z"/>
						<path class="st9" d="M223.7,127L223.7,127c0.4,0,0.8-0.3,0.8-0.8l0,0c0-0.4-0.3-0.8-0.8-0.8l0,0c-0.4,0-0.8,0.3-0.8,0.8l0,0
							C222.9,126.6,223.3,127,223.7,127z"/>
						<path class="st9" d="M221.6,127L221.6,127c0.4,0,0.8-0.3,0.8-0.8l0,0c0-0.4-0.3-0.8-0.8-0.8l0,0c-0.4,0-0.8,0.3-0.8,0.8l0,0
							C220.9,126.6,221.2,127,221.6,127z"/>
						<path class="st9" d="M219.4,127L219.4,127c0.4,0,0.8-0.3,0.8-0.8l0,0c0-0.4-0.3-0.8-0.8-0.8l0,0c-0.4,0-0.8,0.3-0.8,0.8l0,0
							C218.6,126.6,218.9,127,219.4,127z"/>
						<path class="st9" d="M217.3,127L217.3,127c0.4,0,0.8-0.3,0.8-0.8l0,0c0-0.4-0.3-0.8-0.8-0.8l0,0c-0.4,0-0.8,0.3-0.8,0.8l0,0
							C216.5,126.6,216.9,127,217.3,127z"/>
						<path class="st9" d="M215.2,127L215.2,127c0.4,0,0.8-0.3,0.8-0.8l0,0c0-0.4-0.3-0.8-0.8-0.8l0,0c-0.4,0-0.8,0.3-0.8,0.8l0,0
							C214.5,126.6,214.8,127,215.2,127z"/>
						<path class="st9" d="M212.9,127L212.9,127c0.4,0,0.8-0.3,0.8-0.8l0,0c0-0.4-0.3-0.8-0.8-0.8l0,0c-0.4,0-0.8,0.3-0.8,0.8l0,0
							C212.1,126.6,212.5,127,212.9,127z"/>
						<path class="st9" d="M210.8,127L210.8,127c0.4,0,0.8-0.3,0.8-0.8l0,0c0-0.4-0.3-0.8-0.8-0.8l0,0c-0.4,0-0.8,0.3-0.8,0.8l0,0
							C210.1,126.6,210.4,127,210.8,127z"/>
						<path class="st9" d="M208.8,127L208.8,127c0.4,0,0.8-0.3,0.8-0.8l0,0c0-0.4-0.3-0.8-0.8-0.8l0,0c-0.4,0-0.8,0.3-0.8,0.8l0,0
							C208,126.6,208.4,127,208.8,127z"/>
						<path class="st9" d="M206.5,127L206.5,127c0.4,0,0.8-0.3,0.8-0.8l0,0c0-0.4-0.3-0.8-0.8-0.8l0,0c-0.4,0-0.8,0.3-0.8,0.8l0,0
							C205.8,126.6,206.1,127,206.5,127z"/>
						<path class="st9" d="M204.5,127L204.5,127c0.4,0,0.8-0.3,0.8-0.8l0,0c0-0.4-0.3-0.8-0.8-0.8l0,0c-0.4,0-0.8,0.3-0.8,0.8l0,0
							C203.7,126.6,204,127,204.5,127z"/>
						<path class="st9" d="M202.4,127L202.4,127c0.4,0,0.8-0.3,0.8-0.8l0,0c0-0.4-0.3-0.8-0.8-0.8l0,0c-0.4,0-0.8,0.3-0.8,0.8l0,0
							C201.6,126.6,202,127,202.4,127z"/>
						<path class="st9" d="M200.1,127L200.1,127c0.4,0,0.8-0.3,0.8-0.8l0,0c0-0.4-0.3-0.8-0.8-0.8l0,0c-0.4,0-0.8,0.3-0.8,0.8l0,0
							C199.3,126.6,199.7,127,200.1,127z"/>
						<path class="st9" d="M239.3,124.6L239.3,124.6c0.4,0,0.8-0.3,0.8-0.8l0,0c0-0.4-0.3-0.8-0.8-0.8l0,0c-0.4,0-0.8,0.3-0.8,0.8
							l0,0C238.6,124.3,238.9,124.6,239.3,124.6z"/>
						<path class="st9" d="M237.3,124.6L237.3,124.6c0.4,0,0.8-0.3,0.8-0.8l0,0c0-0.4-0.3-0.8-0.8-0.8l0,0c-0.4,0-0.8,0.3-0.8,0.8
							l0,0C236.5,124.3,236.9,124.6,237.3,124.6z"/>
						<path class="st9" d="M235.2,124.6L235.2,124.6c0.4,0,0.8-0.3,0.8-0.8l0,0c0-0.4-0.3-0.8-0.8-0.8l0,0c-0.4,0-0.8,0.3-0.8,0.8
							l0,0C234.5,124.3,234.8,124.6,235.2,124.6z"/>
						<path class="st9" d="M233,124.6L233,124.6c0.4,0,0.8-0.3,0.8-0.8l0,0c0-0.4-0.3-0.8-0.8-0.8l0,0c-0.4,0-0.8,0.3-0.8,0.8l0,0
							C232.2,124.3,232.5,124.6,233,124.6z"/>
						<path class="st9" d="M230.9,124.6L230.9,124.6c0.4,0,0.8-0.3,0.8-0.8l0,0c0-0.4-0.3-0.8-0.8-0.8l0,0c-0.4,0-0.8,0.3-0.8,0.8
							l0,0C230.1,124.3,230.5,124.6,230.9,124.6z"/>
						<path class="st9" d="M228.8,124.6L228.8,124.6c0.4,0,0.8-0.3,0.8-0.8l0,0c0-0.4-0.3-0.8-0.8-0.8l0,0c-0.4,0-0.8,0.3-0.8,0.8
							l0,0C228.1,124.3,228.4,124.6,228.8,124.6z"/>
						<path class="st9" d="M226.5,124.6L226.5,124.6c0.4,0,0.8-0.3,0.8-0.8l0,0c0-0.4-0.3-0.8-0.8-0.8l0,0c-0.4,0-0.8,0.3-0.8,0.8
							l0,0C225.7,124.3,226.1,124.6,226.5,124.6z"/>
						<path class="st9" d="M224.4,124.6L224.4,124.6c0.4,0,0.8-0.3,0.8-0.8l0,0c0-0.4-0.3-0.8-0.8-0.8l0,0c-0.4,0-0.8,0.3-0.8,0.8
							l0,0C223.7,124.3,224,124.6,224.4,124.6z"/>
						<path class="st9" d="M222.4,124.6L222.4,124.6c0.4,0,0.8-0.3,0.8-0.8l0,0c0-0.4-0.3-0.8-0.8-0.8l0,0c-0.4,0-0.8,0.3-0.8,0.8
							l0,0C221.6,124.3,222,124.6,222.4,124.6z"/>
						<path class="st9" d="M220.1,124.6L220.1,124.6c0.4,0,0.8-0.3,0.8-0.8l0,0c0-0.4-0.3-0.8-0.8-0.8l0,0c-0.4,0-0.8,0.3-0.8,0.8
							l0,0C219.4,124.3,219.7,124.6,220.1,124.6z"/>
						<path class="st9" d="M218.1,124.6L218.1,124.6c0.4,0,0.8-0.3,0.8-0.8l0,0c0-0.4-0.3-0.8-0.8-0.8l0,0c-0.4,0-0.8,0.3-0.8,0.8
							l0,0C217.3,124.3,217.6,124.6,218.1,124.6z"/>
						<path class="st9" d="M216,124.6L216,124.6c0.4,0,0.8-0.3,0.8-0.8l0,0c0-0.4-0.3-0.8-0.8-0.8l0,0c-0.4,0-0.8,0.3-0.8,0.8l0,0
							C215.2,124.3,215.6,124.6,216,124.6z"/>
						<path class="st9" d="M213.7,124.6L213.7,124.6c0.4,0,0.8-0.3,0.8-0.8l0,0c0-0.4-0.3-0.8-0.8-0.8l0,0c-0.4,0-0.8,0.3-0.8,0.8
							l0,0C212.9,124.3,213.3,124.6,213.7,124.6z"/>
						<path class="st9" d="M211.6,124.6L211.6,124.6c0.4,0,0.8-0.3,0.8-0.8l0,0c0-0.4-0.3-0.8-0.8-0.8l0,0c-0.4,0-0.8,0.3-0.8,0.8
							l0,0C210.8,124.3,211.2,124.6,211.6,124.6z"/>
						<path class="st9" d="M209.6,124.6L209.6,124.6c0.4,0,0.8-0.3,0.8-0.8l0,0c0-0.4-0.3-0.8-0.8-0.8l0,0c-0.4,0-0.8,0.3-0.8,0.8
							l0,0C208.8,124.3,209.1,124.6,209.6,124.6z"/>
						<path class="st9" d="M207.3,124.6L207.3,124.6c0.4,0,0.8-0.3,0.8-0.8l0,0c0-0.4-0.3-0.8-0.8-0.8l0,0c-0.4,0-0.8,0.3-0.8,0.8
							l0,0C206.5,124.3,206.9,124.6,207.3,124.6z"/>
						<path class="st9" d="M205.2,124.6L205.2,124.6c0.4,0,0.8-0.3,0.8-0.8l0,0c0-0.4-0.3-0.8-0.8-0.8l0,0c-0.4,0-0.8,0.3-0.8,0.8
							l0,0C204.5,124.3,204.8,124.6,205.2,124.6z"/>
						<path class="st9" d="M203.2,124.6L203.2,124.6c0.4,0,0.8-0.3,0.8-0.8l0,0c0-0.4-0.3-0.8-0.8-0.8l0,0c-0.4,0-0.8,0.3-0.8,0.8
							l0,0C202.4,124.3,202.8,124.6,203.2,124.6z"/>
						<path class="st9" d="M200.8,124.6L200.8,124.6c0.4,0,0.8-0.3,0.8-0.8l0,0c0-0.4-0.3-0.8-0.8-0.8l0,0c-0.4,0-0.8,0.3-0.8,0.8
							l0,0C200.1,124.3,200.4,124.6,200.8,124.6z"/>
						<path class="st9" d="M239.9,122.2L239.9,122.2c0.4,0,0.8-0.3,0.8-0.8l0,0c0-0.4-0.3-0.8-0.8-0.8l0,0c-0.4,0-0.8,0.3-0.8,0.8
							l0,0C239.2,121.8,239.5,122.2,239.9,122.2z"/>
						<path class="st9" d="M237.9,122.2L237.9,122.2c0.4,0,0.8-0.3,0.8-0.8l0,0c0-0.4-0.3-0.8-0.8-0.8l0,0c-0.4,0-0.8,0.3-0.8,0.8
							l0,0C237.1,121.8,237.4,122.2,237.9,122.2z"/>
						<path class="st9" d="M235.8,122.2L235.8,122.2c0.4,0,0.8-0.3,0.8-0.8l0,0c0-0.4-0.3-0.8-0.8-0.8l0,0c-0.4,0-0.8,0.3-0.8,0.8
							l0,0C235,121.8,235.4,122.2,235.8,122.2z"/>
						<path class="st9" d="M248,122.2L248,122.2c0.4,0,0.8-0.3,0.8-0.8l0,0c0-0.4-0.3-0.8-0.8-0.8l0,0c-0.4,0-0.8,0.3-0.8,0.8l0,0
							C247.2,121.8,247.6,122.2,248,122.2z"/>
						<path class="st9" d="M245.9,122.2L245.9,122.2c0.4,0,0.8-0.3,0.8-0.8l0,0c0-0.4-0.3-0.8-0.8-0.8l0,0c-0.4,0-0.8,0.3-0.8,0.8
							l0,0C245.2,121.8,245.5,122.2,245.9,122.2z"/>
						<path class="st9" d="M243.9,122.2L243.9,122.2c0.4,0,0.8-0.3,0.8-0.8l0,0c0-0.4-0.3-0.8-0.8-0.8l0,0c-0.4,0-0.8,0.3-0.8,0.8
							l0,0C243.1,121.8,243.5,122.2,243.9,122.2z"/>
						<path class="st9" d="M233.5,122.2L233.5,122.2c0.4,0,0.8-0.3,0.8-0.8l0,0c0-0.4-0.3-0.8-0.8-0.8l0,0c-0.4,0-0.8,0.3-0.8,0.8
							l0,0C232.8,121.8,233.1,122.2,233.5,122.2z"/>
						<path class="st9" d="M257.2,127L257.2,127c-0.4,0-0.8-0.3-0.8-0.8l0,0c0-0.4,0.3-0.8,0.8-0.8l0,0c0.4,0,0.8,0.3,0.8,0.8l0,0
							C258,126.6,257.6,127,257.2,127z"/>
						<path class="st9" d="M259.2,127L259.2,127c-0.4,0-0.8-0.3-0.8-0.8l0,0c0-0.4,0.3-0.8,0.8-0.8l0,0c0.4,0,0.8,0.3,0.8,0.8l0,0
							C260,126.6,259.7,127,259.2,127z"/>
						<path class="st9" d="M261.3,127L261.3,127c-0.4,0-0.8-0.3-0.8-0.8l0,0c0-0.4,0.3-0.8,0.8-0.8l0,0c0.4,0,0.8,0.3,0.8,0.8l0,0
							C262.1,126.6,261.7,127,261.3,127z"/>
						<path class="st9" d="M263.6,127L263.6,127c-0.4,0-0.8-0.3-0.8-0.8l0,0c0-0.4,0.3-0.8,0.8-0.8l0,0c0.4,0,0.8,0.3,0.8,0.8l0,0
							C264.3,126.6,264,127,263.6,127z"/>
						<path class="st9" d="M258.1,129.3L258.1,129.3c-0.4,0-0.8-0.3-0.8-0.8l0,0c0-0.4,0.3-0.8,0.8-0.8l0,0c0.4,0,0.8,0.3,0.8,0.8
							l0,0C258.9,128.9,258.5,129.3,258.1,129.3z"/>
						<path class="st9" d="M260.2,129.3L260.2,129.3c-0.4,0-0.8-0.3-0.8-0.8l0,0c0-0.4,0.3-0.8,0.8-0.8l0,0c0.4,0,0.8,0.3,0.8,0.8
							l0,0C260.9,128.9,260.6,129.3,260.2,129.3z"/>
						<path class="st9" d="M262.2,129.3L262.2,129.3c-0.4,0-0.8-0.3-0.8-0.8l0,0c0-0.4,0.3-0.8,0.8-0.8l0,0c0.4,0,0.8,0.3,0.8,0.8
							l0,0C263,128.9,262.6,129.3,262.2,129.3z"/>
						<path class="st9" d="M264.5,129.3L264.5,129.3c-0.4,0-0.8-0.3-0.8-0.8l0,0c0-0.4,0.3-0.8,0.8-0.8l0,0c0.4,0,0.8,0.3,0.8,0.8
							l0,0C265.2,128.9,264.9,129.3,264.5,129.3z"/>
						<path class="st9" d="M256.4,124.6L256.4,124.6c-0.4,0-0.8-0.3-0.8-0.8l0,0c0-0.4,0.3-0.8,0.8-0.8l0,0c0.4,0,0.8,0.3,0.8,0.8
							l0,0C257.2,124.3,256.8,124.6,256.4,124.6z"/>
						<path class="st9" d="M258.5,124.6L258.5,124.6c-0.4,0-0.8-0.3-0.8-0.8l0,0c0-0.4,0.3-0.8,0.8-0.8l0,0c0.4,0,0.8,0.3,0.8,0.8
							l0,0C259.2,124.3,258.9,124.6,258.5,124.6z"/>
						<path class="st9" d="M260.5,124.6L260.5,124.6c-0.4,0-0.8-0.3-0.8-0.8l0,0c0-0.4,0.3-0.8,0.8-0.8l0,0c0.4,0,0.8,0.3,0.8,0.8
							l0,0C261.3,124.3,260.9,124.6,260.5,124.6z"/>
						<path class="st9" d="M262.8,124.6L262.8,124.6c-0.4,0-0.8-0.3-0.8-0.8l0,0c0-0.4,0.3-0.8,0.8-0.8l0,0c0.4,0,0.8,0.3,0.8,0.8
							l0,0C263.6,124.3,263.2,124.6,262.8,124.6z"/>
						<path class="st9" d="M255.8,122.2L255.8,122.2c-0.4,0-0.8-0.3-0.8-0.8l0,0c0-0.4,0.3-0.8,0.8-0.8l0,0c0.4,0,0.8,0.3,0.8,0.8
							l0,0C256.6,121.8,256.2,122.2,255.8,122.2z"/>
						<path class="st9" d="M255.1,127.1L255.1,127.1c-0.4,0-0.8-0.3-0.8-0.8l0,0c0-0.4,0.3-0.8,0.8-0.8l0,0c0.4,0,0.8,0.3,0.8,0.8
							l0,0C255.9,126.7,255.5,127.1,255.1,127.1z"/>
						<path class="st9" d="M256,129.4L256,129.4c-0.4,0-0.8-0.3-0.8-0.8l0,0c0-0.4,0.3-0.8,0.8-0.8l0,0c0.4,0,0.8,0.3,0.8,0.8l0,0
							C256.8,129,256.4,129.4,256,129.4z"/>
						<path class="st9" d="M254.3,124.7L254.3,124.7c-0.4,0-0.8-0.3-0.8-0.8l0,0c0-0.4,0.3-0.8,0.8-0.8l0,0c0.4,0,0.8,0.3,0.8,0.8
							l0,0C255.1,124.4,254.8,124.7,254.3,124.7z"/>
						<path class="st9" d="M246.5,127L246.5,127c-0.4,0-0.8-0.3-0.8-0.8l0,0c0-0.4,0.3-0.8,0.8-0.8l0,0c0.4,0,0.8,0.3,0.8,0.8l0,0
							C247.3,126.6,246.9,127,246.5,127z"/>
						<path class="st9" d="M248.6,127L248.6,127c-0.4,0-0.8-0.3-0.8-0.8l0,0c0-0.4,0.3-0.8,0.8-0.8l0,0c0.4,0,0.8,0.3,0.8,0.8l0,0
							C249.3,126.6,249,127,248.6,127z"/>
						<path class="st9" d="M246.7,129.2L246.7,129.2c-0.4,0-0.8-0.3-0.8-0.8l0,0c0-0.4,0.3-0.8,0.8-0.8l0,0c0.4,0,0.8,0.3,0.8,0.8
							l0,0C247.5,128.9,247.2,129.2,246.7,129.2z"/>
						<path class="st9" d="M246.2,124.6L246.2,124.6c-0.4,0-0.8-0.3-0.8-0.8l0,0c0-0.4,0.3-0.8,0.8-0.8l0,0c0.4,0,0.8,0.3,0.8,0.8
							l0,0C247,124.3,246.6,124.6,246.2,124.6z"/>
						<path class="st9" d="M244.4,127.1L244.4,127.1c-0.4,0-0.8-0.3-0.8-0.8l0,0c0-0.4,0.3-0.8,0.8-0.8l0,0c0.4,0,0.8,0.3,0.8,0.8
							l0,0C245.2,126.7,244.9,127.1,244.4,127.1z"/>
						<path class="st9" d="M253.7,122.3L253.7,122.3c-0.4,0-0.8-0.3-0.8-0.8l0,0c0-0.4,0.3-0.8,0.8-0.8l0,0c0.4,0,0.8,0.3,0.8,0.8
							l0,0C254.5,121.9,254.2,122.3,253.7,122.3z"/>
						<path class="st9" d="M257.9,122.2L257.9,122.2c-0.4,0-0.8-0.3-0.8-0.8l0,0c0-0.4,0.3-0.8,0.8-0.8l0,0c0.4,0,0.8,0.3,0.8,0.8
							l0,0C258.6,121.8,258.3,122.2,257.9,122.2z"/>
						<path class="st9" d="M259.9,122.2L259.9,122.2c-0.4,0-0.8-0.3-0.8-0.8l0,0c0-0.4,0.3-0.8,0.8-0.8l0,0c0.4,0,0.8,0.3,0.8,0.8
							l0,0C260.7,121.8,260.3,122.2,259.9,122.2z"/>
						<path class="st9" d="M262.2,122.2L262.2,122.2c-0.4,0-0.8-0.3-0.8-0.8l0,0c0-0.4,0.3-0.8,0.8-0.8l0,0c0.4,0,0.8,0.3,0.8,0.8
							l0,0C263,121.8,262.6,122.2,262.2,122.2z"/>
						<path class="st9" d="M231.5,122.2L231.5,122.2c0.4,0,0.8-0.3,0.8-0.8l0,0c0-0.4-0.3-0.8-0.8-0.8l0,0c-0.4,0-0.8,0.3-0.8,0.8
							l0,0C230.7,121.8,231.1,122.2,231.5,122.2z"/>
						<path class="st9" d="M229.4,122.2L229.4,122.2c0.4,0,0.8-0.3,0.8-0.8l0,0c0-0.4-0.3-0.8-0.8-0.8l0,0c-0.4,0-0.8,0.3-0.8,0.8
							l0,0C228.7,121.8,229,122.2,229.4,122.2z"/>
						<path class="st9" d="M227.1,122.2L227.1,122.2c0.4,0,0.8-0.3,0.8-0.8l0,0c0-0.4-0.3-0.8-0.8-0.8l0,0c-0.4,0-0.8,0.3-0.8,0.8
							l0,0C226.3,121.8,226.7,122.2,227.1,122.2z"/>
						<path class="st9" d="M225,122.2L225,122.2c0.4,0,0.8-0.3,0.8-0.8l0,0c0-0.4-0.3-0.8-0.8-0.8l0,0c-0.4,0-0.8,0.3-0.8,0.8l0,0
							C224.3,121.8,224.6,122.2,225,122.2z"/>
						<path class="st9" d="M223,122.2L223,122.2c0.4,0,0.8-0.3,0.8-0.8l0,0c0-0.4-0.3-0.8-0.8-0.8l0,0c-0.4,0-0.8,0.3-0.8,0.8l0,0
							C222.2,121.8,222.6,122.2,223,122.2z"/>
						<path class="st9" d="M220.7,122.2L220.7,122.2c0.4,0,0.8-0.3,0.8-0.8l0,0c0-0.4-0.3-0.8-0.8-0.8l0,0c-0.4,0-0.8,0.3-0.8,0.8
							l0,0C219.9,121.8,220.3,122.2,220.7,122.2z"/>
						<path class="st9" d="M218.7,122.2L218.7,122.2c0.4,0,0.8-0.3,0.8-0.8l0,0c0-0.4-0.3-0.8-0.8-0.8l0,0c-0.4,0-0.8,0.3-0.8,0.8
							l0,0C217.9,121.8,218.2,122.2,218.7,122.2z"/>
						<path class="st9" d="M216.6,122.2L216.6,122.2c0.4,0,0.8-0.3,0.8-0.8l0,0c0-0.4-0.3-0.8-0.8-0.8l0,0c-0.4,0-0.8,0.3-0.8,0.8
							l0,0C215.8,121.8,216.2,122.2,216.6,122.2z"/>
						<path class="st9" d="M214.3,122.2L214.3,122.2c0.4,0,0.8-0.3,0.8-0.8l0,0c0-0.4-0.3-0.8-0.8-0.8l0,0c-0.4,0-0.8,0.3-0.8,0.8
							l0,0C213.5,121.8,213.8,122.2,214.3,122.2z"/>
						<path class="st9" d="M212.2,122.2L212.2,122.2c0.4,0,0.8-0.3,0.8-0.8l0,0c0-0.4-0.3-0.8-0.8-0.8l0,0c-0.4,0-0.8,0.3-0.8,0.8
							l0,0C211.4,121.8,211.8,122.2,212.2,122.2z"/>
						<path class="st9" d="M210.2,122.2L210.2,122.2c0.4,0,0.8-0.3,0.8-0.8l0,0c0-0.4-0.3-0.8-0.8-0.8l0,0c-0.4,0-0.8,0.3-0.8,0.8
							l0,0C209.4,121.8,209.7,122.2,210.2,122.2z"/>
						<path class="st9" d="M207.9,122.2L207.9,122.2c0.4,0,0.8-0.3,0.8-0.8l0,0c0-0.4-0.3-0.8-0.8-0.8l0,0c-0.4,0-0.8,0.3-0.8,0.8
							l0,0C207.1,121.8,207.5,122.2,207.9,122.2z"/>
						<path class="st9" d="M205.8,122.2L205.8,122.2c0.4,0,0.8-0.3,0.8-0.8l0,0c0-0.4-0.3-0.8-0.8-0.8l0,0c-0.4,0-0.8,0.3-0.8,0.8
							l0,0C205.1,121.8,205.4,122.2,205.8,122.2z"/>
						<path class="st9" d="M203.8,122.2L203.8,122.2c0.4,0,0.8-0.3,0.8-0.8l0,0c0-0.4-0.3-0.8-0.8-0.8l0,0c-0.4,0-0.8,0.3-0.8,0.8
							l0,0C203,121.8,203.4,122.2,203.8,122.2z"/>
						<path class="st9" d="M201.4,122.2L201.4,122.2c0.4,0,0.8-0.3,0.8-0.8l0,0c0-0.4-0.3-0.8-0.8-0.8l0,0c-0.4,0-0.8,0.3-0.8,0.8
							l0,0C200.7,121.8,201,122.2,201.4,122.2z"/>
					</g>
				</g>
				<g id="books_10_">
					<g>
						
							<rect x="199.8" y="149.5" transform="matrix(0.9917 0.1288 -0.1288 0.9917 23.0837 -25.5948)" class="st36" width="19.4" height="32.3"/>
						<g>
							<path class="st9" d="M215.9,160.4l-11.2-1.5c-0.4-0.1-0.7-0.4-0.6-0.8l0,0c0.1-0.4,0.4-0.7,0.8-0.6l11.2,1.5
								c0.4,0.1,0.7,0.4,0.6,0.8l0,0C216.6,160.2,216.3,160.5,215.9,160.4z"/>
							<path class="st9" d="M215.2,165l-11.2-1.5c-0.4-0.1-0.7-0.4-0.6-0.8l0,0c0.1-0.4,0.4-0.7,0.8-0.6l11.2,1.5
								c0.4,0.1,0.7,0.4,0.6,0.8l0,0C216,164.8,215.6,165.1,215.2,165z"/>
							<path class="st9" d="M214.6,169.6l-11.2-1.5c-0.4-0.1-0.7-0.4-0.6-0.8l0,0c0.1-0.4,0.4-0.7,0.8-0.6l11.2,1.5
								c0.4,0.1,0.7,0.4,0.6,0.8l0,0C215.4,169.4,215,169.7,214.6,169.6z"/>
						</g>
					</g>
				</g>
				<g id="books_9_">
					<g>
						<rect x="182.6" y="147.5" class="st36" width="19.4" height="32.3"/>
						<g>
							<path class="st9" d="M197.9,157.6h-11.3c-0.4,0-0.7-0.3-0.7-0.7l0,0c0-0.4,0.3-0.7,0.7-0.7h11.3c0.4,0,0.7,0.3,0.7,0.7l0,0
								C198.7,157.3,198.3,157.6,197.9,157.6z"/>
							<path class="st9" d="M197.9,162.3h-11.3c-0.4,0-0.7-0.3-0.7-0.7l0,0c0-0.4,0.3-0.7,0.7-0.7h11.3c0.4,0,0.7,0.3,0.7,0.7l0,0
								C198.6,162,198.3,162.3,197.9,162.3z"/>
							<path class="st9" d="M197.9,166.9h-11.3c-0.4,0-0.7-0.3-0.7-0.7l0,0c0-0.4,0.3-0.7,0.7-0.7h11.3c0.4,0,0.7,0.3,0.7,0.7l0,0
								C198.6,166.6,198.3,166.9,197.9,166.9z"/>
						</g>
					</g>
				</g>
				<g id="iphone_12_">
					<path class="st37" d="M276.3,141l-24.7,0.1c-0.9,0-1.7,0.8-1.7,1.7l0.2,42c0,0.9,0.8,1.7,1.7,1.7l24.7-0.1
						c0.9,0,1.7-0.8,1.7-1.7l-0.2-42C278,141.7,277.3,141,276.3,141z"/>
					
						<rect x="251.3" y="145" transform="matrix(1 -5.167707e-03 5.167707e-03 1 -0.8409 1.367)" class="st38" width="25.5" height="36.7"/>
					
						<ellipse transform="matrix(1 -5.136536e-03 5.136536e-03 1 -0.9393 1.3595)" class="st39" cx="264.2" cy="183.5" rx="0.7" ry="0.8"/>
				</g>
				<g>
					<g>
						<path class="st9" d="M260.2,195.2c-0.5-0.6-1.2-1.3-1.8-1.8c-0.7,0.8-1.4,1.3-2.3,1.7c-0.2-0.3-0.2-0.4-0.5-0.7
							c0.5-0.2,0.7-0.3,1.2-0.7c0.9-0.6,1.6-1.5,2-2.4l0.1-0.2c-0.1,0-0.1,0-2,0c-0.3,0-0.5,0-0.7,0l0-0.8c0.2,0,0.3,0,0.5,0
							c0,0,0.1,0,0.1,0l2.1,0c0.3,0,0.4,0,0.5-0.1l0.4,0.4c-0.1,0.1-0.1,0.2-0.2,0.3c-0.3,0.6-0.6,1.2-0.9,1.7
							c0.4,0.3,0.7,0.5,1.1,0.9c0.2,0.1,0.2,0.1,0.9,0.8L260.2,195.2z"/>
						<path class="st9" d="M263,192.2c0.3,0.3,0.5,0.4,0.7,0.7c0.3,0.3,0.3,0.3,0.4,0.4c0.3-0.3,0.6-0.5,0.8-0.8
							c0.3-0.3,0.6-0.7,0.7-1c0,0,0,0,0-0.1c0,0,0,0,0,0c-0.1,0-0.2,0-0.3,0h-2.2c-0.2,0-0.4,0-0.7,0c-0.5,0-0.5,0-0.8,0v-0.8
							c0.2,0,0.4,0,0.8,0l3.3,0c0.3,0,0.3,0,0.5,0l0.4,0.5c-0.1,0.1-0.1,0.1-0.3,0.4c-0.6,0.9-1.2,1.7-1.9,2.3
							c0.3,0.3,0.5,0.6,0.8,1l-0.6,0.5c-0.3-0.5-0.7-1-1.2-1.5c-0.5-0.5-0.8-0.8-1.2-1.2L263,192.2z"/>
						<path class="st9" d="M269.2,192.4c0,0.1,0,0.1,0,0.2c-0.2,0.9-0.5,1.7-1,2.3c-0.3-0.2-0.4-0.3-0.7-0.4
							c0.4-0.5,0.6-0.9,0.8-1.6c0.1-0.3,0.1-0.5,0.2-0.7L269.2,192.4z M269.8,190.8c0-0.3,0-0.4,0-0.6h0.8c0,0.2,0,0.3,0,0.6v0.3
							h1.4c0.4,0,0.5,0,0.8,0v0.7c-0.2,0-0.4,0-0.8,0h-1.4v2.9c0,0.3,0,0.5,0,0.7h-0.8c0-0.2,0-0.4,0-0.7v-2.9h-1.3
							c-0.4,0-0.5,0-0.8,0v-0.7c0.2,0,0.4,0,0.8,0h1.3V190.8z M271.9,192.2c0,0.2,0.1,0.4,0.2,0.7c0.3,0.7,0.5,1.1,0.9,1.6
							c-0.3,0.2-0.4,0.2-0.7,0.4c-0.5-0.7-0.7-1.3-1-2.2c0-0.2-0.1-0.2-0.1-0.3L271.9,192.2z"/>
					</g>
				</g>
				<g>
					<g>
						<path class="st9" d="M190.1,190.2c0,0.1,0,0.1-0.1,0.5c-0.1,0.8-0.3,1.5-0.5,2.1c-0.3,0.7-0.6,1.3-1.1,1.9
							c-0.3-0.3-0.4-0.3-0.7-0.5c0.4-0.4,0.6-0.7,0.9-1.3c0.3-0.6,0.5-1.3,0.6-2.1c0-0.2,0.1-0.4,0.1-0.6c0,0,0,0,0-0.1L190.1,190.2
							z M191.8,190.1c0,0.3,0.1,0.9,0.3,1.4c0.3,1.1,0.7,1.9,1.3,2.6c-0.3,0.2-0.4,0.3-0.7,0.6c-0.4-0.5-0.7-1.1-1-1.8
							c-0.3-0.6-0.5-1.4-0.6-2.2c0-0.2-0.1-0.3-0.1-0.4L191.8,190.1z M193.4,190.6c0,0.4-0.3,0.7-0.7,0.7c-0.4,0-0.7-0.3-0.7-0.7
							c0-0.4,0.3-0.7,0.7-0.7C193.1,189.9,193.4,190.2,193.4,190.6z M192.4,190.6c0,0.2,0.2,0.3,0.3,0.3s0.3-0.2,0.3-0.3
							c0-0.2-0.2-0.3-0.3-0.3C192.5,190.2,192.4,190.4,192.4,190.6z"/>
						<path class="st9" d="M194.3,193.8c0.5,0,1.2-0.2,1.8-0.4c0.8-0.3,1.3-0.8,1.8-1.5c0.3-0.4,0.4-0.7,0.6-1.2
							c0.2,0.3,0.3,0.4,0.6,0.6c-0.5,1.1-1.1,1.8-1.9,2.4c-0.6,0.4-1.4,0.7-2.3,0.9c-0.2,0-0.3,0.1-0.4,0.1L194.3,193.8z
							 M194.8,190.1c0.7,0.4,1.1,0.7,1.5,1.2l-0.5,0.7c-0.5-0.5-1-0.9-1.5-1.2L194.8,190.1z"/>
						<path class="st9" d="M204.9,190.5c-0.1,0.1-0.1,0.1-0.1,0.3c-0.3,1.1-0.7,1.9-1.2,2.5c-0.6,0.7-1.2,1.1-2.2,1.5
							c-0.2-0.3-0.2-0.4-0.5-0.7c0.5-0.2,0.9-0.3,1.3-0.6c0.9-0.6,1.5-1.5,1.8-2.6h-2.9c-0.4,0-0.5,0-0.8,0v-0.8c0.2,0,0.4,0,0.8,0
							h2.8c0.3,0,0.5,0,0.6-0.1L204.9,190.5z"/>
					</g>
				</g>
				<g id="_x35_0件_1_">
					<g>
						<g>
							<path class="st9" d="M202,220.1c0.3,0.8,0.4,1.2,0.8,1.6c0.8,1,2,1.4,3.4,1.4c2.8,0,4.6-1.8,4.6-4.6c0-2.7-1.7-4.5-4.4-4.5
								c-1.4,0-2.6,0.4-3.5,1.3c-0.4,0.4-0.6,0.6-0.8,1.3l-3.5-0.3c0.3-2,0.3-2.1,0.4-2.9l0.6-6.9c0-0.5,0.1-1.5,0.1-2.9
								c0.8,0.1,1.5,0.1,3,0.1h6.9c1.9,0,2.6,0,3.9-0.2v3.5c-1.2-0.2-2.3-0.2-3.9-0.2h-6.6l-0.4,4.9c0,0.2-0.1,0.6-0.2,1.2
								c1.4-1.2,2.9-1.7,4.8-1.7c2.3,0,4.1,0.7,5.5,2.1c1.4,1.3,2,3,2,5.3c0,4.9-3.2,8-8.4,8c-2.8,0-4.8-0.8-6.4-2.4
								c-0.8-0.8-1.1-1.5-1.8-3.1L202,220.1z"/>
							<path class="st9" d="M220.5,224c-0.8-0.8-1.5-1.8-1.8-2.8c-0.7-2-1.1-4.2-1.1-6.4c0-3,0.7-6,1.7-7.8c1.5-2.5,4-3.9,7.1-3.9
								c2.4,0,4.4,0.8,5.9,2.3c0.8,0.8,1.5,1.8,1.8,2.8c0.7,2,1.1,4.2,1.1,6.5c0,3.4-0.8,6.5-2.1,8.3c-1.6,2.2-3.9,3.3-6.8,3.3
								C224,226.3,222,225.5,220.5,224z M229.4,221.9c1.3-1.3,2-3.9,2-7.2c0-3.2-0.7-5.8-2-7.2c-0.7-0.8-1.8-1.2-3.1-1.2
								c-1.3,0-2.3,0.4-3.1,1.4c-1.2,1.5-1.8,3.8-1.8,6.8c0,2.9,0.5,5.4,1.4,6.7c0.9,1.2,2,1.8,3.6,1.8
								C227.6,223.1,228.7,222.6,229.4,221.9z"/>
						</g>
					</g>
					<g>
						<g>
							<path class="st9" d="M242.4,216.5c0-1,0-1.8,0.1-3.1c-0.7,1.3-1.3,2.1-2.4,3.2c-0.5-1.8-0.7-2.5-1.3-3.4
								c2.1-2.4,3.6-4.8,4.8-8c0.6-1.5,0.8-2.5,1-3.6l3.2,0.9c-0.1,0.4-0.2,0.6-0.4,1.3c-0.7,2.1-1,2.7-2,4.9v15.9
								c0,1.3,0.1,2.2,0.1,3.2h-3.4c0.1-1.1,0.2-1.9,0.2-3.3V216.5z M254.7,205.2c0-1.3-0.1-2-0.2-2.9h3.5c-0.2,0.9-0.2,1.6-0.2,3
								v2.6h3.5c1.4,0,2.2-0.1,3-0.2v3.2c-1.3-0.1-2.1-0.2-3-0.2h-3.5v5.2h4.4c1.3,0,2.2-0.1,3.1-0.2v3.2c-1-0.1-1.9-0.2-3.1-0.2
								h-4.4v5.8c0,1.5,0,2.2,0.2,3.2h-3.5c0.1-1,0.2-1.8,0.2-3.2v-5.8h-4.8c-1.3,0-2.3,0.1-3.1,0.2v-3.2c0.8,0.1,1.8,0.2,3.1,0.2
								h4.8v-5.2h-3.9c-0.7,1.7-1.2,2.5-2.3,4.1c-0.8-0.8-0.9-1-2.5-2c1.3-1.8,2.2-3.5,3-5.8c0.5-1.4,0.8-2.4,0.9-3.6l3.1,0.8
								c-0.2,0.6-0.3,0.8-0.5,1.7c-0.3,0.9-0.4,1.2-0.6,1.9h2.8V205.2z"/>
						</g>
					</g>
				</g>
				<g>
					<g>
						<path class="st9" d="M256.6,325.4l0-0.3v-0.2c0-0.4,0-0.5,0-0.7h0.8c0,0.1,0,0.2,0,0.4c0,0.4,0,0.4,0,0.7h0.4
							c0.4,0,0.5,0,0.8,0v0.7c-0.2,0-0.4,0-0.8,0h-0.4c0,0.7,0,0.8,0,1c-0.1,0.8-0.3,1.3-0.9,1.7c-0.3,0.3-0.6,0.4-1.2,0.6
							c-0.1-0.3-0.2-0.4-0.5-0.6c0.6-0.2,0.9-0.3,1.1-0.6c0.4-0.4,0.6-0.8,0.6-1.4c0-0.1,0-0.3,0-0.7h-1.6v0.9c0,0.3,0,0.3,0,0.5
							h-0.8c0-0.1,0-0.3,0-0.5V326H254c-0.4,0-0.6,0-0.8,0v-0.7c0.2,0,0.4,0,0.8,0h0.4v-0.6c0-0.3,0-0.4,0-0.5h0.8
							c0,0.2,0,0.2,0,0.5v0.6H256.6z"/>
						<path class="st9" d="M259.3,326.3c0.3,0,0.4,0,1,0h3.2c0.6,0,0.7,0,1,0v0.8c-0.2,0-0.3,0-1,0h-3.2c-0.7,0-0.7,0-1,0V326.3z"/>
						<path class="st9" d="M267.3,324.7c0,0.1,0,0.1-0.1,0.5c-0.1,0.8-0.3,1.5-0.5,2.1c-0.3,0.7-0.6,1.3-1.1,1.9
							c-0.3-0.3-0.4-0.3-0.7-0.5c0.4-0.4,0.6-0.7,0.9-1.3c0.3-0.6,0.5-1.3,0.6-2.1c0-0.2,0.1-0.4,0.1-0.6c0,0,0,0,0-0.1L267.3,324.7
							z M269,324.6c0,0.3,0.1,0.9,0.3,1.4c0.3,1.1,0.7,1.9,1.3,2.6c-0.3,0.2-0.4,0.3-0.7,0.6c-0.4-0.5-0.7-1.1-1-1.8
							c-0.3-0.6-0.5-1.4-0.6-2.2c0-0.2-0.1-0.3-0.1-0.4L269,324.6z M269.7,324.6c0.2,0.3,0.3,0.4,0.4,0.8l-0.4,0.2
							c-0.1-0.3-0.3-0.6-0.4-0.9L269.7,324.6z M270.3,325.4c-0.1-0.3-0.3-0.6-0.4-0.8l0.4-0.2c0.2,0.3,0.3,0.5,0.4,0.8L270.3,325.4z
							"/>
						<path class="st9" d="M271.3,326.3c0.3,0,0.4,0,1,0h3.2c0.6,0,0.7,0,1,0v0.8c-0.2,0-0.3,0-1,0h-3.2c-0.7,0-0.7,0-1,0V326.3z"/>
					</g>
				</g>
				<g id="サーバー">
					<path class="st40" d="M287.2,319.9h-44v-67c0-1.5,1.2-2.7,2.7-2.7h38.6c1.5,0,2.7,1.2,2.7,2.7V319.9z"/>
					<g>
						<path class="st9" d="M280.2,314.2h-29.9c-0.6,0-1-0.4-1-1v-3.2c0-0.6,0.4-1,1-1h29.9c0.6,0,1,0.4,1,1v3.2
							C281.2,313.8,280.7,314.2,280.2,314.2z"/>
						<path class="st9" d="M280.2,305.9h-29.9c-0.6,0-1-0.4-1-1v-3.2c0-0.6,0.4-1,1-1h29.9c0.6,0,1,0.4,1,1v3.2
							C281.2,305.4,280.7,305.9,280.2,305.9z"/>
						<path class="st9" d="M280.2,297.5h-29.9c-0.6,0-1-0.4-1-1v-3.2c0-0.6,0.4-1,1-1h29.9c0.6,0,1,0.4,1,1v3.2
							C281.2,297.1,280.7,297.5,280.2,297.5z"/>
						<circle class="st9" cx="278.4" cy="286.9" r="2.3"/>
					</g>
				</g>
			</g>
			<g id="Box_1_2_">
				<path id="_x32__8_" class="st28" d="M136.5,351.5H25c-7.2,0-13.1-5.9-13.1-13.1V26.8c0-7.2,5.9-13.1,13.1-13.1h111.5
					c7.2,0,13.1,5.9,13.1,13.1v311.6C149.7,345.7,143.8,351.5,136.5,351.5z"/>
				<g>
					<defs>
						<path id="_x32__4_" d="M136.5,351.5H25c-7.2,0-13.1-5.9-13.1-13.1V26.8c0-7.2,5.9-13.1,13.1-13.1h111.5
							c7.2,0,13.1,5.9,13.1,13.1v311.6C149.7,345.7,143.8,351.5,136.5,351.5z"/>
					</defs>
					<clipPath id="_x32__1_">
						<use xlink:href="#_x32__4_"  style="overflow:visible;"/>
					</clipPath>
					<g class="st41">
						<g>
							<rect x="11.9" y="13.7" class="st2" width="136.2" height="111.6"/>
							<rect x="11.9" y="130.9" class="st2" width="136.2" height="9.5"/>
							<rect x="11.9" y="144.4" class="st2" width="136.2" height="5"/>
							
								<rect x="11.9" y="257.8" transform="matrix(-1 -1.224647e-16 1.224647e-16 -1 159.9593 627.1752)" class="st2" width="136.2" height="111.6"/>
							
								<rect x="11.9" y="242.7" transform="matrix(-1 -1.224647e-16 1.224647e-16 -1 159.9593 494.8773)" class="st2" width="136.2" height="9.5"/>
							
								<rect x="11.9" y="233.7" transform="matrix(-1 -1.224647e-16 1.224647e-16 -1 159.9593 472.4253)" class="st2" width="136.2" height="5"/>
							<rect x="11.9" y="13.7" class="st26" width="136.2" height="45.3"/>
							<rect x="11.9" y="62.8" class="st26" width="136.2" height="14.7"/>
							<rect x="11.9" y="81" class="st26" width="136.2" height="5.8"/>
						</g>
						<path class="st42" d="M83.5,259.8l63.6,58.4H14.5l63.6-58.4C79.6,258.4,82,258.4,83.5,259.8z"/>
						<rect x="10.9" y="318.5" class="st43" width="138.7" height="20.6"/>
						<g>
							<defs>
								<path id="SVGID_15_" d="M83.5,259.8l63.6,58.4H14.5l63.6-58.4C79.6,258.4,82,258.4,83.5,259.8z"/>
							</defs>
							<clipPath id="SVGID_16_">
								<use xlink:href="#SVGID_15_"  style="overflow:visible;"/>
							</clipPath>
							<path class="st44" d="M53,279.1l-1,8.6c-0.1,1,0.8,1.8,1.8,1.6l11.5-2.7c0.5-0.1,1.1,0.1,1.5,0.5l5.2,6.6
								c0.5,0.6,1.3,0.7,2,0.3l8.7-6.1c0.5-0.3,1.2-0.3,1.7,0l8.5,6c0.7,0.5,1.7,0.3,2.1-0.5l3.3-6.3c0.4-0.7,1.2-1,2-0.6l9.9,5.2
								c0.9,0.5,2-0.1,2.1-1.1l1.2-9.5c0-0.4,0-0.7-0.3-1l-17.6-24.6c-0.3-0.4-0.8-0.6-1.3-0.6L75.1,256c-0.3,0-0.5,0.1-0.7,0.3
								l-13,9c-0.2,0.1-0.3,0.3-0.4,0.4l-7.8,12.8C53.1,278.7,53,278.9,53,279.1z"/>
						</g>
						<path class="st24" d="M83.5,259.8l63.6,58.4H14.5l63.6-58.4C79.6,258.4,82,258.4,83.5,259.8z"/>
						<polygon class="st45" points="169.9,301.9 246.7,347.7 86.9,346.7 						"/>
						<g id="新幹線">
							<path class="st17" d="M65.4,343.3c7.2,0,44.2,0,44.2,0c2,0,10.7,0.9,14.6,0.3c2.4-0.3,1.3-1.6,1.1-2.7
								c-0.9-4.1-11.9-3.6-14.6-4.6c-1.4-0.5-3-2.8-4.5-3.3c-2.2-0.7-4.2-0.4-5.2-0.4H57.7l-44.6-0.2l0.3,10.8L65.4,343.3z"/>
							<g>
								<defs>
									<path id="SVGID_17_" d="M65.4,343.3c7.2,0,44.2,0,44.2,0c2.4,0,11.5,0.8,15.4-0.2c1.4-0.4,1-1.7,0.6-2.4
										c-2.2-3.4-12.2-3.4-14.9-4.3c-1.4-0.5-3-2.8-4.5-3.3c-2.2-0.7-4.2-0.4-5.2-0.4H57.7l-44.5-0.1v10.7L65.4,343.3z"/>
								</defs>
								<clipPath id="SVGID_18_">
									<use xlink:href="#SVGID_17_"  style="overflow:visible;"/>
								</clipPath>
								<polygon class="st46" points="117,354.3 7,354.3 7,339.2 132.5,339.2 								"/>
								<path class="st47" d="M121.3,339.1H13.1c-0.2,0-0.4-0.2-0.4-0.4l0,0c0-0.2,0.2-0.4,0.4-0.4h108.2c0.2,0,0.4,0.2,0.4,0.4l0,0
									C121.7,338.9,121.5,339.1,121.3,339.1z"/>
							</g>
							<path class="st24" d="M65.4,343.3c7.2,0,44.2,0,44.2,0c3.3,0,15.9,0,15.9,0s0.7-2.7-2.4-4.6c-2.9-1.8-11.3-1.9-12.5-2.3
								c-1.4-0.5-2.9-2.6-4.4-3.1c-2.2-0.7-4.2-0.6-5.3-0.6H57.7l-44.5-0.1v10.7L65.4,343.3z"/>
							<path class="st9" d="M111.6,336.9H103c-0.4,0-0.8-0.3-0.8-0.8v-1.1c0-0.4,0.3-0.8,0.8-0.8h5c0.6,0,1.2,0.5,1.2,1.1l0.7,0.4
								C110,336.4,112.2,336.9,111.6,336.9z"/>
							<g>
								<path class="st9" d="M95.6,336.9h1.1c0.3,0,0.5-0.2,0.5-0.5v-1.6c0-0.3-0.2-0.5-0.5-0.5h-1.1c-0.3,0-0.5,0.2-0.5,0.5v1.6
									C95.1,336.7,95.3,336.9,95.6,336.9z"/>
								<path class="st9" d="M92.9,336.9H94c0.3,0,0.5-0.2,0.5-0.5v-1.6c0-0.3-0.2-0.5-0.5-0.5h-1.1c-0.3,0-0.5,0.2-0.5,0.5v1.6
									C92.4,336.7,92.7,336.9,92.9,336.9z"/>
								<path class="st9" d="M90.3,336.9h1.1c0.3,0,0.5-0.2,0.5-0.5v-1.6c0-0.3-0.2-0.5-0.5-0.5h-1.1c-0.3,0-0.5,0.2-0.5,0.5v1.6
									C89.8,336.7,90,336.9,90.3,336.9z"/>
								<path class="st9" d="M87.6,336.9h1.1c0.3,0,0.5-0.2,0.5-0.5v-1.6c0-0.3-0.2-0.5-0.5-0.5h-1.1c-0.3,0-0.5,0.2-0.5,0.5v1.6
									C87.1,336.7,87.4,336.9,87.6,336.9z"/>
								<path class="st9" d="M85,336.9h1.1c0.3,0,0.5-0.2,0.5-0.5v-1.6c0-0.3-0.2-0.5-0.5-0.5H85c-0.3,0-0.5,0.2-0.5,0.5v1.6
									C84.5,336.7,84.7,336.9,85,336.9z"/>
								<path class="st9" d="M82.3,336.9h1.1c0.3,0,0.5-0.2,0.5-0.5v-1.6c0-0.3-0.2-0.5-0.5-0.5h-1.1c-0.3,0-0.5,0.2-0.5,0.5v1.6
									C81.8,336.7,82.1,336.9,82.3,336.9z"/>
								<path class="st9" d="M79.7,336.9h1.1c0.3,0,0.5-0.2,0.5-0.5v-1.6c0-0.3-0.2-0.5-0.5-0.5h-1.1c-0.3,0-0.5,0.2-0.5,0.5v1.6
									C79.2,336.7,79.4,336.9,79.7,336.9z"/>
								<path class="st9" d="M77.1,336.9h1.1c0.3,0,0.5-0.2,0.5-0.5v-1.6c0-0.3-0.2-0.5-0.5-0.5h-1.1c-0.3,0-0.5,0.2-0.5,0.5v1.6
									C76.6,336.7,76.8,336.9,77.1,336.9z"/>
								<path class="st9" d="M74.4,336.9h1.1c0.3,0,0.5-0.2,0.5-0.5v-1.6c0-0.3-0.2-0.5-0.5-0.5h-1.1c-0.3,0-0.5,0.2-0.5,0.5v1.6
									C73.9,336.7,74.1,336.9,74.4,336.9z"/>
								<path class="st9" d="M71.8,336.9h1.1c0.3,0,0.5-0.2,0.5-0.5v-1.6c0-0.3-0.2-0.5-0.5-0.5h-1.1c-0.3,0-0.5,0.2-0.5,0.5v1.6
									C71.3,336.7,71.5,336.9,71.8,336.9z"/>
								<path class="st9" d="M69.1,336.9h1.1c0.3,0,0.5-0.2,0.5-0.5v-1.6c0-0.3-0.2-0.5-0.5-0.5h-1.1c-0.3,0-0.5,0.2-0.5,0.5v1.6
									C68.6,336.7,68.8,336.9,69.1,336.9z"/>
								<path class="st9" d="M66.5,336.9h1.1c0.3,0,0.5-0.2,0.5-0.5v-1.6c0-0.3-0.2-0.5-0.5-0.5h-1.1c-0.3,0-0.5,0.2-0.5,0.5v1.6
									C66,336.7,66.2,336.9,66.5,336.9z"/>
								<path class="st9" d="M63.8,336.9h1.1c0.3,0,0.5-0.2,0.5-0.5v-1.6c0-0.3-0.2-0.5-0.5-0.5h-1.1c-0.3,0-0.5,0.2-0.5,0.5v1.6
									C63.3,336.7,63.5,336.9,63.8,336.9z"/>
							</g>
							<g>
								<path class="st9" d="M53.6,336.9h1.1c0.3,0,0.5-0.2,0.5-0.5v-1.6c0-0.3-0.2-0.5-0.5-0.5h-1.1c-0.3,0-0.5,0.2-0.5,0.5v1.6
									C53.1,336.7,53.3,336.9,53.6,336.9z"/>
								<path class="st9" d="M50.9,336.9H52c0.3,0,0.5-0.2,0.5-0.5v-1.6c0-0.3-0.2-0.5-0.5-0.5h-1.1c-0.3,0-0.5,0.2-0.5,0.5v1.6
									C50.4,336.7,50.7,336.9,50.9,336.9z"/>
								<path class="st9" d="M48.3,336.9h1.1c0.3,0,0.5-0.2,0.5-0.5v-1.6c0-0.3-0.2-0.5-0.5-0.5h-1.1c-0.3,0-0.5,0.2-0.5,0.5v1.6
									C47.8,336.7,48,336.9,48.3,336.9z"/>
								<path class="st9" d="M45.6,336.9h1.1c0.3,0,0.5-0.2,0.5-0.5v-1.6c0-0.3-0.2-0.5-0.5-0.5h-1.1c-0.3,0-0.5,0.2-0.5,0.5v1.6
									C45.1,336.7,45.4,336.9,45.6,336.9z"/>
								<path class="st9" d="M43,336.9h1.1c0.3,0,0.5-0.2,0.5-0.5v-1.6c0-0.3-0.2-0.5-0.5-0.5H43c-0.3,0-0.5,0.2-0.5,0.5v1.6
									C42.5,336.7,42.7,336.9,43,336.9z"/>
								<path class="st9" d="M40.3,336.9h1.1c0.3,0,0.5-0.2,0.5-0.5v-1.6c0-0.3-0.2-0.5-0.5-0.5h-1.1c-0.3,0-0.5,0.2-0.5,0.5v1.6
									C39.8,336.7,40.1,336.9,40.3,336.9z"/>
								<path class="st9" d="M37.7,336.9h1.1c0.3,0,0.5-0.2,0.5-0.5v-1.6c0-0.3-0.2-0.5-0.5-0.5h-1.1c-0.3,0-0.5,0.2-0.5,0.5v1.6
									C37.2,336.7,37.4,336.9,37.7,336.9z"/>
								<path class="st9" d="M35.1,336.9h1.1c0.3,0,0.5-0.2,0.5-0.5v-1.6c0-0.3-0.2-0.5-0.5-0.5h-1.1c-0.3,0-0.5,0.2-0.5,0.5v1.6
									C34.6,336.7,34.8,336.9,35.1,336.9z"/>
								<path class="st9" d="M32.4,336.9h1.1c0.3,0,0.5-0.2,0.5-0.5v-1.6c0-0.3-0.2-0.5-0.5-0.5h-1.1c-0.3,0-0.5,0.2-0.5,0.5v1.6
									C31.9,336.7,32.1,336.9,32.4,336.9z"/>
								<path class="st9" d="M29.8,336.9h1.1c0.3,0,0.5-0.2,0.5-0.5v-1.6c0-0.3-0.2-0.5-0.5-0.5h-1.1c-0.3,0-0.5,0.2-0.5,0.5v1.6
									C29.3,336.7,29.5,336.9,29.8,336.9z"/>
								<path class="st9" d="M27.1,336.9h1.1c0.3,0,0.5-0.2,0.5-0.5v-1.6c0-0.3-0.2-0.5-0.5-0.5h-1.1c-0.3,0-0.5,0.2-0.5,0.5v1.6
									C26.6,336.7,26.8,336.9,27.1,336.9z"/>
								<path class="st9" d="M24.5,336.9h1.1c0.3,0,0.5-0.2,0.5-0.5v-1.6c0-0.3-0.2-0.5-0.5-0.5h-1.1c-0.3,0-0.5,0.2-0.5,0.5v1.6
									C24,336.7,24.2,336.9,24.5,336.9z"/>
								<path class="st9" d="M21.8,336.9h1.1c0.3,0,0.5-0.2,0.5-0.5v-1.6c0-0.3-0.2-0.5-0.5-0.5h-1.1c-0.3,0-0.5,0.2-0.5,0.5v1.6
									C21.3,336.7,21.5,336.9,21.8,336.9z"/>
							</g>
						</g>
						<g id="_x31_20">
							<g>
								<g>
									<g>
										<path class="st9" d="M46.5,227.9c0.2-1.1,0.2-2.2,0.2-3.6v-15.4h-1.3c-1,0-1.8,0.1-2.9,0.2v-3.6c0.9,0.1,1.5,0.2,2.8,0.2
											h2.6c1.4,0,1.8,0,2.9-0.1c-0.2,1.7-0.2,2.9-0.2,4.6v14.2c0,1.5,0.1,2.5,0.2,3.6H46.5z"/>
										<path class="st9" d="M63.3,227.9c-2.2,0-2.6,0-3.6,0.1c0.2-1.6,0.4-2.6,0.7-3.6c0.8-2,2-3.8,3.8-5.5
											c1-0.9,1.8-1.5,4.6-3.4c2.6-1.8,3.4-2.7,3.4-4.1c0-1.9-1.5-3.1-3.9-3.1c-1.6,0-2.9,0.6-3.6,1.7c-0.5,0.7-0.7,1.3-0.9,2.6
											l-4-0.5c0.4-2.1,0.9-3.3,1.9-4.5c1.4-1.6,3.6-2.5,6.4-2.5c4.9,0,7.9,2.4,7.9,6.2c0,1.8-0.6,3.2-2,4.5
											c-0.8,0.7-1.1,1-4.7,3.4c-1.2,0.9-2.6,2-3.3,2.8c-0.8,0.9-1.2,1.5-1.6,2.5h7.8c1.8,0,3.2-0.1,4.1-0.2v3.7
											c-1.3-0.1-2.4-0.2-4.2-0.2H63.3z"/>
										<path class="st9" d="M82.2,226c-0.8-0.8-1.5-1.8-1.8-2.8c-0.7-2-1.1-4.2-1.1-6.4c0-3,0.7-6,1.7-7.8c1.5-2.5,4-3.9,7.1-3.9
											c2.4,0,4.4,0.8,5.9,2.3c0.8,0.8,1.5,1.8,1.8,2.8c0.7,2,1.1,4.2,1.1,6.5c0,3.4-0.8,6.5-2.1,8.3c-1.6,2.2-3.9,3.3-6.8,3.3
											C85.7,228.3,83.6,227.5,82.2,226z M91.1,223.9c1.3-1.3,2-3.9,2-7.2c0-3.2-0.7-5.8-2-7.2c-0.7-0.8-1.8-1.2-3.1-1.2
											c-1.3,0-2.3,0.4-3.1,1.4c-1.2,1.5-1.8,3.8-1.8,6.8c0,2.9,0.5,5.4,1.4,6.7c0.9,1.2,2,1.8,3.6,1.8
											C89.3,225.1,90.4,224.6,91.1,223.9z"/>
									</g>
								</g>
								<g>
									<g>
										<path class="st9" d="M106,208.2c0-1.1-0.1-2.1-0.1-3c0.9,0.1,1.8,0.1,3.1,0.1h13.6c1.3,0,2.2,0,3-0.1
											c-0.1,1.1-0.1,1.9-0.1,2.9v18.1c0,1.5,0.1,2.4,0.2,3.4h-3.4v-1.7h-13v1.7h-3.3c0.1-1,0.2-2.1,0.2-3.4V208.2z M109.1,214.8
											h13v-6.5h-13V214.8z M109.1,224.9h13v-7.2h-13V224.9z"/>
									</g>
								</g>
							</g>
						</g>
						<g id="schedule">
							<g id="スケジュール_3_">
								<rect x="59.4" y="160.1" class="st48" width="44.7" height="37.3"/>
								<g id="colors">
									<rect x="60.5" y="160.6" class="st4" width="42.8" height="7.9"/>
									<g>
										<defs>
											<rect id="SVGID_19_" x="60.5" y="160.6" width="42.8" height="7.9"/>
										</defs>
										<clipPath id="SVGID_20_">
											<use xlink:href="#SVGID_19_"  style="overflow:visible;"/>
										</clipPath>
										<rect x="82.7" y="153.9" class="st49" width="25" height="14.6"/>
									</g>
								</g>
								<line class="st50" x1="59.7" y1="168.5" x2="104.7" y2="168.5"/>
								<path class="st9" d="M70.9,164.6L70.9,164.6c1,0,1.8-0.8,1.8-1.8v-6.3c0-1-0.8-1.8-1.8-1.8l0,0c-1,0-1.8,0.8-1.8,1.8v6.3
									C69,163.8,69.9,164.6,70.9,164.6z"/>
								<path class="st9" d="M93.5,164.6L93.5,164.6c1,0,1.8-0.8,1.8-1.8v-6.3c0-1-0.8-1.8-1.8-1.8l0,0c-1,0-1.8,0.8-1.8,1.8v6.3
									C91.7,163.8,92.5,164.6,93.5,164.6z"/>
								<g id="boxes">
									<rect x="66.9" y="172.5" class="st37" width="7.6" height="7.6"/>
									<rect x="66.9" y="183.9" class="st37" width="7.6" height="7.6"/>
									<rect x="78.5" y="172.5" class="st37" width="7.6" height="7.6"/>
									<rect x="78.6" y="183.9" class="st37" width="7.6" height="7.6"/>
									<rect x="90.2" y="172.5" class="st37" width="7.6" height="7.6"/>
									<rect x="90.2" y="183.9" class="st37" width="7.6" height="7.6"/>
								</g>
							</g>
							<g id="note">
								<circle class="st2" cx="111.4" cy="161.6" r="3.1"/>
								<path class="st2" d="M114.1,150.8L114.1,150.8c0.2,0,0.4,0.2,0.4,0.4v10c0,0.2-0.2,0.4-0.4,0.4l0,0c-0.2,0-0.4-0.2-0.4-0.4
									v-10C113.7,151,113.9,150.8,114.1,150.8z"/>
								<path class="st2" d="M114,150.8h5.4c0.2,0,0.3,0.2,0.2,0.3c-0.3,0.8-1.6,2.9-5.6,3V150.8z"/>
							</g>
							<g id="note_1_">
								
									<ellipse transform="matrix(0.9606 -0.2778 0.2778 0.9606 -41.7603 39.0315)" class="st26" cx="116.9" cy="166.9" rx="1.4" ry="1.4"/>
								<path class="st26" d="M116.7,161.8L116.7,161.8c0.1,0,0.2,0,0.2,0.1l1.3,4.3c0,0.1,0,0.2-0.1,0.2l0,0c-0.1,0-0.2,0-0.2-0.1
									l-1.3-4.3C116.5,162,116.6,161.9,116.7,161.8z"/>
								<path class="st26" d="M116.6,161.9l2.3-0.7c0.1,0,0.1,0,0.1,0.1c0,0.4-0.3,1.5-2.1,2L116.6,161.9z"/>
							</g>
						</g>
						<rect x="11.9" y="343.6" class="st51" width="136.1" height="9.2"/>
						<g id="社員旅行_1_">
							<path class="st52" d="M97.5,104.3c0,0-1.5-9.6-7.2-10.7c-0.6-0.1-1.1,0.3-1.1,0.9v9.8H97.5z"/>
							<path class="st17" d="M57.7,102.6h43.3c1.1,0,3.1-0.3,5.2,0.4c1.5,0.5,3,2.8,4.5,3.3c2.7,0.9,4.9,1.3,4.9,4.3
								c0,3-2.7,2.6-5.9,2.6c0,0-37,0-44.2,0c-3.3,0-15.5-10.5-15.5-10.5v-9.4H53L57.7,102.6z"/>
							<g>
								<defs>
									<path id="SVGID_21_" d="M57.7,102.6h43.3c1.1,0,3.1-0.3,5.2,0.4c1.5,0.5,3,2.8,4.5,3.3c2.7,0.9,4.9,1.3,4.9,4.3
										c0,3-2.7,2.6-5.9,2.6c0,0-37,0-44.2,0c-3.3,0-15.5-10.5-15.5-10.5v-9.4H53L57.7,102.6z"/>
								</defs>
								<clipPath id="SVGID_22_">
									<use xlink:href="#SVGID_21_"  style="overflow:visible;"/>
								</clipPath>
								<rect x="51.7" y="109.2" class="st53" width="70.8" height="15.1"/>
								<path class="st54" d="M115.1,109.1H55.8c-0.2,0-0.4-0.2-0.4-0.4l0,0c0-0.2,0.2-0.4,0.4-0.4h59.3c0.2,0,0.4,0.2,0.4,0.4l0,0
									C115.6,108.9,115.4,109.1,115.1,109.1z"/>
							</g>
							<path class="st24" d="M57.7,102.6h43.3c1.1,0,3.1-0.3,5.2,0.4c1.5,0.5,3,2.8,4.5,3.3c2.7,0.9,4.9,1.3,4.9,4.3
								c0,3-2.7,2.6-5.9,2.6c0,0-37,0-44.2,0c-3.3,0-15.5-10.5-15.5-10.5v-9.4H53L57.7,102.6z"/>
							<path class="st52" d="M88,111.4h7.5c0,0-5.4,17.4-15.4,19.5c-0.9,0.2-1.6-0.8-1.2-1.6L88,111.4z"/>
							<path class="st9" d="M111.6,106.9H103c-0.4,0-0.8-0.3-0.8-0.8v-1.1c0-0.4,0.3-0.8,0.8-0.8h5c0.6,0,1.2,0.5,1.2,1.1l0.7,0.4
								C110,106.4,112.2,106.9,111.6,106.9z"/>
							<path class="st9" d="M95.6,106.9h1.1c0.3,0,0.5-0.2,0.5-0.5v-1.6c0-0.3-0.2-0.5-0.5-0.5h-1.1c-0.3,0-0.5,0.2-0.5,0.5v1.6
								C95.1,106.7,95.3,106.9,95.6,106.9z"/>
							<path class="st9" d="M92.9,106.9H94c0.3,0,0.5-0.2,0.5-0.5v-1.6c0-0.3-0.2-0.5-0.5-0.5h-1.1c-0.3,0-0.5,0.2-0.5,0.5v1.6
								C92.4,106.7,92.7,106.9,92.9,106.9z"/>
							<path class="st9" d="M90.3,106.9h1.1c0.3,0,0.5-0.2,0.5-0.5v-1.6c0-0.3-0.2-0.5-0.5-0.5h-1.1c-0.3,0-0.5,0.2-0.5,0.5v1.6
								C89.8,106.7,90,106.9,90.3,106.9z"/>
							<path class="st9" d="M87.6,106.9h1.1c0.3,0,0.5-0.2,0.5-0.5v-1.6c0-0.3-0.2-0.5-0.5-0.5h-1.1c-0.3,0-0.5,0.2-0.5,0.5v1.6
								C87.1,106.7,87.4,106.9,87.6,106.9z"/>
							<path class="st9" d="M85,106.9h1.1c0.3,0,0.5-0.2,0.5-0.5v-1.6c0-0.3-0.2-0.5-0.5-0.5H85c-0.3,0-0.5,0.2-0.5,0.5v1.6
								C84.5,106.7,84.7,106.9,85,106.9z"/>
							<path class="st9" d="M82.3,106.9h1.1c0.3,0,0.5-0.2,0.5-0.5v-1.6c0-0.3-0.2-0.5-0.5-0.5h-1.1c-0.3,0-0.5,0.2-0.5,0.5v1.6
								C81.8,106.7,82.1,106.9,82.3,106.9z"/>
							<path class="st9" d="M79.7,106.9h1.1c0.3,0,0.5-0.2,0.5-0.5v-1.6c0-0.3-0.2-0.5-0.5-0.5h-1.1c-0.3,0-0.5,0.2-0.5,0.5v1.6
								C79.2,106.7,79.4,106.9,79.7,106.9z"/>
							<path class="st9" d="M77.1,106.9h1.1c0.3,0,0.5-0.2,0.5-0.5v-1.6c0-0.3-0.2-0.5-0.5-0.5h-1.1c-0.3,0-0.5,0.2-0.5,0.5v1.6
								C76.6,106.7,76.8,106.9,77.1,106.9z"/>
							<path class="st9" d="M74.4,106.9h1.1c0.3,0,0.5-0.2,0.5-0.5v-1.6c0-0.3-0.2-0.5-0.5-0.5h-1.1c-0.3,0-0.5,0.2-0.5,0.5v1.6
								C73.9,106.7,74.1,106.9,74.4,106.9z"/>
							<path class="st9" d="M71.8,106.9h1.1c0.3,0,0.5-0.2,0.5-0.5v-1.6c0-0.3-0.2-0.5-0.5-0.5h-1.1c-0.3,0-0.5,0.2-0.5,0.5v1.6
								C71.3,106.7,71.5,106.9,71.8,106.9z"/>
							<path class="st9" d="M69.1,106.9h1.1c0.3,0,0.5-0.2,0.5-0.5v-1.6c0-0.3-0.2-0.5-0.5-0.5h-1.1c-0.3,0-0.5,0.2-0.5,0.5v1.6
								C68.6,106.7,68.8,106.9,69.1,106.9z"/>
							<path class="st9" d="M66.5,106.9h1.1c0.3,0,0.5-0.2,0.5-0.5v-1.6c0-0.3-0.2-0.5-0.5-0.5h-1.1c-0.3,0-0.5,0.2-0.5,0.5v1.6
								C66,106.7,66.2,106.9,66.5,106.9z"/>
							<path class="st9" d="M63.8,106.9h1.1c0.3,0,0.5-0.2,0.5-0.5v-1.6c0-0.3-0.2-0.5-0.5-0.5h-1.1c-0.3,0-0.5,0.2-0.5,0.5v1.6
								C63.3,106.7,63.5,106.9,63.8,106.9z"/>
							<g id="clouds_16_">
								<path class="st10" d="M52.5,66.8c-1.4,0-2.4,1.5-1.9,2.9c0.3,0.8,1.1,1.3,2,1.3H66c1.1,0,2-0.8,2.1-1.8
									c0.1-1.2-0.8-2.3-2-2.3l-2.6,0c1.4,0,2.1-0.9,2-2.1c-0.1-1.1-1.1-1.8-2.1-1.8H50c-1.1,0-2,0.8-2.1,1.8
									c-0.1,1.2,0.8,2.2,2,2.1H52.5"/>
							</g>
							<g id="clouds_15_">
								<path class="st10" d="M102.1,80.9c-1.4,0-2.4,1.5-1.9,2.9c0.3,0.8,1.1,1.3,2,1.3h13.5c1.1,0,2-0.8,2.1-1.8
									c0.1-1.2-0.8-2.3-2-2.3l-2.6,0c1.4,0,2.1-0.9,2-2.1c-0.1-1.1-1.1-1.8-2.1-1.8H99.6c-1.1,0-2,0.8-2.1,1.8
									c-0.1,1.2,0.8,2.2,2,2.1H102.1"/>
							</g>
						</g>
						<g>
							<g>
								<path class="st9" d="M62.3,29.1c0-0.3,0-0.4,0-0.7c0.3,0,0.5,0,0.8,0h2.6v-1.6h-2.5c-0.6,1-1.2,1.7-2,2.4
									c-0.3-0.5-0.5-0.7-0.9-1.1c1.2-1,1.8-1.8,2.3-3c0.2-0.4,0.3-0.6,0.3-0.9l1.4,0.3c-0.1,0.1-0.1,0.2-0.2,0.4
									c0,0-0.1,0.3-0.3,0.8h5.6c0.6,0,0.9,0,1.2-0.1V27c-0.4,0-0.7-0.1-1.2-0.1H67v1.6h1.9c0.6,0,0.9,0,1.2-0.1v1.3
									c-0.4,0-0.7,0-1.2,0h-2v1.9h2.8c0.6,0,0.9,0,1.3-0.1v1.4c-0.4,0-0.8-0.1-1.3-0.1H67v1.5c0,0.6,0,0.9,0.1,1.3h-1.5
									c0-0.3,0.1-0.7,0.1-1.3v-1.5h-4c-0.5,0-0.9,0-1.3,0.1v-1.4c0.4,0,0.8,0.1,1.3,0.1h0.6V29.1z M65.7,31.6v-1.9h-2.2v1.9H65.7z
									"/>
								<path class="st9" d="M74,34c0,0.7,0,1.2,0.1,1.5h-1.4c0-0.4,0.1-0.7,0.1-1.5v-7.8c0-0.6,0-1,0-1.3c0.3,0,0.6,0,1.2,0H76
									c0.6,0,0.9,0,1.2,0c0,0.4,0,0.6,0,1.1v1.8c0,0.6,0,0.8,0,1.1c-0.3,0-0.7,0-1.1,0H74V34z M74,26.5H76v-0.6H74V26.5z M74,27.9
									H76v-0.6H74V27.9z M80.1,33.1c0,0.5,0,0.7,0,1c0.3,0,0.7,0.1,0.9,0.1c0.3,0,0.4-0.1,0.4-0.3v-5h-2.4c-0.4,0-0.8,0-1.1,0
									c0-0.3,0-0.6,0-1.1v-1.8c0-0.4,0-0.7,0-1.1c0.3,0,0.6,0,1.2,0h2.3c0.6,0,0.9,0,1.2,0c0,0.4,0,0.7,0,1.3V34
									c0,0.7-0.1,1-0.6,1.2c-0.3,0.1-0.6,0.1-1.4,0.1c-0.2,0-0.2,0-0.8,0c-0.1-0.5-0.1-0.8-0.3-1.2c-0.3,0-0.6,0-0.7,0h-2.5v0.7
									h-1.3c0-0.3,0.1-0.8,0.1-1.2v-2.9c0-0.4,0-0.8,0-1.1c0.3,0,0.6,0,1.1,0h2.7c0.5,0,0.8,0,1.1,0c0,0.3,0,0.6,0,1.1V33.1z
									 M76.5,31.3h2.4v-0.7h-2.4V31.3z M76.5,33.1h2.4v-0.8h-2.4V33.1z M79.3,26.5h2.2v-0.6h-2.2V26.5z M79.3,27.9h2.2v-0.6h-2.2
									V27.9z"/>
								<path class="st9" d="M86.7,34.1c0,0.5,0,1,0.1,1.4h-1.4c0-0.5,0.1-0.8,0.1-1.4v-3.4c0-0.6,0-0.9,0-1.3
									c-0.3,0.6-0.5,0.8-1,1.3c-0.2-0.6-0.3-1-0.5-1.5c0.8-0.9,1.4-1.7,1.9-2.8c0.4-0.8,0.6-1.4,0.7-2.1l1.4,0.4
									c-0.1,0.4-0.2,0.5-0.3,0.9c-0.3,0.9-0.5,1.2-0.8,2v5.1c1.4-1.2,2.6-2.9,3.2-4.5h-1.4c-0.4,0-0.9,0-1.3,0.1v-1.4
									c0.4,0,0.8,0.1,1.3,0.1h1.8v-1.1c0-0.4,0-0.8-0.1-1.2h1.4c-0.1,0.4-0.1,0.7-0.1,1.2v1.1h2.2c0.5,0,1,0,1.4-0.1v1.4
									c-0.4,0-0.9-0.1-1.3-0.1H92c0.5,1.1,0.8,1.6,1.4,2.4c0.6,0.8,1.3,1.5,2.1,2.2c-0.4,0.5-0.6,0.8-0.9,1.3
									c-0.7-0.7-1-1-1.5-1.6c-0.7-0.9-1.2-1.7-1.6-2.7c0,0.4,0,0.7,0,1.2v3.3c0,0.6,0,0.9,0.1,1.3h-1.4c0-0.4,0.1-0.9,0.1-1.3V31
									c0-0.4,0-0.9,0-1.3c-0.7,1.8-1.5,3-2.9,4.2c-0.3-0.6-0.5-0.8-0.8-1.1V34.1z"/>
								<path class="st9" d="M97.6,26.3c0-0.5,0-0.9-0.1-1.3c0.4,0,0.8,0.1,1.3,0.1h5.8c0.6,0,0.9,0,1.3-0.1c0,0.5-0.1,0.8-0.1,1.2
									V34c0,0.6,0,1,0.1,1.5h-1.5v-0.7h-5.6v0.7h-1.4c0-0.4,0.1-0.9,0.1-1.5V26.3z M98.9,29.1h5.6v-2.8h-5.6V29.1z M98.9,33.4h5.6
									v-3.1h-5.6V33.4z"/>
							</g>
						</g>
					</g>
				</g>
				<path id="_x32__6_" class="st27" d="M136.5,351.5H25c-7.2,0-13.1-5.9-13.1-13.1V26.8c0-7.2,5.9-13.1,13.1-13.1h111.5
					c7.2,0,13.1,5.9,13.1,13.1v311.6C149.7,345.7,143.8,351.5,136.5,351.5z"/>
			</g>
		</g>
	</g>
</g>
</svg>
