<?xml version="1.0" encoding="utf-8"?>
<!-- Generator: Adobe Illustrator 19.2.0, SVG Export Plug-In . SVG Version: 6.00 Build 0)  -->
<svg version="1.1" id="Main_Layer" xmlns="http://www.w3.org/2000/svg" xmlns:xlink="http://www.w3.org/1999/xlink" x="0px" y="0px"
	 viewBox="0 0 460.7 369.5" style="enable-background:new 0 0 460.7 369.5;" xml:space="preserve">
<style type="text/css">
	.st0{fill:#E6DBB6;}
	.st1{fill:#3E3A39;}
	.st2{fill:#64C8FF;stroke:#3E3A39;stroke-linecap:round;stroke-linejoin:round;stroke-miterlimit:10;}
	.st3{fill:#FFFFFF;stroke:#3E3A39;stroke-width:2;stroke-linecap:round;stroke-linejoin:round;stroke-miterlimit:10;}
	.st4{fill:#B3EDFF;stroke:#3E3A39;stroke-width:2;stroke-linecap:round;stroke-linejoin:round;stroke-miterlimit:10;}
	.st5{fill:#64C8FF;stroke:#3E3A39;stroke-miterlimit:10;}
	.st6{fill:#B3EDFF;stroke:#3E3A39;stroke-linecap:round;stroke-linejoin:round;stroke-miterlimit:10;}
	.st7{fill:#B3EDFF;stroke:#3E3A39;stroke-miterlimit:10;}
	.st8{fill:#E45751;stroke:#3E3A39;stroke-miterlimit:10;}
	.st9{fill:#DD3B40;stroke:#3E3A39;stroke-miterlimit:10;}
	.st10{fill:#B3EDFF;stroke:#3E3A39;stroke-width:2;stroke-miterlimit:10;}
	.st11{fill:#64C8FF;stroke:#3E3A39;stroke-width:2;stroke-miterlimit:10;}
	.st12{fill:#E45751;stroke:#3E3A39;stroke-width:2;stroke-miterlimit:10;}
	.st13{fill:#DD3B40;stroke:#3E3A39;stroke-width:2;stroke-miterlimit:10;}
	.st14{fill:#FFFFFF;stroke:#3E3A39;stroke-width:3;stroke-linecap:round;stroke-linejoin:round;stroke-miterlimit:10;}
	.st15{fill:#A0A1A0;}
	.st16{fill:#A0A1A0;stroke:#3E3A39;stroke-miterlimit:10;}
	.st17{fill:#A0A1A0;stroke:#3E3A39;stroke-width:3;stroke-linecap:round;stroke-linejoin:round;stroke-miterlimit:10;}
</style>
<g id="Sample_PopUp">
	<g>
		<g id="Box_Big">
			<path class="st0" d="M442,358.3H19.1c-3.9,0-7-3.1-7-7V196.2c0-3.8,3.1-7,7-7H442c3.8,0,7,3.2,7,7v155.1
				C449,355.2,445.9,358.3,442,358.3z"/>
			<g>
				<g>
					<path class="st1" d="M67.6,201.1c0-0.6,0-0.9-0.1-1.2H69c0,0.3-0.1,0.6-0.1,1.2v2.6h2.6v-2c0-0.4,0-0.7,0-0.9h1.4
						c0,0.4-0.1,0.6-0.1,1v2.4c0,0.3,0,0.6,0,0.8c-0.3,0-0.6,0-0.8,0H69v3.9h3v-2c0-0.4,0-0.7-0.1-1h1.5c0,0.3-0.1,0.7-0.1,1.1v2.6
						c0,0.6,0,0.9,0.1,1.2h-1.4v-0.6h-7.1v0.6h-1.4c0-0.4,0.1-0.7,0.1-1.2v-2.5c0-0.5,0-0.8-0.1-1.2h1.5c0,0.3-0.1,0.6-0.1,1v1.9
						h2.8V205h-2.9c-0.3,0-0.6,0-0.9,0c0-0.3,0-0.5,0-0.8v-2.4c0-0.4,0-0.8-0.1-1.1h1.4c0,0.3,0,0.6,0,1v1.9h2.4V201.1z"/>
					<path class="st1" d="M82.6,207.4c-2,1.5-4.3,2.7-6.8,3.5c-0.2-0.5-0.4-0.8-0.7-1.2c2.4-0.6,4.1-1.4,5.9-2.6
						c-2.5,0.3-2.9,0.3-4.9,0.5c-0.4,0-0.5,0-0.8,0.1l-0.2-1.3c0.1,0,0.3,0,0.4,0c0.1,0,0.1,0,1.2,0V202c0-0.5,0-0.8,0-1.2
						c0.4,0,0.7,0,1.3,0h1c0.2-0.3,0.4-0.7,0.5-1.2l1.4,0.2c-0.2,0.4-0.4,0.7-0.6,1h2.2c0.7,0,1,0,1.3,0c0,0.3-0.1,0.7-0.1,1.3v2.5
						c0.5-0.6,0.9-1,1.1-1.4l0.9,0.9c-0.2,0.2-0.3,0.3-0.6,0.6c-0.4,0.5-0.9,0.9-1.4,1.4v3.3c0,0.9-0.4,1.1-1.8,1.1
						c-0.3,0-0.3,0-1.3,0c0-0.4-0.1-0.8-0.3-1.3c0.8,0.1,0.9,0.1,1.4,0.1c0.6,0,0.7,0,0.7-0.2V207.4z M82.6,202h-4.5v0.7h4.5V202z
						 M78.1,204.3h4.5v-0.7h-4.5V204.3z M78.1,206.2c2.6-0.2,2.6-0.2,4.5-0.4v-0.5h-4.5V206.2z"/>
					<path class="st1" d="M88.2,201.3c0-0.6,0-1-0.1-1.4h1.4c-0.1,0.4-0.1,0.7-0.1,1.4v1.5h0.3c0.4,0,0.6,0,0.8,0v1.3
						c-0.3,0-0.5,0-0.8,0h-0.2v3.3c0.5-0.2,0.6-0.3,1.1-0.6l0,1.3c-1.1,0.6-1.7,0.9-3,1.3c-0.3,0.1-0.4,0.2-0.6,0.3l-0.3-1.4
						c0.4,0,0.7-0.2,1.4-0.4V204h-0.3c-0.5,0-0.6,0-0.9,0.1v-1.3c0.3,0,0.5,0.1,0.9,0.1h0.3V201.3z M92.5,209c0,0.2,0.1,0.3,0.3,0.4
						c0.3,0.1,0.8,0.1,1.6,0.1c1.4,0,1.8-0.1,2-0.3c0.1-0.2,0.2-0.6,0.2-1.4c0.4,0.2,0.9,0.3,1.3,0.4c-0.1,2.4-0.4,2.6-3.8,2.6
						c-2.4,0-3-0.2-3-1.3v-4.1c-0.1,0-0.2,0.1-0.2,0.1c-0.4,0.1-0.5,0.2-0.7,0.3l-0.3-1.3c0.3,0,0.8-0.1,1.2-0.3l0.1,0v-1.6
						c0-0.6,0-0.9-0.1-1.3h1.4c0,0.4-0.1,0.7-0.1,1.2v1.3l1.2-0.4v-2.1c0-0.6,0-0.8-0.1-1.2H95c0,0.4-0.1,0.8-0.1,1.2v1.7l1.7-0.5
						c0.5-0.1,0.7-0.2,1-0.4c0,0.5,0,0.6-0.1,1.3c-0.1,1.7-0.1,2.8-0.3,3.3c-0.2,0.7-0.5,0.9-1.4,0.9c-0.2,0-0.3,0-0.6,0
						c-0.1-0.5-0.1-0.9-0.3-1.2c0.3,0.1,0.5,0.1,0.7,0.1c0.3,0,0.4,0,0.4-0.3c0.1-0.4,0.1-1.1,0.1-2.3l-1.4,0.4v3
						c0,0.5,0,0.8,0.1,1.2h-1.4c0-0.4,0.1-0.7,0.1-1.2v-2.5l-1.2,0.4V209z"/>
				</g>
			</g>
			<g id="Japan_Map_1_">
				<path class="st2" d="M287.6,317.3l-1,0.8c0,0,4.6,1.3,4.7,1.3c0.1-0.1,2.5-0.9,2.5-0.9l-1.2-0.6l3.3-1.9l-5.5,0.6l-1.1,0.4
					L287.6,317.3z"/>
				<path class="st2" d="M274.1,353.3c0.3,0,7.8,0.9,7.8,0.9l3.8-2.5l3-0.3l3.5,1.5l3.1-7.2l8.5-3.2l2.4,0.4l8.3-6.2l1.4-3.1
					l8.2-0.9l1.3,2.8l7-4.5l10-2.3l6.3-11.6l6.6-8.8l-3.5-4.1l-4,2.6l3.3,1.2l-4,3.4l-3.4-2.2l2.2-3.7l-3.1-1.7l-3.8,3.1l-5.1-1.4
					l-4.8,4.8l-5,0.6l2,2.6l-4.8,3.5l-18.2,6.3l-8.9-1l-6.8,2.1l-16-3.3l-3,0.7l-2.1-2.8l2.6-2.1l6.7-0.6l0.3-1.4l-8-1.4l-4.1,3.6
					l-16.3,2.9l-1.7,2.9l-7.3-1.3l-2.5-2.9l2.1-0.8l-1.7-1.7l-18.6-8.2l-5.5-3.5l-4.5,0.1c0,0-21.8-0.4-21.8-0.6
					c0-0.2-5.3-2.5-5.3-2.5l-4,3.3l9,5.8l2.4,3.4l4.2-2.4l4.5,0.3l-0.4,2l16.4,5.7l7.3,1.1l8.7,6.7l-11.3,4.4c0,0,1.6,7.8,1.8,8
					c0.2,0.2,12.1-2.3,12.1-2.3l8,2.1l0-5.4l6.5-1.2l1.5,6.9l7.4,5.4l8.7-2l3.3,2.1l-6.8,4.1l5.7-0.6l4.4-3.5l4.9,2.3l7.9-0.1
					l0.2,1.6l-6.3,1.2L274.1,353.3z"/>
				<polygon class="st2" points="183.9,328.1 193.1,325.6 199.4,326.2 201.4,328.2 201.9,331.5 212.7,329.9 215.8,326 212.2,321.3 
					206.5,320.1 203.6,321.6 198.8,319 198.1,316.6 192,318.1 186.4,318.2 182.2,323.9 				"/>
				<path class="st2" d="M173.2,303.5c0,0.3,4.5,7.4,4.5,7.4l3.7,1.3c0,0-1.4,2.7-1.7,2.6c-0.2-0.2-2.9-0.1-2.9-0.1l1.9,2.6l-3,4.3
					l-5.4,0.9l-14.9,7.2l-2.9-2.5L151,329l-5.4-0.4l5.1-6.1l-6.2,3.3l-2.1-3.8l7.7-6.3l10.5-1.4c0,0,1.9-7.5,1.6-7.5
					c-0.3,0-2,0.7-2,0.7l-1.8,4.6l-5.3-2.8l2.5-4.4l2.4-3.3l9.1,2.4L173.2,303.5z"/>
				<path class="st2" d="M147.9,300.3c-0.3,0.3-7.3,1.1-7.3,1.1s-0.3,1.4,0.1,1.4c0.4,0,5-0.8,5-0.8L147.9,300.3z"/>
				<path class="st2" d="M362.1,298.3c-0.2-0.2-1.2-4.6-1.2-4.6l-6.8,0.5l3,8.5c0.2,0.4-0.5,0.7-1,0.5l-2.3-1.2l-9.5-0.9l-1.1-2.1
					l6.5-3.1l-0.5-5.2l5-2l5.6,1.2l4.5-0.3l0.9-3.4l2.3,0.8l4.3,5.9l5.3-0.1l2.9-4.3l4.2,1l8.6-4.6c0.9-0.5,1.5-1.1,1.9-1.9l2.5-5.3
					l6.2,0.6l1.7,16.6c0.1,0.6,0.3,1.2,0.7,1.7l8.7,11.8l9.4,0.7l-7.5,3.1l-1.6,6.6l-11.1-2.7l-4.4-3.1l-10.7-0.4
					c-1.1,0-2.1,0.1-3,0.5l0,0c-3,1.2-7,0.1-8.5-2.3l-6.4-10.8L362.1,298.3z"/>
				<path class="st2" d="M419.6,314.8c0.5,0,11.3-0.4,11.3-0.4s5.6,1.2,5.3,1c-0.3-0.2-2.6-3.4-2.6-3.4l-7.2,0.8L419.6,314.8z"/>
				<path class="st2" d="M123.9,319.5c0.1,0.4-5.8,2.2-5.8,2.2l-11.9-3.7l8.4,0.4L123.9,319.5z"/>
			</g>
			<g>
				<path class="st3" d="M291.7,225.5c0,10-3.8,17.2-10.4,23.8c-3.3,3.3-15.1,13.6-15.1,13.6s-11.1-8.9-15-12.9
					c-6.8-6.8-12-14.3-12-24.5c0-14.5,11.8-26.3,26.3-26.3C279.9,199.3,291.7,211,291.7,225.5z"/>
				<line class="st4" x1="266.2" y1="262.4" x2="266.2" y2="340.4"/>
			</g>
			<circle id="地球" class="st5" cx="56.6" cy="305" r="34.3"/>
			<path id="海外" class="st3" d="M81.6,242.3c0,10-3.8,17.1-10.4,23.7c-3.3,3.3-15.1,13.6-15.1,13.6s-11-8.9-15-12.9
				c-6.8-6.8-12-14.3-12-24.5c0-14.5,11.7-26.2,26.2-26.2C69.8,216.1,81.6,227.8,81.6,242.3z"/>
			<g>
				<g>
					<path class="st1" d="M45.4,227.3c0.8,0.5,1.2,0.8,2,1.5l-0.5,0.6c-0.6-0.7-1-1-1.9-1.5L45.4,227.3z M47.5,231.2
						c-0.4,1.3-0.9,2.5-1.4,3.4c-0.1,0.3-0.1,0.3-0.2,0.4l-0.7-0.5c0.5-0.5,1.1-2,1.7-3.7L47.5,231.2z M46.2,224.3
						c0.7,0.6,1.2,1,1.8,1.6l-0.6,0.6c-0.7-0.8-1-1.1-1.8-1.6L46.2,224.3z M54.3,225.3c0.9,0,1.2,0,1.6-0.1v0.8c-0.3,0-0.7,0-1.5,0
						h-4.7c-0.5,1-0.9,1.4-1.6,2.2c-0.2-0.2-0.3-0.4-0.6-0.6c0.8-0.7,1.3-1.4,1.8-2.6c0.2-0.4,0.3-0.7,0.3-1l0.8,0.2
						c-0.1,0.1-0.1,0.1-0.2,0.5c-0.1,0.2-0.2,0.4-0.3,0.7H54.3z M49,233.3c-0.1,0.3-0.1,0.4-0.2,0.8l-0.8-0.1c0.3-0.9,0.6-2,0.8-3.5
						h-0.1c-0.5,0-0.8,0-1.1,0.1v-0.8c0.3,0,0.6,0.1,1.2,0.1h0.1c0.1-1,0.2-1.8,0.2-2.2c0,0,0-0.1,0-0.3c0.1,0,0.5,0,0.9,0h3.8
						c0.6,0,0.8,0,1.2,0c-0.1,0.3-0.1,0.4-0.1,1.8c0,0.2,0,0.4,0,0.8H55c0.6,0,0.8,0,1.1-0.1v0.8c-0.4,0-0.7-0.1-1.1-0.1h-0.1
						c0,0.1,0,0.1,0,0.3c0,0.5-0.1,1.1-0.2,1.8h0.1c0.5,0,0.7,0,0.9-0.1v0.8c-0.3,0-0.6,0-1,0h-0.2c-0.2,1.4-0.5,1.6-1.4,1.6
						c-0.3,0-0.7,0-1.3-0.1c0-0.3,0-0.5-0.1-0.8c0.5,0.1,1,0.1,1.3,0.1c0.6,0,0.7-0.1,0.8-0.9H49z M49.6,230.4
						c-0.1,0.6-0.2,1-0.4,2.2h1.9c0.2-1.2,0.2-1.2,0.3-2.2H49.6z M51.5,229.7c0.1-0.8,0.1-0.9,0.1-1.9h-1.8
						c-0.1,0.8-0.1,1.1-0.2,1.9H51.5z M52.2,230.4c-0.1,1-0.1,1-0.3,2.2h2.1c0.1-0.7,0.1-1.2,0.2-2.2H52.2z M54.2,229.7
						c0-0.5,0-1.2,0.1-1.9h-1.9c-0.1,0.8-0.1,1.4-0.1,1.9H54.2z"/>
					<path class="st1" d="M59.7,228.4c0.7,0.6,1.2,0.9,1.6,1.5c0.4-1,0.7-1.8,1-3.3h-2.3c-0.6,1.4-1.3,2.6-2.3,3.7
						c-0.2-0.3-0.3-0.4-0.5-0.6c1.1-1.1,1.9-2.4,2.4-4.1c0.2-0.5,0.3-1.1,0.4-1.5l0.9,0.2c-0.1,0.3-0.1,0.4-0.2,0.7
						c-0.1,0.3-0.2,0.5-0.3,0.9h1.9c0.4,0,0.7,0,0.9,0c0,0.2,0,0.2,0,0.3c0.4,1.2,0.8,1.8,1.5,2.6v-3.4c0-0.5,0-0.8-0.1-1.2h0.9
						c-0.1,0.4-0.1,0.8-0.1,1.2v4.1c0.9,0.8,1.8,1.4,3,1.9c-0.2,0.2-0.4,0.5-0.5,0.8c-1.1-0.5-1.7-1-2.5-1.7v3c0,0.6,0,1,0.1,1.5
						h-0.9c0.1-0.5,0.1-0.8,0.1-1.5v-3.7c-0.8-0.9-1.2-1.5-1.7-2.5c-0.3,1.6-0.8,2.9-1.4,4.1c-0.8,1.3-1.8,2.5-3.4,3.6
						c-0.2-0.3-0.3-0.5-0.6-0.7c1.6-1.1,2.7-2.2,3.5-3.7c-0.6-0.7-1-1.1-1.7-1.6L59.7,228.4z"/>
				</g>
			</g>
			<g>
				<g>
					<path class="st1" d="M247.1,214.4c-0.6,0-0.8,0-1.2,0.1v-0.7c0.3,0,0.6,0.1,1.2,0.1h2.8v-0.1c0-0.4,0-0.7-0.1-1h0.7
						c0,0.3-0.1,0.6-0.1,1v0.1h3c0.7,0,1,0,1.2-0.1v0.7c-0.3,0-0.7-0.1-1.2-0.1h-3v0.8h2.2c0.6,0,0.9,0,1.1,0c0,0.3,0,0.5,0,1v1.5
						c0,0.6,0,0.7,0,1.1c-0.3,0-0.5-0.1-1.1-0.1H251c1.1,1.1,2.3,1.8,4.1,2.2c-0.2,0.2-0.2,0.3-0.4,0.6c-0.9-0.3-1.5-0.6-2.2-1
						c-0.8-0.5-1.4-0.9-2-1.6c0,0.3,0,0.6,0,0.8v1c0,0.5,0,0.8,0.1,1.1h-0.7c0-0.3,0.1-0.6,0.1-1.1v-1c0-0.2,0-0.5,0-0.8
						c-0.4,0.5-0.7,0.7-1.2,1.1c-0.8,0.6-1.7,1.1-2.8,1.5c-0.2-0.3-0.2-0.4-0.4-0.6c0.9-0.2,1.6-0.6,2.4-1.1c0.6-0.4,1-0.7,1.4-1.2
						h-1.5c-0.6,0-0.9,0-1.2,0.1l0-0.1c0-0.2,0-0.4,0-0.9v-1.4c0-0.6,0-0.8,0-1.1c0.2,0,0.5,0.1,1.1,0.1h2v-0.8H247.1z M247.6,215.7
						v0.9h2.4v-0.9H247.6z M247.6,217.2v1h2.4v-1H247.6z M250.6,216.6h2.7v-0.9h-2.7V216.6z M250.6,218.2h2.7v-1h-2.7V218.2z"/>
					<path class="st1" d="M256.1,215.4c0.7,0.4,1,0.7,1.6,1.3l-0.4,0.5c-0.5-0.5-0.8-0.8-1.6-1.3L256.1,215.4z M257.8,218.6
						c-0.4,1.1-0.8,2.1-1.2,2.8c-0.1,0.2-0.1,0.2-0.2,0.3l-0.6-0.4c0.4-0.4,0.9-1.7,1.4-3.1L257.8,218.6z M256.7,212.9
						c0.6,0.5,1,0.8,1.5,1.3l-0.5,0.5c-0.6-0.7-0.9-0.9-1.5-1.3L256.7,212.9z M263.5,213.8c0.7,0,1,0,1.3-0.1v0.7
						c-0.2,0-0.6,0-1.3,0h-3.9c-0.4,0.8-0.7,1.2-1.3,1.8c-0.1-0.2-0.3-0.3-0.5-0.5c0.7-0.6,1.1-1.2,1.5-2.2c0.2-0.3,0.2-0.6,0.3-0.9
						l0.7,0.1c0,0.1,0,0.1-0.2,0.4c-0.1,0.2-0.1,0.3-0.3,0.6H263.5z M259.1,220.4c-0.1,0.2-0.1,0.3-0.2,0.6l-0.7-0.1
						c0.3-0.8,0.5-1.7,0.7-2.9h-0.1c-0.4,0-0.6,0-0.9,0.1v-0.7c0.2,0,0.5,0.1,1,0.1h0.1c0.1-0.9,0.2-1.5,0.2-1.8c0,0,0-0.1,0-0.3
						c0.1,0,0.4,0,0.7,0h3.2c0.5,0,0.7,0,1,0c0,0.3,0,0.3-0.1,1.5c0,0.2,0,0.3,0,0.6h0.1c0.5,0,0.7,0,0.9-0.1v0.7
						c-0.3,0-0.6-0.1-0.9-0.1h-0.1c0,0.1,0,0.1,0,0.3c0,0.4-0.1,0.9-0.2,1.5h0.1c0.4,0,0.5,0,0.8-0.1v0.7c-0.3,0-0.5,0-0.8,0h-0.2
						c-0.2,1.2-0.4,1.4-1.2,1.4c-0.2,0-0.6,0-1.1-0.1c0-0.3,0-0.4-0.1-0.6c0.4,0.1,0.8,0.1,1.1,0.1c0.5,0,0.5,0,0.7-0.8H259.1z
						 M259.5,218c-0.1,0.5-0.1,0.8-0.3,1.8h1.6c0.2-1,0.2-1,0.3-1.8H259.5z M261.2,217.5c0.1-0.7,0.1-0.8,0.1-1.6h-1.5
						c0,0.7-0.1,0.9-0.1,1.6H261.2z M261.7,218c-0.1,0.8-0.1,0.8-0.3,1.8h1.7c0.1-0.5,0.1-1,0.2-1.8H261.7z M263.4,217.5
						c0-0.4,0-1,0-1.6h-1.6c0,0.7-0.1,1.2-0.1,1.6H263.4z"/>
					<path class="st1" d="M269.2,219.2c0.2,0.5,0.3,0.7,0.6,1c0.3,0.2,0.8,0.4,1.3,0.4c1.2,0,1.9-0.6,1.9-1.5c0-1-0.7-1.5-2-1.5
						c-0.3,0-0.5,0-0.8,0v-0.8c0.2,0,0.5,0.1,0.7,0.1c0.7,0,1.1-0.2,1.5-0.5c0.2-0.2,0.4-0.6,0.4-1c0-0.9-0.6-1.4-1.6-1.4
						c-0.6,0-1,0.2-1.3,0.5c-0.1,0.2-0.2,0.3-0.3,0.7l-0.8-0.2c0.2-0.5,0.3-0.7,0.5-1c0.4-0.5,1.1-0.7,2-0.7c1.4,0,2.4,0.8,2.4,2
						c0,0.6-0.3,1.1-0.7,1.5c-0.3,0.2-0.5,0.3-0.9,0.4c0.6,0.1,0.9,0.2,1.2,0.4c0.4,0.3,0.7,0.9,0.7,1.5c0,1.3-1,2.2-2.7,2.2
						c-1,0-1.8-0.3-2.2-0.8c-0.2-0.2-0.3-0.5-0.5-1L269.2,219.2z"/>
					<path class="st1" d="M280.5,219.7c-0.8,1-1.3,1.4-2.3,1.9c-0.2-0.2-0.3-0.3-0.5-0.5c0.6-0.2,0.9-0.4,1.3-0.7
						c0.4-0.3,0.6-0.5,1-1L280.5,219.7z M282.3,220.9c0,0.5,0,0.7,0.1,1h-0.8c0-0.3,0.1-0.6,0.1-1V219h-2.6c-0.4,0-0.7,0-1,0
						c0-0.3,0-0.5,0-1v-3.3c0-0.4,0-0.6-0.1-0.9h0.7c0,0.3,0,0.5,0,0.9v3.7h6.6c0.5,0,0.7,0,1,0v0.7c-0.3-0.1-0.5-0.1-1-0.1h-3
						V220.9z M285.1,216.9c0,0.5,0,0.7,0,0.9c-0.3,0-0.6,0-1,0H281c-0.4,0-0.7,0-1,0c0-0.3,0-0.5,0-1V214c0-0.4,0-0.6,0-0.9
						c0.3,0,0.6,0,1.1,0h3.1c0.4,0,0.7,0,1,0c0,0.2,0,0.5,0,0.9V216.9z M280.6,214.5h3.9v-0.8h-3.9V214.5z M280.6,215.9h3.9V215
						h-3.9V215.9z M280.6,217.3h3.9v-0.9h-3.9V217.3z M284,219.4c0.5,0.5,0.8,0.8,1.3,1.1c0.3,0.2,0.5,0.3,1.1,0.6
						c-0.2,0.2-0.3,0.3-0.5,0.5c-1-0.5-1.6-1-2.5-1.9L284,219.4z"/>
				</g>
			</g>
			<g>
				<g>
					<path class="st1" d="M65.8,254.8c0,1.9-1,3-2.7,3c-0.7,0-1.4-0.2-1.8-0.6c-0.6-0.5-0.9-1.4-0.9-2.4c0-0.9,0.3-1.8,0.8-2.3
						c0.4-0.5,1.1-0.7,1.9-0.7C64.8,251.8,65.8,252.9,65.8,254.8z M69.3,251.9l0.8,0.7l-7.8,9.9l-0.8-0.7L69.3,251.9z M62.4,254.8
						c0,1.2,0.2,1.7,0.7,1.7c0.3,0,0.5-0.2,0.6-0.4c0.1-0.2,0.1-0.8,0.1-1.4c0-1.1-0.2-1.5-0.7-1.5
						C62.6,253.2,62.4,253.6,62.4,254.8z M70.9,257.9c0.2,0.4,0.4,1.1,0.4,2c0,1.8-0.9,2.8-2.6,2.8c-0.7,0-1.3-0.2-1.7-0.5
						c-0.6-0.5-0.9-1.4-0.9-2.4c0-1,0.3-1.9,0.9-2.4c0.4-0.4,1-0.6,1.8-0.6C69.6,256.7,70.4,257.1,70.9,257.9z M67.8,259.5
						c0,1.4,0.2,1.8,0.8,1.8c0.5,0,0.7-0.4,0.7-1.7c0-0.8-0.1-1.2-0.2-1.4c-0.1-0.2-0.3-0.3-0.5-0.3C68.1,258,67.8,258.5,67.8,259.5
						z"/>
				</g>
			</g>
			<g>
				<g>
					<path class="st1" d="M45.1,245.2c0.4-0.7,0.9-1.2,1.5-1.7c0.6-0.4,1.3-0.8,2.1-1c0.8-0.2,1.6-0.3,2.4-0.3
						c1.2,0,2.2,0.2,3.1,0.6c0.8,0.4,1.5,0.8,2,1.4s0.9,1.1,1.1,1.7c0.2,0.6,0.3,1.2,0.3,1.6c0,1-0.2,1.8-0.7,2.5
						c-0.5,0.7-1.2,1.3-2.1,1.6v0.1c1.2,0.3,2.1,0.8,2.7,1.7s1,1.9,1,3.1c0,1-0.2,2-0.6,2.7s-1,1.4-1.7,1.9
						c-0.7,0.5-1.5,0.9-2.4,1.1c-0.9,0.3-1.8,0.4-2.7,0.4c-1,0-1.9-0.1-2.8-0.4c-0.9-0.2-1.7-0.6-2.4-1.1s-1.3-1.1-1.7-1.9
						c-0.4-0.8-0.6-1.7-0.6-2.7c0-1.2,0.3-2.3,1-3.1c0.6-0.8,1.6-1.4,2.7-1.7v-0.1c-1-0.3-1.7-0.8-2.2-1.5c-0.5-0.7-0.7-1.6-0.7-2.5
						C44.5,246.7,44.7,245.9,45.1,245.2z M48,257.6c0.2,0.4,0.4,0.8,0.7,1.1c0.3,0.3,0.7,0.5,1.1,0.7c0.4,0.2,0.9,0.2,1.3,0.2
						c0.5,0,0.9-0.1,1.3-0.2s0.8-0.4,1.1-0.7c0.3-0.3,0.5-0.6,0.7-1.1c0.2-0.4,0.3-0.9,0.3-1.3c0-0.5-0.1-0.9-0.3-1.3
						c-0.2-0.4-0.4-0.7-0.7-1c-0.3-0.3-0.7-0.5-1.1-0.6c-0.4-0.1-0.8-0.2-1.3-0.2c-1,0-1.8,0.3-2.5,0.8s-1,1.3-1,2.3
						C47.7,256.7,47.8,257.2,48,257.6z M49,249.8c0.6,0.4,1.3,0.7,2.1,0.7c0.8,0,1.5-0.2,2.1-0.7c0.6-0.4,0.8-1.1,0.8-1.9
						c0-0.3,0-0.5-0.1-0.9c-0.1-0.3-0.2-0.6-0.4-0.9c-0.2-0.3-0.5-0.5-0.9-0.7s-0.9-0.3-1.5-0.3c-0.4,0-0.8,0.1-1.1,0.2
						c-0.4,0.1-0.7,0.3-1,0.5s-0.5,0.5-0.7,0.8s-0.2,0.7-0.2,1.2C48.1,248.7,48.4,249.4,49,249.8z"/>
				</g>
			</g>
			<g>
				<g>
					<path class="st1" d="M255.8,230.7c0-0.7-0.1-1.1-0.5-1.5c-0.4-0.5-1.2-0.8-2-0.8c-2,0-2.9,1.2-3.1,4.1c1.1-0.8,2.4-1.2,4-1.2
						c2.7,0,4.5,1.6,4.5,4c0,2.8-2.3,4.7-5.6,4.7c-1.8,0-3.4-0.6-4.4-1.6c-0.6-0.6-0.9-1.3-1.2-2.5c-0.2-0.8-0.3-1.7-0.3-2.5
						c0-2.3,0.6-4.2,1.8-5.3c0.9-0.9,2.4-1.4,4.1-1.4c2,0,3.6,0.6,5,1.9l-0.9,2.5L255.8,230.7z M250.4,235.6c0,1.6,1,2.5,2.6,2.5
						c1.6,0,2.6-0.9,2.6-2.5c0-1.5-1-2.5-2.6-2.5C251.4,233.1,250.4,234.1,250.4,235.6z"/>
					<path class="st1" d="M273.5,228.6c1,1.1,1.4,2.6,1.4,4.8c0,2.2-0.5,3.8-1.6,4.9c-1.1,1.1-2.6,1.7-4.4,1.7c-2,0-3.5-0.6-4.5-1.9
						c-0.9-1.1-1.4-2.5-1.4-4.6c0-2.4,0.5-4,1.6-5.1c1.1-1.1,2.6-1.7,4.4-1.7C270.8,226.7,272.4,227.3,273.5,228.6z M266.1,233.2
						c0,3.5,0.8,5,2.8,5c1.2,0,2-0.5,2.4-1.6c0.3-0.7,0.4-1.9,0.4-3.1c0-1.3-0.2-2.7-0.5-3.4c-0.4-1-1.2-1.5-2.4-1.5
						C267,228.5,266.1,230.1,266.1,233.2z"/>
				</g>
			</g>
			<g>
				<g>
					<path class="st1" d="M280.9,233.4c0,1.6-0.8,2.6-2.3,2.6c-0.6,0-1.2-0.2-1.5-0.5c-0.5-0.4-0.8-1.2-0.8-2c0-0.8,0.3-1.5,0.7-1.9
						c0.4-0.4,0.9-0.6,1.6-0.6C280,230.9,280.9,231.8,280.9,233.4z M283.9,231l0.7,0.6L278,240l-0.7-0.6L283.9,231z M278,233.4
						c0,1,0.2,1.4,0.6,1.4c0.2,0,0.4-0.1,0.5-0.3c0.1-0.2,0.1-0.7,0.1-1.2c0-0.9-0.2-1.3-0.6-1.3C278.2,232.1,278,232.4,278,233.4z
						 M285.2,236c0.2,0.4,0.3,1,0.3,1.7c0,1.5-0.8,2.4-2.2,2.4c-0.6,0-1.1-0.2-1.5-0.4c-0.5-0.4-0.8-1.2-0.8-2c0-0.8,0.3-1.6,0.7-2
						c0.4-0.4,0.9-0.5,1.5-0.5C284.1,235,284.8,235.4,285.2,236z M282.6,237.4c0,1.2,0.1,1.6,0.7,1.6c0.5,0,0.6-0.3,0.6-1.4
						c0-0.7,0-1.1-0.1-1.2c-0.1-0.2-0.3-0.2-0.5-0.2C282.8,236.1,282.6,236.5,282.6,237.4z"/>
				</g>
			</g>
			<g id="北海道">
				<g>
					<path class="st3" d="M402.3,246c0,4.8-1.8,8.2-5,11.4c-1.6,1.6-7.2,6.5-7.2,6.5s-5.3-4.3-7.2-6.2c-3.2-3.2-5.7-6.8-5.7-11.7
						c0-6.9,5.6-12.6,12.6-12.6C396.7,233.4,402.3,239,402.3,246z"/>
					<line class="st6" x1="389.7" y1="263.4" x2="389.7" y2="291.4"/>
				</g>
				<g>
					<g>
						<path class="st1" d="M381.7,240.8c-0.2,0-0.4,0-0.5,0v-0.4c0.1,0,0.3,0,0.5,0h1v-0.8c0-0.3,0-0.4,0-0.6h0.5c0,0.2,0,0.3,0,0.6
							v4c0,0.3,0,0.5,0,0.6h-0.5c0-0.2,0-0.4,0-0.6v-0.7c-0.4,0.2-0.8,0.4-1.3,0.7c-0.1,0-0.2,0.1-0.2,0.1l-0.2-0.4
							c0.2,0,0.3-0.1,0.5-0.2c0.5-0.2,0.7-0.3,1.2-0.6v-1.7H381.7z M384.4,243.5c0,0.1,0,0.2,0.1,0.2c0.1,0,0.3,0,0.6,0
							c0.5,0,0.7,0,0.8-0.2c0.1-0.1,0.1-0.5,0.1-1c0.1,0.1,0.2,0.1,0.4,0.2c0,0.6-0.1,1-0.3,1.2c-0.1,0.1-0.4,0.2-1,0.2
							c-0.9,0-1.1-0.1-1.1-0.5v-4c0-0.3,0-0.5,0-0.6h0.5c0,0.2,0,0.4,0,0.6v1.4c0.5-0.3,0.9-0.5,1.2-0.8c0.2-0.1,0.3-0.2,0.3-0.3
							l0.3,0.3c-0.1,0.1-0.1,0.1-0.2,0.2c-0.5,0.4-1,0.7-1.7,1.1V243.5z"/>
						<path class="st1" d="M387.1,240.5c0.4,0.3,0.6,0.4,1,0.8l-0.3,0.3c-0.3-0.3-0.5-0.5-1-0.8L387.1,240.5z M388.2,242.5
							c-0.2,0.7-0.5,1.3-0.7,1.7c-0.1,0.1-0.1,0.1-0.1,0.2l-0.3-0.3c0.2-0.2,0.6-1,0.8-1.9L388.2,242.5z M387.5,239
							c0.4,0.3,0.6,0.5,0.9,0.8l-0.3,0.3c-0.3-0.4-0.5-0.6-0.9-0.8L387.5,239z M391.6,239.5c0.4,0,0.6,0,0.8,0v0.4
							c-0.1,0-0.3,0-0.8,0h-2.4c-0.3,0.5-0.4,0.7-0.8,1.1c-0.1-0.1-0.2-0.2-0.3-0.3c0.4-0.3,0.6-0.7,0.9-1.3
							c0.1-0.2,0.1-0.4,0.2-0.5l0.4,0.1c0,0.1,0,0.1-0.1,0.2c0,0.1-0.1,0.2-0.2,0.4H391.6z M388.9,243.5c0,0.1-0.1,0.2-0.1,0.4
							l-0.4-0.1c0.2-0.5,0.3-1,0.4-1.8h0c-0.2,0-0.4,0-0.6,0v-0.4c0.1,0,0.3,0,0.6,0h0.1c0.1-0.5,0.1-0.9,0.1-1.1c0,0,0-0.1,0-0.2
							c0.1,0,0.2,0,0.4,0h1.9c0.3,0,0.4,0,0.6,0c0,0.2,0,0.2-0.1,0.9c0,0.1,0,0.2,0,0.4h0c0.3,0,0.4,0,0.6,0v0.4c-0.2,0-0.4,0-0.6,0
							h-0.1c0,0.1,0,0.1,0,0.2c0,0.3,0,0.6-0.1,0.9h0.1c0.2,0,0.3,0,0.5,0v0.4c-0.2,0-0.3,0-0.5,0h-0.1c-0.1,0.7-0.2,0.8-0.7,0.8
							c-0.1,0-0.3,0-0.7,0c0-0.2,0-0.2-0.1-0.4c0.3,0,0.5,0.1,0.7,0.1c0.3,0,0.3,0,0.4-0.5H388.9z M389.2,242.1
							c0,0.3-0.1,0.5-0.2,1.1h1c0.1-0.6,0.1-0.6,0.2-1.1H389.2z M390.2,241.8c0-0.4,0-0.5,0.1-0.9h-0.9c0,0.4,0,0.5-0.1,0.9H390.2z
							 M390.5,242.1c-0.1,0.5-0.1,0.5-0.2,1.1h1c0-0.3,0.1-0.6,0.1-1.1H390.5z M391.5,241.8c0-0.2,0-0.6,0-0.9h-0.9
							c0,0.4-0.1,0.7-0.1,0.9H391.5z"/>
						<path class="st1" d="M393.1,241.3c0.1,0,0.2,0,0.5,0h0.3c0.2,0,0.3,0,0.4,0c0,0.2,0,0.3,0,0.6v1.2c0.1,0.3,0.3,0.4,0.6,0.6
							c0.3,0.1,0.7,0.2,1.6,0.2c0.8,0,1.5,0,2.1-0.1c-0.1,0.2-0.1,0.3-0.1,0.4c-0.6,0-1.5,0-2,0c-0.9,0-1.3-0.1-1.7-0.2
							c-0.3-0.1-0.4-0.3-0.6-0.6c-0.2,0.3-0.4,0.4-0.8,0.7c0,0-0.1,0.1-0.1,0.1l-0.2-0.4c0.2-0.1,0.6-0.4,1-0.7v-1.4h-0.4
							c-0.2,0-0.3,0-0.4,0V241.3z M393.4,239.1c0.4,0.4,0.6,0.7,1,1.1l-0.3,0.3c-0.3-0.5-0.6-0.7-0.9-1.1L393.4,239.1z M395.7,239.6
							c-0.1-0.2-0.2-0.4-0.4-0.6l0.3-0.1c0.2,0.2,0.3,0.4,0.5,0.7h0.6c0.2-0.2,0.3-0.5,0.5-0.7l0.4,0.1c-0.2,0.3-0.3,0.4-0.4,0.6
							h0.6c0.3,0,0.5,0,0.6,0v0.4c-0.2,0-0.4,0-0.6,0h-1.1c-0.1,0.2-0.1,0.3-0.2,0.5h1c0.3,0,0.5,0,0.6,0c0,0.2,0,0.4,0,0.6v1.6
							c0,0.2,0,0.4,0,0.6c-0.1,0-0.3,0-0.4,0h-1.9c-0.2,0-0.4,0-0.6,0c0-0.2,0-0.4,0-0.6V241c0-0.2,0-0.5,0-0.6c0.1,0,0.3,0,0.6,0
							h0.4c0.1-0.2,0.2-0.3,0.2-0.5h-1c-0.3,0-0.4,0-0.6,0v-0.4c0.1,0,0.3,0,0.6,0H395.7z M395.3,242.9h2.2v-0.6h-2.2V242.9z
							 M395.3,241.3h2.2v-0.5h-2.2V241.3z M395.3,242.1h2.2v-0.5h-2.2V242.1z"/>
					</g>
				</g>
				<g>
					<g>
						<path class="st1" d="M390.3,253.3c0,0.7-0.3,1.4-0.8,1.7c-0.5,0.4-1.3,0.6-2.2,0.6c-1.8,0-3-0.9-3-2.2c0-0.9,0.5-1.4,1.6-1.8
							c-0.9-0.6-1.3-1-1.3-1.8c0-1.3,1-2.1,2.7-2.1c1.6,0,2.6,0.8,2.6,1.9c0,0.7-0.3,1.1-1.2,1.6
							C389.8,251.9,390.3,252.4,390.3,253.3z M385.5,253.4c0,0.9,0.6,1.4,1.7,1.4c0.9,0,1.5-0.4,1.5-1.2c0-0.6-0.3-0.8-2-1.6
							C385.8,252.4,385.5,252.7,385.5,253.4z M387.6,250.8c0,0,0.1,0,0.2,0.1c0.6-0.4,0.8-0.7,0.8-1.2c0-0.7-0.5-1.1-1.3-1.1
							c-0.8,0-1.3,0.3-1.3,0.9c0,0.4,0.3,0.8,1,1.1C387.3,250.6,387.5,250.7,387.6,250.8L387.6,250.8z"/>
					</g>
				</g>
				<g>
					<g>
						<path class="st1" d="M393.7,251.4c0,1-0.5,1.6-1.4,1.6c-0.4,0-0.7-0.1-1-0.3c-0.3-0.3-0.5-0.8-0.5-1.3c0-0.5,0.2-1,0.4-1.2
							c0.2-0.3,0.6-0.4,1-0.4C393.2,249.8,393.7,250.4,393.7,251.4z M395.6,249.9l0.4,0.4l-4.2,5.4l-0.5-0.4L395.6,249.9z
							 M391.9,251.5c0,0.7,0.1,0.9,0.4,0.9c0.1,0,0.3-0.1,0.3-0.2c0-0.1,0.1-0.4,0.1-0.7c0-0.6-0.1-0.8-0.4-0.8
							C392,250.6,391.9,250.8,391.9,251.5z M396.5,253.1c0.1,0.2,0.2,0.6,0.2,1.1c0,1-0.5,1.5-1.4,1.5c-0.4,0-0.7-0.1-0.9-0.3
							c-0.3-0.2-0.5-0.7-0.5-1.3c0-0.5,0.2-1,0.5-1.3c0.2-0.2,0.6-0.3,1-0.3C395.8,252.5,396.2,252.7,396.5,253.1z M394.8,254
							c0,0.8,0.1,1,0.4,1c0.3,0,0.4-0.2,0.4-0.9c0-0.4,0-0.7-0.1-0.8c-0.1-0.1-0.2-0.2-0.3-0.2C395,253.2,394.8,253.4,394.8,254z"/>
					</g>
				</g>
			</g>
			<g id="関西">
				<line class="st6" x1="235.7" y1="262.4" x2="235.7" y2="327.4"/>
				<g>
					<path class="st3" d="M247.2,267.6c0,4.4-1.7,7.5-4.5,10.4c-1.5,1.5-6.8,6-6.8,6s-4.7-3.9-6.4-5.6c-3-3-5.3-6.3-5.3-10.7
						c0-6.4,5.3-11.5,11.7-11.5C242.2,256.1,247.2,261.2,247.2,267.6z"/>
					<g>
						<path class="st1" d="M230.6,265.6c0,0.3,0,0.5,0,0.7h-0.4c0-0.2,0-0.3,0-0.7v-3.9c0-0.3,0-0.5,0-0.7c0.2,0,0.3,0,0.6,0h0.9
							c0.3,0,0.4,0,0.6,0c0,0.2,0,0.3,0,0.6v0.7c0,0.2,0,0.4,0,0.6c-0.2,0-0.4,0-0.6,0h-1.1V265.6z M230.6,261.8h1.4v-0.4h-1.4
							V261.8z M230.6,262.5h1.4v-0.5h-1.4V262.5z M232.9,264.7c0.3,0.4,0.7,0.7,1.3,0.8c-0.1,0.1-0.1,0.2-0.2,0.3c0.2,0,0.4,0,0.5,0
							c0.2,0,0.2,0,0.2-0.2v-2.9h-1.2c-0.3,0-0.5,0-0.6,0c0-0.2,0-0.3,0-0.6v-0.7c0-0.2,0-0.4,0-0.6c0.2,0,0.3,0,0.6,0h1
							c0.3,0,0.5,0,0.6,0c0,0.2,0,0.4,0,0.7v4c0,0.4-0.1,0.5-0.6,0.5c-0.2,0-0.4,0-0.6,0c0-0.2,0-0.2-0.1-0.4c0.1,0,0.1,0,0.1,0
							c-0.6-0.2-1.1-0.5-1.4-1c-0.2,0.6-0.6,0.9-1.5,1.2c-0.1-0.1-0.1-0.2-0.2-0.3c0.5-0.1,0.8-0.3,1.1-0.5c0.2-0.1,0.3-0.3,0.3-0.5
							h-0.8c-0.2,0-0.4,0-0.5,0v-0.4c0.1,0,0.3,0,0.5,0h0.8c0-0.2,0-0.3,0-0.5h-0.8c-0.2,0-0.4,0-0.5,0v-0.3c0.1,0,0.3,0,0.5,0h0.3
							c-0.1-0.2-0.2-0.3-0.4-0.5l0.3-0.1c0.2,0.2,0.3,0.4,0.4,0.6h0.6c0.2-0.2,0.2-0.4,0.4-0.6l0.3,0.1c-0.1,0.2-0.2,0.3-0.3,0.5
							h0.3c0.2,0,0.4,0,0.5,0v0.3c-0.1,0-0.3,0-0.5,0h-0.9c0,0.3,0,0.4,0,0.5h1c0.3,0,0.4,0,0.5,0v0.4c-0.2,0-0.3,0-0.5,0H232.9z
							 M233.2,261.8h1.5v-0.4h-1.5V261.8z M233.2,262.5h1.5v-0.5h-1.5V262.5z"/>
						<path class="st1" d="M236.6,261.7c-0.2,0-0.4,0-0.6,0v-0.4c0.2,0,0.4,0,0.6,0h4.1c0.3,0,0.5,0,0.6,0v0.4c-0.2,0-0.4,0-0.6,0
							h-1.4v0.9h0.9c0.3,0,0.5,0,0.7,0c0,0.2,0,0.4,0,0.7v2.3c0,0.4,0,0.6,0,0.7h-0.4v-0.4h-3.8v0.4h-0.4c0-0.2,0-0.4,0-0.7v-2.3
							c0-0.3,0-0.5,0-0.7c0.2,0,0.4,0,0.7,0h0.8c0-0.2,0-0.3,0-0.5v-0.4H236.6z M236.8,262.9v2.6h3.8v-2.6h-1.2v1.1
							c0,0.1,0,0.1,0.3,0.1c0.3,0,0.4,0,0.4-0.1c0-0.1,0-0.2,0-0.4c0.1,0.1,0.2,0.1,0.3,0.1c0,0.4,0,0.5-0.1,0.6
							c-0.1,0.1-0.2,0.2-0.7,0.2c-0.5,0-0.7-0.1-0.7-0.4v-1.2h-0.7c-0.1,0.6-0.1,0.9-0.3,1.2c-0.2,0.3-0.4,0.5-0.8,0.7
							c-0.1-0.1-0.1-0.2-0.3-0.3c0.4-0.2,0.6-0.4,0.7-0.6c0.2-0.3,0.2-0.6,0.3-1H236.8z M238.3,262c0,0.2,0,0.3,0,0.5h0.7v-0.9h-0.7
							V262z"/>
					</g>
				</g>
				<g>
					<g>
						<path class="st1" d="M235.4,274c0,0.7-0.3,1.4-0.8,1.7c-0.5,0.4-1.3,0.6-2.2,0.6c-1.8,0-3-0.9-3-2.2c0-0.9,0.5-1.4,1.6-1.8
							c-0.9-0.6-1.3-1-1.3-1.8c0-1.3,1-2.1,2.7-2.1c1.6,0,2.6,0.8,2.6,1.9c0,0.7-0.3,1.1-1.2,1.6C235,272.5,235.4,273.1,235.4,274z
							 M230.7,274.1c0,0.9,0.6,1.4,1.7,1.4c0.9,0,1.5-0.4,1.5-1.2c0-0.6-0.3-0.8-2-1.6C231,273,230.7,273.4,230.7,274.1z
							 M232.8,271.4c0,0,0.1,0,0.2,0.1c0.6-0.4,0.8-0.7,0.8-1.2c0-0.7-0.5-1.1-1.3-1.1c-0.8,0-1.3,0.3-1.3,0.9c0,0.4,0.3,0.8,1,1.1
							C232.4,271.3,232.7,271.4,232.8,271.4L232.8,271.4z"/>
					</g>
				</g>
				<g>
					<g>
						<path class="st1" d="M238.9,272.1c0,1-0.5,1.6-1.4,1.6c-0.4,0-0.7-0.1-1-0.3c-0.3-0.3-0.5-0.8-0.5-1.3c0-0.5,0.2-1,0.4-1.2
							c0.2-0.3,0.6-0.4,1-0.4C238.3,270.5,238.9,271.1,238.9,272.1z M240.8,270.6l0.4,0.4l-4.2,5.4l-0.5-0.4L240.8,270.6z
							 M237.1,272.1c0,0.7,0.1,0.9,0.4,0.9c0.1,0,0.3-0.1,0.3-0.2c0-0.1,0.1-0.4,0.1-0.7c0-0.6-0.1-0.8-0.4-0.8
							C237.2,271.3,237.1,271.5,237.1,272.1z M241.6,273.8c0.1,0.2,0.2,0.6,0.2,1.1c0,1-0.5,1.5-1.4,1.5c-0.4,0-0.7-0.1-0.9-0.3
							c-0.3-0.2-0.5-0.7-0.5-1.3c0-0.5,0.2-1,0.5-1.3c0.2-0.2,0.6-0.3,1-0.3C241,273.2,241.4,273.4,241.6,273.8z M240,274.7
							c0,0.8,0.1,1,0.4,1c0.3,0,0.4-0.2,0.4-0.9c0-0.4,0-0.7-0.1-0.8c-0.1-0.1-0.2-0.2-0.3-0.2C240.1,273.8,240,274.1,240,274.7z"/>
					</g>
				</g>
			</g>
			<g id="北陸">
				<line class="st6" x1="287.7" y1="262.4" x2="287.7" y2="327.4"/>
				<g>
					<path class="st3" d="M299.2,267.6c0,4.4-1.7,7.5-4.5,10.4c-1.5,1.5-6.8,6-6.8,6s-4.7-3.9-6.4-5.6c-3-3-5.3-6.3-5.3-10.7
						c0-6.4,5.3-11.5,11.7-11.5C294.2,256.1,299.2,261.2,299.2,267.6z"/>
					<g>
						<path class="st1" d="M282.6,262.8c-0.2,0-0.4,0-0.5,0v-0.4c0.1,0,0.3,0,0.5,0h1v-0.8c0-0.3,0-0.4,0-0.6h0.5c0,0.2,0,0.3,0,0.6
							v4c0,0.3,0,0.5,0,0.6h-0.5c0-0.2,0-0.4,0-0.6v-0.7c-0.4,0.2-0.8,0.4-1.3,0.7c-0.1,0-0.2,0.1-0.2,0.1l-0.2-0.4
							c0.2,0,0.3-0.1,0.5-0.2c0.5-0.2,0.7-0.3,1.2-0.6v-1.7H282.6z M285.4,265.5c0,0.1,0,0.2,0.1,0.2c0.1,0,0.3,0,0.6,0
							c0.5,0,0.7,0,0.8-0.2c0.1-0.1,0.1-0.5,0.1-1c0.1,0.1,0.2,0.1,0.4,0.2c0,0.6-0.1,1-0.3,1.2c-0.1,0.1-0.4,0.2-1,0.2
							c-0.9,0-1.1-0.1-1.1-0.5v-4c0-0.3,0-0.5,0-0.6h0.5c0,0.2,0,0.4,0,0.6v1.4c0.5-0.3,0.9-0.5,1.2-0.8c0.2-0.1,0.3-0.2,0.3-0.3
							l0.3,0.3c-0.1,0.1-0.1,0.1-0.2,0.2c-0.5,0.4-1,0.7-1.7,1.1V265.5z"/>
						<path class="st1" d="M288.2,261.6c0-0.2,0-0.4,0-0.5c0.1,0,0.2,0,0.4,0h0.6c0.2,0,0.3,0,0.4,0l0.2,0.2c0,0.1,0,0.1-0.1,0.2
							c-0.1,0.4-0.4,1-0.6,1.4c0.2,0.3,0.3,0.4,0.4,0.7c0.1,0.2,0.1,0.5,0.1,0.7c0,0.3-0.1,0.5-0.3,0.6c-0.1,0-0.3,0.1-0.5,0.1
							c0,0,0,0,0,0h-0.1c0-0.2,0-0.3-0.1-0.4c0.1,0,0.2,0,0.3,0c0.3,0,0.4-0.1,0.4-0.4c0-0.2,0-0.4-0.1-0.7
							c-0.1-0.3-0.2-0.4-0.5-0.7c0.3-0.5,0.5-0.9,0.6-1.4h-0.8v4.3c0,0.3,0,0.5,0,0.7h-0.4c0-0.2,0-0.4,0-0.7V261.6z M291.2,264.2
							c0-0.2,0-0.3,0-0.4h0.4c0,0.1,0,0.2,0,0.4v0.3h1c0.3,0,0.4,0,0.5,0v0.4c-0.1,0-0.3,0-0.5,0h-1v0.9h1.2c0.3,0,0.4,0,0.6,0v0.4
							c-0.2,0-0.4,0-0.6,0h-2.9c-0.3,0-0.4,0-0.6,0v-0.4c0.2,0,0.4,0,0.6,0h1.3v-0.9h-0.8c-0.3,0-0.4,0-0.5,0v-0.4
							c0.2,0,0.3,0,0.5,0h0.8V264.2z M291.2,261.9h-0.7c-0.2,0-0.4,0-0.5,0v-0.4c0.1,0,0.3,0,0.5,0h0.7v-0.3c0-0.1,0-0.3,0-0.4h0.4
							c0,0.1,0,0.2,0,0.4v0.3h0.9c0.3,0,0.4,0,0.5,0v0.4c-0.2,0-0.3,0-0.5,0h-0.9v0.7h1.2c0.3,0,0.4,0,0.6,0v0.4c-0.2,0-0.3,0-0.6,0
							h-0.7v0.6c0,0.1,0,0.2,0.3,0.2c0.3,0,0.4,0,0.5-0.1c0.1,0,0.1-0.2,0.1-0.5c0.2,0.1,0.2,0.1,0.3,0.1c-0.1,0.7-0.1,0.7-1,0.7
							c-0.2,0-0.4,0-0.5,0c-0.2,0-0.2-0.1-0.2-0.3v-0.8h-0.6c0,0.3-0.1,0.4-0.2,0.6c-0.2,0.3-0.4,0.5-0.9,0.7
							c-0.1-0.1-0.1-0.2-0.2-0.3c0.4-0.1,0.6-0.3,0.8-0.6c0.1-0.1,0.1-0.2,0.1-0.4h-0.5c-0.2,0-0.4,0-0.6,0v-0.4c0.1,0,0.3,0,0.6,0
							h1V261.9z"/>
					</g>
				</g>
				<g>
					<g>
						<path class="st1" d="M287.4,274c0,0.7-0.3,1.4-0.8,1.7c-0.5,0.4-1.3,0.6-2.2,0.6c-1.8,0-3-0.9-3-2.2c0-0.9,0.5-1.4,1.6-1.8
							c-0.9-0.6-1.3-1-1.3-1.8c0-1.3,1-2.1,2.7-2.1c1.6,0,2.6,0.8,2.6,1.9c0,0.7-0.3,1.1-1.2,1.6C287,272.5,287.4,273.1,287.4,274z
							 M282.7,274.1c0,0.9,0.6,1.4,1.7,1.4c0.9,0,1.5-0.4,1.5-1.2c0-0.6-0.3-0.8-2-1.6C283,273,282.7,273.4,282.7,274.1z
							 M284.8,271.4c0,0,0.1,0,0.2,0.1c0.6-0.4,0.8-0.7,0.8-1.2c0-0.7-0.5-1.1-1.3-1.1c-0.8,0-1.3,0.3-1.3,0.9c0,0.4,0.3,0.8,1,1.1
							C284.4,271.3,284.7,271.4,284.8,271.4L284.8,271.4z"/>
					</g>
				</g>
				<g>
					<g>
						<path class="st1" d="M290.9,272.1c0,1-0.5,1.6-1.4,1.6c-0.4,0-0.7-0.1-1-0.3c-0.3-0.3-0.5-0.8-0.5-1.3c0-0.5,0.2-1,0.4-1.2
							c0.2-0.3,0.6-0.4,1-0.4C290.3,270.5,290.9,271.1,290.9,272.1z M292.8,270.6l0.4,0.4l-4.2,5.4l-0.5-0.4L292.8,270.6z
							 M289.1,272.1c0,0.7,0.1,0.9,0.4,0.9c0.1,0,0.3-0.1,0.3-0.2c0-0.1,0.1-0.4,0.1-0.7c0-0.6-0.1-0.8-0.4-0.8
							C289.2,271.3,289.1,271.5,289.1,272.1z M293.6,273.8c0.1,0.2,0.2,0.6,0.2,1.1c0,1-0.5,1.5-1.4,1.5c-0.4,0-0.7-0.1-0.9-0.3
							c-0.3-0.2-0.5-0.7-0.5-1.3c0-0.5,0.2-1,0.5-1.3c0.2-0.2,0.6-0.3,1-0.3C293,273.2,293.4,273.4,293.6,273.8z M292,274.7
							c0,0.8,0.1,1,0.4,1c0.3,0,0.4-0.2,0.4-0.9c0-0.4,0-0.7-0.1-0.8c-0.1-0.1-0.2-0.2-0.3-0.2C292.1,273.8,292,274.1,292,274.7z"/>
					</g>
				</g>
			</g>
			<g id="関東">
				<line class="st6" x1="291.7" y1="301.4" x2="291.7" y2="346.4"/>
				<g>
					<path class="st3" d="M303.2,306.6c0,4.4-1.7,7.5-4.5,10.4c-1.5,1.5-6.8,6-6.8,6s-4.7-3.9-6.4-5.6c-3-3-5.3-6.3-5.3-10.7
						c0-6.4,5.3-11.5,11.7-11.5C298.2,295.1,303.2,300.2,303.2,306.6z"/>
					<g>
						<path class="st1" d="M286.6,304.6c0,0.3,0,0.5,0,0.7h-0.4c0-0.2,0-0.3,0-0.7v-3.9c0-0.3,0-0.5,0-0.7c0.2,0,0.3,0,0.6,0h0.9
							c0.3,0,0.4,0,0.6,0c0,0.2,0,0.3,0,0.6v0.7c0,0.2,0,0.4,0,0.6c-0.2,0-0.4,0-0.6,0h-1.1V304.6z M286.6,300.8h1.4v-0.4h-1.4
							V300.8z M286.6,301.5h1.4v-0.5h-1.4V301.5z M288.9,303.7c0.3,0.4,0.7,0.7,1.3,0.8c-0.1,0.1-0.1,0.2-0.2,0.3c0.2,0,0.4,0,0.5,0
							c0.2,0,0.2,0,0.2-0.2v-2.9h-1.2c-0.3,0-0.5,0-0.6,0c0-0.2,0-0.3,0-0.6v-0.7c0-0.2,0-0.4,0-0.6c0.2,0,0.3,0,0.6,0h1
							c0.3,0,0.5,0,0.6,0c0,0.2,0,0.4,0,0.7v4c0,0.4-0.1,0.5-0.6,0.5c-0.2,0-0.4,0-0.6,0c0-0.2,0-0.2-0.1-0.4c0.1,0,0.1,0,0.1,0
							c-0.6-0.2-1.1-0.5-1.4-1c-0.2,0.6-0.6,0.9-1.5,1.2c-0.1-0.1-0.1-0.2-0.2-0.3c0.5-0.1,0.8-0.3,1.1-0.5c0.2-0.1,0.3-0.3,0.3-0.5
							h-0.8c-0.2,0-0.4,0-0.5,0v-0.4c0.1,0,0.3,0,0.5,0h0.8c0-0.2,0-0.3,0-0.5h-0.8c-0.2,0-0.4,0-0.5,0v-0.3c0.1,0,0.3,0,0.5,0h0.3
							c-0.1-0.2-0.2-0.3-0.4-0.5l0.3-0.1c0.2,0.2,0.3,0.4,0.4,0.6h0.6c0.2-0.2,0.2-0.4,0.4-0.6l0.3,0.1c-0.1,0.2-0.2,0.3-0.3,0.5
							h0.3c0.2,0,0.4,0,0.5,0v0.3c-0.1,0-0.3,0-0.5,0h-0.9c0,0.3,0,0.4,0,0.5h1c0.3,0,0.4,0,0.5,0v0.4c-0.2,0-0.3,0-0.5,0H288.9z
							 M289.2,300.8h1.5v-0.4h-1.5V300.8z M289.2,301.5h1.5v-0.5h-1.5V301.5z"/>
						<path class="st1" d="M292.7,300.9c-0.4,0-0.5,0-0.7,0v-0.4c0.2,0,0.4,0,0.7,0h1.7v0c0-0.3,0-0.4,0-0.6h0.4c0,0.2,0,0.3,0,0.6
							v0h1.8c0.4,0,0.6,0,0.8,0v0.4c-0.2,0-0.4,0-0.7,0h-1.8v0.5h1.3c0.4,0,0.5,0,0.7,0c0,0.2,0,0.3,0,0.6v0.9c0,0.4,0,0.4,0,0.6
							c-0.2,0-0.3,0-0.7,0h-1c0.6,0.7,1.4,1.1,2.5,1.3c-0.1,0.1-0.2,0.2-0.2,0.4c-0.5-0.2-0.9-0.3-1.3-0.6c-0.5-0.3-0.8-0.6-1.2-1
							c0,0.2,0,0.4,0,0.5v0.6c0,0.3,0,0.5,0,0.7h-0.4c0-0.2,0-0.4,0-0.7V304c0-0.1,0-0.3,0-0.5c-0.3,0.3-0.4,0.5-0.7,0.7
							c-0.5,0.4-1,0.6-1.7,0.9c-0.1-0.2-0.1-0.2-0.2-0.4c0.6-0.1,1-0.3,1.5-0.6c0.4-0.3,0.6-0.4,0.8-0.7h-0.9c-0.4,0-0.5,0-0.7,0
							l0-0.1c0-0.1,0-0.2,0-0.6V302c0-0.3,0-0.5,0-0.6c0.1,0,0.3,0,0.7,0h1.2v-0.5H292.7z M293,301.7v0.6h1.5v-0.6H293z M293,302.5
							v0.6h1.5v-0.6H293z M294.8,302.2h1.6v-0.6h-1.6V302.2z M294.8,303.1h1.6v-0.6h-1.6V303.1z"/>
					</g>
				</g>
				<g>
					<g>
						<path class="st1" d="M291.4,313c0,0.7-0.3,1.4-0.8,1.7c-0.5,0.4-1.3,0.6-2.2,0.6c-1.8,0-3-0.9-3-2.2c0-0.9,0.5-1.4,1.6-1.8
							c-0.9-0.6-1.3-1-1.3-1.8c0-1.3,1-2.1,2.7-2.1c1.6,0,2.6,0.8,2.6,1.9c0,0.7-0.3,1.1-1.2,1.6C291,311.5,291.4,312.1,291.4,313z
							 M286.7,313.1c0,0.9,0.6,1.4,1.7,1.4c0.9,0,1.5-0.4,1.5-1.2c0-0.6-0.3-0.8-2-1.6C287,312,286.7,312.4,286.7,313.1z
							 M288.8,310.4c0,0,0.1,0,0.2,0.1c0.6-0.4,0.8-0.7,0.8-1.2c0-0.7-0.5-1.1-1.3-1.1c-0.8,0-1.3,0.3-1.3,0.9c0,0.4,0.3,0.8,1,1.1
							C288.4,310.3,288.7,310.4,288.8,310.4L288.8,310.4z"/>
					</g>
				</g>
				<g>
					<g>
						<path class="st1" d="M294.9,311.1c0,1-0.5,1.6-1.4,1.6c-0.4,0-0.7-0.1-1-0.3c-0.3-0.3-0.5-0.8-0.5-1.3c0-0.5,0.2-1,0.4-1.2
							c0.2-0.3,0.6-0.4,1-0.4C294.3,309.5,294.9,310.1,294.9,311.1z M296.8,309.6l0.4,0.4l-4.2,5.4l-0.5-0.4L296.8,309.6z
							 M293.1,311.1c0,0.7,0.1,0.9,0.4,0.9c0.1,0,0.3-0.1,0.3-0.2c0-0.1,0.1-0.4,0.1-0.7c0-0.6-0.1-0.8-0.4-0.8
							C293.2,310.3,293.1,310.5,293.1,311.1z M297.6,312.8c0.1,0.2,0.2,0.6,0.2,1.1c0,1-0.5,1.5-1.4,1.5c-0.4,0-0.7-0.1-0.9-0.3
							c-0.3-0.2-0.5-0.7-0.5-1.3c0-0.5,0.2-1,0.5-1.3c0.2-0.2,0.6-0.3,1-0.3C297,312.2,297.4,312.4,297.6,312.8z M296,313.7
							c0,0.8,0.1,1,0.4,1c0.3,0,0.4-0.2,0.4-0.9c0-0.4,0-0.7-0.1-0.8c-0.1-0.1-0.2-0.2-0.3-0.2C296.1,312.8,296,313.1,296,313.7z"/>
					</g>
				</g>
			</g>
		</g>
		<g id="Guide_1_">
			<path id="_x33__1_" class="st0" d="M439.8,178.5H320.5c-5.1,0-9.3-4.1-9.3-9.3V19.8c0-5.1,4.1-9.3,9.3-9.3h119.3
				c5.1,0,9.3,4.1,9.3,9.3v149.5C449,174.4,444.9,178.5,439.8,178.5z"/>
			<path id="_x32__1_" class="st0" d="M289.5,178.5H170.3c-5.1,0-9.3-4.1-9.3-9.3V19.8c0-5.1,4.1-9.3,9.3-9.3h119.3
				c5.1,0,9.3,4.1,9.3,9.3v149.5C298.8,174.4,294.7,178.5,289.5,178.5z"/>
			<path id="_x31__1_" class="st0" d="M140.5,178.5H21.2c-5.1,0-9.3-4.1-9.3-9.3V19.8c0-5.1,4.1-9.3,9.3-9.3h119.3
				c5.1,0,9.3,4.1,9.3,9.3v149.5C149.7,174.4,145.6,178.5,140.5,178.5z"/>
		</g>
		<g id="Box_3_2_">
			<g>
				<g>
					<path class="st1" d="M367.6,35.1c0,0.6,0,0.9,0.1,1.2h-1.5c0.1-0.4,0.1-0.7,0.1-1.2v-3c-0.5,0.4-0.7,0.6-1.3,1
						c-0.1-0.5-0.4-0.9-0.6-1.2c0.8-0.5,1.4-0.9,2.1-1.6c0.6-0.6,0.9-1.1,1.3-1.8h-2c-0.4,0-0.7,0-1,0v-1.3c0.3,0,0.6,0,0.9,0h0.6
						v-1c0-0.3,0-0.6-0.1-0.9h1.5c0,0.3-0.1,0.5-0.1,0.9v1h0.5c0.4,0,0.5,0,0.7,0l0.6,0.6c-0.1,0.2-0.2,0.3-0.3,0.5
						c-0.4,0.9-0.6,1.3-1.2,2.1c0.6,0.6,1.1,1.1,1.9,1.5c-0.3,0.4-0.5,0.7-0.7,1.2c-0.6-0.4-1-0.8-1.5-1.4V35.1z M372.7,34.6h1.4
						c0.6,0,1,0,1.4-0.1V36c-0.4-0.1-0.9-0.1-1.4-0.1H370c-0.5,0-0.9,0-1.4,0.1v-1.5c0.4,0,0.8,0.1,1.4,0.1h1.3v-4.7h-0.9
						c-0.4,0-0.8,0-1.2,0.1v-1.4c0.3,0,0.7,0.1,1.2,0.1h0.9v-2.1c0-0.5,0-0.8-0.1-1.2h1.5c-0.1,0.5-0.1,0.7-0.1,1.2v2.1h1.3
						c0.5,0,0.8,0,1.2-0.1V30c-0.4,0-0.8-0.1-1.2-0.1h-1.3V34.6z"/>
					<path class="st1" d="M378.8,34.3c-0.6,0-0.9,0-1.3,0c0-0.3,0-0.7,0-1.3v-3c0-0.6,0-0.9,0-1.3c0.4,0,0.8,0,1.3,0h6.4
						c0.6,0,0.9,0,1.3,0c0,0.3,0,0.6,0,1.3v3c0,0.5,0,0.7,0,0.8c0,0.2,0,0.3,0,0.5c-0.4,0-0.7,0-1.3,0h-1c1,0.5,2,0.8,3.5,1
						c-0.4,0.5-0.6,0.8-0.7,1.2c-1.9-0.4-2.6-0.7-4-1.6l0.6-0.6h-3.3l0.8,0.6c-0.8,0.5-1.4,0.8-2.2,1.1c-0.5,0.2-0.9,0.3-1.8,0.5
						c-0.2-0.5-0.4-0.8-0.7-1.2c1.7-0.3,2.5-0.5,3.4-1H378.8z M386,27.4c0,0.4,0,0.6,0,0.9c-0.4,0-0.8,0-1.3,0h-5.5
						c-0.5,0-1,0-1.3,0c0-0.3,0-0.6,0-0.9v-0.9c0-0.4,0-0.6-0.1-0.9c0.4,0,0.7,0.1,1.4,0.1h5.4c0.6,0,0.9,0,1.4-0.1
						c0,0.3,0,0.5,0,0.9V27.4z M378.8,30.4h6.4v-0.6h-6.4V30.4z M378.8,31.8h6.4v-0.6h-6.4V31.8z M378.8,33.3h6.4v-0.6h-6.4V33.3z
						 M379.3,26.7v0.7h5.4v-0.7H379.3z"/>
					<path class="st1" d="M393.7,27.5c0.4,0,0.6,0,0.8,0v1.1c-0.2,0-0.4,0-0.8,0h-0.8c0.2,0.3,0.5,0.4,1.1,0.8
						c-0.3,0.3-0.4,0.4-0.7,1c-0.6-0.5-0.8-0.7-1.1-1.1c0,0.3,0,0.4,0,0.5v0.4c0,0.2,0,0.3,0,0.4H391c0-0.1,0-0.3,0-0.4v-0.5
						c0-0.1,0-0.3,0-0.5c-0.6,0.9-1,1.2-2,1.9c-0.3-0.4-0.4-0.6-0.8-1c1-0.5,1.5-0.9,1.9-1.5h-0.6c-0.4,0-0.7,0-1,0.1v-1.2
						c0.3,0,0.6,0.1,1,0.1h1.4v-1.4c0-0.4,0-0.6-0.1-0.8h1.3c0,0.2,0,0.4,0,0.8v1.4H393.7z M393.1,35.7c-0.4-0.3-0.6-0.5-1.1-0.7
						c-0.8,0.7-1.5,1-2.9,1.4c-0.2-0.4-0.4-0.7-0.6-1.1c1.1-0.2,1.7-0.5,2.4-0.9c-0.6-0.3-0.9-0.4-1.8-0.7c0.4-0.5,0.5-0.7,0.8-1.2
						h-0.3c-0.4,0-0.7,0-0.9,0.1v-1.2c0.3,0,0.5,0.1,0.9,0.1h0.9c0.1-0.3,0.2-0.4,0.3-0.9l1.2,0.2c-0.1,0.3-0.2,0.4-0.3,0.6h1.9
						c0.4,0,0.7,0,0.9-0.1v1.2c-0.3,0-0.5-0.1-1-0.1c-0.2,0.8-0.3,1-0.7,1.5c0.5,0.2,0.6,0.3,1,0.5L393.1,35.7z M389.9,25.4
						c0.5,0.7,0.6,0.9,0.8,1.6l-1.1,0.4c-0.2-0.7-0.4-1-0.8-1.6L389.9,25.4z M391.2,32.5c-0.2,0.3-0.2,0.3-0.4,0.7
						c0.5,0.2,0.7,0.2,1,0.4c0.3-0.3,0.4-0.6,0.5-1.1H391.2z M394.4,25.8c-0.5,0.9-0.5,1.1-0.9,1.6l-1-0.5c0.4-0.5,0.6-1,0.9-1.6
						L394.4,25.8z M399.6,28.6c-0.2,0-0.4,0-0.8,0c-0.1,2-0.5,3.4-1.2,4.7c0.6,0.8,1.3,1.4,2.3,1.9c-0.3,0.4-0.5,0.7-0.7,1.3
						c-0.9-0.5-1.7-1.2-2.3-2.1c-0.8,0.9-1.7,1.6-2.7,2.1c-0.2-0.6-0.3-0.8-0.6-1.2c0.5-0.3,0.7-0.3,0.9-0.5
						c0.7-0.5,1.2-0.9,1.7-1.5c-0.6-1-0.8-1.7-1-2.8c-0.2,0.3-0.3,0.5-0.6,0.8c-0.3-0.3-0.5-0.6-0.9-0.9c0.7-0.9,1.2-2,1.6-3.5
						c0.2-0.6,0.3-1.3,0.3-1.6l1.3,0.3c0,0.1-0.1,0.3-0.2,0.7c-0.1,0.3-0.2,0.7-0.3,1.2h2.1c0.6,0,0.8,0,1.1-0.1V28.6z M396,28.5
						c-0.1,0.2-0.1,0.2-0.2,0.4c0.2,1.3,0.4,2.1,1,3.2c0.5-1,0.7-2,0.7-3.5H396z"/>
				</g>
			</g>
			<g id="_x31_3人_2_">
				<g>
					<g>
						<path class="st1" d="M356.1,138.4c0.7,0.1,1.3,0.1,2.3,0.1h1.8c1,0,1.4,0,2.3-0.1c-0.2,1.7-0.3,3.1-0.3,4.6v13.6
							c0,1.3,0.1,2.1,0.2,3.2h-2.7c0.2-1,0.2-1.9,0.2-3.2v-16.2h-1.5c-0.9,0-1.6,0.1-2.4,0.2V138.4z"/>
						<path class="st1" d="M373.6,154.6c0.4,1.5,0.8,2,1.7,2.7c1,0.7,2.2,1,3.6,1c3.2,0,5.3-1.7,5.3-4.3c0-2.8-2-4.3-5.7-4.3
							c-0.8,0-1.5,0.1-2.2,0.1v-2.2c0.6,0.1,1.3,0.2,2.1,0.2c1.8,0,3.2-0.4,4.1-1.3c0.7-0.7,1.1-1.7,1.1-2.7c0-2.4-1.7-3.8-4.5-3.8
							c-1.7,0-2.9,0.5-3.7,1.5c-0.4,0.5-0.6,1-0.9,2l-2.3-0.5c0.5-1.4,0.8-2.1,1.5-2.8c1.2-1.3,3.1-2,5.6-2c4.1,0,6.6,2.1,6.6,5.5
							c0,1.7-0.7,3.2-2,4.1c-0.7,0.5-1.3,0.8-2.6,1c1.6,0.2,2.5,0.5,3.4,1.2c1.2,1,1.9,2.4,1.9,4.2c0,3.8-2.9,6.1-7.6,6.1
							c-2.8,0-4.9-0.8-6.3-2.3c-0.6-0.7-0.9-1.3-1.4-2.7L373.6,154.6z"/>
					</g>
				</g>
				<g>
					<g>
						<path class="st1" d="M404.1,137c-0.1,0.5-0.1,1.6-0.1,2.5c0,1.7,0.3,4.5,0.6,6.1c0.5,2.2,2,5.5,3.6,7.8
							c1.1,1.6,2.6,3.2,4.1,4.4c0.9,0.8,1.6,1.2,3.2,2.2c-0.7,0.6-1,1-1.5,1.8c-3.4-2.3-5.4-4.3-7.4-7.2c-1.7-2.5-2.8-5.2-3.6-8.9
							c-0.5,2.7-1,4.2-1.9,6.2c-1,2.2-2.2,3.9-4,5.7c-1.6,1.6-2.7,2.5-5.2,4.1c-0.5-0.8-0.8-1.1-1.5-1.7c2.8-1.6,4.1-2.5,5.7-4.2
							c3.9-4.2,5.8-9.5,5.8-16.4c0-1.2,0-1.7-0.1-2.5H404.1z"/>
					</g>
				</g>
			</g>
			<g id="People_2_">
				<g id="people_line2_2_">
					<g id="head2_34_">
						<circle class="st7" cx="349.9" cy="98.2" r="3.6"/>
						<path class="st5" d="M352.7,122.5H347l-2.2-14.9c0-2.5,2-4.5,4.5-4.5h1.3c2.5,0,4.5,2,4.5,4.5L352.7,122.5z"/>
					</g>
					<g id="head2_33_">
						<circle class="st7" cx="362.9" cy="98.2" r="3.6"/>
						<path class="st5" d="M365.8,122.5h-5.7l-2.2-14.9c0-2.5,2-4.5,4.5-4.5h1.3c2.5,0,4.5,2,4.5,4.5L365.8,122.5z"/>
					</g>
					<g id="head2_32_">
						<circle class="st7" cx="376" cy="98.2" r="3.6"/>
						<path class="st5" d="M378.8,122.5h-5.7l-2.2-14.9c0-2.5,2-4.5,4.5-4.5h1.3c2.5,0,4.5,2,4.5,4.5L378.8,122.5z"/>
					</g>
					<g id="head2_31_">
						<circle class="st7" cx="389" cy="98.2" r="3.6"/>
						<path class="st5" d="M391.9,122.5h-5.7l-2.2-14.9c0-2.5,2-4.5,4.5-4.5h1.3c2.5,0,4.5,2,4.5,4.5L391.9,122.5z"/>
					</g>
					<g id="head2_30_">
						<circle class="st7" cx="402.1" cy="98.2" r="3.6"/>
						<path class="st5" d="M404.9,122.5h-5.7l-2.2-14.9c0-2.5,2-4.5,4.5-4.5h1.3c2.5,0,4.5,2,4.5,4.5L404.9,122.5z"/>
					</g>
					<g id="head2_29_">
						<circle class="st7" cx="415.1" cy="98.2" r="3.6"/>
						<path class="st5" d="M418,122.5h-5.7l-2.2-14.9c0-2.5,2-4.5,4.5-4.5h1.3c2.5,0,4.5,2,4.5,4.5L418,122.5z"/>
					</g>
				</g>
				<g id="people_line_1_2_">
					<g id="head2_28_">
						<circle class="st7" cx="343.4" cy="56.7" r="3.6"/>
						<path class="st5" d="M346.2,80.9h-5.7L338.3,66c0-2.5,2-4.5,4.5-4.5h1.3c2.5,0,4.5,2,4.5,4.5L346.2,80.9z"/>
					</g>
					<g id="head2_27_">
						<circle class="st7" cx="369.4" cy="56.7" r="3.6"/>
						<path class="st5" d="M372.3,80.9h-5.7L364.3,66c0-2.5,2-4.5,4.5-4.5h1.3c2.5,0,4.5,2,4.5,4.5L372.3,80.9z"/>
					</g>
					<g id="head2_26_">
						<circle class="st7" cx="395.5" cy="56.7" r="3.6"/>
						<path class="st5" d="M398.4,80.9h-5.7L390.4,66c0-2.5,2-4.5,4.5-4.5h1.3c2.5,0,4.5,2,4.5,4.5L398.4,80.9z"/>
					</g>
					<g id="g_17_">
						<path class="st8" d="M359.9,56.8c-0.1,0.8,0.7,1.9,1,2.5c0.1,0.1,0,0.3-0.2,0.3c-0.7,0-2.3,0.1-2.3,0.2
							c-0.6,0.4-1.3,0.6-2,0.6s-1.4-0.2-2-0.6c-0.1,0-1.6-0.1-2.3-0.1c-0.2,0-0.2-0.2-0.2-0.3c0.3-0.5,1-1.6,1-2.4
							c0-2.7,3-4.6,5.8-2.7C359.6,54.8,360,55.8,359.9,56.8z"/>
						<path class="st9" d="M359.2,80.4h-5.5l-0.3-2.3l-3.5-0.3c-0.2,0-0.4-0.3-0.4-0.5c0.7-2.6,4.3-15.6,6.4-15.6h1.2
							c2.1,0,5.7,13,6.4,15.6c0.1,0.2-0.1,0.5-0.4,0.5l-3.5,0.3L359.2,80.4z"/>
					</g>
					<g id="g_16_">
						<path class="st8" d="M385.5,57.4c-0.1,0.8,0.7,1.9,1,2.5c0.1,0.1,0,0.3-0.2,0.3c-0.7,0-2.3,0.1-2.3,0.2
							c-0.6,0.4-1.3,0.6-2,0.6c-0.8,0-1.4-0.2-2-0.6c-0.1,0-1.6-0.1-2.3-0.1c-0.2,0-0.2-0.2-0.2-0.3c0.3-0.5,1-1.6,1-2.4
							c0-2.7,3-4.6,5.8-2.7C385.2,55.3,385.6,56.4,385.5,57.4z"/>
						<path class="st9" d="M384.8,80.9h-5.5l-0.3-2.3l-3.5-0.3c-0.2,0-0.4-0.3-0.4-0.5c0.7-2.6,4.3-15.6,6.4-15.6h1.2
							c2.1,0,5.7,13,6.4,15.6c0.1,0.2-0.1,0.5-0.4,0.5l-3.5,0.3L384.8,80.9z"/>
					</g>
					<g id="g_15_">
						<path class="st8" d="M411.1,58c-0.1,0.8,0.7,1.9,1,2.5c0.1,0.1,0,0.3-0.2,0.3c-0.7,0-2.3,0.1-2.3,0.2c-0.6,0.4-1.3,0.6-2,0.6
							s-1.4-0.2-2-0.6c-0.1,0-1.6-0.1-2.3-0.1c-0.2,0-0.2-0.2-0.2-0.3c0.3-0.5,1-1.6,1-2.4c0-2.7,3-4.6,5.8-2.7
							C410.8,55.9,411.2,56.9,411.1,58z"/>
						<path class="st9" d="M410.4,81.5h-5.5l-0.3-2.3l-3.5-0.3c-0.2,0-0.4-0.3-0.4-0.5c0.7-2.6,4.3-15.6,6.4-15.6h1.2
							c2.1,0,5.7,13,6.4,15.6c0.1,0.2-0.1,0.5-0.4,0.5l-3.5,0.3L410.4,81.5z"/>
					</g>
					<g id="head2_25_">
						<circle class="st7" cx="421.6" cy="56.7" r="3.6"/>
						<path class="st5" d="M424.5,80.9h-5.7L416.5,66c0-2.5,2-4.5,4.5-4.5h1.3c2.5,0,4.5,2,4.5,4.5L424.5,80.9z"/>
					</g>
				</g>
			</g>
		</g>
		<g id="Box_2_7_">
			<g>
				<g>
					<path class="st1" d="M190.9,159.7c-0.4,1-0.9,1.6-1.6,2.2c-0.8,0.6-1.7,1-3.2,1.4c-0.1-0.3-0.2-0.4-0.5-0.7
						c1.5-0.3,2.4-0.7,3.2-1.2c0.6-0.4,1-0.9,1.3-1.6h-2.7c-0.6,0-0.9,0-1.3,0.1V159c0.3,0,0.8,0.1,1.3,0.1h2.9
						c0.1-0.4,0.1-0.6,0.1-0.9c0,0,0,0,0-0.1l0.9,0c0,0.2-0.1,0.3-0.1,0.6c0,0.2-0.1,0.2-0.1,0.4h3.2c0.4,0,0.7,0,1.2,0
						c0,0.2,0,0.2-0.1,0.6c-0.2,1.6-0.4,2.6-0.6,2.9c-0.3,0.4-0.6,0.5-1.6,0.5c-0.5,0-0.9,0-1.6-0.1c0-0.3-0.1-0.5-0.2-0.8
						c0.8,0.1,1.3,0.2,1.9,0.2s0.8-0.1,0.9-0.3c0.2-0.3,0.3-1,0.4-2.3H190.9z M195.2,156.7c0,0.5,0,0.8,0,1.1
						c-0.3,0-0.7-0.1-1.1-0.1h-6.1c-0.4,0-0.8,0-1.2,0.1c0-0.3,0.1-0.6,0.1-1.1v-2.6c0-0.5,0-0.8-0.1-1.2c0.3,0,0.7,0.1,1.1,0.1h6
						c0.5,0,0.8,0,1.1-0.1c0,0.3,0,0.6,0,1.2V156.7z M187.7,153.6v1.4h2.9v-1.4H187.7z M187.7,155.7v1.4h2.9v-1.4H187.7z
						 M194.4,155.1v-1.4h-3.1v1.4H194.4z M194.4,157.1v-1.4h-3.1v1.4H194.4z"/>
					<path class="st1" d="M197.5,157.9c0.4-1.1,0.5-1.9,0.6-3.1l0.6,0.1c-0.1,1.3-0.3,2.2-0.6,3.3L197.5,157.9z M199.1,163.4
						c0.1-0.4,0.1-0.9,0.1-1.4v-8.4c0-0.4,0-0.8-0.1-1.2h0.9c-0.1,0.4-0.1,0.7-0.1,1.2v8.4c0,0.5,0,0.9,0.1,1.3H199.1z M200.7,156.5
						c-0.1-0.8-0.2-1.2-0.5-1.8l0.6-0.2c0.2,0.5,0.4,1.1,0.6,1.8L200.7,156.5z M202.5,155.8c-0.3,1-0.6,1.4-1.1,2.2
						c-0.2-0.2-0.2-0.2-0.7-0.4c0.7-1,1.2-2,1.4-3.4c0.1-0.4,0.1-0.6,0.1-0.9l0.8,0.2c0,0.1,0,0.1-0.2,0.8c-0.1,0.3-0.1,0.5-0.2,0.8
						h1.5v-1.4c0-0.4,0-0.8-0.1-1.2h0.9c-0.1,0.4-0.1,0.8-0.1,1.2v1.4h1.9c0.6,0,1,0,1.2-0.1v0.8c-0.4,0-0.8-0.1-1.2-0.1H205v2.5
						h1.6c0.5,0,0.9,0,1.2-0.1v0.8c-0.3,0-0.7-0.1-1.2-0.1H205v3.2h2c0.6,0,0.9,0,1.3-0.1v0.9c-0.4-0.1-0.8-0.1-1.3-0.1h-4.9
						c-0.5,0-0.9,0-1.3,0.1V162c0.3,0,0.8,0.1,1.3,0.1h2.1v-3.2H203c-0.5,0-0.9,0-1.2,0.1v-0.8c0.3,0,0.7,0.1,1.2,0.1h1.4v-2.5
						H202.5z"/>
				</g>
			</g>
			<g>
				<g>
					<path class="st1" d="M263.3,163.2c-1.4-1.1-2.3-1.6-3.8-2.4c-0.7,0.6-1.4,1-2.3,1.4c-0.8,0.4-1.7,0.6-3.2,0.9
						c-0.2-0.4-0.2-0.5-0.4-0.8c2.4-0.4,3.8-0.9,5.1-2c-1-0.5-1.1-0.5-2.9-1.2c-0.2,0.3-0.2,0.3-0.5,0.6c-0.3-0.2-0.4-0.2-0.8-0.4
						c0.9-1,1.6-2.2,2.2-3.5h-2c-0.5,0-0.9,0-1.2,0.1v-0.9c0.3,0.1,0.8,0.1,1.2,0.1h2.3c0.5-1.2,0.7-1.9,0.9-2.7l0.9,0.2
						c-0.2,0.5-0.3,0.8-0.3,0.9c-0.3,1-0.4,1.2-0.6,1.7h5c0.5,0,0.9,0,1.2-0.1v0.9c-0.3,0-0.7-0.1-1.2-0.1h-1
						c-0.3,1.2-0.5,1.7-0.8,2.4c-0.3,0.7-0.7,1.3-1.3,1.9c1.5,0.8,2.3,1.3,3.8,2.3L263.3,163.2z M257.7,156c-0.4,1-0.9,1.8-1.5,2.7
						c1.5,0.6,2.1,0.8,3,1.3c0.4-0.5,0.9-1.2,1.2-1.8c0.3-0.6,0.5-1.1,0.7-2.2H257.7z"/>
					<path class="st1" d="M265.4,157.9c0.4-1.1,0.5-1.9,0.6-3.1l0.6,0.1c-0.1,1.3-0.3,2.2-0.6,3.3L265.4,157.9z M266.9,163.4
						c0.1-0.4,0.1-0.9,0.1-1.4v-8.4c0-0.4,0-0.8-0.1-1.2h0.9c-0.1,0.4-0.1,0.7-0.1,1.2v8.4c0,0.5,0,0.9,0.1,1.3H266.9z M268.6,156.5
						c-0.1-0.8-0.2-1.2-0.5-1.8l0.6-0.2c0.2,0.5,0.4,1.1,0.6,1.8L268.6,156.5z M270.4,155.8c-0.3,1-0.6,1.4-1.1,2.2
						c-0.2-0.2-0.2-0.2-0.7-0.4c0.7-1,1.2-2,1.4-3.4c0.1-0.4,0.1-0.6,0.1-0.9l0.8,0.2c0,0.1,0,0.1-0.2,0.8c-0.1,0.3-0.1,0.5-0.2,0.8
						h1.5v-1.4c0-0.4,0-0.8-0.1-1.2h0.9c-0.1,0.4-0.1,0.8-0.1,1.2v1.4h1.9c0.6,0,1,0,1.2-0.1v0.8c-0.4,0-0.8-0.1-1.2-0.1h-1.9v2.5
						h1.6c0.5,0,0.9,0,1.2-0.1v0.8c-0.3,0-0.7-0.1-1.2-0.1h-1.6v3.2h2c0.6,0,0.9,0,1.3-0.1v0.9c-0.4-0.1-0.8-0.1-1.3-0.1H270
						c-0.5,0-0.9,0-1.3,0.1V162c0.3,0,0.8,0.1,1.3,0.1h2.1v-3.2h-1.3c-0.5,0-0.9,0-1.2,0.1v-0.8c0.3,0,0.7,0.1,1.2,0.1h1.4v-2.5
						H270.4z"/>
				</g>
			</g>
			<g id="b_8_">
				<circle class="st10" cx="196.9" cy="97.6" r="7.1"/>
				<path class="st11" d="M202.5,144.9h-11.2l-4.4-29.1c0-4.8,3.9-8.7,8.7-8.7h2.5c4.8,0,8.7,3.9,8.7,8.7L202.5,144.9z"/>
			</g>
			<g id="g_14_">
				<path class="st12" d="M271.8,97.4c-0.1,1.6,1.3,3.9,2.1,5c0.2,0.3,0,0.6-0.3,0.6c-1.5,0.1-4.6,0.2-4.7,0.3
					c-1.1,0.8-2.6,1.3-4.1,1.3c-1.5,0-2.9-0.5-4.1-1.3c-0.1-0.1-3.2-0.2-4.7-0.3c-0.3,0-0.5-0.4-0.3-0.6c0.7-1,2-3.2,2-4.8
					c0-5.4,6-9.4,11.7-5.5C271.2,93.2,272,95.3,271.8,97.4z"/>
				<path class="st13" d="M270.3,144.9h-11.2l-0.7-4.7l-7.1-0.5c-0.5,0-0.8-0.5-0.7-1c1.4-5.3,8.6-31.6,12.9-31.6h2.5
					c4.3,0,11.5,26.3,12.9,31.6c0.1,0.5-0.2,1-0.7,1l-7.1,0.5L270.3,144.9z"/>
			</g>
			<g id="_x37_7_x25__7_">
				<g>
					<g>
						<g>
							<path class="st1" d="M186.6,76.9H184l7.3-10.1h-8v-1.9h10.3v2L186.6,76.9z"/>
							<path class="st1" d="M198.9,76.9h-2.6l7.3-10.1h-8v-1.9H206v2L198.9,76.9z"/>
						</g>
					</g>
					<g>
						<g>
							<path class="st1" d="M210.7,68c0.6,0.1,1,0.5,1.1,1.2c0.1,0.3,0.1,0.7,0.1,1.1c0,0.2,0,0.4,0,0.6c0,0.4-0.1,0.7-0.1,1
								c-0.2,0.7-0.8,1-1.4,1.1c-0.2,0-0.5,0-0.8,0c-0.1,0-0.2,0-0.3,0c-0.2,0-0.4,0-0.6-0.1c-0.7-0.1-1.1-0.6-1.2-1.4
								c0-0.3-0.1-0.7-0.1-1.1c0-0.4,0-0.7,0-1c0.1-1,0.6-1.3,1.3-1.4c0.3,0,0.5-0.1,0.8-0.1c0.2,0,0.4,0,0.5,0
								C210.3,68,210.6,68,210.7,68z M212.9,72.7l-3.3,4.1l-1.6,0l3.8-4.6l3.3-4.2h1.6L212.9,72.7z M210.6,69.6
								c-0.1-0.4-0.2-0.5-0.5-0.5c-0.1,0-0.3,0-0.5,0c-0.1,0-0.1,0-0.2,0c-0.1,0-0.2,0-0.3,0c-0.3,0-0.4,0.2-0.5,0.5
								c0,0.2,0,0.5,0,0.8c0,0.3,0,0.6,0,0.8c0.1,0.4,0.2,0.6,0.5,0.6c0.1,0,0.2,0,0.3,0c0.1,0,0.2,0,0.3,0c0.1,0,0.2,0,0.3,0
								c0.3,0,0.5-0.3,0.5-0.6c0-0.2,0-0.5,0-0.8C210.7,70.1,210.7,69.8,210.6,69.6z M216,72.1c0.6,0.1,1,0.5,1.1,1.2
								c0.1,0.3,0.1,0.7,0.1,1.1c0,0.2,0,0.4,0,0.6c0,0.4-0.1,0.7-0.1,1c-0.2,0.7-0.7,1-1.3,1.1c-0.2,0-0.4,0-0.5,0
								c-0.2,0-0.4,0-0.6,0c-0.2,0-0.4,0-0.6,0c-0.7-0.1-1.1-0.6-1.2-1.4c0-0.3-0.1-0.7-0.1-1.1c0-0.4,0-0.7,0.1-1
								c0.1-0.9,0.7-1.3,1.3-1.4c0.3,0,0.6,0,0.9,0c0.1,0,0.2,0,0.3,0C215.6,72.1,215.8,72.1,216,72.1z M215.9,73.7
								c-0.1-0.4-0.2-0.5-0.5-0.5c-0.1,0-0.3,0-0.5,0c-0.1,0-0.1,0-0.2,0c-0.1,0-0.2,0-0.3,0c-0.3,0-0.4,0.2-0.5,0.5
								c0,0.2,0,0.5,0,0.8c0,0.3,0,0.5,0,0.8c0.1,0.4,0.2,0.6,0.5,0.6c0.1,0,0.2,0,0.3,0c0.1,0,0.2,0,0.3,0c0.1,0,0.2,0,0.3,0
								c0.3,0,0.5-0.3,0.5-0.6c0-0.2,0-0.5,0-0.8C216,74.2,216,73.9,215.9,73.7z"/>
						</g>
					</g>
				</g>
			</g>
			<g id="_x32_3_x25__7_">
				<g>
					<g>
						<g>
							<path class="st1" d="M259.9,68.5c0,0.4,0,0.9-0.1,1.3c-0.3,1.5-1.4,2.2-3.2,2.5c-0.3,0.1-3.1,0.6-3.3,0.6
								c-0.9,0.2-1.5,0.6-1.7,1.4c0,0.3-0.1,0.4-0.1,0.7l8.3,0v2h-10.4c0-0.3,0-1.4,0.1-1.7c0.1-2.1,0.6-3.5,3-4.1
								c0.6-0.1,2.5-0.6,3.5-0.8c0.9-0.2,1.6-0.5,1.8-1.3c0-0.2,0.1-0.5,0.1-0.7c0-0.2,0-0.4,0-0.6c-0.1-0.7-0.6-1-1.5-1.1
								c-0.3,0-0.9-0.1-1.4-0.1c-0.1,0-0.2,0-0.2,0c-0.5,0-1.1,0.1-1.5,0.2c-1,0.2-1.2,0.6-1.3,1.3c0,0.3-0.1,0.7-0.1,1h-2.2
								c0-0.4,0-0.7,0-1c0.1-2,1-3,3-3.3c0.7-0.1,1.3-0.2,2-0.2c0.1,0,0.3,0,0.4,0c0.7,0,1.4,0,1.8,0.1c1.3,0.1,2.5,0.6,2.8,2
								c0.1,0.5,0.2,0.9,0.2,1.5C259.9,68.3,259.9,68.4,259.9,68.5z"/>
							<path class="st1" d="M272.2,73.7c0,0.6-0.1,1.1-0.2,1.6c-0.5,1.2-1.6,1.7-3,1.9c-0.6,0.1-1.2,0.1-2,0.1s-1.4,0-2-0.1
								c-2.2-0.2-3.2-0.9-3.4-2.7c0-0.4-0.1-0.8-0.1-1.4h2.1c0,0.2,0,0.4,0,0.6c0,0.8,0.3,1.5,1.6,1.7c0.4,0.1,1,0.1,1.7,0.1
								c0.1,0,0.2,0,0.3,0c0.5,0,1.1,0,1.5-0.1c0.7-0.1,1.2-0.4,1.3-1c0.1-0.2,0.1-0.5,0.1-0.8c0-0.3,0-0.6-0.1-0.8
								c-0.2-0.9-1.2-1.1-2.2-1.1h-3.7v-1.8h3.7c0.3,0,0.7,0,1.1-0.1c0.4-0.1,0.7-0.3,0.9-0.8c0.1-0.2,0.1-0.5,0.1-0.8
								c0-0.2,0-0.4,0-0.5c0-0.2-0.1-0.3-0.1-0.4c-0.2-0.4-0.5-0.5-1-0.6c-0.3,0-0.6-0.1-1-0.1c-0.2,0-0.3,0-0.5,0
								c-0.2,0-0.3,0-0.5,0c-0.6,0-1.2,0.1-1.7,0.2c-0.6,0.2-1,0.5-1.2,1.1c-0.1,0.2-0.1,0.6-0.1,0.7h-2.1c0-0.1,0-0.7,0.1-0.9
								c0.2-1.9,1.3-2.7,3.5-2.8c0.5,0,1.2-0.1,1.8-0.1c0.7,0,1.4,0,2,0.1c1.2,0.1,2.2,0.5,2.7,1.7c0.2,0.4,0.3,1,0.3,1.6
								c0,0.4,0,0.8-0.1,1.2c-0.3,1-1,1.3-1.6,1.5c0.7,0.2,1.3,0.5,1.6,1.3c0.1,0.3,0.2,0.6,0.2,1C272.2,73.2,272.2,73.4,272.2,73.7
								z"/>
						</g>
					</g>
					<g>
						<g>
							<path class="st1" d="M278.6,68c0.6,0.1,1,0.5,1.1,1.2c0.1,0.3,0.1,0.7,0.1,1.1c0,0.2,0,0.4,0,0.6c0,0.4-0.1,0.7-0.1,1
								c-0.2,0.7-0.8,1-1.4,1.1c-0.2,0-0.5,0-0.8,0c-0.1,0-0.2,0-0.3,0c-0.2,0-0.4,0-0.6-0.1c-0.7-0.1-1.1-0.6-1.2-1.4
								c0-0.3-0.1-0.7-0.1-1.1c0-0.4,0-0.7,0-1c0.1-1,0.6-1.3,1.3-1.4c0.3,0,0.5-0.1,0.8-0.1c0.2,0,0.4,0,0.5,0
								C278.2,68,278.4,68,278.6,68z M280.7,72.7l-3.3,4.1l-1.6,0l3.8-4.6l3.3-4.2h1.6L280.7,72.7z M278.5,69.6
								c-0.1-0.4-0.2-0.5-0.5-0.5c-0.1,0-0.3,0-0.5,0c-0.1,0-0.1,0-0.2,0c-0.1,0-0.2,0-0.3,0c-0.3,0-0.4,0.2-0.5,0.5
								c0,0.2,0,0.5,0,0.8c0,0.3,0,0.6,0,0.8c0.1,0.4,0.2,0.6,0.5,0.6c0.1,0,0.2,0,0.3,0c0.1,0,0.2,0,0.3,0c0.1,0,0.2,0,0.3,0
								c0.3,0,0.5-0.3,0.5-0.6c0-0.2,0-0.5,0-0.8C278.5,70.1,278.5,69.8,278.5,69.6z M283.8,72.1c0.6,0.1,1,0.5,1.1,1.2
								c0.1,0.3,0.1,0.7,0.1,1.1c0,0.2,0,0.4,0,0.6c0,0.4-0.1,0.7-0.1,1c-0.2,0.7-0.7,1-1.3,1.1c-0.2,0-0.4,0-0.5,0
								c-0.2,0-0.4,0-0.6,0c-0.2,0-0.4,0-0.6,0c-0.7-0.1-1.1-0.6-1.2-1.4c0-0.3-0.1-0.7-0.1-1.1c0-0.4,0-0.7,0.1-1
								c0.1-0.9,0.7-1.3,1.3-1.4c0.3,0,0.6,0,0.9,0c0.1,0,0.2,0,0.3,0C283.5,72.1,283.7,72.1,283.8,72.1z M283.8,73.7
								c-0.1-0.4-0.2-0.5-0.5-0.5c-0.1,0-0.3,0-0.5,0c-0.1,0-0.1,0-0.2,0c-0.1,0-0.2,0-0.3,0c-0.3,0-0.4,0.2-0.5,0.5
								c0,0.2,0,0.5,0,0.8c0,0.3,0,0.5,0,0.8c0.1,0.4,0.2,0.6,0.5,0.6c0.1,0,0.2,0,0.3,0c0.1,0,0.2,0,0.3,0c0.1,0,0.2,0,0.3,0
								c0.3,0,0.5-0.3,0.5-0.6c0-0.2,0-0.5,0-0.8C283.8,74.2,283.8,73.9,283.8,73.7z"/>
						</g>
					</g>
				</g>
			</g>
			<g id="平均年齢_7_">
				<g>
					<g>
						<path class="st1" d="M181.3,26.9c-0.6,0-1,0-1.5,0.1v-1.4c0.4,0,0.8,0.1,1.5,0.1h6.8c0.7,0,1.1,0,1.5-0.1V27
							c-0.4,0-0.8-0.1-1.5-0.1h-2.8V31h3.4c0.7,0,1,0,1.4-0.1v1.4c-0.4-0.1-0.9-0.1-1.5-0.1h-3.3v2.7c0,0.5,0,1,0.1,1.5h-1.5
							c0.1-0.5,0.1-1,0.1-1.5v-2.7h-3.2c-0.6,0-1,0-1.5,0.1v-1.4c0.4,0.1,0.8,0.1,1.5,0.1h3.2v-4.1H181.3z M181.6,27.3
							c0.7,1,1.1,1.7,1.5,2.8l-1.2,0.6c-0.4-1.2-0.8-1.9-1.4-2.9L181.6,27.3z M189.1,27.9c-0.5,1.2-0.9,1.9-1.7,2.9l-1.2-0.6
							c0.8-1,1.2-1.7,1.6-2.9L189.1,27.9z"/>
						<path class="st1" d="M192.7,26.8c0-0.6,0-0.9-0.1-1.3h1.4c-0.1,0.4-0.1,0.6-0.1,1.3v1.7h0.1c0.4,0,0.6,0,0.8,0V29
							c0.8-0.8,1.3-1.5,1.6-2.5c0.1-0.2,0.2-0.6,0.3-0.9c0,0,0-0.1,0-0.2c0,0,0,0,0-0.1l1.4,0.3c-0.1,0.1-0.1,0.2-0.1,0.4
							c-0.1,0.3-0.3,0.8-0.4,1h3.2c0.4,0,0.9,0,1.1,0c0,0.3,0,0.5,0,1.1c0,2.8-0.1,4.7-0.3,6c-0.2,1.1-0.4,1.6-0.7,1.9
							c-0.3,0.2-0.7,0.3-1.4,0.3c-0.3,0-0.4,0-1.3-0.1c0-0.5-0.1-0.8-0.3-1.4c0.6,0.1,1.3,0.2,1.6,0.2c0.4,0,0.6-0.1,0.7-0.4
							c0.3-0.8,0.4-2.9,0.4-6.3h-3.6c-0.5,0.8-0.9,1.3-1.6,2c-0.3-0.3-0.3-0.4-0.6-0.7v0.1c-0.3,0-0.4,0-0.9,0v3.1
							c0.5-0.2,0.7-0.3,1.2-0.6l0,1.3c-0.9,0.4-1.8,0.8-2.8,1.2c-0.6,0.2-0.6,0.2-1,0.4l-0.3-1.4c0.3,0,0.6-0.1,1.5-0.4v-3.6h-0.3
							c-0.5,0-0.7,0-1,0.1v-1.3c0.3,0,0.6,0.1,1,0.1h0.3V26.8z M200,32.6c-1,0.6-2.1,1.2-3.4,1.7c-0.3,0.1-0.4,0.2-0.6,0.3l-0.5-1.3
							c0.2,0,0.4-0.1,0.7-0.2c1.2-0.4,2.5-1,3.5-1.7L200,32.6z M196.2,29.6c0.3,0.1,0.6,0.1,1,0.1h1.5c0.4,0,0.7,0,0.9-0.1v1.3
							c-0.2,0-0.5,0-0.9,0h-1.6c-0.5,0-0.7,0-1,0.1V29.6z"/>
						<path class="st1" d="M205.2,30c0-0.3,0-0.4,0-0.7c0.3,0,0.5,0,0.8,0h2.6v-1.6h-2.5c-0.6,1-1.2,1.7-2,2.4
							c-0.3-0.5-0.5-0.7-0.9-1.1c1.2-1,1.8-1.8,2.3-3c0.2-0.4,0.3-0.6,0.3-0.9l1.4,0.3c-0.1,0.1-0.1,0.2-0.2,0.4
							c0,0-0.1,0.3-0.3,0.8h5.6c0.6,0,0.9,0,1.2-0.1v1.3c-0.4,0-0.7-0.1-1.2-0.1H210v1.6h1.9c0.6,0,0.9,0,1.2-0.1v1.3
							c-0.4,0-0.7,0-1.2,0h-2v1.9h2.8c0.6,0,0.9,0,1.3-0.1v1.4c-0.4,0-0.8-0.1-1.3-0.1H210v1.5c0,0.6,0,0.9,0.1,1.3h-1.5
							c0-0.3,0.1-0.7,0.1-1.3v-1.5h-4c-0.5,0-0.9,0-1.3,0.1v-1.4c0.4,0,0.8,0.1,1.3,0.1h0.6V30z M208.7,32.4v-1.9h-2.2v1.9H208.7z"
							/>
						<path class="st1" d="M220,27.9c0.5,0,0.7,0,1-0.1v0.3c0.8-0.8,1.4-1.8,1.7-2.8h1.3c0.2,0.6,0.6,1.1,1,1.7
							c0.5,0.6,0.9,0.9,1.5,1.4c-0.3,0.5-0.4,0.7-0.6,1.2c-0.5-0.4-0.7-0.6-0.9-0.9v1c-0.3,0-0.4,0-1,0H223c-0.5,0-0.7,0-1,0v-0.9
							c-0.3,0.3-0.4,0.4-0.7,0.7c-0.1-0.3-0.2-0.3-0.4-0.6c-0.1,0-0.6,0-0.9,0h-3.3c-0.6,0-0.8,0-1.3,0v-1.2c0.3,0,0.4,0,0.8,0.1V27
							c0-0.5,0-0.7-0.1-1h1.2c0,0.3,0,0.4,0,1v0.9h0.8v-1.4c0-0.6,0-0.8-0.1-1.2h1.3c-0.1,0.3-0.1,0.5-0.1,0.9h0.7
							c0.4,0,0.6,0,0.9-0.1v1c-0.3,0-0.5,0-1,0h-0.7v0.7H220z M219.8,29.7c0-0.2,0-0.2,0-0.4h1.1c0,0.3,0,0.6,0,1.1V35
							c0,0.7,0,0.9,0,1.3h-1.1v-0.4h-3v0.6h-1.2c0-0.4,0.1-0.7,0.1-1.4v-4.5c0-0.6,0-0.9-0.1-1.2h1.1c0,0.2,0,0.2,0,0.4l0.6-0.3
							c0.2,0.5,0.3,0.8,0.5,1.3v-0.5c0-0.4,0-0.7,0-1h1c0,0.3,0,0.6,0,1v0.5c0.2-0.5,0.3-0.8,0.4-1.3L219.8,29.7z M216.6,31.3
							c0.1,0,0.1,0,0.2,0h0.9v-0.5l-0.6,0.3c-0.2-0.7-0.3-1-0.5-1.4c0,0.3,0,0.4,0,0.6V31.3z M216.6,33.4c0.3-0.3,0.5-0.6,0.8-1.2
							h-0.6c-0.1,0-0.1,0-0.2,0V33.4z M216.6,34.8h3.2v-1.1c0,0.1-0.1,0.1-0.1,0.2c-0.1,0.2-0.1,0.2-0.2,0.3
							c-0.4-0.5-0.6-0.7-0.9-1.5c0,0.2,0,0.2,0,0.5c0,0,0,0,0,0.4v0.4c0,0.3,0,0.3,0,0.5h-0.9c0-0.2,0-0.3,0-0.5v-0.4
							c0-0.2,0-0.2,0-0.3c0-0.1,0-0.2,0-0.2c0-0.1,0-0.2,0-0.3c-0.3,0.7-0.5,1-0.9,1.5c-0.1-0.2-0.1-0.3-0.3-0.5V34.8z M219.8,30.4
							c0-0.2,0-0.4,0-0.6c-0.1,0.4-0.3,1-0.5,1.4l-0.6-0.3v0.5h1.2V30.4z M219.8,32.2H219c0.3,0.6,0.5,0.8,0.8,1.1V32.2z
							 M222.1,31.7c-0.5,0-0.7,0-1,0.1v-1.3c0.3,0,0.5,0.1,1.2,0.1h2.5c0.5,0,0.9,0,1.1,0c0,0.3,0,0.6,0,1.2v2.5
							c0,0.9-0.3,1.1-1.4,1.1c-0.2,0-0.3,0-0.5,0c0-0.5-0.1-0.8-0.3-1.2c0.4,0.1,0.5,0.1,0.7,0.1c0.2,0,0.2-0.1,0.2-0.2v-2.2h-1.3
							v3.4c0,0.7,0,1,0.1,1.3h-1.4c0.1-0.3,0.1-0.6,0.1-1.3L222.1,31.7L222.1,31.7z M224,28.7c0.4,0,0.6,0,0.8,0
							c-0.6-0.7-1-1.2-1.4-2.1c-0.4,0.9-0.7,1.4-1.3,2.1c0.2,0,0.4,0,0.8,0H224z"/>
					</g>
				</g>
				<g>
					<g>
						<path class="st1" d="M236.7,31.2c0.4,1.1,0.7,1.6,1.3,2.1c0.7,0.5,1.7,0.8,2.8,0.8c2.6,0,4.2-1.3,4.2-3.4
							c0-2.2-1.6-3.4-4.5-3.4c-0.6,0-1.2,0-1.8,0.1v-1.7c0.5,0.1,1,0.1,1.6,0.1c1.5,0,2.5-0.3,3.2-1c0.5-0.5,0.9-1.3,0.9-2.1
							c0-1.9-1.3-3-3.5-3c-1.3,0-2.3,0.4-2.9,1.2c-0.3,0.4-0.5,0.7-0.7,1.6l-1.8-0.4c0.4-1.1,0.6-1.6,1.2-2.2c1-1.1,2.5-1.6,4.4-1.6
							c3.2,0,5.2,1.7,5.2,4.3c0,1.3-0.6,2.5-1.5,3.2c-0.6,0.4-1.1,0.6-2.1,0.8c1.3,0.1,2,0.4,2.7,0.9c1,0.7,1.5,1.9,1.5,3.3
							c0,3-2.3,4.8-6,4.8c-2.2,0-3.9-0.6-4.9-1.8c-0.5-0.5-0.7-1-1.1-2.1L236.7,31.2z"/>
						<path class="st1" d="M249,29.5c0.5-0.5,1-1.1,1.4-1.7l5.6-7c0.7-0.9,1.1-1.5,1.7-2.2h1.7c-0.1,1.3-0.1,2-0.1,3.7v7.2h0.8
							c0.9,0,1.5,0,2.3-0.2v1.8c-0.8-0.1-1.4-0.2-2.3-0.2h-0.8v1.9c0,1.1,0,1.6,0.2,2.4h-2c0.1-0.8,0.2-1.4,0.2-2.4V31h-5.9
							c-1.2,0-1.9,0-2.6,0.1V29.5z M257.6,23.9c0-1.2,0-1.9,0.1-3c-0.5,0.7-1,1.4-1.7,2.2l-5.1,6.4h6.6V23.9z"/>
					</g>
				</g>
				<g>
					<g>
						<path class="st1" d="M276.4,30.3c0.1,1,0.2,1.5,0.4,2.2c0.4-0.7,0.7-1.4,0.9-2.1l1.2,0.5c-0.1,0.1-0.1,0.1-0.5,1.2
							c-0.3,0.6-0.6,1.1-1,1.7c0.4,0.7,0.7,1.1,0.8,1.1c0.2,0,0.3-0.4,0.4-1.6c0.3,0.4,0.6,0.6,1,0.8c-0.2,1.6-0.6,2.2-1.3,2.2
							c-0.6,0-1.2-0.5-1.8-1.5c-0.6,0.7-1.2,1.2-2,1.6c-0.3-0.4-0.4-0.6-0.8-1c0.9-0.5,1.6-1,2.2-1.7c-0.4-1-0.6-2.1-0.8-3.4h-4.7
							l0,0.8c0,2.6-0.4,4-1.3,5.3c-0.3-0.4-0.6-0.6-1-1c0.4-0.6,0.6-1,0.8-1.7c0.2-0.9,0.3-1.9,0.3-3.4c0-0.6,0-0.8,0-1.2
							c0.4,0,0.7,0,1.1,0h4.8l0-0.6h-5.2c-0.6,0-0.9,0-1.2,0.1v-1.3c0.3,0.1,0.7,0.1,1.2,0.1h0.7v-0.8c0-0.4,0-0.7-0.1-0.9h1.4
							c0,0.3-0.1,0.6-0.1,0.9v0.8h1.6v-1.3c0-0.4,0-0.6-0.1-0.9h1.4c0,0.2,0,0.3-0.1,0.7h2.5c0.5,0,0.8,0,1.1-0.1v1.1
							c-0.4,0-0.6,0-1.1,0h-2.5v0.5h3.3c0.6,0,0.9,0,1.2-0.1v1.3c-0.3,0-0.6-0.1-1.2-0.1c0.2,0.2,0.2,0.4,0.3,0.6c0.4,0,0.5,0,0.7,0
							v1.2c-0.3,0-0.6,0-1.2,0H276.4z M272,32.7c-0.2,1.3-0.5,1.9-1,2.9c-0.3-0.2-0.6-0.3-1-0.5c0.6-0.9,0.8-1.5,1-2.7L272,32.7z
							 M271.5,32c-0.3,0-0.5,0-0.8,0v-1.1c0.2,0,0.4,0,0.8,0h2.8c0.3,0,0.5,0,0.8,0V32c-0.2,0-0.4,0-0.7,0h-0.7v2.9
							c0,0.9-0.2,1.2-1.2,1.2c-0.2,0-0.3,0-0.6,0c0-0.5-0.1-0.8-0.3-1.1c0.2,0,0.5,0.1,0.7,0.1c0.2,0,0.3-0.1,0.3-0.3V32H271.5z
							 M274.6,32.4c0.3,0.7,0.5,1.1,0.7,1.7l-1,0.4c-0.2-0.9-0.3-1-0.6-1.8L274.6,32.4z M277.3,29.2c-0.1-0.2-0.1-0.2-0.2-0.3
							l0.8-0.2h-1.6l0,0.6H277.3z"/>
					</g>
				</g>
			</g>
		</g>
		<g id="Box_1">
			<g id="Numbers">
				<g>
					<g>
						<path class="st1" d="M53.7,154.6c0.4,1.5,0.8,2,1.7,2.7c1,0.7,2.2,1,3.6,1c3.2,0,5.3-1.7,5.3-4.3c0-2.8-2-4.3-5.7-4.3
							c-0.8,0-1.5,0.1-2.2,0.1v-2.2c0.6,0.1,1.3,0.2,2.1,0.2c1.8,0,3.2-0.4,4.1-1.3c0.7-0.7,1.1-1.7,1.1-2.7c0-2.4-1.7-3.8-4.5-3.8
							c-1.7,0-2.9,0.5-3.7,1.5c-0.4,0.5-0.6,1-0.9,2l-2.3-0.5c0.5-1.4,0.8-2.1,1.5-2.8c1.2-1.3,3.1-2,5.6-2c4.1,0,6.6,2.1,6.6,5.5
							c0,1.7-0.7,3.2-2,4.1c-0.7,0.5-1.3,0.8-2.6,1c1.6,0.2,2.5,0.5,3.4,1.2c1.2,1,1.9,2.4,1.9,4.2c0,3.8-2.9,6.1-7.6,6.1
							c-2.8,0-4.9-0.8-6.3-2.3c-0.6-0.7-0.9-1.3-1.4-2.7L53.7,154.6z"/>
						<path class="st1" d="M72.1,154.6c0.4,1.5,0.8,2,1.7,2.7c1,0.7,2.2,1,3.6,1c3.2,0,5.3-1.7,5.3-4.3c0-2.8-2-4.3-5.7-4.3
							c-0.8,0-1.5,0.1-2.2,0.1v-2.2c0.6,0.1,1.3,0.2,2.1,0.2c1.8,0,3.2-0.4,4.1-1.3c0.7-0.7,1.1-1.7,1.1-2.7c0-2.4-1.7-3.8-4.5-3.8
							c-1.7,0-2.9,0.5-3.7,1.5c-0.4,0.5-0.6,1-0.9,2l-2.3-0.5c0.5-1.4,0.8-2.1,1.5-2.8c1.2-1.3,3.1-2,5.6-2c4.1,0,6.6,2.1,6.6,5.5
							c0,1.7-0.7,3.2-2,4.1c-0.7,0.5-1.3,0.8-2.6,1c1.6,0.2,2.5,0.5,3.4,1.2c1.2,1,1.9,2.4,1.9,4.2c0,3.8-2.9,6.1-7.6,6.1
							c-2.8,0-4.9-0.8-6.3-2.3c-0.6-0.7-0.9-1.3-1.4-2.7L72.1,154.6z"/>
					</g>
				</g>
				<g>
					<g>
						<path class="st1" d="M94.7,148.8c-1-1-1.5-2.6-1.5-4.7c0-3.8,1.8-6,4.9-6c3.1,0,4.8,2.2,4.8,6c0,2.1-0.5,3.7-1.5,4.7
							c-0.8,0.8-2,1.3-3.3,1.3C96.7,150.1,95.6,149.6,94.7,148.8z M95.1,144.1c0,2.7,1.1,4.3,3,4.3c1.9,0,3-1.6,3-4.3
							c0-2.8-1.1-4.3-3-4.3C96.1,139.8,95.1,141.4,95.1,144.1z M112.2,138l1.2,0.9l-17,21.5l-1.2-1L112.2,138z M107.3,158.9
							c-1-1-1.5-2.6-1.5-4.7c0-3.8,1.8-6,4.9-6c3.1,0,4.8,2.2,4.8,6c0,2.1-0.5,3.7-1.5,4.7c-0.8,0.8-2,1.3-3.3,1.3
							C109.2,160.2,108.1,159.8,107.3,158.9z M107.6,154.2c0,2.7,1.1,4.3,3,4.3c1.9,0,3-1.6,3-4.3c0-2.8-1.1-4.3-3-4.3
							C108.7,149.9,107.6,151.5,107.6,154.2z"/>
					</g>
				</g>
			</g>
			<g>
				<g>
					<path class="st1" d="M66.6,26.4c-0.1,0.2-0.2,0.3-0.4,0.9c-0.8,1.8-1.2,2.7-1.7,3.4c1,0.9,1.6,1.4,2.7,2.5L66,34.4
						c-0.6-0.8-1.3-1.6-2.4-2.5c-0.5,0.7-1.1,1.4-1.9,2c-0.9,0.8-1.6,1.3-2.9,2c-0.3-0.6-0.5-0.8-1.1-1.2c1.3-0.7,2.2-1.2,3.1-2.1
						c0.6-0.5,1.1-1,1.5-1.6c-1-0.8-2.1-1.6-3.2-2.2l1.1-1.1c0.9,0.5,1.4,0.9,2,1.3c0.9,0.6,0.9,0.6,1,0.7c0.8-1.3,1.5-3,1.7-3.9
						L66.6,26.4z"/>
					<path class="st1" d="M79.3,28.4c-0.1,0.2-0.1,0.4-0.1,0.8c0,1.4-0.2,3.2-0.3,4c-0.3,2.1-0.7,2.6-2.2,2.6c-0.5,0-0.9,0-1.5-0.1
						c0-0.7-0.1-1-0.3-1.5c0.7,0.2,1.2,0.3,1.6,0.3c0.5,0,0.7-0.3,0.9-1.3c0.1-0.8,0.3-2.5,0.3-3.8h-2.8c-0.2,1.5-0.4,2.4-1,3.4
						c-0.7,1.3-1.7,2.4-3.2,3.3c-0.4-0.6-0.6-0.8-1.1-1.3c1.5-0.8,2.5-1.8,3.1-3c0.3-0.7,0.5-1.2,0.6-2.1c0-0.2,0-0.3,0.1-0.4h-2
						c-0.7,0-0.9,0-1.3,0.1l0-1.5c0.4,0.1,0.7,0.1,1.3,0.1l2.1,0c0-0.4,0.1-1.2,0.1-1.5v-0.3c0-0.1,0-0.2,0-0.5l1.6,0
						c0,0.2,0,0.2,0,0.4c0,0.1,0,0.1,0,0.2c0,0.3,0,0.3,0,0.9c0,0.3,0,0.4,0,0.8l2.7,0c0.5,0,0.6,0,0.9-0.1L79.3,28.4z M77.9,25.6
						c0.5,0.5,0.7,0.9,1.1,1.6L78,27.7c-0.4-0.7-0.6-1.1-1.1-1.6L77.9,25.6z M79.4,27.1c-0.3-0.6-0.6-1.1-1.1-1.6l0.9-0.4
						c0.5,0.5,0.7,0.9,1.1,1.5L79.4,27.1z"/>
					<path class="st1" d="M85.9,36.2c0-0.3,0.1-0.7,0.1-1.1v-2.5c0-0.1,0-0.3,0-0.6c-0.1,0.1-0.2,0.1-0.4,0.2
						c-0.9,0.5-1.9,0.9-3.4,1.3c-0.2-0.6-0.3-0.8-0.7-1.3c1.2-0.3,2.1-0.6,3.3-1.1c1.4-0.6,2.7-1.5,3.7-2.5c-0.1,0-0.1,0-0.2,0
						c-0.1,0-0.1,0-4.4,0c-0.7,0-0.8,0-1.3,0.1v-1.5c0.3,0.1,0.8,0.1,1.3,0.1h2v-1c0-0.4,0-0.6-0.1-0.9h1.6c0,0.2-0.1,0.4-0.1,0.8v1
						h2c0.4,0,0.6,0,0.8-0.1L91,28c-0.2,0.2-0.2,0.2-0.5,0.5c-0.7,0.8-1.3,1.3-2.4,2.2c1.5,0.5,2.8,1,4.2,1.9l-0.8,1.3
						c-1.2-0.8-2.2-1.3-3.7-1.9c-0.2-0.1-0.2-0.1-0.3-0.1c0,0.1,0,0.5,0,0.6v2.6c0,0.5,0,0.7,0.1,1.1H85.9z"/>
					<path class="st1" d="M94.8,34c-0.5,0-0.9,0-1.4,0.1v-1.3c0.3,0,0.8,0.1,1.3,0.1h3.5v-0.1c0-0.3,0-0.5,0-0.7h1.4
						c0,0.2,0,0.4,0,0.7v0.1h3.7c0.5,0,0.9,0,1.2-0.1v1.3c-0.4,0-0.9-0.1-1.4-0.1h-3.5v1.3c0,0.5,0,0.8,0.1,1.2H98
						c0.1-0.4,0.1-0.7,0.1-1.2V34H94.8z M97,27.7c0.2,0.2,0.3,0.2,0.5,0.3c0.2-0.3,0.3-0.4,0.4-0.7h-3.1c-0.5,0-0.9,0-1.2,0.1v-1.3
						c0.4,0,0.8,0.1,1.4,0.1h3.2V26c0-0.3,0-0.5-0.1-0.8h1.5c0,0.3-0.1,0.5-0.1,0.7v0.1h3.4c0.6,0,1,0,1.4-0.1v1.3
						c-0.4,0-0.7-0.1-1.2-0.1h-3.8c-0.3,0.6-0.6,0.9-1,1.4c0.2,0.2,0.3,0.3,0.5,0.5c0.5-0.6,0.7-0.9,1.2-1.5l1,0.6
						c-0.7,0.9-1.4,1.5-2.5,2.5c0.9,0,1.1,0,1.7-0.1c-0.2-0.3-0.3-0.4-0.5-0.7l0.9-0.4c0.7,0.8,0.7,0.9,1.5,2.2l-1,0.4
						c-0.2-0.4-0.2-0.5-0.3-0.7c-1.2,0.2-1.9,0.3-3.9,0.4c-0.3,0-0.5,0-0.6,0l-0.1-0.8c-0.6,0.4-1.1,0.7-2.1,1.2l-0.5-1.2
						c0.9-0.3,1.9-0.7,2.7-1.4l0.6,0.9l-0.3,0.2c0.1,0,0.1,0,0.1,0c0,0,0.3,0,0.4,0c0.4-0.4,0.6-0.5,1-0.9c-0.5-0.5-1-1-1.7-1.5
						L97,27.7z M94.7,27.5c0.7,0.5,1.2,0.9,1.7,1.5l-0.9,0.9c-0.6-0.7-0.9-1-1.7-1.6L94.7,27.5z M103.7,28.3
						c-0.7,0.7-1.3,1.2-2.1,1.7l-0.8-0.9c0.9-0.6,1.4-1,2-1.7L103.7,28.3z M102.1,29.9c1,0.6,1.2,0.8,2.1,1.5l-0.9,1
						c-0.7-0.7-1.2-1.2-2-1.7L102.1,29.9z"/>
				</g>
			</g>
			<g id="megane">
				<line class="st14" x1="72.3" y1="86.3" x2="94.3" y2="86.3"/>
				<circle class="st15" cx="104.3" cy="86.3" r="15.2"/>
				<circle class="st15" cx="56.2" cy="86.1" r="15.2"/>
				<path class="st16" d="M72.2,86.1c0,8.8-7.2,16-16,16c-8.8,0-16-7.2-16-16"/>
				<path class="st16" d="M120.3,86.1c0,8.8-7.2,16-16,16c-8.8,0-16-7.2-16-16"/>
				<path class="st17" d="M88.3,86.1c0-8.8,7.2-16,16-16c8.8,0,16,7.2,16,16"/>
				<path class="st17" d="M40.2,86.1c0-8.8,7.2-16,16-16c8.8,0,16,7.2,16,16"/>
				<path class="st1" d="M36.7,83.5H40c0.9,0,1.6,0.7,1.6,1.6v2.5c0,0.9-0.7,1.6-1.6,1.6h-3.3c-0.9,0-1.6-0.7-1.6-1.6v-2.5
					C35.1,84.2,35.8,83.5,36.7,83.5z"/>
				<path class="st1" d="M124.1,83.5h-3.6c-0.9,0-1.7,0.8-1.7,1.7v2.4c0,0.9,0.8,1.7,1.7,1.7h3.6c0.9,0,1.7-0.8,1.7-1.7v-2.4
					C125.8,84.2,125,83.5,124.1,83.5z"/>
			</g>
		</g>
	</g>
</g>
</svg>
