<?xml version="1.0" encoding="utf-8"?>
<!-- Generator: Adobe Illustrator 19.2.0, SVG Export Plug-In . SVG Version: 6.00 Build 0)  -->
<svg version="1.1" id="Main_Layer" xmlns="http://www.w3.org/2000/svg" xmlns:xlink="http://www.w3.org/1999/xlink" x="0px" y="0px"
	 viewBox="0 0 465.3 316" style="enable-background:new 0 0 465.3 316;" xml:space="preserve">
<style type="text/css">
	.st0{fill:#E6DBB6;}
	.st1{fill:#3E3A39;}
	.st2{font-family:'HiraKakuPro-W6-83pv-RKSJ-H';}
	.st3{font-size:12px;}
	.st4{letter-spacing:-6;}
	.st5{fill:#FFFFFF;stroke:#3E3A39;stroke-linecap:round;stroke-linejoin:round;stroke-miterlimit:10;}
	.st6{fill:#FFFFFF;stroke:#3E3A39;stroke-width:1.5312;stroke-miterlimit:10;}
	.st7{clip-path:url(#SVGID_2_);fill:none;stroke:#3E3A39;stroke-width:1.5312;stroke-miterlimit:10;}
	.st8{clip-path:url(#SVGID_2_);fill:none;stroke:#3E3A39;stroke-width:1.6444;stroke-miterlimit:10;}
	.st9{font-family:'HiraKakuPro-W3-83pv-RKSJ-H';}
	.st10{font-size:8px;}
	.st11{letter-spacing:2;}
	.st12{letter-spacing:-4;}
	.st13{fill:#ECECF5;stroke:#3E3A39;stroke-width:1.0698;stroke-linecap:round;stroke-linejoin:round;stroke-miterlimit:10;}
	.st14{fill:#FFFFFF;stroke:#3E3A39;stroke-width:1.0698;stroke-linecap:round;stroke-linejoin:round;stroke-miterlimit:10;}
	.st15{fill:#635568;stroke:#3E3A39;stroke-linecap:round;stroke-linejoin:round;stroke-miterlimit:10;}
	.st16{fill:#ECECF5;}
	.st17{fill:#FFFFFF;}
	.st18{fill:none;stroke:#3E3A39;stroke-linecap:round;stroke-linejoin:round;stroke-miterlimit:10;}
	.st19{fill:#FFFFFF;stroke:#3E3A39;stroke-linejoin:round;stroke-miterlimit:10;}
	.st20{fill:#433B4B;}
	.st21{fill:#635568;}
	.st22{fill:#ECECF5;stroke:#3E3A39;stroke-linecap:round;stroke-linejoin:round;stroke-miterlimit:10;}
	.st23{clip-path:url(#SVGID_4_);}
	.st24{fill:#FFFFFF;stroke:#3E3A39;stroke-width:1.4779;stroke-miterlimit:10;}
	.st25{fill:#FFFFFF;stroke:#3E3A39;stroke-width:1.3095;stroke-miterlimit:10;}
	.st26{fill:#FFFFFF;stroke:#3E3A39;stroke-width:1.4247;stroke-miterlimit:10;}
	.st27{fill:none;stroke:#3E3A39;stroke-width:1.2615;stroke-miterlimit:10;}
	.st28{fill:#FFFFFF;stroke:#3E3A39;stroke-width:1.217;stroke-miterlimit:10;}
	.st29{fill:#FFFFFF;stroke:#3E3A39;stroke-width:1.2226;stroke-miterlimit:10;}
</style>
<g id="Sample_PopUp">
	<g>
		<path class="st0" d="M443.1,299H315.4c-2.8,0-5-2.3-5-5V24.6c0-2.8,2.3-5,5-5h127.7c2.8,0,5,2.3,5,5v269.4
			C448.1,296.7,445.9,299,443.1,299z"/>
		<path class="st0" d="M296.5,299H168.8c-2.8,0-5-2.3-5-5V24.6c0-2.8,2.3-5,5-5h127.7c2.8,0,5,2.3,5,5v269.4
			C301.6,296.7,299.3,299,296.5,299z"/>
		<g id="Web">
			<g>
				<text transform="matrix(1 0 0 1 352.2485 37.1318)"><tspan x="0" y="0" class="st1 st2 st3">「WEB</tspan><tspan x="42" y="0" class="st1 st2 st3 st4">」</tspan></text>
			</g>
			<g id="web2">
				<path class="st5" d="M411.1,259.4l0-2l14.3-13.8l-16.8,0.4l0.2,8.2l-17.6-8.1l17-14.7l0.2,7.5l23-0.6c0,0,12.2-1,0.4,8.2
					C431.7,244.8,417,256.9,411.1,259.4z"/>
				<g id="Globe_1_">
					<circle class="st6" cx="384.2" cy="253.5" r="27.2"/>
					<g>
						<defs>
							<circle id="SVGID_1_" cx="384.2" cy="253.5" r="27.2"/>
						</defs>
						<clipPath id="SVGID_2_">
							<use xlink:href="#SVGID_1_"  style="overflow:visible;"/>
						</clipPath>
						<circle class="st7" cx="389.6" cy="253.5" r="27.2"/>
						<circle class="st7" cx="378.9" cy="253.5" r="27.2"/>
						<ellipse class="st8" cx="398" cy="254" rx="27.2" ry="31.4"/>
						<ellipse class="st8" cx="371.2" cy="254.1" rx="27.2" ry="31.4"/>
						<ellipse class="st8" cx="384" cy="253.7" rx="3.9" ry="27"/>
					</g>
				</g>
				<path class="st5" d="M356.6,251v3.5l-9.3,10.5h17.3v-8.5l17.4,8.5l-17.4,14.2V272h-23.5c0,0-12.9-0.3-0.9-9.3
					C340.2,262.7,351.2,254.7,356.6,251z"/>
			</g>
			<g>
				<text transform="matrix(1 0 0 1 319.2505 55.0948)"><tspan x="0" y="0" class="st1 st9 st10">お客様のニーズ、ターゲット、予</tspan><tspan x="0" y="14" class="st1 st9 st10">算に応じ</tspan><tspan x="32" y="14" class="st1 st9 st10 st11">て</tspan><tspan x="42" y="14" class="st1 st9 st10">WE</tspan><tspan x="55.2" y="14" class="st1 st9 st10 st11">B</tspan><tspan x="62.9" y="14" class="st1 st9 st10">サイトを制作し</tspan><tspan x="0" y="28" class="st1 st9 st10">ており、スマートフォンアプリの</tspan><tspan x="0" y="42" class="st1 st9 st10">開発や、WE</tspan><tspan x="45.2" y="42" class="st1 st9 st10 st11">B</tspan><tspan x="52.9" y="42" class="st1 st9 st10">システム開発も弊</tspan><tspan x="0" y="56" class="st1 st9 st10">社得意分野です</tspan><tspan x="56" y="56" class="st1 st9 st10 st12">。</tspan><tspan x="0" y="84" class="st1 st9 st10">お客様の目的に合わせたウェブソ</tspan><tspan x="0" y="98" class="st1 st9 st10">リューションを提供しています</tspan><tspan x="112" y="98" class="st1 st9 st10 st12">。</tspan></text>
			</g>
		</g>
		<g id="DTP">
			<g>
				<text transform="matrix(1 0 0 1 208.6377 37.1318)"><tspan x="0" y="0" class="st1 st2 st3">「DTP</tspan><tspan x="38.7" y="0" class="st1 st2 st3 st4">」</tspan></text>
			</g>
			<g id="pamphlet">
				<g id="books_11_">
					<g>
						
							<rect x="265.2" y="213.3" transform="matrix(0.9972 7.414050e-02 -7.414050e-02 0.9972 17.77 -19.7446)" class="st13" width="19.4" height="32.3"/>
						<g>
							<path class="st1" d="M281,223.9l-11.3-0.8c-0.4,0-0.7-0.4-0.7-0.8l0,0c0-0.4,0.4-0.7,0.8-0.7l11.3,0.8c0.4,0,0.7,0.4,0.7,0.8
								l0,0C281.7,223.6,281.4,223.9,281,223.9z"/>
							<path class="st1" d="M280.6,228.5l-11.3-0.8c-0.4,0-0.7-0.4-0.7-0.8l0,0c0-0.4,0.4-0.7,0.8-0.7l11.3,0.8
								c0.4,0,0.7,0.4,0.7,0.8l0,0C281.3,228.2,281,228.5,280.6,228.5z"/>
							<path class="st1" d="M280.2,233.1l-11.3-0.8c-0.4,0-0.7-0.4-0.7-0.8l0,0c0-0.4,0.4-0.7,0.8-0.7l11.3,0.8
								c0.4,0,0.7,0.4,0.7,0.8l0,0C281,232.8,280.6,233.1,280.2,233.1z"/>
						</g>
					</g>
				</g>
				<g id="books_6_">
					<g>
						
							<rect x="247.9" y="212.3" transform="matrix(0.9985 -5.497570e-02 5.497570e-02 0.9985 -12.1684 14.5049)" class="st14" width="19.4" height="32.3"/>
						<g>
							<path class="st1" d="M262.9,222.1l-11.3,0.6c-0.4,0-0.7-0.3-0.8-0.7l0,0c0-0.4,0.3-0.7,0.7-0.8l11.3-0.6
								c0.4,0,0.7,0.3,0.8,0.7l0,0C263.6,221.7,263.3,222,262.9,222.1z"/>
							<path class="st1" d="M263.1,226.7l-11.3,0.6c-0.4,0-0.7-0.3-0.8-0.7l0,0c0-0.4,0.3-0.7,0.7-0.8l11.3-0.6
								c0.4,0,0.7,0.3,0.8,0.7l0,0C263.8,226.4,263.5,226.7,263.1,226.7z"/>
							<path class="st1" d="M263.4,231.3l-11.3,0.6c-0.4,0-0.7-0.3-0.8-0.7l0,0c0-0.4,0.3-0.7,0.7-0.8l11.3-0.6
								c0.4,0,0.7,0.3,0.8,0.7l0,0C264.1,231,263.8,231.3,263.4,231.3z"/>
						</g>
					</g>
				</g>
			</g>
			<g id="books_3_">
				<path class="st15" d="M284,254l1.3,1.2v28.2c0,0-10-5.4-19.8,0c0,0-7.2-5.6-20.2,0v-28l1.1-1.5H284z"/>
				<path class="st16" d="M265.5,250.2c0,0,13.3-3.5,18.3,0.8v28.4c0,0-6.2-4.3-18-1L265.5,250.2z"/>
				<path class="st17" d="M247.1,250.9c0,0,8.7-4.5,18.7-0.7v28.2c0,0-11.9-3.3-19,1.1L247.1,250.9z"/>
				<path class="st18" d="M283.6,279.6c0,0-4.2-2.5-8.8-2.4c-4.8,0.1-10.2,1.9-9.3,1.6c0,0-4.9-1.6-9.6-1.6c-4.7,0-9.1,2.4-9.1,2.4
					V251c0,0,5.6-2.4,9.1-2.4c3.5,0,9.6,1.6,9.6,1.6s5.1-1.6,9.3-1.6c4.2,0,8.8,2.4,8.8,2.4V279.6z"/>
				<line class="st19" x1="265.3" y1="278.5" x2="265.3" y2="250.5"/>
				<path class="st1" d="M261.4,258h-10.6c-0.4,0-0.7-0.3-0.7-0.7l0,0c0-0.4,0.3-0.7,0.7-0.7h10.6c0.4,0,0.7,0.3,0.7,0.7l0,0
					C262.1,257.7,261.8,258,261.4,258z"/>
				<path class="st1" d="M261.4,262.4h-10.6c-0.4,0-0.7-0.3-0.7-0.7l0,0c0-0.4,0.3-0.7,0.7-0.7h10.6c0.4,0,0.7,0.3,0.7,0.7l0,0
					C262.1,262.1,261.7,262.4,261.4,262.4z"/>
				<path class="st1" d="M261.4,266.7h-10.6c-0.4,0-0.7-0.3-0.7-0.7l0,0c0-0.4,0.3-0.7,0.7-0.7h10.6c0.4,0,0.7,0.3,0.7,0.7l0,0
					C262.1,266.4,261.7,266.7,261.4,266.7z"/>
				<path class="st1" d="M279.8,258h-10.6c-0.4,0-0.7-0.3-0.7-0.7l0,0c0-0.4,0.3-0.7,0.7-0.7h10.6c0.4,0,0.7,0.3,0.7,0.7l0,0
					C280.5,257.7,280.2,258,279.8,258z"/>
				<path class="st1" d="M279.8,262.4h-10.6c-0.4,0-0.7-0.3-0.7-0.7l0,0c0-0.4,0.3-0.7,0.7-0.7h10.6c0.4,0,0.7,0.3,0.7,0.7l0,0
					C280.4,262.1,280.1,262.4,279.8,262.4z"/>
				<path class="st1" d="M279.8,266.7h-10.6c-0.4,0-0.7-0.3-0.7-0.7l0,0c0-0.4,0.3-0.7,0.7-0.7h10.6c0.4,0,0.7,0.3,0.7,0.7l0,0
					C280.4,266.4,280.1,266.7,279.8,266.7z"/>
			</g>
			<g id="mac_6_">
				<path class="st5" d="M239,248.6h-55c-0.6,0-1.1-0.5-1.1-1.1v-38c0-0.6,0.5-1.1,1.1-1.1h55c0.6,0,1.1,0.5,1.1,1.1v38
					C240,248.1,239.5,248.6,239,248.6z"/>
				<path class="st20" d="M237.6,241.9h-52.2c-0.8,0-1.5-0.7-1.5-1.5V211c0-0.8,0.7-1.5,1.5-1.5h52.2c0.8,0,1.5,0.7,1.5,1.5v29.3
					C239.1,241.2,238.5,241.9,237.6,241.9z"/>
				<rect x="186" y="212.1" class="st21" width="50.7" height="26.2"/>
				<polygon class="st22" points="218.6,248.7 205.7,248.7 201.6,261 222.7,261 				"/>
				<polygon class="st5" points="240,276.5 182.9,276.5 186.2,266.1 236.8,266.1 				"/>
				<g id="keyboard_1_">
					<path class="st1" d="M211.6,275h-20.3c-0.3,0-0.6-0.3-0.6-0.6l0,0c0-0.3,0.3-0.6,0.6-0.6h20.3c0.3,0,0.6,0.3,0.6,0.6l0,0
						C212.2,274.7,211.9,275,211.6,275z"/>
					<path class="st1" d="M189.5,275L189.5,275c0.3,0,0.6-0.3,0.6-0.6l0,0c0-0.3-0.3-0.6-0.6-0.6l0,0c-0.3,0-0.6,0.3-0.6,0.6l0,0
						C188.9,274.7,189.1,275,189.5,275z"/>
					<path class="st1" d="M187.8,275L187.8,275c0.3,0,0.6-0.3,0.6-0.6l0,0c0-0.3-0.3-0.6-0.6-0.6l0,0c-0.3,0-0.6,0.3-0.6,0.6l0,0
						C187.2,274.7,187.5,275,187.8,275z"/>
					<path class="st1" d="M186.2,275L186.2,275c0.3,0,0.6-0.3,0.6-0.6l0,0c0-0.3-0.3-0.6-0.6-0.6l0,0c-0.3,0-0.6,0.3-0.6,0.6l0,0
						C185.6,274.7,185.9,275,186.2,275z"/>
					<path class="st1" d="M216.9,275L216.9,275c0.3,0,0.6-0.3,0.6-0.6l0,0c0-0.3-0.3-0.6-0.6-0.6l0,0c-0.3,0-0.6,0.3-0.6,0.6l0,0
						C216.3,274.8,216.6,275,216.9,275z"/>
					<path class="st1" d="M215.3,275L215.3,275c0.3,0,0.6-0.3,0.6-0.6l0,0c0-0.3-0.3-0.6-0.6-0.6l0,0c-0.3,0-0.6,0.3-0.6,0.6l0,0
						C214.7,274.8,214.9,275,215.3,275z"/>
					<path class="st1" d="M213.7,275L213.7,275c0.3,0,0.6-0.3,0.6-0.6l0,0c0-0.3-0.3-0.6-0.6-0.6l0,0c-0.3,0-0.6,0.3-0.6,0.6l0,0
						C213.1,274.8,213.3,275,213.7,275z"/>
					<path class="st1" d="M216.9,273.2L216.9,273.2c0.3,0,0.6-0.3,0.6-0.6l0,0c0-0.3-0.3-0.6-0.6-0.6l0,0c-0.3,0-0.6,0.3-0.6,0.6
						l0,0C216.3,272.9,216.6,273.2,216.9,273.2z"/>
					<path class="st1" d="M215.3,273.2L215.3,273.2c0.3,0,0.6-0.3,0.6-0.6l0,0c0-0.3-0.3-0.6-0.6-0.6l0,0c-0.3,0-0.6,0.3-0.6,0.6
						l0,0C214.7,272.9,215,273.2,215.3,273.2z"/>
					<path class="st1" d="M213.7,273.2L213.7,273.2c0.3,0,0.6-0.3,0.6-0.6l0,0c0-0.3-0.3-0.6-0.6-0.6l0,0c-0.3,0-0.6,0.3-0.6,0.6
						l0,0C213.1,272.9,213.4,273.2,213.7,273.2z"/>
					<path class="st1" d="M211.9,273.2L211.9,273.2c0.3,0,0.6-0.3,0.6-0.6l0,0c0-0.3-0.3-0.6-0.6-0.6l0,0c-0.3,0-0.6,0.3-0.6,0.6
						l0,0C211.3,272.9,211.6,273.2,211.9,273.2z"/>
					<path class="st1" d="M210.3,273.2L210.3,273.2c0.3,0,0.6-0.3,0.6-0.6l0,0c0-0.3-0.3-0.6-0.6-0.6l0,0c-0.3,0-0.6,0.3-0.6,0.6
						l0,0C209.7,272.9,210,273.2,210.3,273.2z"/>
					<path class="st1" d="M208.7,273.2L208.7,273.2c0.3,0,0.6-0.3,0.6-0.6l0,0c0-0.3-0.3-0.6-0.6-0.6l0,0c-0.3,0-0.6,0.3-0.6,0.6
						l0,0C208.1,272.9,208.3,273.2,208.7,273.2z"/>
					<path class="st1" d="M206.8,273.2L206.8,273.2c0.3,0,0.6-0.3,0.6-0.6l0,0c0-0.3-0.3-0.6-0.6-0.6l0,0c-0.3,0-0.6,0.3-0.6,0.6
						l0,0C206.2,272.9,206.5,273.2,206.8,273.2z"/>
					<path class="st1" d="M205.2,273.2L205.2,273.2c0.3,0,0.6-0.3,0.6-0.6l0,0c0-0.3-0.3-0.6-0.6-0.6l0,0c-0.3,0-0.6,0.3-0.6,0.6
						l0,0C204.6,272.9,204.9,273.2,205.2,273.2z"/>
					<path class="st1" d="M203.6,273.2L203.6,273.2c0.3,0,0.6-0.3,0.6-0.6l0,0c0-0.3-0.3-0.6-0.6-0.6l0,0c-0.3,0-0.6,0.3-0.6,0.6
						l0,0C203,272.9,203.2,273.2,203.6,273.2z"/>
					<path class="st1" d="M201.8,273.2L201.8,273.2c0.3,0,0.6-0.3,0.6-0.6l0,0c0-0.3-0.3-0.6-0.6-0.6l0,0c-0.3,0-0.6,0.3-0.6,0.6
						l0,0C201.2,272.9,201.5,273.2,201.8,273.2z"/>
					<path class="st1" d="M200.2,273.2L200.2,273.2c0.3,0,0.6-0.3,0.6-0.6l0,0c0-0.3-0.3-0.6-0.6-0.6l0,0c-0.3,0-0.6,0.3-0.6,0.6
						l0,0C199.6,272.9,199.8,273.2,200.2,273.2z"/>
					<path class="st1" d="M198.5,273.2L198.5,273.2c0.3,0,0.6-0.3,0.6-0.6l0,0c0-0.3-0.3-0.6-0.6-0.6l0,0c-0.3,0-0.6,0.3-0.6,0.6
						l0,0C197.9,272.9,198.2,273.2,198.5,273.2z"/>
					<path class="st1" d="M196.7,273.2L196.7,273.2c0.3,0,0.6-0.3,0.6-0.6l0,0c0-0.3-0.3-0.6-0.6-0.6l0,0c-0.3,0-0.6,0.3-0.6,0.6
						l0,0C196.1,272.9,196.4,273.2,196.7,273.2z"/>
					<path class="st1" d="M195.1,273.2L195.1,273.2c0.3,0,0.6-0.3,0.6-0.6l0,0c0-0.3-0.3-0.6-0.6-0.6l0,0c-0.3,0-0.6,0.3-0.6,0.6
						l0,0C194.5,272.9,194.7,273.2,195.1,273.2z"/>
					<path class="st1" d="M193.5,273.2L193.5,273.2c0.3,0,0.6-0.3,0.6-0.6l0,0c0-0.3-0.3-0.6-0.6-0.6l0,0c-0.3,0-0.6,0.3-0.6,0.6
						l0,0C192.8,272.9,193.1,273.2,193.5,273.2z"/>
					<path class="st1" d="M191.7,273.2L191.7,273.2c0.3,0,0.6-0.3,0.6-0.6l0,0c0-0.3-0.3-0.6-0.6-0.6l0,0c-0.3,0-0.6,0.3-0.6,0.6
						l0,0C191.1,272.9,191.3,273.2,191.7,273.2z"/>
					<path class="st1" d="M190,273.2L190,273.2c0.3,0,0.6-0.3,0.6-0.6l0,0c0-0.3-0.3-0.6-0.6-0.6l0,0c-0.3,0-0.6,0.3-0.6,0.6l0,0
						C189.4,272.9,189.7,273.2,190,273.2z"/>
					<path class="st1" d="M188.4,273.2L188.4,273.2c0.3,0,0.6-0.3,0.6-0.6l0,0c0-0.3-0.3-0.6-0.6-0.6l0,0c-0.3,0-0.6,0.3-0.6,0.6
						l0,0C187.8,272.9,188.1,273.2,188.4,273.2z"/>
					<path class="st1" d="M186.6,273.2L186.6,273.2c0.3,0,0.6-0.3,0.6-0.6l0,0c0-0.3-0.3-0.6-0.6-0.6l0,0c-0.3,0-0.6,0.3-0.6,0.6
						l0,0C186,272.9,186.2,273.2,186.6,273.2z"/>
					<path class="st1" d="M217.6,271.3L217.6,271.3c0.3,0,0.6-0.3,0.6-0.6l0,0c0-0.3-0.3-0.6-0.6-0.6l0,0c-0.3,0-0.6,0.3-0.6,0.6
						l0,0C216.9,271,217.2,271.3,217.6,271.3z"/>
					<path class="st1" d="M215.9,271.3L215.9,271.3c0.3,0,0.6-0.3,0.6-0.6l0,0c0-0.3-0.3-0.6-0.6-0.6l0,0c-0.3,0-0.6,0.3-0.6,0.6
						l0,0C215.3,271,215.6,271.3,215.9,271.3z"/>
					<path class="st1" d="M214.3,271.3L214.3,271.3c0.3,0,0.6-0.3,0.6-0.6l0,0c0-0.3-0.3-0.6-0.6-0.6l0,0c-0.3,0-0.6,0.3-0.6,0.6
						l0,0C213.7,271,214,271.3,214.3,271.3z"/>
					<path class="st1" d="M212.5,271.3L212.5,271.3c0.3,0,0.6-0.3,0.6-0.6l0,0c0-0.3-0.3-0.6-0.6-0.6l0,0c-0.3,0-0.6,0.3-0.6,0.6
						l0,0C211.9,271,212.2,271.3,212.5,271.3z"/>
					<path class="st1" d="M210.9,271.3L210.9,271.3c0.3,0,0.6-0.3,0.6-0.6l0,0c0-0.3-0.3-0.6-0.6-0.6l0,0c-0.3,0-0.6,0.3-0.6,0.6
						l0,0C210.3,271,210.6,271.3,210.9,271.3z"/>
					<path class="st1" d="M209.3,271.3L209.3,271.3c0.3,0,0.6-0.3,0.6-0.6l0,0c0-0.3-0.3-0.6-0.6-0.6l0,0c-0.3,0-0.6,0.3-0.6,0.6
						l0,0C208.7,271,208.9,271.3,209.3,271.3z"/>
					<path class="st1" d="M207.4,271.3L207.4,271.3c0.3,0,0.6-0.3,0.6-0.6l0,0c0-0.3-0.3-0.6-0.6-0.6l0,0c-0.3,0-0.6,0.3-0.6,0.6
						l0,0C206.8,271,207.1,271.3,207.4,271.3z"/>
					<path class="st1" d="M205.8,271.3L205.8,271.3c0.3,0,0.6-0.3,0.6-0.6l0,0c0-0.3-0.3-0.6-0.6-0.6l0,0c-0.3,0-0.6,0.3-0.6,0.6
						l0,0C205.2,271,205.5,271.3,205.8,271.3z"/>
					<path class="st1" d="M204.2,271.3L204.2,271.3c0.3,0,0.6-0.3,0.6-0.6l0,0c0-0.3-0.3-0.6-0.6-0.6l0,0c-0.3,0-0.6,0.3-0.6,0.6
						l0,0C203.6,271,203.9,271.3,204.2,271.3z"/>
					<path class="st1" d="M202.4,271.3L202.4,271.3c0.3,0,0.6-0.3,0.6-0.6l0,0c0-0.3-0.3-0.6-0.6-0.6l0,0c-0.3,0-0.6,0.3-0.6,0.6
						l0,0C201.8,271,202.1,271.3,202.4,271.3z"/>
					<path class="st1" d="M200.8,271.3L200.8,271.3c0.3,0,0.6-0.3,0.6-0.6l0,0c0-0.3-0.3-0.6-0.6-0.6l0,0c-0.3,0-0.6,0.3-0.6,0.6
						l0,0C200.2,271,200.4,271.3,200.8,271.3z"/>
					<path class="st1" d="M199.2,271.3L199.2,271.3c0.3,0,0.6-0.3,0.6-0.6l0,0c0-0.3-0.3-0.6-0.6-0.6l0,0c-0.3,0-0.6,0.3-0.6,0.6
						l0,0C198.5,271,198.8,271.3,199.2,271.3z"/>
					<path class="st1" d="M197.3,271.3L197.3,271.3c0.3,0,0.6-0.3,0.6-0.6l0,0c0-0.3-0.3-0.6-0.6-0.6l0,0c-0.3,0-0.6,0.3-0.6,0.6
						l0,0C196.7,271,197,271.3,197.3,271.3z"/>
					<path class="st1" d="M195.7,271.3L195.7,271.3c0.3,0,0.6-0.3,0.6-0.6l0,0c0-0.3-0.3-0.6-0.6-0.6l0,0c-0.3,0-0.6,0.3-0.6,0.6
						l0,0C195.1,271,195.3,271.3,195.7,271.3z"/>
					<path class="st1" d="M194.1,271.3L194.1,271.3c0.3,0,0.6-0.3,0.6-0.6l0,0c0-0.3-0.3-0.6-0.6-0.6l0,0c-0.3,0-0.6,0.3-0.6,0.6
						l0,0C193.5,271,193.7,271.3,194.1,271.3z"/>
					<path class="st1" d="M192.3,271.3L192.3,271.3c0.3,0,0.6-0.3,0.6-0.6l0,0c0-0.3-0.3-0.6-0.6-0.6l0,0c-0.3,0-0.6,0.3-0.6,0.6
						l0,0C191.7,271,191.9,271.3,192.3,271.3z"/>
					<path class="st1" d="M190.7,271.3L190.7,271.3c0.3,0,0.6-0.3,0.6-0.6l0,0c0-0.3-0.3-0.6-0.6-0.6l0,0c-0.3,0-0.6,0.3-0.6,0.6
						l0,0C190,271,190.3,271.3,190.7,271.3z"/>
					<path class="st1" d="M189,271.3L189,271.3c0.3,0,0.6-0.3,0.6-0.6l0,0c0-0.3-0.3-0.6-0.6-0.6l0,0c-0.3,0-0.6,0.3-0.6,0.6l0,0
						C188.4,271,188.7,271.3,189,271.3z"/>
					<path class="st1" d="M187.2,271.3L187.2,271.3c0.3,0,0.6-0.3,0.6-0.6l0,0c0-0.3-0.3-0.6-0.6-0.6l0,0c-0.3,0-0.6,0.3-0.6,0.6
						l0,0C186.6,271,186.8,271.3,187.2,271.3z"/>
					<path class="st1" d="M218,269.4L218,269.4c0.3,0,0.6-0.3,0.6-0.6l0,0c0-0.3-0.3-0.6-0.6-0.6l0,0c-0.3,0-0.6,0.3-0.6,0.6l0,0
						C217.4,269.1,217.7,269.4,218,269.4z"/>
					<path class="st1" d="M216.4,269.4L216.4,269.4c0.3,0,0.6-0.3,0.6-0.6l0,0c0-0.3-0.3-0.6-0.6-0.6l0,0c-0.3,0-0.6,0.3-0.6,0.6
						l0,0C215.8,269.1,216.1,269.4,216.4,269.4z"/>
					<path class="st1" d="M214.8,269.4L214.8,269.4c0.3,0,0.6-0.3,0.6-0.6l0,0c0-0.3-0.3-0.6-0.6-0.6l0,0c-0.3,0-0.6,0.3-0.6,0.6
						l0,0C214.2,269.1,214.4,269.4,214.8,269.4z"/>
					<path class="st1" d="M224.4,269.4L224.4,269.4c0.3,0,0.6-0.3,0.6-0.6l0,0c0-0.3-0.3-0.6-0.6-0.6l0,0c-0.3,0-0.6,0.3-0.6,0.6
						l0,0C223.8,269.1,224.1,269.4,224.4,269.4z"/>
					<path class="st1" d="M222.8,269.4L222.8,269.4c0.3,0,0.6-0.3,0.6-0.6l0,0c0-0.3-0.3-0.6-0.6-0.6l0,0c-0.3,0-0.6,0.3-0.6,0.6
						l0,0C222.2,269.1,222.4,269.4,222.8,269.4z"/>
					<path class="st1" d="M221.2,269.4L221.2,269.4c0.3,0,0.6-0.3,0.6-0.6l0,0c0-0.3-0.3-0.6-0.6-0.6l0,0c-0.3,0-0.6,0.3-0.6,0.6
						l0,0C220.5,269.1,220.8,269.4,221.2,269.4z"/>
					<path class="st1" d="M213,269.4L213,269.4c0.3,0,0.6-0.3,0.6-0.6l0,0c0-0.3-0.3-0.6-0.6-0.6l0,0c-0.3,0-0.6,0.3-0.6,0.6l0,0
						C212.4,269.1,212.7,269.4,213,269.4z"/>
					<path class="st1" d="M231.6,273.2L231.6,273.2c-0.3,0-0.6-0.3-0.6-0.6l0,0c0-0.3,0.3-0.6,0.6-0.6l0,0c0.3,0,0.6,0.3,0.6,0.6
						l0,0C232.3,272.9,232,273.2,231.6,273.2z"/>
					<path class="st1" d="M233.3,273.2L233.3,273.2c-0.3,0-0.6-0.3-0.6-0.6l0,0c0-0.3,0.3-0.6,0.6-0.6l0,0c0.3,0,0.6,0.3,0.6,0.6
						l0,0C233.9,272.9,233.6,273.2,233.3,273.2z"/>
					<path class="st1" d="M234.9,273.2L234.9,273.2c-0.3,0-0.6-0.3-0.6-0.6l0,0c0-0.3,0.3-0.6,0.6-0.6l0,0c0.3,0,0.6,0.3,0.6,0.6
						l0,0C235.5,272.9,235.2,273.2,234.9,273.2z"/>
					<path class="st1" d="M236.7,273.2L236.7,273.2c-0.3,0-0.6-0.3-0.6-0.6l0,0c0-0.3,0.3-0.6,0.6-0.6l0,0c0.3,0,0.6,0.3,0.6,0.6
						l0,0C237.3,272.9,237,273.2,236.7,273.2z"/>
					<path class="st1" d="M232.4,275L232.4,275c-0.3,0-0.6-0.3-0.6-0.6l0,0c0-0.3,0.3-0.6,0.6-0.6l0,0c0.3,0,0.6,0.3,0.6,0.6l0,0
						C233,274.7,232.7,275,232.4,275z"/>
					<path class="st1" d="M234,275L234,275c-0.3,0-0.6-0.3-0.6-0.6l0,0c0-0.3,0.3-0.6,0.6-0.6l0,0c0.3,0,0.6,0.3,0.6,0.6l0,0
						C234.6,274.7,234.3,275,234,275z"/>
					<path class="st1" d="M235.6,275L235.6,275c-0.3,0-0.6-0.3-0.6-0.6l0,0c0-0.3,0.3-0.6,0.6-0.6l0,0c0.3,0,0.6,0.3,0.6,0.6l0,0
						C236.2,274.7,235.9,275,235.6,275z"/>
					<path class="st1" d="M237.4,275L237.4,275c-0.3,0-0.6-0.3-0.6-0.6l0,0c0-0.3,0.3-0.6,0.6-0.6l0,0c0.3,0,0.6,0.3,0.6,0.6l0,0
						C238,274.7,237.7,275,237.4,275z"/>
					<path class="st1" d="M231,271.3L231,271.3c-0.3,0-0.6-0.3-0.6-0.6l0,0c0-0.3,0.3-0.6,0.6-0.6l0,0c0.3,0,0.6,0.3,0.6,0.6l0,0
						C231.6,271,231.4,271.3,231,271.3z"/>
					<path class="st1" d="M232.7,271.3L232.7,271.3c-0.3,0-0.6-0.3-0.6-0.6l0,0c0-0.3,0.3-0.6,0.6-0.6l0,0c0.3,0,0.6,0.3,0.6,0.6
						l0,0C233.3,271,233,271.3,232.7,271.3z"/>
					<path class="st1" d="M234.3,271.3L234.3,271.3c-0.3,0-0.6-0.3-0.6-0.6l0,0c0-0.3,0.3-0.6,0.6-0.6l0,0c0.3,0,0.6,0.3,0.6,0.6
						l0,0C234.9,271,234.6,271.3,234.3,271.3z"/>
					<path class="st1" d="M236.1,271.3L236.1,271.3c-0.3,0-0.6-0.3-0.6-0.6l0,0c0-0.3,0.3-0.6,0.6-0.6l0,0c0.3,0,0.6,0.3,0.6,0.6
						l0,0C236.7,271,236.4,271.3,236.1,271.3z"/>
					<path class="st1" d="M230.6,269.4L230.6,269.4c-0.3,0-0.6-0.3-0.6-0.6l0,0c0-0.3,0.3-0.6,0.6-0.6l0,0c0.3,0,0.6,0.3,0.6,0.6
						l0,0C231.2,269.1,230.9,269.4,230.6,269.4z"/>
					<path class="st1" d="M230,273.3L230,273.3c-0.3,0-0.6-0.3-0.6-0.6l0,0c0-0.3,0.3-0.6,0.6-0.6l0,0c0.3,0,0.6,0.3,0.6,0.6l0,0
						C230.6,273,230.3,273.3,230,273.3z"/>
					<path class="st1" d="M230.7,275.1L230.7,275.1c-0.3,0-0.6-0.3-0.6-0.6l0,0c0-0.3,0.3-0.6,0.6-0.6l0,0c0.3,0,0.6,0.3,0.6,0.6
						l0,0C231.3,274.8,231.1,275.1,230.7,275.1z"/>
					<path class="st1" d="M229.4,271.4L229.4,271.4c-0.3,0-0.6-0.3-0.6-0.6l0,0c0-0.3,0.3-0.6,0.6-0.6l0,0c0.3,0,0.6,0.3,0.6,0.6
						l0,0C230,271.1,229.7,271.4,229.4,271.4z"/>
					<path class="st1" d="M223.2,273.2L223.2,273.2c-0.3,0-0.6-0.3-0.6-0.6l0,0c0-0.3,0.3-0.6,0.6-0.6l0,0c0.3,0,0.6,0.3,0.6,0.6
						l0,0C223.8,272.9,223.6,273.2,223.2,273.2z"/>
					<path class="st1" d="M224.9,273.2L224.9,273.2c-0.3,0-0.6-0.3-0.6-0.6l0,0c0-0.3,0.3-0.6,0.6-0.6l0,0c0.3,0,0.6,0.3,0.6,0.6
						l0,0C225.5,272.9,225.2,273.2,224.9,273.2z"/>
					<path class="st1" d="M223.4,275L223.4,275c-0.3,0-0.6-0.3-0.6-0.6l0,0c0-0.3,0.3-0.6,0.6-0.6l0,0c0.3,0,0.6,0.3,0.6,0.6l0,0
						C224,274.7,223.7,275,223.4,275z"/>
					<path class="st1" d="M223,271.3L223,271.3c-0.3,0-0.6-0.3-0.6-0.6l0,0c0-0.3,0.3-0.6,0.6-0.6l0,0c0.3,0,0.6,0.3,0.6,0.6l0,0
						C223.6,271,223.3,271.3,223,271.3z"/>
					<path class="st1" d="M221.6,273.3L221.6,273.3c-0.3,0-0.6-0.3-0.6-0.6l0,0c0-0.3,0.3-0.6,0.6-0.6l0,0c0.3,0,0.6,0.3,0.6,0.6
						l0,0C222.2,273,221.9,273.3,221.6,273.3z"/>
					<path class="st1" d="M228.9,269.5L228.9,269.5c-0.3,0-0.6-0.3-0.6-0.6l0,0c0-0.3,0.3-0.6,0.6-0.6l0,0c0.3,0,0.6,0.3,0.6,0.6
						l0,0C229.5,269.2,229.3,269.5,228.9,269.5z"/>
					<path class="st1" d="M232.2,269.4L232.2,269.4c-0.3,0-0.6-0.3-0.6-0.6l0,0c0-0.3,0.3-0.6,0.6-0.6l0,0c0.3,0,0.6,0.3,0.6,0.6
						l0,0C232.8,269.1,232.5,269.4,232.2,269.4z"/>
					<path class="st1" d="M233.8,269.4L233.8,269.4c-0.3,0-0.6-0.3-0.6-0.6l0,0c0-0.3,0.3-0.6,0.6-0.6l0,0c0.3,0,0.6,0.3,0.6,0.6
						l0,0C234.4,269.1,234.1,269.4,233.8,269.4z"/>
					<path class="st1" d="M235.6,269.4L235.6,269.4c-0.3,0-0.6-0.3-0.6-0.6l0,0c0-0.3,0.3-0.6,0.6-0.6l0,0c0.3,0,0.6,0.3,0.6,0.6
						l0,0C236.2,269.1,235.9,269.4,235.6,269.4z"/>
					<path class="st1" d="M211.4,269.4L211.4,269.4c0.3,0,0.6-0.3,0.6-0.6l0,0c0-0.3-0.3-0.6-0.6-0.6l0,0c-0.3,0-0.6,0.3-0.6,0.6
						l0,0C210.8,269.1,211,269.4,211.4,269.4z"/>
					<path class="st1" d="M209.8,269.4L209.8,269.4c0.3,0,0.6-0.3,0.6-0.6l0,0c0-0.3-0.3-0.6-0.6-0.6l0,0c-0.3,0-0.6,0.3-0.6,0.6
						l0,0C209.1,269.1,209.4,269.4,209.8,269.4z"/>
					<path class="st1" d="M207.9,269.4L207.9,269.4c0.3,0,0.6-0.3,0.6-0.6l0,0c0-0.3-0.3-0.6-0.6-0.6l0,0c-0.3,0-0.6,0.3-0.6,0.6
						l0,0C207.3,269.1,207.6,269.4,207.9,269.4z"/>
					<path class="st1" d="M206.3,269.4L206.3,269.4c0.3,0,0.6-0.3,0.6-0.6l0,0c0-0.3-0.3-0.6-0.6-0.6l0,0c-0.3,0-0.6,0.3-0.6,0.6
						l0,0C205.7,269.1,205.9,269.4,206.3,269.4z"/>
					<path class="st1" d="M204.7,269.4L204.7,269.4c0.3,0,0.6-0.3,0.6-0.6l0,0c0-0.3-0.3-0.6-0.6-0.6l0,0c-0.3,0-0.6,0.3-0.6,0.6
						l0,0C204,269.1,204.3,269.4,204.7,269.4z"/>
					<path class="st1" d="M202.9,269.4L202.9,269.4c0.3,0,0.6-0.3,0.6-0.6l0,0c0-0.3-0.3-0.6-0.6-0.6l0,0c-0.3,0-0.6,0.3-0.6,0.6
						l0,0C202.3,269.1,202.5,269.4,202.9,269.4z"/>
					<path class="st1" d="M201.2,269.4L201.2,269.4c0.3,0,0.6-0.3,0.6-0.6l0,0c0-0.3-0.3-0.6-0.6-0.6l0,0c-0.3,0-0.6,0.3-0.6,0.6
						l0,0C200.6,269.1,200.9,269.4,201.2,269.4z"/>
					<path class="st1" d="M199.6,269.4L199.6,269.4c0.3,0,0.6-0.3,0.6-0.6l0,0c0-0.3-0.3-0.6-0.6-0.6l0,0c-0.3,0-0.6,0.3-0.6,0.6
						l0,0C199,269.1,199.3,269.4,199.6,269.4z"/>
					<path class="st1" d="M197.8,269.4L197.8,269.4c0.3,0,0.6-0.3,0.6-0.6l0,0c0-0.3-0.3-0.6-0.6-0.6l0,0c-0.3,0-0.6,0.3-0.6,0.6
						l0,0C197.2,269.1,197.4,269.4,197.8,269.4z"/>
					<path class="st1" d="M196.2,269.4L196.2,269.4c0.3,0,0.6-0.3,0.6-0.6l0,0c0-0.3-0.3-0.6-0.6-0.6l0,0c-0.3,0-0.6,0.3-0.6,0.6
						l0,0C195.5,269.1,195.8,269.4,196.2,269.4z"/>
					<path class="st1" d="M194.5,269.4L194.5,269.4c0.3,0,0.6-0.3,0.6-0.6l0,0c0-0.3-0.3-0.6-0.6-0.6l0,0c-0.3,0-0.6,0.3-0.6,0.6
						l0,0C193.9,269.1,194.2,269.4,194.5,269.4z"/>
					<path class="st1" d="M192.7,269.4L192.7,269.4c0.3,0,0.6-0.3,0.6-0.6l0,0c0-0.3-0.3-0.6-0.6-0.6l0,0c-0.3,0-0.6,0.3-0.6,0.6
						l0,0C192.1,269.1,192.4,269.4,192.7,269.4z"/>
					<path class="st1" d="M191.1,269.4L191.1,269.4c0.3,0,0.6-0.3,0.6-0.6l0,0c0-0.3-0.3-0.6-0.6-0.6l0,0c-0.3,0-0.6,0.3-0.6,0.6
						l0,0C190.5,269.1,190.8,269.4,191.1,269.4z"/>
					<path class="st1" d="M189.5,269.4L189.5,269.4c0.3,0,0.6-0.3,0.6-0.6l0,0c0-0.3-0.3-0.6-0.6-0.6l0,0c-0.3,0-0.6,0.3-0.6,0.6
						l0,0C188.9,269.1,189.2,269.4,189.5,269.4z"/>
					<path class="st1" d="M187.7,269.4L187.7,269.4c0.3,0,0.6-0.3,0.6-0.6l0,0c0-0.3-0.3-0.6-0.6-0.6l0,0c-0.3,0-0.6,0.3-0.6,0.6
						l0,0C187,269.1,187.3,269.4,187.7,269.4z"/>
				</g>
			</g>
			<g>
				<text transform="matrix(1 0 0 1 171.9717 54.9531)"><tspan x="0" y="0" class="st1 st9 st10">パンフレット、カタログ、チラシ</tspan><tspan x="0" y="14" class="st1 st9 st10">などを制作しています。最近では</tspan><tspan x="0" y="28" class="st1 st9 st10">紙面は見られる事が少なくなって</tspan><tspan x="0" y="42" class="st1 st9 st10">いますが、そういった時代だから</tspan><tspan x="0" y="56" class="st1 st9 st10">こそ紙で伝えれる事もあります</tspan><tspan x="112" y="56" class="st1 st9 st10 st12">。</tspan><tspan x="0" y="84" class="st1 st9 st10">手書きのメッセージカードではあ</tspan><tspan x="0" y="98" class="st1 st9 st10">りませんが、心に残る紙面を制作</tspan><tspan x="0" y="112" class="st1 st9 st10">する業務です</tspan><tspan x="48" y="112" class="st1 st9 st10 st12">。</tspan></text>
			</g>
		</g>
		<g id="marketing">
			<path class="st0" d="M150.4,299H22.7c-2.8,0-5-2.3-5-5V24.6c0-2.8,2.3-5,5-5h127.7c2.8,0,5,2.3,5,5v269.4
				C155.4,296.7,153.2,299,150.4,299z"/>
			<g>
				<text transform="matrix(1 0 0 1 32.5395 37.1323)"><tspan x="0" y="0" class="st1 st2 st3">「マーケティング</tspan><tspan x="96" y="0" class="st1 st2 st3 st4">」</tspan></text>
			</g>
			<g>
				<defs>
					<path id="SVGID_3_" d="M150.4,299H22.7c-2.8,0-5-2.3-5-5V24.6c0-2.8,2.3-5,5-5h127.7c2.8,0,5,2.3,5,5v269.4
						C155.4,296.7,153.2,299,150.4,299z"/>
				</defs>
				<clipPath id="SVGID_4_">
					<use xlink:href="#SVGID_3_"  style="overflow:visible;"/>
				</clipPath>
				<g id="marketing_bldg" class="st23">
					<path class="st24" d="M114.9,300H58.6v-76.1c0-1.6,1.3-2.9,2.9-2.9H112c1.6,0,2.9,1.3,2.9,2.9V300z"/>
					<path class="st25" d="M113.6,184.1H59.1c-0.5,0-0.9,0.4-0.9,0.9v29.6c0,0.5,0.4,0.9,0.9,0.9h54.5c0.5,0,0.9-0.4,0.9-0.9V185
						C114.4,184.5,114,184.1,113.6,184.1z"/>
					<path class="st26" d="M114.1,178.3H58.6c-0.2,0-0.4,0.2-0.4,0.4v5c0,0.2,0.2,0.4,0.4,0.4h55.5c0.2,0,0.4-0.2,0.4-0.4v-5
						C114.4,178.5,114.3,178.3,114.1,178.3z"/>
					<g>
						<path class="st27" d="M100.7,208.2H72.9c-0.6,0-1.1-0.5-1.1-1.1v-14.7c0-0.6,0.5-1.1,1.1-1.1h27.8c0.6,0,1.1,0.5,1.1,1.1v14.7
							C101.7,207.7,101.3,208.2,100.7,208.2z"/>
					</g>
					<rect x="62.9" y="215.4" class="st25" width="2.6" height="5.3"/>
					<rect x="107.4" y="215.4" class="st25" width="2.6" height="5.3"/>
					<g>
						<g>
							<path class="st1" d="M91.7,242h-9.9c-0.6,0-1.1-0.5-1.1-1.1v-13.4c0-0.6,0.5-1.1,1.1-1.1h9.9c0.6,0,1.1,0.5,1.1,1.1V241
								C92.8,241.5,92.3,242,91.7,242z"/>
							<path class="st1" d="M74.8,242h-9.9c-0.6,0-1.1-0.5-1.1-1.1v-13.4c0-0.6,0.5-1.1,1.1-1.1h9.9c0.6,0,1.1,0.5,1.1,1.1V241
								C75.9,241.5,75.4,242,74.8,242z"/>
							<path class="st1" d="M108.6,242h-9.9c-0.6,0-1.1-0.5-1.1-1.1v-13.4c0-0.6,0.5-1.1,1.1-1.1h9.9c0.6,0,1.1,0.5,1.1,1.1V241
								C109.7,241.5,109.2,242,108.6,242z"/>
						</g>
						<g>
							<path class="st1" d="M91.7,260.8h-9.9c-0.6,0-1.1-0.5-1.1-1.1v-13.4c0-0.6,0.5-1.1,1.1-1.1h9.9c0.6,0,1.1,0.5,1.1,1.1v13.4
								C92.8,260.4,92.3,260.8,91.7,260.8z"/>
							<path class="st1" d="M74.8,260.8h-9.9c-0.6,0-1.1-0.5-1.1-1.1v-13.4c0-0.6,0.5-1.1,1.1-1.1h9.9c0.6,0,1.1,0.5,1.1,1.1v13.4
								C75.9,260.4,75.4,260.8,74.8,260.8z"/>
							<path class="st1" d="M108.6,260.8h-9.9c-0.6,0-1.1-0.5-1.1-1.1v-13.4c0-0.6,0.5-1.1,1.1-1.1h9.9c0.6,0,1.1,0.5,1.1,1.1v13.4
								C109.7,260.4,109.2,260.8,108.6,260.8z"/>
						</g>
						<g>
							<path class="st1" d="M91.7,279.7h-9.9c-0.6,0-1.1-0.5-1.1-1.1v-13.4c0-0.6,0.5-1.1,1.1-1.1h9.9c0.6,0,1.1,0.5,1.1,1.1v13.4
								C92.8,279.2,92.3,279.7,91.7,279.7z"/>
							<path class="st1" d="M74.8,279.7h-9.9c-0.6,0-1.1-0.5-1.1-1.1v-13.4c0-0.6,0.5-1.1,1.1-1.1h9.9c0.6,0,1.1,0.5,1.1,1.1v13.4
								C75.9,279.2,75.4,279.7,74.8,279.7z"/>
							<path class="st1" d="M108.6,279.7h-9.9c-0.6,0-1.1-0.5-1.1-1.1v-13.4c0-0.6,0.5-1.1,1.1-1.1h9.9c0.6,0,1.1,0.5,1.1,1.1v13.4
								C109.7,279.2,109.2,279.7,108.6,279.7z"/>
						</g>
					</g>
					<g>
						<g>
							<g>
								<path class="st28" d="M175.1,300.3h-50.2v-57.7c0-1.3,1.1-2.4,2.4-2.4h45.5c1.3,0,2.4,1.1,2.4,2.4V300.3z"/>
								<g>
									<g>
										<path class="st1" d="M154.5,256.3h-9c-0.5,0-0.9-0.4-0.9-0.9v-10.1c0-0.5,0.4-0.9,0.9-0.9h9c0.5,0,0.9,0.4,0.9,0.9v10.1
											C155.4,255.9,155,256.3,154.5,256.3z"/>
										<path class="st1" d="M139.4,256.3h-9c-0.5,0-0.9-0.4-0.9-0.9v-10.1c0-0.5,0.4-0.9,0.9-0.9h9c0.5,0,0.9,0.4,0.9,0.9v10.1
											C140.3,255.9,139.9,256.3,139.4,256.3z"/>
										<path class="st1" d="M169.6,256.3h-9c-0.5,0-0.9-0.4-0.9-0.9v-10.1c0-0.5,0.4-0.9,0.9-0.9h9c0.5,0,0.9,0.4,0.9,0.9v10.1
											C170.4,255.9,170,256.3,169.6,256.3z"/>
									</g>
									<g>
										<path class="st1" d="M154.5,270.7h-9c-0.5,0-0.9-0.4-0.9-0.9v-10.1c0-0.5,0.4-0.9,0.9-0.9h9c0.5,0,0.9,0.4,0.9,0.9v10.1
											C155.4,270.3,155,270.7,154.5,270.7z"/>
										<path class="st1" d="M139.4,270.7h-9c-0.5,0-0.9-0.4-0.9-0.9v-10.1c0-0.5,0.4-0.9,0.9-0.9h9c0.5,0,0.9,0.4,0.9,0.9v10.1
											C140.3,270.3,139.9,270.7,139.4,270.7z"/>
										<path class="st1" d="M169.6,270.7h-9c-0.5,0-0.9-0.4-0.9-0.9v-10.1c0-0.5,0.4-0.9,0.9-0.9h9c0.5,0,0.9,0.4,0.9,0.9v10.1
											C170.4,270.3,170,270.7,169.6,270.7z"/>
									</g>
									<g>
										<path class="st1" d="M154.5,285h-9c-0.5,0-0.9-0.4-0.9-0.9v-10.1c0-0.5,0.4-0.9,0.9-0.9h9c0.5,0,0.9,0.4,0.9,0.9v10.1
											C155.4,284.6,155,285,154.5,285z"/>
										<path class="st1" d="M139.4,285h-9c-0.5,0-0.9-0.4-0.9-0.9v-10.1c0-0.5,0.4-0.9,0.9-0.9h9c0.5,0,0.9,0.4,0.9,0.9v10.1
											C140.3,284.6,139.9,285,139.4,285z"/>
										<path class="st1" d="M169.6,285h-9c-0.5,0-0.9-0.4-0.9-0.9v-10.1c0-0.5,0.4-0.9,0.9-0.9h9c0.5,0,0.9,0.4,0.9,0.9v10.1
											C170.4,284.6,170,285,169.6,285z"/>
									</g>
								</g>
							</g>
							<g>
								<path class="st29" d="M48.2,300.9H-2v-58.2c0-1.3,1.1-2.4,2.4-2.4h45.4c1.3,0,2.4,1.1,2.4,2.4V300.9z"/>
								<g>
									<g>
										<path class="st1" d="M27.6,256.3h-9c-0.5,0-0.9-0.4-0.9-0.9v-10.1c0-0.5,0.4-0.9,0.9-0.9h9c0.5,0,0.9,0.4,0.9,0.9v10.1
											C28.5,255.9,28.1,256.3,27.6,256.3z"/>
										<path class="st1" d="M12.5,256.3h-9c-0.5,0-0.9-0.4-0.9-0.9v-10.1c0-0.5,0.4-0.9,0.9-0.9h9c0.5,0,0.9,0.4,0.9,0.9v10.1
											C13.4,255.9,13,256.3,12.5,256.3z"/>
										<path class="st1" d="M42.7,256.3h-9c-0.5,0-0.9-0.4-0.9-0.9v-10.1c0-0.5,0.4-0.9,0.9-0.9h9c0.5,0,0.9,0.4,0.9,0.9v10.1
											C43.6,255.9,43.2,256.3,42.7,256.3z"/>
									</g>
									<g>
										<path class="st1" d="M27.6,270.7h-9c-0.5,0-0.9-0.4-0.9-0.9v-10.1c0-0.5,0.4-0.9,0.9-0.9h9c0.5,0,0.9,0.4,0.9,0.9v10.1
											C28.5,270.3,28.1,270.7,27.6,270.7z"/>
										<path class="st1" d="M12.5,270.7h-9c-0.5,0-0.9-0.4-0.9-0.9v-10.1c0-0.5,0.4-0.9,0.9-0.9h9c0.5,0,0.9,0.4,0.9,0.9v10.1
											C13.4,270.3,13,270.7,12.5,270.7z"/>
										<path class="st1" d="M42.7,270.7h-9c-0.5,0-0.9-0.4-0.9-0.9v-10.1c0-0.5,0.4-0.9,0.9-0.9h9c0.5,0,0.9,0.4,0.9,0.9v10.1
											C43.6,270.3,43.2,270.7,42.7,270.7z"/>
									</g>
									<g>
										<path class="st1" d="M27.6,285h-9c-0.5,0-0.9-0.4-0.9-0.9v-10.1c0-0.5,0.4-0.9,0.9-0.9h9c0.5,0,0.9,0.4,0.9,0.9v10.1
											C28.5,284.6,28.1,285,27.6,285z"/>
										<path class="st1" d="M12.5,285h-9c-0.5,0-0.9-0.4-0.9-0.9v-10.1c0-0.5,0.4-0.9,0.9-0.9h9c0.5,0,0.9,0.4,0.9,0.9v10.1
											C13.4,284.6,13,285,12.5,285z"/>
										<path class="st1" d="M42.7,285h-9c-0.5,0-0.9-0.4-0.9-0.9v-10.1c0-0.5,0.4-0.9,0.9-0.9h9c0.5,0,0.9,0.4,0.9,0.9v10.1
											C43.6,284.6,43.2,285,42.7,285z"/>
									</g>
								</g>
							</g>
						</g>
					</g>
				</g>
			</g>
			<g>
				<text transform="matrix(1 0 0 1 27.186 54.9531)"><tspan x="0" y="0" class="st1 st9 st10">お客様に最適</tspan><tspan x="48" y="0" class="st1 st9 st10 st11">な</tspan><tspan x="58" y="0" class="st1 st9 st10">WE</tspan><tspan x="71.2" y="0" class="st1 st9 st10 st11">B</tspan><tspan x="78.9" y="0" class="st1 st9 st10">運用を実行</tspan><tspan x="0" y="14" class="st1 st9 st10">しています。アクセス解析、SEO</tspan><tspan x="0" y="28" class="st1 st9 st10">順位測定レポート、改善レポート</tspan><tspan x="120" y="28" class="st1 st9 st10 st12">、</tspan><tspan x="0" y="42" class="st1 st9 st10">広告運用などでサイトの目的達成</tspan><tspan x="0" y="56" class="st1 st9 st10">をサポートする業務です</tspan><tspan x="88" y="56" class="st1 st9 st10 st12">。</tspan><tspan x="0" y="84" class="st1 st9 st10">ペルソナ設定やカスタマージャー</tspan><tspan x="0" y="98" class="st1 st9 st10">にマップを制作し、お客様の目的</tspan><tspan x="0" y="112" class="st1 st9 st10">達成の為のプロセスを企画してい</tspan><tspan x="0" y="126" class="st1 st9 st10">ます</tspan><tspan x="16" y="126" class="st1 st9 st10 st12">。</tspan></text>
			</g>
		</g>
	</g>
</g>
</svg>
