<?xml version="1.0" encoding="utf-8"?>
<!-- Generator: Adobe Illustrator 21.0.2, SVG Export Plug-In . SVG Version: 6.00 Build 0)  -->
<svg version="1.1" id="Main_Layer" xmlns="http://www.w3.org/2000/svg" xmlns:xlink="http://www.w3.org/1999/xlink" x="0px" y="0px"
	 viewBox="0 0 491 354.4" style="enable-background:new 0 0 491 354.4;" xml:space="preserve">
<style type="text/css">
	.st0{opacity:0.9;fill:#FFFFFF;stroke:#010B1D;stroke-width:2;stroke-miterlimit:10;}
	.st1{fill:#FFFFFF;stroke:#3E3A39;stroke-width:2.8361;stroke-linecap:round;stroke-linejoin:round;stroke-miterlimit:10;}
	.st2{fill:#3E3A39;}
	.st3{font-family:'NewRodinPro-B';}
	.st4{font-size:12px;}
	.st5{letter-spacing:-6;}
	.st6{display:none;}
	.st7{display:inline;fill:#FFFFFF;stroke:#3E3A39;stroke-width:1.5312;stroke-miterlimit:10;}
	.st8{display:inline;}
	.st9{clip-path:url(#SVGID_2_);fill:none;stroke:#3E3A39;stroke-width:1.5312;stroke-miterlimit:10;}
	.st10{clip-path:url(#SVGID_2_);fill:none;stroke:#3E3A39;stroke-width:1.6444;stroke-miterlimit:10;}
	.st11{fill:#FFFFFF;stroke:#3E3A39;stroke-width:1.5312;stroke-miterlimit:10;}
	.st12{clip-path:url(#SVGID_4_);fill:none;stroke:#3E3A39;stroke-width:1.5312;stroke-miterlimit:10;}
	.st13{clip-path:url(#SVGID_4_);fill:none;stroke:#3E3A39;stroke-width:1.6444;stroke-miterlimit:10;}
	.st14{display:inline;fill:#FFFFFF;stroke:#3E3A39;stroke-linecap:round;stroke-linejoin:round;stroke-miterlimit:10;}
	.st15{fill:#FFFFFF;stroke:#3E3A39;stroke-linecap:round;stroke-linejoin:round;stroke-miterlimit:10;}
	.st16{clip-path:url(#SVGID_6_);fill:none;stroke:#3E3A39;stroke-width:1.5312;stroke-miterlimit:10;}
	.st17{clip-path:url(#SVGID_6_);fill:none;stroke:#3E3A39;stroke-width:1.6444;stroke-miterlimit:10;}
	.st18{font-family:'NewRodinPro-L';}
	.st19{font-size:8px;}
	.st20{letter-spacing:2;}
	.st21{letter-spacing:-4;}
	.st22{fill:#ECECF5;stroke:#3E3A39;stroke-width:1.0698;stroke-linecap:round;stroke-linejoin:round;stroke-miterlimit:10;}
	.st23{fill:#FFFFFF;stroke:#3E3A39;stroke-width:1.0698;stroke-linecap:round;stroke-linejoin:round;stroke-miterlimit:10;}
	.st24{fill:#635568;stroke:#3E3A39;stroke-linecap:round;stroke-linejoin:round;stroke-miterlimit:10;}
	.st25{fill:#ECECF5;}
	.st26{fill:#FFFFFF;}
	.st27{fill:none;stroke:#3E3A39;stroke-linecap:round;stroke-linejoin:round;stroke-miterlimit:10;}
	.st28{fill:#FFFFFF;stroke:#3E3A39;stroke-linejoin:round;stroke-miterlimit:10;}
	.st29{fill:#433B4B;}
	.st30{fill:#635568;}
	.st31{fill:#ECECF5;stroke:#3E3A39;stroke-linecap:round;stroke-linejoin:round;stroke-miterlimit:10;}
	.st32{fill:#FFFFFF;stroke:#3E3A39;stroke-width:1.4609;stroke-miterlimit:10;}
	.st33{fill:#FFFFFF;stroke:#3E3A39;stroke-width:1.3095;stroke-miterlimit:10;}
	.st34{fill:#FFFFFF;stroke:#3E3A39;stroke-width:1.4247;stroke-miterlimit:10;}
	.st35{fill:none;stroke:#3E3A39;stroke-width:1.2615;stroke-miterlimit:10;}
	.st36{clip-path:url(#_x31__1_);}
	.st37{fill:#FFFFFF;stroke:#3E3A39;stroke-width:1.205;stroke-miterlimit:10;}
	.st38{fill:none;stroke:#3E3A39;stroke-width:2.8361;stroke-linecap:round;stroke-linejoin:round;stroke-miterlimit:10;}
	.st39{fill:#FFFFFF;stroke:#3E3A39;stroke-width:1.3257;stroke-miterlimit:10;}
	.st40{font-family:'RoNOWStd-MU';}
	.st41{fill:none;stroke:#3E3A39;stroke-width:1.3095;stroke-miterlimit:10;}
	.st42{fill:#B3EDFF;stroke:#3E3A39;stroke-width:0.6738;stroke-miterlimit:10;}
	.st43{fill:#64C8FF;stroke:#3E3A39;stroke-width:0.6738;stroke-miterlimit:10;}
	.st44{fill:#B3EDFF;stroke:#3E3A39;stroke-width:0.3369;stroke-miterlimit:10;}
	.st45{fill:#B3EDFF;stroke:#3E3A39;stroke-width:0.5774;stroke-miterlimit:10;}
	.st46{fill:#64C8FF;stroke:#3E3A39;stroke-width:0.5774;stroke-miterlimit:10;}
	.st47{fill:#B3EDFF;stroke:#3E3A39;stroke-width:0.2887;stroke-miterlimit:10;}
</style>
<g id="Sample_PopUp">
	<g>
		<path class="st0" d="M491,344.4c0,5.5-4.5,10-10,10H10c-5.5,0-10-4.5-10-10V10C0,4.5,4.5,0,10,0h471c5.5,0,10,4.5,10,10V344.4z"/>
		<g id="Guide_4_">
			<path id="_x33__9_" class="st1" d="M470.1,346.1H358.5c-7.2,0-13.1-5.9-13.1-13.1V21.4c0-7.2,5.9-13.1,13.1-13.1h111.5
				c7.2,0,13.1,5.9,13.1,13.1V333C483.2,340.3,477.3,346.1,470.1,346.1z"/>
			<path id="_x32__9_" class="st1" d="M302.9,346.1H191.4c-7.2,0-13.1-5.9-13.1-13.1V21.4c0-7.2,5.9-13.1,13.1-13.1h111.5
				c7.2,0,13.1,5.9,13.1,13.1V333C316,340.3,310.2,346.1,302.9,346.1z"/>
			<path id="_x31__4_" class="st1" d="M135.4,346.1H23.9c-7.2,0-13.1-5.9-13.1-13.1V21.4c0-7.2,5.9-13.1,13.1-13.1h111.5
				c7.2,0,13.1,5.9,13.1,13.1V333C148.5,340.3,142.7,346.1,135.4,346.1z"/>
		</g>
		<g id="Web">
			<g>
				<text transform="matrix(1 0 0 1 390.1352 30.9756)"><tspan x="0" y="0" class="st2 st3 st4">「WEB</tspan><tspan x="36.3" y="0" class="st2 st3 st4 st5">」</tspan></text>
			</g>
			<g id="Globe" class="st6">
				<circle class="st7" cx="414.3" cy="233.6" r="27.3"/>
				<g class="st8">
					<defs>
						<circle id="SVGID_1_" cx="414.3" cy="233.6" r="27.3"/>
					</defs>
					<clipPath id="SVGID_2_">
						<use xlink:href="#SVGID_1_"  style="overflow:visible;"/>
					</clipPath>
					<circle class="st9" cx="419.6" cy="233.6" r="27.3"/>
					<circle class="st9" cx="408.9" cy="233.6" r="27.3"/>
					<ellipse class="st10" cx="428.1" cy="234.1" rx="27.3" ry="31.4"/>
					<ellipse class="st10" cx="401.2" cy="234.3" rx="27.3" ry="31.4"/>
					<ellipse class="st10" cx="414" cy="233.9" rx="3.9" ry="27"/>
				</g>
			</g>
			<g id="web3" class="st6">
				<g id="Globe_2_" class="st8">
					<circle class="st11" cx="416.3" cy="299.6" r="27.3"/>
					<g>
						<defs>
							<circle id="SVGID_3_" cx="416.3" cy="299.6" r="27.3"/>
						</defs>
						<clipPath id="SVGID_4_">
							<use xlink:href="#SVGID_3_"  style="overflow:visible;"/>
						</clipPath>
						<circle class="st12" cx="421.6" cy="299.6" r="27.3"/>
						<circle class="st12" cx="410.9" cy="299.6" r="27.3"/>
						<ellipse class="st13" cx="430.1" cy="300.1" rx="27.3" ry="31.4"/>
						<ellipse class="st13" cx="403.2" cy="300.3" rx="27.3" ry="31.4"/>
						<ellipse class="st13" cx="416" cy="299.9" rx="3.9" ry="27"/>
					</g>
				</g>
				<path class="st14" d="M389.6,292.1v3.5l-10.3,10.5h17.3v-8.5l17.4,8.5l-17.4,14.3v-7.3h-23.5c0,0-12.9-0.3-0.9-9.3
					C372.2,303.9,384.3,295.9,389.6,292.1z"/>
				<path class="st14" d="M442.9,292.1l0.8,3.5l9.2,10.5h-17.2v-8.5l-17.4,8.5l17.4,14.3v-7.3H459c0,0,13-0.3,1-9.3
					C460,303.9,447.9,295.9,442.9,292.1z"/>
			</g>
			<g id="web2">
				<path class="st15" d="M446.1,306.6l0-2l14.3-13.8l-16.8,0.4l0.2,8.2l-17.6-8.1l17-14.7l0.2,7.5l23-0.6c0,0,12.2-1,0.4,8.2
					C466.8,292,452.1,304,446.1,306.6z"/>
				<g id="Globe_1_">
					<circle class="st11" cx="419.3" cy="300.6" r="27.3"/>
					<g>
						<defs>
							<circle id="SVGID_5_" cx="419.3" cy="300.6" r="27.3"/>
						</defs>
						<clipPath id="SVGID_6_">
							<use xlink:href="#SVGID_5_"  style="overflow:visible;"/>
						</clipPath>
						<circle class="st16" cx="424.6" cy="300.6" r="27.3"/>
						<circle class="st16" cx="413.9" cy="300.6" r="27.3"/>
						<ellipse class="st17" cx="433.1" cy="301.1" rx="27.3" ry="31.4"/>
						<ellipse class="st17" cx="406.2" cy="301.3" rx="27.3" ry="31.4"/>
						<ellipse class="st17" cx="419" cy="300.9" rx="3.9" ry="27"/>
					</g>
				</g>
				<path class="st15" d="M391.6,298.1v3.5l-9.3,10.5h17.3v-8.5l17.4,8.5l-17.4,14.3v-7.3h-23.5c0,0-12.9-0.3-0.9-9.3
					C375.2,309.9,386.3,301.9,391.6,298.1z"/>
			</g>
			<g>
				<text transform="matrix(1 0 0 1 354.2983 48.9386)"><tspan x="0" y="0" class="st2 st18 st19">お客様のニーズ、ターゲット、予</tspan><tspan x="0" y="14" class="st2 st18 st19">算に応じ</tspan><tspan x="32" y="14" class="st2 st18 st19 st20">て</tspan><tspan x="42" y="14" class="st2 st18 st19">WE</tspan><tspan x="53.6" y="14" class="st2 st18 st19 st20">B</tspan><tspan x="60.2" y="14" class="st2 st18 st19">サイトを制作し</tspan><tspan x="0" y="28" class="st2 st18 st19">ており、スマートフォンアプリの</tspan><tspan x="0" y="42" class="st2 st18 st19">開発や、WE</tspan><tspan x="43.6" y="42" class="st2 st18 st19 st20">B</tspan><tspan x="50.2" y="42" class="st2 st18 st19">システム開発も弊</tspan><tspan x="0" y="56" class="st2 st18 st19">社得意分野です</tspan><tspan x="56" y="56" class="st2 st18 st19 st21">。</tspan><tspan x="0" y="84" class="st2 st18 st19">お客様の目的に合わせたウェブソ</tspan><tspan x="0" y="98" class="st2 st18 st19">リューションを提供しています</tspan><tspan x="112" y="98" class="st2 st18 st19 st21">。</tspan></text>
			</g>
		</g>
		<g id="DTP">
			<g>
				<text transform="matrix(1 0 0 1 225.4546 30.9756)"><tspan x="0" y="0" class="st2 st3 st4">「DTP</tspan><tspan x="33.7" y="0" class="st2 st3 st4 st5">」</tspan></text>
			</g>
			<g id="pamphlet">
				<g id="books_11_">
					<g>
						
							<rect x="279.5" y="260.5" transform="matrix(0.9972 7.414050e-02 -7.414050e-02 0.9972 21.3071 -20.677)" class="st22" width="19.4" height="32.3"/>
						<g>
							<path class="st2" d="M295.3,271l-11.3-0.8c-0.4,0-0.7-0.4-0.7-0.8l0,0c0-0.4,0.4-0.7,0.8-0.7l11.3,0.8c0.4,0,0.7,0.4,0.7,0.8
								l0,0C296,270.8,295.7,271.1,295.3,271z"/>
							<path class="st2" d="M294.9,275.7l-11.3-0.8c-0.4,0-0.7-0.4-0.7-0.8l0,0c0-0.4,0.4-0.7,0.8-0.7l11.3,0.8
								c0.4,0,0.7,0.4,0.7,0.8l0,0C295.6,275.4,295.3,275.7,294.9,275.7z"/>
							<path class="st2" d="M294.5,280.3l-11.3-0.8c-0.4,0-0.7-0.4-0.7-0.8l0,0c0-0.4,0.4-0.7,0.8-0.7l11.3,0.8
								c0.4,0,0.7,0.4,0.7,0.8l0,0C295.3,280,294.9,280.3,294.5,280.3z"/>
						</g>
					</g>
				</g>
				<g id="books_6_">
					<g>
						
							<rect x="262.2" y="259.5" transform="matrix(0.9985 -5.497570e-02 5.497570e-02 0.9985 -14.7403 15.3639)" class="st23" width="19.4" height="32.3"/>
						<g>
							<path class="st2" d="M277.2,269.2l-11.3,0.6c-0.4,0-0.7-0.3-0.8-0.7l0,0c0-0.4,0.3-0.7,0.7-0.8l11.3-0.6
								c0.4,0,0.7,0.3,0.8,0.7l0,0C277.9,268.9,277.6,269.2,277.2,269.2z"/>
							<path class="st2" d="M277.4,273.9l-11.3,0.6c-0.4,0-0.7-0.3-0.8-0.7l0,0c0-0.4,0.3-0.7,0.7-0.8l11.3-0.6
								c0.4,0,0.7,0.3,0.8,0.7l0,0C278.1,273.5,277.8,273.9,277.4,273.9z"/>
							<path class="st2" d="M277.7,278.5l-11.3,0.6c-0.4,0-0.7-0.3-0.8-0.7l0,0c0-0.4,0.3-0.7,0.7-0.8l11.3-0.6
								c0.4,0,0.7,0.3,0.8,0.7l0,0C278.4,278.2,278.1,278.5,277.7,278.5z"/>
						</g>
					</g>
				</g>
			</g>
			<g id="books_3_">
				<path class="st24" d="M298.4,301.1l1.3,1.3v28.3c0,0-10-5.4-19.8,0c0,0-7.2-5.6-20.2,0v-28l1.1-1.5H298.4z"/>
				<path class="st25" d="M279.8,297.4c0,0,13.3-3.5,18.3,0.8v28.4c0,0-6.2-4.3-18-1L279.8,297.4z"/>
				<path class="st26" d="M261.4,298.1c0,0,8.7-4.5,18.7-0.7v28.3c0,0-11.9-3.3-19,1.1L261.4,298.1z"/>
				<path class="st27" d="M297.9,326.8c0,0-4.2-2.5-8.8-2.4c-4.8,0.1-10.2,1.9-9.3,1.6c0,0-4.9-1.6-9.6-1.6s-9.1,2.4-9.1,2.4v-28.6
					c0,0,5.6-2.4,9.1-2.4c3.5,0,9.6,1.6,9.6,1.6s5.1-1.6,9.3-1.6c4.2,0,8.8,2.4,8.8,2.4V326.8z"/>
				<line class="st28" x1="279.6" y1="325.6" x2="279.6" y2="297.6"/>
				<path class="st2" d="M275.7,305.2h-10.6c-0.4,0-0.7-0.3-0.7-0.7l0,0c0-0.4,0.3-0.7,0.7-0.7h10.6c0.4,0,0.7,0.3,0.7,0.7l0,0
					C276.4,304.9,276.1,305.2,275.7,305.2z"/>
				<path class="st2" d="M275.7,309.5h-10.6c-0.4,0-0.7-0.3-0.7-0.7l0,0c0-0.4,0.3-0.7,0.7-0.7h10.6c0.4,0,0.7,0.3,0.7,0.7l0,0
					C276.4,309.2,276.1,309.5,275.7,309.5z"/>
				<path class="st2" d="M275.7,313.9h-10.6c-0.4,0-0.7-0.3-0.7-0.7l0,0c0-0.4,0.3-0.7,0.7-0.7h10.6c0.4,0,0.7,0.3,0.7,0.7l0,0
					C276.4,313.6,276.1,313.9,275.7,313.9z"/>
				<path class="st2" d="M294.1,305.2h-10.6c-0.4,0-0.7-0.3-0.7-0.7l0,0c0-0.4,0.3-0.7,0.7-0.7h10.6c0.4,0,0.7,0.3,0.7,0.7l0,0
					C294.8,304.9,294.5,305.2,294.1,305.2z"/>
				<path class="st2" d="M294.1,309.5h-10.6c-0.4,0-0.7-0.3-0.7-0.7l0,0c0-0.4,0.3-0.7,0.7-0.7h10.6c0.4,0,0.7,0.3,0.7,0.7l0,0
					C294.8,309.2,294.5,309.5,294.1,309.5z"/>
				<path class="st2" d="M294.1,313.9h-10.6c-0.4,0-0.7-0.3-0.7-0.7l0,0c0-0.4,0.3-0.7,0.7-0.7h10.6c0.4,0,0.7,0.3,0.7,0.7l0,0
					C294.8,313.6,294.5,313.9,294.1,313.9z"/>
			</g>
			<g id="mac_6_">
				<path class="st15" d="M253.3,295.8h-55c-0.6,0-1.1-0.5-1.1-1.1v-38c0-0.6,0.5-1.1,1.1-1.1h55c0.6,0,1.1,0.5,1.1,1.1v38
					C254.4,295.3,253.9,295.8,253.3,295.8z"/>
				<path class="st29" d="M252,289.1h-52.2c-0.8,0-1.5-0.7-1.5-1.5v-29.3c0-0.8,0.7-1.5,1.5-1.5H252c0.8,0,1.5,0.7,1.5,1.5v29.3
					C253.5,288.4,252.8,289.1,252,289.1z"/>
				<rect x="200.3" y="259.2" class="st30" width="50.7" height="26.2"/>
				<polygon class="st31" points="232.9,295.9 220,295.9 216,308.2 237,308.2 				"/>
				<polygon class="st15" points="254.4,323.7 197.3,323.7 200.5,313.3 251.1,313.3 				"/>
				<g id="keyboard_1_">
					<path class="st2" d="M225.9,322.2h-20.3c-0.3,0-0.6-0.3-0.6-0.6l0,0c0-0.3,0.3-0.6,0.6-0.6h20.3c0.3,0,0.6,0.3,0.6,0.6l0,0
						C226.5,321.9,226.2,322.2,225.9,322.2z"/>
					<path class="st2" d="M203.8,322.2L203.8,322.2c0.3,0,0.6-0.3,0.6-0.6l0,0c0-0.3-0.3-0.6-0.6-0.6l0,0c-0.3,0-0.6,0.3-0.6,0.6
						l0,0C203.2,321.9,203.5,322.2,203.8,322.2z"/>
					<path class="st2" d="M202.2,322.2L202.2,322.2c0.3,0,0.6-0.3,0.6-0.6l0,0c0-0.3-0.3-0.6-0.6-0.6l0,0c-0.3,0-0.6,0.3-0.6,0.6
						l0,0C201.6,321.9,201.8,322.2,202.2,322.2z"/>
					<path class="st2" d="M200.6,322.2L200.6,322.2c0.3,0,0.6-0.3,0.6-0.6l0,0c0-0.3-0.3-0.6-0.6-0.6l0,0c-0.3,0-0.6,0.3-0.6,0.6
						l0,0C199.9,321.9,200.2,322.2,200.6,322.2z"/>
					<path class="st2" d="M231.2,322.2L231.2,322.2c0.3,0,0.6-0.3,0.6-0.6l0,0c0-0.3-0.3-0.6-0.6-0.6l0,0c-0.3,0-0.6,0.3-0.6,0.6
						l0,0C230.6,321.9,230.9,322.2,231.2,322.2z"/>
					<path class="st2" d="M229.6,322.2L229.6,322.2c0.3,0,0.6-0.3,0.6-0.6l0,0c0-0.3-0.3-0.6-0.6-0.6l0,0c-0.3,0-0.6,0.3-0.6,0.6
						l0,0C229,321.9,229.3,322.2,229.6,322.2z"/>
					<path class="st2" d="M228,322.2L228,322.2c0.3,0,0.6-0.3,0.6-0.6l0,0c0-0.3-0.3-0.6-0.6-0.6l0,0c-0.3,0-0.6,0.3-0.6,0.6l0,0
						C227.4,321.9,227.7,322.2,228,322.2z"/>
					<path class="st2" d="M231.3,320.4L231.3,320.4c0.3,0,0.6-0.3,0.6-0.6l0,0c0-0.3-0.3-0.6-0.6-0.6l0,0c-0.3,0-0.6,0.3-0.6,0.6
						l0,0C230.7,320.1,230.9,320.4,231.3,320.4z"/>
					<path class="st2" d="M229.7,320.4L229.7,320.4c0.3,0,0.6-0.3,0.6-0.6l0,0c0-0.3-0.3-0.6-0.6-0.6l0,0c-0.3,0-0.6,0.3-0.6,0.6
						l0,0C229,320.1,229.3,320.4,229.7,320.4z"/>
					<path class="st2" d="M228,320.4L228,320.4c0.3,0,0.6-0.3,0.6-0.6l0,0c0-0.3-0.3-0.6-0.6-0.6l0,0c-0.3,0-0.6,0.3-0.6,0.6l0,0
						C227.4,320.1,227.7,320.4,228,320.4z"/>
					<path class="st2" d="M226.2,320.4L226.2,320.4c0.3,0,0.6-0.3,0.6-0.6l0,0c0-0.3-0.3-0.6-0.6-0.6l0,0c-0.3,0-0.6,0.3-0.6,0.6
						l0,0C225.6,320.1,225.9,320.4,226.2,320.4z"/>
					<path class="st2" d="M224.6,320.4L224.6,320.4c0.3,0,0.6-0.3,0.6-0.6l0,0c0-0.3-0.3-0.6-0.6-0.6l0,0c-0.3,0-0.6,0.3-0.6,0.6
						l0,0C224,320.1,224.3,320.4,224.6,320.4z"/>
					<path class="st2" d="M223,320.4L223,320.4c0.3,0,0.6-0.3,0.6-0.6l0,0c0-0.3-0.3-0.6-0.6-0.6l0,0c-0.3,0-0.6,0.3-0.6,0.6l0,0
						C222.4,320.1,222.7,320.4,223,320.4z"/>
					<path class="st2" d="M221.1,320.4L221.1,320.4c0.3,0,0.6-0.3,0.6-0.6l0,0c0-0.3-0.3-0.6-0.6-0.6l0,0c-0.3,0-0.6,0.3-0.6,0.6
						l0,0C220.5,320.1,220.8,320.4,221.1,320.4z"/>
					<path class="st2" d="M219.5,320.4L219.5,320.4c0.3,0,0.6-0.3,0.6-0.6l0,0c0-0.3-0.3-0.6-0.6-0.6l0,0c-0.3,0-0.6,0.3-0.6,0.6
						l0,0C218.9,320.1,219.2,320.4,219.5,320.4z"/>
					<path class="st2" d="M217.9,320.4L217.9,320.4c0.3,0,0.6-0.3,0.6-0.6l0,0c0-0.3-0.3-0.6-0.6-0.6l0,0c-0.3,0-0.6,0.3-0.6,0.6
						l0,0C217.3,320.1,217.6,320.4,217.9,320.4z"/>
					<path class="st2" d="M216.1,320.4L216.1,320.4c0.3,0,0.6-0.3,0.6-0.6l0,0c0-0.3-0.3-0.6-0.6-0.6l0,0c-0.3,0-0.6,0.3-0.6,0.6
						l0,0C215.5,320.1,215.8,320.4,216.1,320.4z"/>
					<path class="st2" d="M214.5,320.4L214.5,320.4c0.3,0,0.6-0.3,0.6-0.6l0,0c0-0.3-0.3-0.6-0.6-0.6l0,0c-0.3,0-0.6,0.3-0.6,0.6
						l0,0C213.9,320.1,214.2,320.4,214.5,320.4z"/>
					<path class="st2" d="M212.9,320.4L212.9,320.4c0.3,0,0.6-0.3,0.6-0.6l0,0c0-0.3-0.3-0.6-0.6-0.6l0,0c-0.3,0-0.6,0.3-0.6,0.6
						l0,0C212.3,320.1,212.5,320.4,212.9,320.4z"/>
					<path class="st2" d="M211,320.4L211,320.4c0.3,0,0.6-0.3,0.6-0.6l0,0c0-0.3-0.3-0.6-0.6-0.6l0,0c-0.3,0-0.6,0.3-0.6,0.6l0,0
						C210.4,320.1,210.7,320.4,211,320.4z"/>
					<path class="st2" d="M209.4,320.4L209.4,320.4c0.3,0,0.6-0.3,0.6-0.6l0,0c0-0.3-0.3-0.6-0.6-0.6l0,0c-0.3,0-0.6,0.3-0.6,0.6
						l0,0C208.8,320.1,209.1,320.4,209.4,320.4z"/>
					<path class="st2" d="M207.8,320.4L207.8,320.4c0.3,0,0.6-0.3,0.6-0.6l0,0c0-0.3-0.3-0.6-0.6-0.6l0,0c-0.3,0-0.6,0.3-0.6,0.6
						l0,0C207.2,320.1,207.4,320.4,207.8,320.4z"/>
					<path class="st2" d="M206,320.4L206,320.4c0.3,0,0.6-0.3,0.6-0.6l0,0c0-0.3-0.3-0.6-0.6-0.6l0,0c-0.3,0-0.6,0.3-0.6,0.6l0,0
						C205.4,320.1,205.7,320.4,206,320.4z"/>
					<path class="st2" d="M204.4,320.4L204.4,320.4c0.3,0,0.6-0.3,0.6-0.6l0,0c0-0.3-0.3-0.6-0.6-0.6l0,0c-0.3,0-0.6,0.3-0.6,0.6
						l0,0C203.8,320.1,204,320.4,204.4,320.4z"/>
					<path class="st2" d="M202.7,320.4L202.7,320.4c0.3,0,0.6-0.3,0.6-0.6l0,0c0-0.3-0.3-0.6-0.6-0.6l0,0c-0.3,0-0.6,0.3-0.6,0.6
						l0,0C202.1,320.1,202.4,320.4,202.7,320.4z"/>
					<path class="st2" d="M200.9,320.4L200.9,320.4c0.3,0,0.6-0.3,0.6-0.6l0,0c0-0.3-0.3-0.6-0.6-0.6l0,0c-0.3,0-0.6,0.3-0.6,0.6
						l0,0C200.3,320.1,200.6,320.4,200.9,320.4z"/>
					<path class="st2" d="M231.9,318.5L231.9,318.5c0.3,0,0.6-0.3,0.6-0.6l0,0c0-0.3-0.3-0.6-0.6-0.6l0,0c-0.3,0-0.6,0.3-0.6,0.6
						l0,0C231.3,318.2,231.5,318.5,231.9,318.5z"/>
					<path class="st2" d="M230.3,318.5L230.3,318.5c0.3,0,0.6-0.3,0.6-0.6l0,0c0-0.3-0.3-0.6-0.6-0.6l0,0c-0.3,0-0.6,0.3-0.6,0.6
						l0,0C229.7,318.2,229.9,318.5,230.3,318.5z"/>
					<path class="st2" d="M228.6,318.5L228.6,318.5c0.3,0,0.6-0.3,0.6-0.6l0,0c0-0.3-0.3-0.6-0.6-0.6l0,0c-0.3,0-0.6,0.3-0.6,0.6
						l0,0C228,318.2,228.3,318.5,228.6,318.5z"/>
					<path class="st2" d="M226.9,318.5L226.9,318.5c0.3,0,0.6-0.3,0.6-0.6l0,0c0-0.3-0.3-0.6-0.6-0.6l0,0c-0.3,0-0.6,0.3-0.6,0.6
						l0,0C226.2,318.2,226.5,318.5,226.9,318.5z"/>
					<path class="st2" d="M225.2,318.5L225.2,318.5c0.3,0,0.6-0.3,0.6-0.6l0,0c0-0.3-0.3-0.6-0.6-0.6l0,0c-0.3,0-0.6,0.3-0.6,0.6
						l0,0C224.6,318.2,224.9,318.5,225.2,318.5z"/>
					<path class="st2" d="M223.6,318.5L223.6,318.5c0.3,0,0.6-0.3,0.6-0.6l0,0c0-0.3-0.3-0.6-0.6-0.6l0,0c-0.3,0-0.6,0.3-0.6,0.6
						l0,0C223,318.2,223.3,318.5,223.6,318.5z"/>
					<path class="st2" d="M221.8,318.5L221.8,318.5c0.3,0,0.6-0.3,0.6-0.6l0,0c0-0.3-0.3-0.6-0.6-0.6l0,0c-0.3,0-0.6,0.3-0.6,0.6
						l0,0C221.1,318.2,221.4,318.5,221.8,318.5z"/>
					<path class="st2" d="M220.1,318.5L220.1,318.5c0.3,0,0.6-0.3,0.6-0.6l0,0c0-0.3-0.3-0.6-0.6-0.6l0,0c-0.3,0-0.6,0.3-0.6,0.6
						l0,0C219.5,318.2,219.8,318.5,220.1,318.5z"/>
					<path class="st2" d="M218.5,318.5L218.5,318.5c0.3,0,0.6-0.3,0.6-0.6l0,0c0-0.3-0.3-0.6-0.6-0.6l0,0c-0.3,0-0.6,0.3-0.6,0.6
						l0,0C217.9,318.2,218.2,318.5,218.5,318.5z"/>
					<path class="st2" d="M216.7,318.5L216.7,318.5c0.3,0,0.6-0.3,0.6-0.6l0,0c0-0.3-0.3-0.6-0.6-0.6l0,0c-0.3,0-0.6,0.3-0.6,0.6
						l0,0C216.1,318.2,216.4,318.5,216.7,318.5z"/>
					<path class="st2" d="M215.1,318.5L215.1,318.5c0.3,0,0.6-0.3,0.6-0.6l0,0c0-0.3-0.3-0.6-0.6-0.6l0,0c-0.3,0-0.6,0.3-0.6,0.6
						l0,0C214.5,318.2,214.8,318.5,215.1,318.5z"/>
					<path class="st2" d="M213.5,318.5L213.5,318.5c0.3,0,0.6-0.3,0.6-0.6l0,0c0-0.3-0.3-0.6-0.6-0.6l0,0c-0.3,0-0.6,0.3-0.6,0.6
						l0,0C212.9,318.2,213.1,318.5,213.5,318.5z"/>
					<path class="st2" d="M211.6,318.5L211.6,318.5c0.3,0,0.6-0.3,0.6-0.6l0,0c0-0.3-0.3-0.6-0.6-0.6l0,0c-0.3,0-0.6,0.3-0.6,0.6
						l0,0C211,318.2,211.3,318.5,211.6,318.5z"/>
					<path class="st2" d="M210,318.5L210,318.5c0.3,0,0.6-0.3,0.6-0.6l0,0c0-0.3-0.3-0.6-0.6-0.6l0,0c-0.3,0-0.6,0.3-0.6,0.6l0,0
						C209.4,318.2,209.7,318.5,210,318.5z"/>
					<path class="st2" d="M208.4,318.5L208.4,318.5c0.3,0,0.6-0.3,0.6-0.6l0,0c0-0.3-0.3-0.6-0.6-0.6l0,0c-0.3,0-0.6,0.3-0.6,0.6
						l0,0C207.8,318.2,208.1,318.5,208.4,318.5z"/>
					<path class="st2" d="M206.6,318.5L206.6,318.5c0.3,0,0.6-0.3,0.6-0.6l0,0c0-0.3-0.3-0.6-0.6-0.6l0,0c-0.3,0-0.6,0.3-0.6,0.6
						l0,0C206,318.2,206.3,318.5,206.6,318.5z"/>
					<path class="st2" d="M205,318.5L205,318.5c0.3,0,0.6-0.3,0.6-0.6l0,0c0-0.3-0.3-0.6-0.6-0.6l0,0c-0.3,0-0.6,0.3-0.6,0.6l0,0
						C204.4,318.2,204.6,318.5,205,318.5z"/>
					<path class="st2" d="M203.4,318.5L203.4,318.5c0.3,0,0.6-0.3,0.6-0.6l0,0c0-0.3-0.3-0.6-0.6-0.6l0,0c-0.3,0-0.6,0.3-0.6,0.6
						l0,0C202.7,318.2,203,318.5,203.4,318.5z"/>
					<path class="st2" d="M201.5,318.5L201.5,318.5c0.3,0,0.6-0.3,0.6-0.6l0,0c0-0.3-0.3-0.6-0.6-0.6l0,0c-0.3,0-0.6,0.3-0.6,0.6
						l0,0C200.9,318.2,201.2,318.5,201.5,318.5z"/>
					<path class="st2" d="M232.4,316.6L232.4,316.6c0.3,0,0.6-0.3,0.6-0.6l0,0c0-0.3-0.3-0.6-0.6-0.6l0,0c-0.3,0-0.6,0.3-0.6,0.6
						l0,0C231.7,316.3,232,316.6,232.4,316.6z"/>
					<path class="st2" d="M230.7,316.6L230.7,316.6c0.3,0,0.6-0.3,0.6-0.6l0,0c0-0.3-0.3-0.6-0.6-0.6l0,0c-0.3,0-0.6,0.3-0.6,0.6
						l0,0C230.1,316.3,230.4,316.6,230.7,316.6z"/>
					<path class="st2" d="M229.1,316.6L229.1,316.6c0.3,0,0.6-0.3,0.6-0.6l0,0c0-0.3-0.3-0.6-0.6-0.6l0,0c-0.3,0-0.6,0.3-0.6,0.6
						l0,0C228.5,316.3,228.8,316.6,229.1,316.6z"/>
					<path class="st2" d="M238.7,316.6L238.7,316.6c0.3,0,0.6-0.3,0.6-0.6l0,0c0-0.3-0.3-0.6-0.6-0.6l0,0c-0.3,0-0.6,0.3-0.6,0.6
						l0,0C238.1,316.3,238.4,316.6,238.7,316.6z"/>
					<path class="st2" d="M237.1,316.6L237.1,316.6c0.3,0,0.6-0.3,0.6-0.6l0,0c0-0.3-0.3-0.6-0.6-0.6l0,0c-0.3,0-0.6,0.3-0.6,0.6
						l0,0C236.5,316.3,236.8,316.6,237.1,316.6z"/>
					<path class="st2" d="M235.5,316.6L235.5,316.6c0.3,0,0.6-0.3,0.6-0.6l0,0c0-0.3-0.3-0.6-0.6-0.6l0,0c-0.3,0-0.6,0.3-0.6,0.6
						l0,0C234.9,316.3,235.2,316.6,235.5,316.6z"/>
					<path class="st2" d="M227.3,316.6L227.3,316.6c0.3,0,0.6-0.3,0.6-0.6l0,0c0-0.3-0.3-0.6-0.6-0.6l0,0c-0.3,0-0.6,0.3-0.6,0.6
						l0,0C226.7,316.3,227,316.6,227.3,316.6z"/>
					<path class="st2" d="M246,320.4L246,320.4c-0.3,0-0.6-0.3-0.6-0.6l0,0c0-0.3,0.3-0.6,0.6-0.6l0,0c0.3,0,0.6,0.3,0.6,0.6l0,0
						C246.6,320.1,246.3,320.4,246,320.4z"/>
					<path class="st2" d="M247.6,320.4L247.6,320.4c-0.3,0-0.6-0.3-0.6-0.6l0,0c0-0.3,0.3-0.6,0.6-0.6l0,0c0.3,0,0.6,0.3,0.6,0.6
						l0,0C248.2,320.1,247.9,320.4,247.6,320.4z"/>
					<path class="st2" d="M249.2,320.4L249.2,320.4c-0.3,0-0.6-0.3-0.6-0.6l0,0c0-0.3,0.3-0.6,0.6-0.6l0,0c0.3,0,0.6,0.3,0.6,0.6
						l0,0C249.8,320.1,249.5,320.4,249.2,320.4z"/>
					<path class="st2" d="M251,320.4L251,320.4c-0.3,0-0.6-0.3-0.6-0.6l0,0c0-0.3,0.3-0.6,0.6-0.6l0,0c0.3,0,0.6,0.3,0.6,0.6l0,0
						C251.6,320.1,251.3,320.4,251,320.4z"/>
					<path class="st2" d="M246.7,322.2L246.7,322.2c-0.3,0-0.6-0.3-0.6-0.6l0,0c0-0.3,0.3-0.6,0.6-0.6l0,0c0.3,0,0.6,0.3,0.6,0.6
						l0,0C247.3,321.9,247,322.2,246.7,322.2z"/>
					<path class="st2" d="M248.3,322.2L248.3,322.2c-0.3,0-0.6-0.3-0.6-0.6l0,0c0-0.3,0.3-0.6,0.6-0.6l0,0c0.3,0,0.6,0.3,0.6,0.6
						l0,0C248.9,321.9,248.7,322.2,248.3,322.2z"/>
					<path class="st2" d="M249.9,322.2L249.9,322.2c-0.3,0-0.6-0.3-0.6-0.6l0,0c0-0.3,0.3-0.6,0.6-0.6l0,0c0.3,0,0.6,0.3,0.6,0.6
						l0,0C250.6,321.9,250.3,322.2,249.9,322.2z"/>
					<path class="st2" d="M251.7,322.2L251.7,322.2c-0.3,0-0.6-0.3-0.6-0.6l0,0c0-0.3,0.3-0.6,0.6-0.6l0,0c0.3,0,0.6,0.3,0.6,0.6
						l0,0C252.3,321.9,252.1,322.2,251.7,322.2z"/>
					<path class="st2" d="M245.4,318.5L245.4,318.5c-0.3,0-0.6-0.3-0.6-0.6l0,0c0-0.3,0.3-0.6,0.6-0.6l0,0c0.3,0,0.6,0.3,0.6,0.6
						l0,0C246,318.2,245.7,318.5,245.4,318.5z"/>
					<path class="st2" d="M247,318.5L247,318.5c-0.3,0-0.6-0.3-0.6-0.6l0,0c0-0.3,0.3-0.6,0.6-0.6l0,0c0.3,0,0.6,0.3,0.6,0.6l0,0
						C247.6,318.2,247.3,318.5,247,318.5z"/>
					<path class="st2" d="M248.6,318.5L248.6,318.5c-0.3,0-0.6-0.3-0.6-0.6l0,0c0-0.3,0.3-0.6,0.6-0.6l0,0c0.3,0,0.6,0.3,0.6,0.6
						l0,0C249.2,318.2,248.9,318.5,248.6,318.5z"/>
					<path class="st2" d="M250.4,318.5L250.4,318.5c-0.3,0-0.6-0.3-0.6-0.6l0,0c0-0.3,0.3-0.6,0.6-0.6l0,0c0.3,0,0.6,0.3,0.6,0.6
						l0,0C251,318.2,250.7,318.5,250.4,318.5z"/>
					<path class="st2" d="M244.9,316.6L244.9,316.6c-0.3,0-0.6-0.3-0.6-0.6l0,0c0-0.3,0.3-0.6,0.6-0.6l0,0c0.3,0,0.6,0.3,0.6,0.6
						l0,0C245.5,316.3,245.2,316.6,244.9,316.6z"/>
					<path class="st2" d="M244.3,320.4L244.3,320.4c-0.3,0-0.6-0.3-0.6-0.6l0,0c0-0.3,0.3-0.6,0.6-0.6l0,0c0.3,0,0.6,0.3,0.6,0.6
						l0,0C244.9,320.2,244.7,320.4,244.3,320.4z"/>
					<path class="st2" d="M245.1,322.3L245.1,322.3c-0.3,0-0.6-0.3-0.6-0.6l0,0c0-0.3,0.3-0.6,0.6-0.6l0,0c0.3,0,0.6,0.3,0.6,0.6
						l0,0C245.7,322,245.4,322.3,245.1,322.3z"/>
					<path class="st2" d="M243.7,318.6L243.7,318.6c-0.3,0-0.6-0.3-0.6-0.6l0,0c0-0.3,0.3-0.6,0.6-0.6l0,0c0.3,0,0.6,0.3,0.6,0.6
						l0,0C244.3,318.3,244.1,318.6,243.7,318.6z"/>
					<path class="st2" d="M237.6,320.4L237.6,320.4c-0.3,0-0.6-0.3-0.6-0.6l0,0c0-0.3,0.3-0.6,0.6-0.6l0,0c0.3,0,0.6,0.3,0.6,0.6
						l0,0C238.2,320.1,237.9,320.4,237.6,320.4z"/>
					<path class="st2" d="M239.2,320.4L239.2,320.4c-0.3,0-0.6-0.3-0.6-0.6l0,0c0-0.3,0.3-0.6,0.6-0.6l0,0c0.3,0,0.6,0.3,0.6,0.6
						l0,0C239.8,320.1,239.5,320.4,239.2,320.4z"/>
					<path class="st2" d="M237.7,322.1L237.7,322.1c-0.3,0-0.6-0.3-0.6-0.6l0,0c0-0.3,0.3-0.6,0.6-0.6l0,0c0.3,0,0.6,0.3,0.6,0.6
						l0,0C238.3,321.9,238.1,322.1,237.7,322.1z"/>
					<path class="st2" d="M237.3,318.5L237.3,318.5c-0.3,0-0.6-0.3-0.6-0.6l0,0c0-0.3,0.3-0.6,0.6-0.6l0,0c0.3,0,0.6,0.3,0.6,0.6
						l0,0C237.9,318.2,237.6,318.5,237.3,318.5z"/>
					<path class="st2" d="M235.9,320.4L235.9,320.4c-0.3,0-0.6-0.3-0.6-0.6l0,0c0-0.3,0.3-0.6,0.6-0.6l0,0c0.3,0,0.6,0.3,0.6,0.6
						l0,0C236.5,320.2,236.3,320.4,235.9,320.4z"/>
					<path class="st2" d="M243.3,316.6L243.3,316.6c-0.3,0-0.6-0.3-0.6-0.6l0,0c0-0.3,0.3-0.6,0.6-0.6l0,0c0.3,0,0.6,0.3,0.6,0.6
						l0,0C243.9,316.4,243.6,316.6,243.3,316.6z"/>
					<path class="st2" d="M246.5,316.6L246.5,316.6c-0.3,0-0.6-0.3-0.6-0.6l0,0c0-0.3,0.3-0.6,0.6-0.6l0,0c0.3,0,0.6,0.3,0.6,0.6
						l0,0C247.1,316.3,246.9,316.6,246.5,316.6z"/>
					<path class="st2" d="M248.1,316.6L248.1,316.6c-0.3,0-0.6-0.3-0.6-0.6l0,0c0-0.3,0.3-0.6,0.6-0.6l0,0c0.3,0,0.6,0.3,0.6,0.6
						l0,0C248.7,316.3,248.5,316.6,248.1,316.6z"/>
					<path class="st2" d="M249.9,316.6L249.9,316.6c-0.3,0-0.6-0.3-0.6-0.6l0,0c0-0.3,0.3-0.6,0.6-0.6l0,0c0.3,0,0.6,0.3,0.6,0.6
						l0,0C250.5,316.3,250.3,316.6,249.9,316.6z"/>
					<path class="st2" d="M225.7,316.6L225.7,316.6c0.3,0,0.6-0.3,0.6-0.6l0,0c0-0.3-0.3-0.6-0.6-0.6l0,0c-0.3,0-0.6,0.3-0.6,0.6
						l0,0C225.1,316.3,225.4,316.6,225.7,316.6z"/>
					<path class="st2" d="M224.1,316.6L224.1,316.6c0.3,0,0.6-0.3,0.6-0.6l0,0c0-0.3-0.3-0.6-0.6-0.6l0,0c-0.3,0-0.6,0.3-0.6,0.6
						l0,0C223.5,316.3,223.7,316.6,224.1,316.6z"/>
					<path class="st2" d="M222.2,316.6L222.2,316.6c0.3,0,0.6-0.3,0.6-0.6l0,0c0-0.3-0.3-0.6-0.6-0.6l0,0c-0.3,0-0.6,0.3-0.6,0.6
						l0,0C221.6,316.3,221.9,316.6,222.2,316.6z"/>
					<path class="st2" d="M220.6,316.6L220.6,316.6c0.3,0,0.6-0.3,0.6-0.6l0,0c0-0.3-0.3-0.6-0.6-0.6l0,0c-0.3,0-0.6,0.3-0.6,0.6
						l0,0C220,316.3,220.3,316.6,220.6,316.6z"/>
					<path class="st2" d="M219,316.6L219,316.6c0.3,0,0.6-0.3,0.6-0.6l0,0c0-0.3-0.3-0.6-0.6-0.6l0,0c-0.3,0-0.6,0.3-0.6,0.6l0,0
						C218.4,316.3,218.6,316.6,219,316.6z"/>
					<path class="st2" d="M217.2,316.6L217.2,316.6c0.3,0,0.6-0.3,0.6-0.6l0,0c0-0.3-0.3-0.6-0.6-0.6l0,0c-0.3,0-0.6,0.3-0.6,0.6
						l0,0C216.6,316.3,216.9,316.6,217.2,316.6z"/>
					<path class="st2" d="M215.6,316.6L215.6,316.6c0.3,0,0.6-0.3,0.6-0.6l0,0c0-0.3-0.3-0.6-0.6-0.6l0,0c-0.3,0-0.6,0.3-0.6,0.6
						l0,0C215,316.3,215.2,316.6,215.6,316.6z"/>
					<path class="st2" d="M214,316.6L214,316.6c0.3,0,0.6-0.3,0.6-0.6l0,0c0-0.3-0.3-0.6-0.6-0.6l0,0c-0.3,0-0.6,0.3-0.6,0.6l0,0
						C213.3,316.3,213.6,316.6,214,316.6z"/>
					<path class="st2" d="M212.1,316.6L212.1,316.6c0.3,0,0.6-0.3,0.6-0.6l0,0c0-0.3-0.3-0.6-0.6-0.6l0,0c-0.3,0-0.6,0.3-0.6,0.6
						l0,0C211.5,316.3,211.8,316.6,212.1,316.6z"/>
					<path class="st2" d="M210.5,316.6L210.5,316.6c0.3,0,0.6-0.3,0.6-0.6l0,0c0-0.3-0.3-0.6-0.6-0.6l0,0c-0.3,0-0.6,0.3-0.6,0.6
						l0,0C209.9,316.3,210.1,316.6,210.5,316.6z"/>
					<path class="st2" d="M208.9,316.6L208.9,316.6c0.3,0,0.6-0.3,0.6-0.6l0,0c0-0.3-0.3-0.6-0.6-0.6l0,0c-0.3,0-0.6,0.3-0.6,0.6
						l0,0C208.3,316.3,208.5,316.6,208.9,316.6z"/>
					<path class="st2" d="M207.1,316.6L207.1,316.6c0.3,0,0.6-0.3,0.6-0.6l0,0c0-0.3-0.3-0.6-0.6-0.6l0,0c-0.3,0-0.6,0.3-0.6,0.6
						l0,0C206.5,316.3,206.7,316.6,207.1,316.6z"/>
					<path class="st2" d="M205.4,316.6L205.4,316.6c0.3,0,0.6-0.3,0.6-0.6l0,0c0-0.3-0.3-0.6-0.6-0.6l0,0c-0.3,0-0.6,0.3-0.6,0.6
						l0,0C204.8,316.3,205.1,316.6,205.4,316.6z"/>
					<path class="st2" d="M203.8,316.6L203.8,316.6c0.3,0,0.6-0.3,0.6-0.6l0,0c0-0.3-0.3-0.6-0.6-0.6l0,0c-0.3,0-0.6,0.3-0.6,0.6
						l0,0C203.2,316.3,203.5,316.6,203.8,316.6z"/>
					<path class="st2" d="M202,316.6L202,316.6c0.3,0,0.6-0.3,0.6-0.6l0,0c0-0.3-0.3-0.6-0.6-0.6l0,0c-0.3,0-0.6,0.3-0.6,0.6l0,0
						C201.4,316.3,201.6,316.6,202,316.6z"/>
				</g>
			</g>
			<g>
				<text transform="matrix(1 0 0 1 186.2983 48.7969)"><tspan x="0" y="0" class="st2 st18 st19">パンフレット、カタログ、チラシ</tspan><tspan x="0" y="14" class="st2 st18 st19">などを制作しています。最近では</tspan><tspan x="0" y="28" class="st2 st18 st19">紙面は見られる事が少なくなって</tspan><tspan x="0" y="42" class="st2 st18 st19">いますが、そういった時代だから</tspan><tspan x="0" y="56" class="st2 st18 st19">こそ紙で伝えれる事もあります</tspan><tspan x="112" y="56" class="st2 st18 st19 st21">。</tspan><tspan x="0" y="84" class="st2 st18 st19">手書きのメッセージカードではあ</tspan><tspan x="0" y="98" class="st2 st18 st19">りませんが、心に残る紙面を制作</tspan><tspan x="0" y="112" class="st2 st18 st19">する業務です</tspan><tspan x="48" y="112" class="st2 st18 st19 st21">。</tspan></text>
			</g>
		</g>
		<g id="marketing">
			<g>
				<text transform="matrix(1 0 0 1 25.6518 30.9761)"><tspan x="0" y="0" class="st2 st3 st4">「マーケティング</tspan><tspan x="96" y="0" class="st2 st3 st4 st5">」</tspan></text>
			</g>
			<g id="marketing_bldg">
				<path class="st32" d="M108,345.3H51.8V271c0-1.6,1.3-2.8,2.8-2.8h50.6c1.6,0,2.8,1.3,2.8,2.8V345.3z"/>
				<path class="st33" d="M106.7,231.3H52.2c-0.5,0-0.9,0.4-0.9,0.9v29.6c0,0.5,0.4,0.9,0.9,0.9h54.5c0.5,0,0.9-0.4,0.9-0.9v-29.6
					C107.5,231.7,107.2,231.3,106.7,231.3z"/>
				<path class="st34" d="M107.2,225.5H51.7c-0.2,0-0.4,0.2-0.4,0.4v5c0,0.2,0.2,0.4,0.4,0.4h55.5c0.2,0,0.4-0.2,0.4-0.4v-5
					C107.5,225.7,107.4,225.5,107.2,225.5z"/>
				<g>
					<path class="st35" d="M93.8,255.4H66c-0.6,0-1.1-0.5-1.1-1.1v-14.7c0-0.6,0.5-1.1,1.1-1.1h27.8c0.6,0,1.1,0.5,1.1,1.1v14.7
						C94.9,254.9,94.4,255.4,93.8,255.4z"/>
				</g>
				<rect x="56" y="262.6" class="st33" width="2.6" height="5.3"/>
				<rect x="100.5" y="262.6" class="st33" width="2.6" height="5.3"/>
				<g>
					<g>
						<path class="st2" d="M84.9,289.2h-9.9c-0.6,0-1.1-0.5-1.1-1.1v-13.4c0-0.6,0.5-1.1,1.1-1.1h9.9c0.6,0,1.1,0.5,1.1,1.1v13.4
							C85.9,288.7,85.4,289.2,84.9,289.2z"/>
						<path class="st2" d="M67.9,289.2H58c-0.6,0-1.1-0.5-1.1-1.1v-13.4c0-0.6,0.5-1.1,1.1-1.1h9.9c0.6,0,1.1,0.5,1.1,1.1v13.4
							C69,288.7,68.5,289.2,67.9,289.2z"/>
						<path class="st2" d="M101.8,289.2h-9.9c-0.6,0-1.1-0.5-1.1-1.1v-13.4c0-0.6,0.5-1.1,1.1-1.1h9.9c0.6,0,1.1,0.5,1.1,1.1v13.4
							C102.8,288.7,102.3,289.2,101.8,289.2z"/>
					</g>
					<g>
						<path class="st2" d="M84.9,308h-9.9c-0.6,0-1.1-0.5-1.1-1.1v-13.4c0-0.6,0.5-1.1,1.1-1.1h9.9c0.6,0,1.1,0.5,1.1,1.1V307
							C85.9,307.6,85.4,308,84.9,308z"/>
						<path class="st2" d="M67.9,308H58c-0.6,0-1.1-0.5-1.1-1.1v-13.4c0-0.6,0.5-1.1,1.1-1.1h9.9c0.6,0,1.1,0.5,1.1,1.1V307
							C69,307.6,68.5,308,67.9,308z"/>
						<path class="st2" d="M101.8,308h-9.9c-0.6,0-1.1-0.5-1.1-1.1v-13.4c0-0.6,0.5-1.1,1.1-1.1h9.9c0.6,0,1.1,0.5,1.1,1.1V307
							C102.8,307.6,102.3,308,101.8,308z"/>
					</g>
					<g>
						<path class="st2" d="M84.9,326.9h-9.9c-0.6,0-1.1-0.5-1.1-1.1v-13.4c0-0.6,0.5-1.1,1.1-1.1h9.9c0.6,0,1.1,0.5,1.1,1.1v13.4
							C85.9,326.4,85.4,326.9,84.9,326.9z"/>
						<path class="st2" d="M67.9,326.9H58c-0.6,0-1.1-0.5-1.1-1.1v-13.4c0-0.6,0.5-1.1,1.1-1.1h9.9c0.6,0,1.1,0.5,1.1,1.1v13.4
							C69,326.4,68.5,326.9,67.9,326.9z"/>
						<path class="st2" d="M101.8,326.9h-9.9c-0.6,0-1.1-0.5-1.1-1.1v-13.4c0-0.6,0.5-1.1,1.1-1.1h9.9c0.6,0,1.1,0.5,1.1,1.1v13.4
							C102.8,326.4,102.3,326.9,101.8,326.9z"/>
					</g>
				</g>
				<g>
					<defs>
						<path id="_x31__8_" d="M135.4,346.1H23.9c-7.2,0-13.1-5.9-13.1-13.1V21.4c0-7.2,5.9-13.1,13.1-13.1h111.5
							c7.2,0,13.1,5.9,13.1,13.1V333C148.5,340.3,142.7,346.1,135.4,346.1z"/>
					</defs>
					<clipPath id="_x31__1_">
						<use xlink:href="#_x31__8_"  style="overflow:visible;"/>
					</clipPath>
					<g class="st36">
						<g>
							<path class="st37" d="M168.2,346.3H118v-56.5c0-1.3,1-2.3,2.3-2.3h45.5c1.3,0,2.3,1,2.3,2.3V346.3z"/>
							<g>
								<g>
									<path class="st2" d="M147.6,303.5h-9c-0.5,0-0.9-0.4-0.9-0.9v-10.1c0-0.5,0.4-0.9,0.9-0.9h9c0.5,0,0.9,0.4,0.9,0.9v10.1
										C148.5,303.1,148.1,303.5,147.6,303.5z"/>
									<path class="st2" d="M132.5,303.5h-9c-0.5,0-0.9-0.4-0.9-0.9v-10.1c0-0.5,0.4-0.9,0.9-0.9h9c0.5,0,0.9,0.4,0.9,0.9v10.1
										C133.4,303.1,133,303.5,132.5,303.5z"/>
									<path class="st2" d="M162.7,303.5h-9c-0.5,0-0.9-0.4-0.9-0.9v-10.1c0-0.5,0.4-0.9,0.9-0.9h9c0.5,0,0.9,0.4,0.9,0.9v10.1
										C163.5,303.1,163.2,303.5,162.7,303.5z"/>
								</g>
								<g>
									<path class="st2" d="M147.6,317.8h-9c-0.5,0-0.9-0.4-0.9-0.9v-10.1c0-0.5,0.4-0.9,0.9-0.9h9c0.5,0,0.9,0.4,0.9,0.9V317
										C148.5,317.4,148.1,317.8,147.6,317.8z"/>
									<path class="st2" d="M132.5,317.8h-9c-0.5,0-0.9-0.4-0.9-0.9v-10.1c0-0.5,0.4-0.9,0.9-0.9h9c0.5,0,0.9,0.4,0.9,0.9V317
										C133.4,317.4,133,317.8,132.5,317.8z"/>
									<path class="st2" d="M162.7,317.8h-9c-0.5,0-0.9-0.4-0.9-0.9v-10.1c0-0.5,0.4-0.9,0.9-0.9h9c0.5,0,0.9,0.4,0.9,0.9V317
										C163.5,317.4,163.2,317.8,162.7,317.8z"/>
								</g>
								<g>
									<path class="st2" d="M147.6,332.2h-9c-0.5,0-0.9-0.4-0.9-0.9v-10.1c0-0.5,0.4-0.9,0.9-0.9h9c0.5,0,0.9,0.4,0.9,0.9v10.1
										C148.5,331.8,148.1,332.2,147.6,332.2z"/>
									<path class="st2" d="M132.5,332.2h-9c-0.5,0-0.9-0.4-0.9-0.9v-10.1c0-0.5,0.4-0.9,0.9-0.9h9c0.5,0,0.9,0.4,0.9,0.9v10.1
										C133.4,331.8,133,332.2,132.5,332.2z"/>
									<path class="st2" d="M162.7,332.2h-9c-0.5,0-0.9-0.4-0.9-0.9v-10.1c0-0.5,0.4-0.9,0.9-0.9h9c0.5,0,0.9,0.4,0.9,0.9v10.1
										C163.5,331.8,163.2,332.2,162.7,332.2z"/>
								</g>
							</g>
						</g>
						<g>
							<path class="st37" d="M41.3,346.3H-8.9v-56.5c0-1.3,1-2.3,2.3-2.3H39c1.3,0,2.3,1,2.3,2.3V346.3z"/>
							<g>
								<g>
									<path class="st2" d="M20.7,303.5h-9c-0.5,0-0.9-0.4-0.9-0.9v-10.1c0-0.5,0.4-0.9,0.9-0.9h9c0.5,0,0.9,0.4,0.9,0.9v10.1
										C21.6,303.1,21.2,303.5,20.7,303.5z"/>
									<path class="st2" d="M5.6,303.5h-9c-0.5,0-0.9-0.4-0.9-0.9v-10.1c0-0.5,0.4-0.9,0.9-0.9h9c0.5,0,0.9,0.4,0.9,0.9v10.1
										C6.5,303.1,6.1,303.5,5.6,303.5z"/>
									<path class="st2" d="M35.8,303.5h-9c-0.5,0-0.9-0.4-0.9-0.9v-10.1c0-0.5,0.4-0.9,0.9-0.9h9c0.5,0,0.9,0.4,0.9,0.9v10.1
										C36.7,303.1,36.3,303.5,35.8,303.5z"/>
								</g>
								<g>
									<path class="st2" d="M20.7,317.8h-9c-0.5,0-0.9-0.4-0.9-0.9v-10.1c0-0.5,0.4-0.9,0.9-0.9h9c0.5,0,0.9,0.4,0.9,0.9V317
										C21.6,317.4,21.2,317.8,20.7,317.8z"/>
									<path class="st2" d="M5.6,317.8h-9c-0.5,0-0.9-0.4-0.9-0.9v-10.1c0-0.5,0.4-0.9,0.9-0.9h9c0.5,0,0.9,0.4,0.9,0.9V317
										C6.5,317.4,6.1,317.8,5.6,317.8z"/>
									<path class="st2" d="M35.8,317.8h-9c-0.5,0-0.9-0.4-0.9-0.9v-10.1c0-0.5,0.4-0.9,0.9-0.9h9c0.5,0,0.9,0.4,0.9,0.9V317
										C36.7,317.4,36.3,317.8,35.8,317.8z"/>
								</g>
								<g>
									<path class="st2" d="M20.7,332.2h-9c-0.5,0-0.9-0.4-0.9-0.9v-10.1c0-0.5,0.4-0.9,0.9-0.9h9c0.5,0,0.9,0.4,0.9,0.9v10.1
										C21.6,331.8,21.2,332.2,20.7,332.2z"/>
									<path class="st2" d="M5.6,332.2h-9c-0.5,0-0.9-0.4-0.9-0.9v-10.1c0-0.5,0.4-0.9,0.9-0.9h9c0.5,0,0.9,0.4,0.9,0.9v10.1
										C6.5,331.8,6.1,332.2,5.6,332.2z"/>
									<path class="st2" d="M35.8,332.2h-9c-0.5,0-0.9-0.4-0.9-0.9v-10.1c0-0.5,0.4-0.9,0.9-0.9h9c0.5,0,0.9,0.4,0.9,0.9v10.1
										C36.7,331.8,36.3,332.2,35.8,332.2z"/>
								</g>
							</g>
						</g>
					</g>
				</g>
				<path id="_x31__9_" class="st38" d="M135.4,346.1H23.9c-7.2,0-13.1-5.9-13.1-13.1V21.4c0-7.2,5.9-13.1,13.1-13.1h111.5
					c7.2,0,13.1,5.9,13.1,13.1V333C148.5,340.3,142.7,346.1,135.4,346.1z"/>
			</g>
			<g id="marketing2" class="st6">
				<g class="st8">
					<path class="st39" d="M53.8,181.8H7.5v-74.6c0-1.4,1.1-2.6,2.6-2.6h41.2c1.4,0,2.6,1.1,2.6,2.6V181.8z"/>
					<g>
						<g>
							<path class="st2" d="M34.7,125.6h-8c-0.5,0-1-0.4-1-1v-13.6c0-0.5,0.4-1,1-1h8c0.5,0,1,0.4,1,1v13.6
								C35.6,125.2,35.2,125.6,34.7,125.6z"/>
							<path class="st2" d="M20.7,125.6h-8c-0.5,0-1-0.4-1-1v-13.6c0-0.5,0.4-1,1-1h8c0.5,0,1,0.4,1,1v13.6
								C21.7,125.2,21.3,125.6,20.7,125.6z"/>
							<path class="st2" d="M48.6,125.6h-8c-0.5,0-1-0.4-1-1v-13.6c0-0.5,0.4-1,1-1h8c0.5,0,1,0.4,1,1v13.6
								C49.6,125.2,49.1,125.6,48.6,125.6z"/>
						</g>
						<g>
							<path class="st2" d="M34.7,144.5h-8c-0.5,0-1-0.4-1-1V130c0-0.5,0.4-1,1-1h8c0.5,0,1,0.4,1,1v13.6
								C35.6,144,35.2,144.5,34.7,144.5z"/>
							<path class="st2" d="M20.7,144.5h-8c-0.5,0-1-0.4-1-1V130c0-0.5,0.4-1,1-1h8c0.5,0,1,0.4,1,1v13.6
								C21.7,144,21.3,144.5,20.7,144.5z"/>
							<path class="st2" d="M48.6,144.5h-8c-0.5,0-1-0.4-1-1V130c0-0.5,0.4-1,1-1h8c0.5,0,1,0.4,1,1v13.6
								C49.6,144,49.1,144.5,48.6,144.5z"/>
						</g>
						<g>
							<path class="st2" d="M34.7,163.3h-8c-0.5,0-1-0.4-1-1v-13.6c0-0.5,0.4-1,1-1h8c0.5,0,1,0.4,1,1v13.6
								C35.6,162.9,35.2,163.3,34.7,163.3z"/>
							<path class="st2" d="M20.7,163.3h-8c-0.5,0-1-0.4-1-1v-13.6c0-0.5,0.4-1,1-1h8c0.5,0,1,0.4,1,1v13.6
								C21.7,162.9,21.3,163.3,20.7,163.3z"/>
							<path class="st2" d="M48.6,163.3h-8c-0.5,0-1-0.4-1-1v-13.6c0-0.5,0.4-1,1-1h8c0.5,0,1,0.4,1,1v13.6
								C49.6,162.9,49.1,163.3,48.6,163.3z"/>
						</g>
					</g>
				</g>
				<g class="st8">
					<path class="st39" d="M103.2,181.8H56.9v-74.6c0-1.4,1.1-2.6,2.6-2.6h41.2c1.4,0,2.6,1.1,2.6,2.6V181.8z"/>
					<g>
						<g>
							<path class="st2" d="M84.1,125.6h-8c-0.5,0-1-0.4-1-1v-13.6c0-0.5,0.4-1,1-1h8c0.5,0,1,0.4,1,1v13.6
								C85,125.2,84.6,125.6,84.1,125.6z"/>
							<path class="st2" d="M70.1,125.6h-8c-0.5,0-1-0.4-1-1v-13.6c0-0.5,0.4-1,1-1h8c0.5,0,1,0.4,1,1v13.6
								C71.1,125.2,70.7,125.6,70.1,125.6z"/>
							<path class="st2" d="M98,125.6h-8c-0.5,0-1-0.4-1-1v-13.6c0-0.5,0.4-1,1-1h8c0.5,0,1,0.4,1,1v13.6
								C99,125.2,98.5,125.6,98,125.6z"/>
						</g>
						<g>
							<path class="st2" d="M84.1,144.5h-8c-0.5,0-1-0.4-1-1V130c0-0.5,0.4-1,1-1h8c0.5,0,1,0.4,1,1v13.6
								C85,144,84.6,144.5,84.1,144.5z"/>
							<path class="st2" d="M70.1,144.5h-8c-0.5,0-1-0.4-1-1V130c0-0.5,0.4-1,1-1h8c0.5,0,1,0.4,1,1v13.6
								C71.1,144,70.7,144.5,70.1,144.5z"/>
							<path class="st2" d="M98,144.5h-8c-0.5,0-1-0.4-1-1V130c0-0.5,0.4-1,1-1h8c0.5,0,1,0.4,1,1v13.6C99,144,98.5,144.5,98,144.5z
								"/>
						</g>
						<g>
							<path class="st2" d="M84.1,163.3h-8c-0.5,0-1-0.4-1-1v-13.6c0-0.5,0.4-1,1-1h8c0.5,0,1,0.4,1,1v13.6
								C85,162.9,84.6,163.3,84.1,163.3z"/>
							<path class="st2" d="M70.1,163.3h-8c-0.5,0-1-0.4-1-1v-13.6c0-0.5,0.4-1,1-1h8c0.5,0,1,0.4,1,1v13.6
								C71.1,162.9,70.7,163.3,70.1,163.3z"/>
							<path class="st2" d="M98,163.3h-8c-0.5,0-1-0.4-1-1v-13.6c0-0.5,0.4-1,1-1h8c0.5,0,1,0.4,1,1v13.6
								C99,162.9,98.5,163.3,98,163.3z"/>
						</g>
					</g>
				</g>
				<g class="st8">
					<path class="st33" d="M84.5,67.7H30c-0.5,0-0.9,0.4-0.9,0.9v29.6c0,0.5,0.4,0.9,0.9,0.9h54.5c0.5,0,0.9-0.4,0.9-0.9V68.6
						C85.4,68.1,85,67.7,84.5,67.7z"/>
					<path class="st34" d="M85,62H29.5c-0.2,0-0.4,0.2-0.4,0.4v5c0,0.2,0.2,0.4,0.4,0.4H85c0.2,0,0.4-0.2,0.4-0.4v-5
						C85.4,62.1,85.2,62,85,62z"/>
					<g>
						<g>
							<text transform="matrix(1 0 0 1 45.1362 88.3091)" class="st2 st40 st4">広告</text>
						</g>
						<path class="st41" d="M71.6,92H42.7c-0.6,0-1.1-0.5-1.1-1.1V75.6c0-0.6,0.5-1.1,1.1-1.1h28.8c0.6,0,1.1,0.5,1.1,1.1v15.3
							C72.7,91.5,72.2,92,71.6,92z"/>
					</g>
					<polyline class="st33" points="33.8,104.3 33.8,99.1 36.4,99.1 36.4,104.3 					"/>
					<polyline class="st33" points="78.4,104.3 78.4,99.1 81,99.1 81,104.3 					"/>
				</g>
			</g>
			<g id="marketing3" class="st6">
				<g id="like_2_" class="st8">
					<path class="st42" d="M65.4,248.9l1.9,0.1c0,0,2.5-5.8,2.6-7.3c0,0,2.1-0.4,2,2.3c0,2.7-0.7,4.7-0.7,4.7l6.6-0.4
						c0,0,2.4,0.3,2.4,1.8c0,1.3-1.4,1.8-1.4,1.8s-0.1,3.1-0.3,3.6c-0.2,0.4-1.2,2-1,2.6c0.2,0.6-0.6,1.5-4.4,1.8
						c-3.8,0.3-7.7-0.2-7.7-0.2S65.7,250.6,65.4,248.9z"/>
					<path class="st43" d="M65.4,249C65.4,248.9,65.4,248.9,65.4,249l0.1-1.1l-4.7,0.3c-0.3,0-0.5,0.3-0.5,0.6l0.6,10.4
						c0,0.3,0.3,0.5,0.6,0.5l3.4-0.1c0.3,0,0.6-0.3,0.6-0.6L65.4,249z"/>
					<circle class="st44" cx="62.9" cy="250" r="0.9"/>
				</g>
				<g id="like_5_" class="st8">
					<path class="st45" d="M92.7,251.9l-1.6,0.1c0,0-2.2-4.9-2.2-6.3c0,0-1.8-0.3-1.7,2s0.6,4.1,0.6,4.1l-5.6-0.3
						c0,0-2.1,0.2-2.1,1.6c0,1.1,1.2,1.5,1.2,1.5s0.1,2.7,0.3,3.1c0.2,0.4,1.1,1.7,0.9,2.2c-0.2,0.5,0.5,1.2,3.7,1.5
						c3.3,0.3,6.6-0.2,6.6-0.2S92.5,253.3,92.7,251.9z"/>
					<path class="st46" d="M92.7,251.9C92.7,251.9,92.7,251.9,92.7,251.9l-0.1-0.9l4,0.3c0.3,0,0.5,0.3,0.5,0.5l-0.5,8.9
						c0,0.3-0.2,0.5-0.5,0.5l-2.9-0.1c-0.3,0-0.5-0.2-0.5-0.5L92.7,251.9z"/>
					<circle class="st47" cx="94.8" cy="252.8" r="0.8"/>
				</g>
			</g>
			<g>
				<text transform="matrix(1 0 0 1 20.2983 48.7969)"><tspan x="0" y="0" class="st2 st18 st19">お客様に最適</tspan><tspan x="48" y="0" class="st2 st18 st19 st20">な</tspan><tspan x="58" y="0" class="st2 st18 st19">WE</tspan><tspan x="69.6" y="0" class="st2 st18 st19 st20">B</tspan><tspan x="76.2" y="0" class="st2 st18 st19">運用を実行</tspan><tspan x="0" y="14" class="st2 st18 st19">しています。アクセス解析、SEO</tspan><tspan x="0" y="28" class="st2 st18 st19">順位測定レポート、改善レポート</tspan><tspan x="120" y="28" class="st2 st18 st19 st21">、</tspan><tspan x="0" y="42" class="st2 st18 st19">広告運用などでサイトの目的達成</tspan><tspan x="0" y="56" class="st2 st18 st19">をサポートする業務です</tspan><tspan x="88" y="56" class="st2 st18 st19 st21">。</tspan><tspan x="0" y="84" class="st2 st18 st19">ペルソナ設定やカスタマージャー</tspan><tspan x="0" y="98" class="st2 st18 st19">にマップを制作し、お客様の目的</tspan><tspan x="0" y="112" class="st2 st18 st19">達成の為のプロセスを企画してい</tspan><tspan x="0" y="126" class="st2 st18 st19">ます</tspan><tspan x="16" y="126" class="st2 st18 st19 st21">。</tspan></text>
			</g>
		</g>
	</g>
</g>
</svg>
